<svg width="100%" height="100%" viewBox="0 0 24 24" fill="inherit" xmlns="http://www.w3.org/2000/svg">
<g id="Api" clip-path="url(#clip0_8_12126)">
<path id="Vector" d="M13.4898 7.61047L11.4898 16.6105C11.4398 16.8405 11.2298 17.0005 10.9998 17.0005C10.9598 17.0005 10.9298 17.0005 10.8898 16.9905C10.6198 16.9305 10.4498 16.6605 10.5098 16.3905L12.5098 7.39047C12.5698 7.12047 12.8398 6.95047 13.1098 7.01047C13.3798 7.07047 13.5498 7.34047 13.4898 7.61047ZM8.91977 9.92047C9.11977 9.72047 9.11977 9.41047 8.91977 9.21047C8.71977 9.01047 8.40977 9.01047 8.20977 9.21047L6.42977 10.9905C5.84977 11.5705 5.84977 12.5105 6.42977 13.0905L8.15977 14.8205C8.25977 14.9205 8.38977 14.9705 8.50977 14.9705C8.62977 14.9705 8.76977 14.9205 8.85977 14.8205C9.05977 14.6205 9.05977 14.3105 8.85977 14.1105L7.12977 12.3805C6.93977 12.1905 6.93977 11.8805 7.12977 11.6905L8.90977 9.91047L8.91977 9.92047ZM15.7898 9.21047C15.5898 9.01047 15.2798 9.01047 15.0798 9.21047C14.8798 9.41047 14.8798 9.72047 15.0798 9.92047L16.8598 11.7005C17.0498 11.8905 17.0498 12.2005 16.8598 12.3905L15.1298 14.1205C14.9298 14.3205 14.9298 14.6305 15.1298 14.8305C15.2298 14.9305 15.3598 14.9805 15.4798 14.9805C15.5998 14.9805 15.7398 14.9305 15.8298 14.8305L17.5598 13.1005C18.1398 12.5205 18.1398 11.5805 17.5598 11.0005L15.7798 9.22047L15.7898 9.21047ZM22.2398 18.2705C21.8198 18.9505 21.1598 19.4305 20.3798 19.6205C19.5998 19.8105 18.7998 19.6805 18.1098 19.2605L17.6698 18.9905C16.8698 19.6405 15.9698 20.1405 14.9998 20.4905V21.0005C14.9998 22.6505 13.6498 24.0005 11.9998 24.0005C10.3498 24.0005 8.99977 22.6505 8.99977 21.0005V20.4905C8.02977 20.1505 7.12977 19.6505 6.32977 18.9905L5.88977 19.2605C5.20977 19.6805 4.39977 19.8105 3.61977 19.6205C2.83977 19.4305 2.17977 18.9505 1.75977 18.2705C0.899769 16.8605 1.33977 15.0105 2.74977 14.1405L3.18977 13.8705C3.05977 13.2605 2.98977 12.6305 2.98977 11.9905C2.98977 11.3505 3.05977 10.7305 3.18977 10.1105L2.74977 9.84047C1.33977 8.98047 0.899769 7.13047 1.75977 5.71047C2.17977 5.03047 2.83977 4.55047 3.61977 4.36047C4.39977 4.17047 5.19977 4.30047 5.88977 4.72047L6.32977 4.99047C7.12977 4.34047 8.02977 3.84047 8.99977 3.49047V2.98047C8.99977 1.33047 10.3498 -0.0195312 11.9998 -0.0195312C13.6498 -0.0195312 14.9998 1.33047 14.9998 2.98047V3.49047C15.9698 3.83047 16.8698 4.33047 17.6698 4.99047L18.1098 4.72047C18.7898 4.30047 19.5998 4.18047 20.3798 4.36047C21.1598 4.55047 21.8198 5.03047 22.2398 5.71047C23.0998 7.12047 22.6598 8.97047 21.2498 9.84047L20.8098 10.1105C20.9398 10.7205 21.0098 11.3505 21.0098 11.9905C21.0098 12.6305 20.9398 13.2505 20.8098 13.8705L21.2498 14.1405C22.6598 15.0005 23.0998 16.8505 22.2398 18.2705ZM20.7298 15.0005L19.9798 14.5405C19.7898 14.4305 19.6998 14.2005 19.7598 13.9905C19.9298 13.3405 20.0098 12.6705 20.0098 12.0005C20.0098 11.3305 19.9298 10.6605 19.7598 10.0105C19.7098 9.80047 19.7998 9.57047 19.9798 9.46047L20.7298 9.00047C21.6698 8.42047 21.9698 7.19047 21.3898 6.25047C20.8098 5.31047 19.5798 5.01047 18.6398 5.59047L17.8898 6.05047C17.6998 6.16047 17.4598 6.14047 17.2998 6.00047C16.4398 5.24047 15.4498 4.69047 14.3598 4.35047C14.1498 4.29047 14.0098 4.09047 14.0098 3.87047V3.00047C14.0098 1.90047 13.1098 1.00047 12.0098 1.00047C10.9098 1.00047 10.0098 1.90047 10.0098 3.00047V3.87047C10.0098 4.09047 9.86977 4.28047 9.65977 4.35047C8.56977 4.68047 7.57977 5.24047 6.71977 6.00047C6.55977 6.15047 6.31977 6.17047 6.12977 6.05047L5.37977 5.59047C4.43977 5.01047 3.20977 5.31047 2.62977 6.25047C2.04977 7.19047 2.34977 8.42047 3.28977 9.00047L4.03977 9.46047C4.22977 9.57047 4.31977 9.80047 4.25977 10.0105C4.08977 10.6605 4.00977 11.3305 4.00977 12.0005C4.00977 12.6705 4.08977 13.3405 4.25977 13.9905C4.30977 14.2005 4.21977 14.4305 4.03977 14.5405L3.28977 15.0005C2.34977 15.5805 2.04977 16.8105 2.62977 17.7505C3.20977 18.6905 4.43977 18.9905 5.37977 18.4105L6.12977 17.9505C6.20977 17.9005 6.29977 17.8805 6.38977 17.8805C6.50977 17.8805 6.62977 17.9205 6.71977 18.0005C7.57977 18.7605 8.56977 19.3105 9.65977 19.6505C9.86977 19.7105 10.0098 19.9105 10.0098 20.1305V21.0005C10.0098 22.1005 10.9098 23.0005 12.0098 23.0005C13.1098 23.0005 14.0098 22.1005 14.0098 21.0005V20.1305C14.0098 19.9105 14.1498 19.7205 14.3598 19.6505C15.4498 19.3205 16.4398 18.7605 17.2998 18.0005C17.4698 17.8505 17.7098 17.8305 17.8898 17.9505L18.6398 18.4105C19.5798 18.9905 20.8098 18.6905 21.3898 17.7505C21.9698 16.8105 21.6698 15.5805 20.7298 15.0005Z" fill="inherit"/>
</g>
<defs>
<clipPath id="clip0_8_12126">
<rect width="24" height="24" fill="inherit"/>
</clipPath>
</defs>
</svg>
