<svg width="100%" height="100%" viewBox="0 0 24 24" fill="inherit" xmlns="http://www.w3.org/2000/svg">
<g id="Arbitrage" clip-path="url(#clip0_8_12122)">
<path id="Vector" d="M23.8399 16.87L21.2499 19.28C20.7899 19.74 20.1599 20 19.4899 20C18.8199 20 18.1899 19.74 17.7199 19.27L15.1499 16.87C14.9499 16.68 14.9399 16.37 15.1299 16.16C15.3199 15.96 15.6299 15.95 15.8399 16.14L18.4299 18.55C18.5999 18.72 18.7899 18.83 18.9999 18.91V8.5C18.9999 6.57 17.4299 5 15.4999 5H9.49989C9.21989 5 8.99989 4.78 8.99989 4.5C8.99989 4.22 9.21989 4 9.49989 4H15.4999C17.9799 4 19.9999 6.02 19.9999 8.5V18.91C20.2099 18.84 20.3999 18.72 20.5599 18.56L23.1599 16.13C23.3599 15.94 23.6799 15.95 23.8699 16.15C24.0599 16.35 24.0499 16.67 23.8499 16.86L23.8399 16.87ZM14.4999 19H8.49989C6.56989 19 4.99988 17.43 4.99988 15.5V5.1C5.20988 5.17 5.40988 5.29 5.56988 5.46L8.15989 7.87C8.25989 7.96 8.37989 8 8.49989 8C8.62989 8 8.76989 7.95 8.86989 7.84C9.05989 7.64 9.04989 7.32 8.84989 7.13L6.27989 4.73C5.33988 3.78 3.67988 3.8 2.75988 4.72L0.159884 7.13C-0.0401158 7.32 -0.0501158 7.63 0.139884 7.84C0.329884 8.04 0.639884 8.05 0.849884 7.86L3.44988 5.43C3.60988 5.27 3.79988 5.15 4.00988 5.08V15.5C4.00988 17.98 6.02989 20 8.50989 20H14.5099C14.7899 20 15.0099 19.78 15.0099 19.5C15.0099 19.22 14.7899 19 14.5099 19H14.4999Z" fill="inherit"/>
</g>
<defs>
<clipPath id="clip0_8_12122">
<rect width="24" height="24" fill="inherit"/>
</clipPath>
</defs>
</svg>
