<svg width="257" height="242" viewBox="0 0 257 242" fill="none" xmlns="http://www.w3.org/2000/svg">
<g clip-path="url(#clip0_523_31568)">
<path d="M174.61 219.47C174.3 214.43 175.22 208.28 174.07 202.2C171.97 191.02 167.01 181.52 157.64 174.66C157.1 174.27 156.16 174.03 156.38 173.23C156.64 172.29 157.68 172.52 158.42 172.42C168.88 171.11 179.02 168.67 188.48 163.86C216.44 149.67 223.69 116.7 204.15 92.2103C202.29 89.8903 201.78 87.9103 202.53 84.9803C204.6 76.9103 205.87 68.7103 204.27 60.3703C202.93 53.3703 201.44 52.3803 194.44 53.4503C185.28 54.8403 177.65 59.1303 171.26 65.6803C169.64 67.3303 168.29 67.6303 166.09 66.9603C148.4 61.6403 130.65 61.5803 112.96 66.9603C110.61 67.6703 109.19 67.2103 107.55 65.5103C100.71 58.4303 92.3302 54.3503 82.5702 53.0903C78.3202 52.5403 76.9502 53.2903 75.5202 57.4803C73.2502 64.1503 73.3402 71.0903 75.0602 77.6702C77.0002 85.1002 75.8102 90.6803 71.4102 97.3903C55.9502 120.92 64.3602 150.22 89.2902 163.32C98.9702 168.41 109.36 170.98 120.11 172.42C120.95 172.54 122.15 172.19 122.51 173.15C122.93 174.27 121.58 174.47 120.94 174.94C115.36 179.03 111.41 184.39 108.63 190.61C107.76 192.55 106.62 193.46 104.46 193.69C98.8502 194.27 93.2502 194.74 87.6102 194.59C82.0802 194.46 77.7602 192.15 74.4702 187.72C72.0602 184.46 69.4402 181.36 66.1802 178.88C63.8002 177.07 61.2702 175.52 58.3802 174.71C56.9402 174.31 55.2602 174.1 54.3702 175.66C53.3902 177.35 55.0002 178.18 56.0202 178.98C60.1202 182.19 62.8602 186.34 64.7102 191.13C65.9602 194.35 67.0902 197.62 68.3502 200.84C71.6702 209.37 78.2202 213.4 87.0902 213.89C91.8202 214.15 96.5802 214.04 101.32 213.95C103.64 213.9 104.45 214.83 104.4 217.11C104.29 222.84 104.36 228.57 104.38 234.31C104.38 235.3 104.37 236.3 104.49 237.27C105.03 241.5 105 241.62 100.83 240.25C51.7802 224.18 21.8502 191 13.9902 139.91C8.2102 102.41 19.3502 69.1103 44.9002 40.9703C64.0002 19.9503 87.9202 7.49025 115.93 3.00025C181.11 -7.44975 243.83 38.0003 254.62 102.92C264.13 160.14 232.51 214.75 180.3 236.08C176.52 237.63 174.63 236.41 174.64 232.42V219.5L174.62 219.46L174.61 219.47Z" fill="#263238"/>
<path d="M162.61 218.47C162.3 213.43 163.22 207.28 162.07 201.2C159.97 190.02 155.01 180.52 145.64 173.66C145.1 173.27 144.16 173.03 144.38 172.23C144.64 171.29 145.68 171.52 146.42 171.42C156.88 170.11 167.02 167.67 176.48 162.86C204.44 148.67 211.69 115.7 192.15 91.2103C190.29 88.8903 189.78 86.9103 190.53 83.9803C192.6 75.9103 193.87 67.7103 192.27 59.3703C190.93 52.3703 189.44 51.3803 182.44 52.4503C173.28 53.8403 165.65 58.1303 159.26 64.6803C157.64 66.3303 156.29 66.6303 154.09 65.9603C136.4 60.6403 118.65 60.5803 100.96 65.9603C98.6099 66.6703 97.1899 66.2103 95.5499 64.5103C88.7099 57.4303 80.3299 53.3503 70.5699 52.0903C66.3199 51.5403 64.9499 52.2903 63.5199 56.4803C61.2499 63.1503 61.3399 70.0903 63.0599 76.6702C64.9999 84.1002 63.8099 89.6803 59.4099 96.3903C43.9499 119.92 52.3599 149.22 77.2899 162.32C86.9699 167.41 97.3599 169.98 108.11 171.42C108.95 171.54 110.15 171.19 110.51 172.15C110.93 173.27 109.58 173.47 108.94 173.94C103.36 178.03 99.4199 183.39 96.6299 189.61C95.7599 191.55 94.6199 192.46 92.4599 192.69C86.8499 193.27 81.2499 193.74 75.6099 193.59C70.0799 193.46 65.7599 191.15 62.4699 186.72C60.0599 183.46 57.4399 180.36 54.1799 177.88C51.7999 176.07 49.2699 174.52 46.3799 173.71C44.9399 173.31 43.2599 173.1 42.3699 174.66C41.3899 176.35 42.9999 177.18 44.0199 177.98C48.1199 181.19 50.8599 185.34 52.7099 190.13C53.9599 193.35 55.0899 196.62 56.3499 199.84C59.6699 208.37 66.2199 212.4 75.0899 212.89C79.8199 213.15 84.5799 213.04 89.3199 212.95C91.6399 212.9 92.4499 213.83 92.3999 216.11C92.2899 221.84 92.3599 227.57 92.3799 233.31C92.3799 234.3 92.3699 235.3 92.4899 236.27C93.0299 240.5 92.9999 240.62 88.8299 239.25C39.7799 223.2 9.84995 190.02 1.98995 138.93C-3.79005 101.43 7.35995 68.1303 32.8999 39.9903C51.9999 18.9503 75.9199 6.49025 103.93 2.00025C169.11 -8.44975 231.83 37.0003 242.62 101.92C252.13 159.14 220.51 213.75 168.3 235.08C164.52 236.63 162.63 235.41 162.64 231.42V218.5L162.62 218.46L162.61 218.47Z" fill="#F18608" stroke="#263238"/>
</g>
<defs>
<clipPath id="clip0_523_31568">
<rect width="256.3" height="241.04" fill="white"/>
</clipPath>
</defs>
</svg>
