<svg width="100%" height="100%" viewBox="0 0 320 258" fill="none" xmlns="http://www.w3.org/2000/svg">
<g clip-path="url(#clip0_203_21168)">
<g clip-path="url(#clip1_203_21168)">
<path d="M136.694 175.982C136.694 175.982 129.365 167.072 135.631 149.231C141.892 131.378 140.682 120.859 138.931 115.742C137.18 110.625 145.612 114.408 146.677 123.087C147.741 131.765 145.133 143.592 145.133 143.592C145.133 143.592 153.183 135.121 155.829 127.562C155.829 127.562 159.676 127.667 159.429 132.515C159.183 137.362 152.6 150.079 152.6 150.079C152.6 150.079 156.572 147.768 160.801 143.463C165.042 139.154 167.437 136.429 167.319 140.28C167.213 144.126 166.798 147.112 163.138 151.706C159.473 156.287 157.498 158.868 157.498 158.868C157.498 158.868 169.281 154.367 171.407 153.64C173.532 152.912 176.982 156.012 173.025 159.74C169.068 163.468 161.121 166.671 161.121 166.671C161.121 166.671 175.359 166.562 171.963 169.146C168.568 171.73 141.426 177.22 136.719 175.973L136.694 175.982Z" fill="white" stroke="#263238" stroke-linecap="round" stroke-linejoin="round"/>
<path d="M151.55 213.169C151.55 213.169 145.519 223.01 154.199 239.818C162.879 256.625 163.12 267.22 162.09 272.521C161.06 277.821 168.896 272.922 168.746 264.172C168.6 255.435 164.371 244.072 164.371 244.072C164.371 244.072 173.511 251.338 177.176 258.473C177.176 258.473 180.965 257.83 180.047 253.068C179.129 248.307 170.851 236.622 170.851 236.622C170.851 236.622 175.098 238.354 179.896 242.03C184.694 245.706 187.435 248.066 186.793 244.276C186.15 240.487 185.34 237.579 181.071 233.538C176.806 229.509 174.503 227.226 174.503 227.226C174.503 227.226 186.791 230.059 188.998 230.484C191.205 230.909 194.185 227.358 189.752 224.212C185.32 221.065 177.008 219.004 177.008 219.004C177.008 219.004 191.117 217.147 187.4 215.05C183.682 212.952 156.037 211.279 151.55 213.169Z" fill="white" stroke="#263238" stroke-linecap="round" stroke-linejoin="round"/>
<path d="M151.551 213.17C155.456 211.535 176.787 212.582 184.781 214.254L149.574 220.898C149.896 215.897 151.546 213.157 151.546 213.157L151.551 213.17Z" fill="#263238" stroke="#263238" stroke-miterlimit="10"/>
<path d="M80.2347 168.016L82.972 211.212C82.972 211.212 150.509 232.691 228.097 193.659L209.095 152.46C209.095 152.46 179.358 169.772 148.171 173.747C116.988 177.734 80.2347 168.016 80.2347 168.016Z" fill="#01EA83" stroke="#263238" stroke-miterlimit="10"/>
<path d="M99.321 203.685C98.7069 201.89 96.7035 200.855 94.2994 200.81L94.6409 181.073C95.6066 181.069 96.6433 180.899 97.687 180.542C99.6345 179.876 101.157 178.715 102.006 177.458C112.336 179.141 131.985 181.546 149.869 179.294C169.186 176.864 188.329 169.105 196.668 165.385C197.499 166.195 199.644 166.272 202.004 165.564L212.322 188.778C211.774 188.922 211.205 189.088 210.632 189.284C206.241 190.787 203.134 193.343 203.696 194.985C203.857 195.456 204.323 195.78 204.968 196C153.91 215.66 111.595 210.177 98.455 207.678C99.3895 206.419 99.7652 204.983 99.321 203.685ZM154.783 198.641C163.215 197.519 169.682 193.813 169.225 190.358C168.768 186.903 161.555 185.02 153.123 186.142C144.691 187.264 138.224 190.97 138.681 194.425C139.138 197.88 146.351 199.763 154.783 198.641Z" fill="white" stroke="#263238" stroke-miterlimit="10"/>
</g>
<g clip-path="url(#clip2_203_21168)">
<path d="M244.567 74.1576C244.567 74.1576 237.238 65.248 243.504 47.4073C249.765 29.5538 248.555 19.0343 246.804 13.9177C245.053 8.80111 253.486 12.5841 254.55 21.2627C255.614 29.9412 253.006 41.7673 253.006 41.7673C253.006 41.7673 261.056 33.2971 263.702 25.7377C263.702 25.7377 267.549 25.8432 267.302 30.6907C267.056 35.5381 260.473 48.2551 260.473 48.2551C260.473 48.2551 264.445 45.9433 268.674 41.6385C272.915 37.3294 275.31 34.6047 275.192 38.4557C275.086 42.3023 274.672 45.2877 271.011 49.8816C267.346 54.4626 265.371 57.0436 265.371 57.0436C265.371 57.0436 277.154 52.5426 279.28 51.8153C281.405 51.088 284.855 54.1874 280.898 57.9157C276.941 61.644 268.994 64.8467 268.994 64.8467C268.994 64.8467 283.232 64.7378 279.836 67.3216C276.441 69.9053 249.299 75.3962 244.592 74.1489L244.567 74.1576Z" fill="white" stroke="#263238" stroke-linecap="round" stroke-linejoin="round"/>
<path d="M259.423 111.345C259.423 111.345 253.392 121.186 262.072 137.993C270.752 154.801 270.994 165.396 269.963 170.696C268.933 175.997 276.769 171.097 276.619 162.348C276.473 153.611 272.244 142.248 272.244 142.248C272.244 142.248 281.384 149.513 285.049 156.648C285.049 156.648 288.838 156.006 287.92 151.244C287.002 146.482 278.724 134.798 278.724 134.798C278.724 134.798 282.971 136.53 287.769 140.206C292.567 143.881 295.309 146.242 294.666 142.452C294.023 138.663 293.213 135.755 288.944 131.713C284.679 127.685 282.376 125.401 282.376 125.401C282.376 125.401 294.664 128.235 296.871 128.66C299.078 129.085 302.058 125.534 297.625 122.387C293.193 119.24 284.881 117.179 284.881 117.179C284.881 117.179 298.99 115.323 295.273 113.226C291.555 111.128 263.91 109.455 259.423 111.345Z" fill="white" stroke="#263238" stroke-linecap="round" stroke-linejoin="round"/>
<path d="M259.424 111.345C263.329 109.711 284.66 110.758 292.654 112.43L257.447 119.074C257.769 114.073 259.419 111.333 259.419 111.333L259.424 111.345Z" fill="#263238" stroke="#263238" stroke-miterlimit="10"/>
<path d="M188.108 66.1917L190.845 109.388C190.845 109.388 258.382 130.867 335.97 91.8349L316.968 50.6354C316.968 50.6354 287.231 67.948 256.044 71.9225C224.861 75.9097 188.108 66.1917 188.108 66.1917Z" fill="#01EA83" stroke="#263238" stroke-miterlimit="10"/>
<path d="M207.194 101.86C206.58 100.066 204.577 99.0308 202.172 98.9861L202.514 79.2483C203.48 79.2449 204.516 79.075 205.56 78.7179C207.508 78.0515 209.03 76.8908 209.879 75.6333C220.209 77.3167 239.858 79.7215 257.742 77.4693C277.059 75.0398 296.202 67.2812 304.541 63.5606C305.372 64.3708 307.517 64.4474 309.877 63.7394L320.195 86.9533C319.647 87.098 319.078 87.2642 318.505 87.4602C314.114 88.9628 311.007 91.5187 311.569 93.1606C311.73 93.6315 312.197 93.9554 312.841 94.1758C261.783 113.836 219.468 108.352 206.328 105.853C207.263 104.595 207.638 103.159 207.194 101.86ZM262.656 96.8165C271.088 95.6945 277.555 91.9888 277.098 88.5338C276.641 85.0787 269.428 83.1962 260.996 84.3182C252.564 85.4403 246.097 89.146 246.554 92.601C247.011 96.056 254.224 97.9386 262.656 96.8165Z" fill="white" stroke="#263238" stroke-miterlimit="10"/>
</g>
<g clip-path="url(#clip3_203_21168)">
<path d="M293.567 227.158C293.567 227.158 286.238 218.248 292.504 200.407C298.765 182.554 297.555 172.034 295.804 166.918C294.053 161.801 302.486 165.584 303.55 174.263C304.614 182.941 302.006 194.767 302.006 194.767C302.006 194.767 310.056 186.297 312.702 178.738C312.702 178.738 316.549 178.843 316.302 183.691C316.056 188.538 309.473 201.255 309.473 201.255C309.473 201.255 313.445 198.943 317.674 194.639C321.915 190.329 324.31 187.605 324.192 191.456C324.086 195.302 323.672 198.288 320.011 202.882C316.346 207.463 314.371 210.044 314.371 210.044C314.371 210.044 326.154 205.543 328.28 204.815C330.405 204.088 333.855 207.187 329.898 210.916C325.941 214.644 317.994 217.847 317.994 217.847C317.994 217.847 332.232 217.738 328.836 220.322C325.441 222.905 298.299 228.396 293.592 227.149L293.567 227.158Z" fill="white" stroke="#263238" stroke-linecap="round" stroke-linejoin="round"/>
<path d="M308.423 264.345C308.423 264.345 302.392 274.186 311.072 290.993C319.752 307.801 319.994 318.396 318.963 323.696C317.933 328.997 325.769 324.097 325.619 315.348C325.473 306.611 321.244 295.248 321.244 295.248C321.244 295.248 330.384 302.513 334.049 309.648C334.049 309.648 337.838 309.006 336.92 304.244C336.002 299.482 327.724 287.798 327.724 287.798C327.724 287.798 331.971 289.53 336.769 293.206C341.567 296.881 344.309 299.242 343.666 295.452C343.023 291.663 342.213 288.755 337.944 284.713C333.679 280.685 331.376 278.401 331.376 278.401C331.376 278.401 343.664 281.235 345.871 281.66C348.078 282.085 351.058 278.534 346.625 275.387C342.193 272.24 333.881 270.179 333.881 270.179C333.881 270.179 347.99 268.323 344.273 266.226C340.555 264.128 312.91 262.455 308.423 264.345Z" fill="white" stroke="#263238" stroke-linecap="round" stroke-linejoin="round"/>
<path d="M308.424 264.345C312.329 262.711 333.66 263.758 341.654 265.43L306.447 272.074C306.769 267.073 308.419 264.333 308.419 264.333L308.424 264.345Z" fill="#263238" stroke="#263238" stroke-miterlimit="10"/>
<path d="M237.108 219.192L239.845 262.388C239.845 262.388 307.382 283.867 384.97 244.835L365.968 203.635C365.968 203.635 336.231 220.948 305.044 224.922C273.861 228.91 237.108 219.192 237.108 219.192Z" fill="#01EA83" stroke="#263238" stroke-miterlimit="10"/>
<path d="M256.194 254.86C255.58 253.066 253.577 252.031 251.172 251.986L251.514 232.248C252.48 232.245 253.516 232.075 254.56 231.718C256.508 231.051 258.03 229.891 258.879 228.633C269.209 230.317 288.858 232.722 306.742 230.469C326.059 228.04 345.202 220.281 353.541 216.561C354.372 217.371 356.517 217.447 358.877 216.739L369.195 239.953C368.647 240.098 368.078 240.264 367.505 240.46C363.114 241.963 360.007 244.519 360.569 246.161C360.73 246.632 361.197 246.955 361.841 247.176C310.783 266.836 268.468 261.352 255.328 258.853C256.263 257.595 256.638 256.159 256.194 254.86ZM311.656 249.817C320.088 248.694 326.555 244.989 326.098 241.534C325.641 238.079 318.428 236.196 309.996 237.318C301.564 238.44 295.097 242.146 295.554 245.601C296.011 249.056 303.224 250.939 311.656 249.817Z" fill="white" stroke="#263238" stroke-miterlimit="10"/>
</g>
</g>
<defs>
<clipPath id="clip0_203_21168">
<rect width="320" height="258" fill="white"/>
</clipPath>
<clipPath id="clip1_203_21168">
<rect width="144.499" height="161.63" fill="white" transform="matrix(-0.946145 0.323743 0.323743 0.946145 194.719 93.8242)"/>
</clipPath>
<clipPath id="clip2_203_21168">
<rect width="144.499" height="161.63" fill="white" transform="matrix(-0.946145 0.323743 0.323743 0.946145 302.592 -8)"/>
</clipPath>
<clipPath id="clip3_203_21168">
<rect width="144.499" height="161.63" fill="white" transform="matrix(-0.946145 0.323743 0.323743 0.946145 351.592 145)"/>
</clipPath>
</defs>
</svg>
