<svg xmlns="http://www.w3.org/2000/svg" width="101" height="101" viewBox="0 0 101 101" fill="none">
  <path d="M34.2016 39H11.5272C11.3874 39 11.2533 39.0555 11.1545 39.1545C11.0555 39.2533 11 39.3874 11 39.5273V62.2017C11 62.3416 11.0555 62.4757 11.1545 62.5745C11.2533 62.6735 11.3874 62.729 11.5272 62.729H34.2016C34.3416 62.729 34.4757 62.6735 34.5745 62.5745C34.6735 62.4757 34.729 62.3416 34.729 62.2017V39.5273C34.729 39.3874 34.6735 39.2533 34.5745 39.1545C34.4757 39.0555 34.3416 39 34.2016 39ZM26.8193 54.292C26.8193 54.4319 26.7638 54.566 26.6648 54.6649C26.566 54.7638 26.4319 54.8194 26.292 54.8194H19.4369C19.2971 54.8194 19.163 54.7638 19.064 54.6649C18.9652 54.566 18.9097 54.4319 18.9097 54.292V47.4369C18.9097 47.2971 18.9652 47.163 19.064 47.0641C19.163 46.9652 19.2971 46.9097 19.4369 46.9097H26.292C26.4319 46.9097 26.566 46.9652 26.6648 47.0641C26.7638 47.163 26.8193 47.2971 26.8193 47.4369V54.292Z" fill="white"/>
  <path d="M81.6724 46.9102H74.8174C74.5262 46.9102 74.29 47.1462 74.29 47.4374V54.2925C74.29 54.5837 74.5262 54.8198 74.8174 54.8198H81.6724C81.9636 54.8198 82.1997 54.5837 82.1997 54.2925V47.4374C82.1997 47.1462 81.9636 46.9102 81.6724 46.9102Z" fill="white"/>
  <path d="M73.7593 39.001H66.9043C66.6131 39.001 66.377 39.237 66.377 39.5283V46.3833C66.377 46.6745 66.6131 46.9107 66.9043 46.9107H73.7593C74.0506 46.9107 74.2866 46.6745 74.2866 46.3833V39.5283C74.2866 39.237 74.0506 39.001 73.7593 39.001Z" fill="white"/>
  <path d="M89.5787 39.001H82.7236C82.4324 39.001 82.1963 39.237 82.1963 39.5283V46.3833C82.1963 46.6745 82.4324 46.9107 82.7236 46.9107H89.5787C89.87 46.9107 90.106 46.6745 90.106 46.3833V39.5283C90.106 39.237 89.87 39.001 89.5787 39.001Z" fill="white"/>
  <path d="M73.7593 54.8193H66.9043C66.6131 54.8193 66.377 55.0554 66.377 55.3466V62.2017C66.377 62.4929 66.6131 62.729 66.9043 62.729H73.7593C74.0506 62.729 74.2866 62.4929 74.2866 62.2017V55.3466C74.2866 55.0554 74.0506 54.8193 73.7593 54.8193Z" fill="white"/>
  <path d="M89.5787 54.8193H82.7236C82.4324 54.8193 82.1963 55.0554 82.1963 55.3466V62.2017C82.1963 62.4929 82.4324 62.729 82.7236 62.729H89.5787C89.87 62.729 90.106 62.4929 90.106 62.2017V55.3466C90.106 55.0554 89.87 54.8193 89.5787 54.8193Z" fill="white"/>
  <path d="M61.8853 39.001H55.0303C54.7391 39.001 54.5029 39.237 54.5029 39.5283V46.3833C54.5029 46.6745 54.7391 46.9107 55.0303 46.9107H61.8853C62.1765 46.9107 62.4126 46.6745 62.4126 46.3833V39.5283C62.4126 39.237 62.1765 39.001 61.8853 39.001Z" fill="white"/>
  <path d="M61.8853 54.8193H55.0303C54.7391 54.8193 54.5029 55.0554 54.5029 55.3466V62.2017C54.5029 62.4929 54.7391 62.729 55.0303 62.729H61.8853C62.1765 62.729 62.4126 62.4929 62.4126 62.2017V55.3466C62.4126 55.0554 62.1765 54.8193 61.8853 54.8193Z" fill="white"/>
  <path d="M54.503 47.431C54.503 47.2912 54.4474 47.157 54.3485 47.0582C54.2496 46.9593 54.1155 46.9038 53.9756 46.9038H46.5933V39.5273C46.5933 39.3874 46.5377 39.2533 46.4388 39.1545C46.3399 39.0555 46.2058 39 46.0659 39H39.2109C39.071 39 38.9369 39.0555 38.838 39.1545C38.7391 39.2533 38.6836 39.3874 38.6836 39.5273V62.1899C38.6836 62.3297 38.7391 62.4638 38.838 62.5626C38.9369 62.6616 39.071 62.7171 39.2109 62.7171H46.0659C46.2058 62.7171 46.3399 62.6616 46.4388 62.5626C46.5377 62.4638 46.5933 62.3297 46.5933 62.1899V54.8134H53.9756C54.1155 54.8134 54.2496 54.7578 54.3485 54.659C54.4474 54.56 54.503 54.4259 54.503 54.2861V47.431Z" fill="white"/>
</svg>