<svg width="100%" height="100%" viewBox="0 0 320 258" fill="none" xmlns="http://www.w3.org/2000/svg">
<g clip-path="url(#clip0_204_2782)">
<path d="M242.747 241.655L288.029 215.636V163.586L242.747 189.617V241.655Z" fill="#282A25"/>
<path d="M242.686 189.579L197.404 163.56L242.686 137.541L287.98 163.56L242.686 189.579Z" fill="#FF73DF"/>
<path d="M242.687 190.195L196.326 163.549L242.687 136.902L289.047 163.549L242.687 190.183V190.195ZM198.484 163.549L242.687 188.952L286.89 163.549L242.675 138.145L198.471 163.549H198.484Z" fill="#282A25"/>
<path d="M197.553 215.524L242.835 241.543V189.506L197.553 163.475V215.524Z" fill="white"/>
<path d="M243.379 242.473L197.019 215.827V162.547L243.379 189.193V242.473ZM198.097 215.212L242.313 240.616V189.808L198.097 164.405V215.212Z" fill="#282A25"/>
<path d="M299.077 273.276L344.359 247.257V195.207L299.077 221.238V273.276Z" fill="#282A25"/>
<path d="M299.016 221.2L253.734 195.181L299.016 169.162L344.31 195.181L299.016 221.2Z" fill="#FF73DF"/>
<path d="M299.017 221.816L252.656 195.17L299.017 168.523L345.377 195.17L299.017 221.804V221.816ZM254.814 195.17L299.017 220.573L343.22 195.17L299.005 169.766L254.802 195.17H254.814Z" fill="#282A25"/>
<path d="M253.883 247.146L299.165 273.164V221.127L253.883 195.096V247.146Z" fill="white"/>
<path d="M299.709 274.094L253.349 247.448V194.168L299.709 220.814V274.094ZM254.427 246.833L298.643 272.237V221.429L254.427 196.026V246.833Z" fill="#282A25"/>
<path d="M356.828 253.653L311.546 227.634L356.828 201.615L402.122 227.634L356.828 253.653Z" fill="#FF73DF"/>
<path d="M356.828 254.269L310.468 227.623L356.828 200.977L403.189 227.623L356.828 254.257V254.269ZM312.625 227.623L356.828 253.026L401.032 227.623L356.816 202.219L312.613 227.623H312.625Z" fill="#282A25"/>
<path d="M311.694 279.599L356.976 305.618V253.58L311.694 227.549V279.599Z" fill="white"/>
<path d="M357.521 306.547L311.16 279.901V226.621L357.521 253.267V306.547ZM312.239 279.286L356.454 304.69V253.882L312.239 228.479V279.286Z" fill="#282A25"/>
<path d="M242.747 177.723L288.029 151.704V99.6543L242.747 125.685V177.723Z" fill="#282A25"/>
<path d="M242.686 125.649L197.404 99.6302L242.686 73.6113L287.98 99.6302L242.686 125.649Z" fill="#FF73DF"/>
<path d="M242.687 126.265L196.326 99.6188L242.687 72.9727L289.047 99.6188L242.687 126.253V126.265ZM198.484 99.6188L242.687 125.023L286.89 99.6188L242.675 74.2151L198.471 99.6188H198.484Z" fill="#282A25"/>
<path d="M197.553 151.593L242.835 177.612V125.574L197.553 99.543V151.593Z" fill="white"/>
<path d="M243.379 178.542L197.019 151.895V98.6152L243.379 125.261V178.542ZM198.097 151.28L242.313 176.684V125.877L198.097 100.473V151.28Z" fill="#282A25"/>
<path d="M299.077 209.344L344.359 183.325V131.275L299.077 157.306V209.344Z" fill="#282A25"/>
<path d="M299.016 157.27L253.734 131.251L299.016 105.232L344.31 131.251L299.016 157.27Z" fill="#FF73DF"/>
<path d="M299.017 157.886L252.656 131.24L299.017 104.594L345.377 131.24L299.017 157.874V157.886ZM254.814 131.24L299.017 156.644L343.22 131.24L299.005 105.836L254.802 131.24H254.814Z" fill="#282A25"/>
<path d="M253.883 183.214L299.165 209.233V157.195L253.883 131.164V183.214Z" fill="white"/>
<path d="M299.709 210.163L253.349 183.517V130.236L299.709 156.882V210.163ZM254.427 182.901L298.643 208.305V157.498L254.427 132.094V182.901Z" fill="#282A25"/>
<path d="M356.828 189.723L311.546 163.704L356.828 137.686L402.122 163.704L356.828 189.723Z" fill="#FF73DF"/>
<path d="M356.828 190.339L310.468 163.693L356.828 137.047L403.189 163.693L356.828 190.327V190.339ZM312.625 163.693L356.828 189.097L401.032 163.693L356.816 138.289L312.613 163.693H312.625Z" fill="#282A25"/>
<path d="M311.694 215.667L356.976 241.686V189.648L311.694 163.617V215.667Z" fill="white"/>
<path d="M357.521 242.616L311.16 215.97V162.689L357.521 189.336V242.616ZM312.239 215.355L356.454 240.758V189.951L312.239 164.547V215.355Z" fill="#282A25"/>
<path d="M242.747 112.752L288.029 86.7335V34.6836L242.747 60.7146V112.752Z" fill="#282A25"/>
<path d="M242.686 60.6765L197.404 34.6576L242.686 8.63867L287.98 34.6576L242.686 60.6765Z" fill="#FF73DF"/>
<path d="M242.687 61.2923L196.326 34.6462L242.687 8L289.047 34.6462L242.687 61.2802V61.2923ZM198.484 34.6462L242.687 60.0499L286.89 34.6462L242.675 9.24244L198.471 34.6462H198.484Z" fill="#282A25"/>
<path d="M197.553 86.6221L242.835 112.641V60.6032L197.553 34.5723V86.6221Z" fill="white"/>
<path d="M243.379 113.571L197.019 86.9248V33.6445L243.379 60.2907V113.571ZM198.097 86.3096L242.313 111.713V60.9059L198.097 35.5022V86.3096Z" fill="#282A25"/>
<path d="M299.077 144.373L344.359 118.355V66.3047L299.077 92.3357V144.373Z" fill="#282A25"/>
<path d="M299.016 92.2976L253.734 66.2787L299.016 40.2598L344.31 66.2787L299.016 92.2976Z" fill="#FF73DF"/>
<path d="M299.017 92.9134L252.656 66.2673L299.017 39.6211L345.377 66.2673L299.017 92.9013V92.9134ZM254.814 66.2673L299.017 91.671L343.22 66.2673L299.005 40.8635L254.802 66.2673H254.814Z" fill="#282A25"/>
<path d="M253.883 118.243L299.165 144.262V92.2243L253.883 66.1934V118.243Z" fill="white"/>
<path d="M299.709 145.192L253.349 118.546V65.2656L299.709 91.9118V145.192ZM254.427 117.931L298.643 143.334V92.527L254.427 67.1233V117.931Z" fill="#282A25"/>
<path d="M356.828 124.755L311.546 98.7357L356.828 72.7168L402.122 98.7357L356.828 124.755Z" fill="#FF73DF"/>
<path d="M356.828 125.37L310.468 98.7243L356.828 72.0781L403.189 98.7243L356.828 125.358V125.37ZM312.625 98.7243L356.828 124.128L401.032 98.7243L356.816 73.3206L312.613 98.7243H312.625Z" fill="#282A25"/>
<path d="M311.694 150.7L356.976 176.719V124.681L311.694 98.6504V150.7Z" fill="white"/>
<path d="M357.521 177.649L311.16 151.003V97.7227L357.521 124.369V177.649ZM312.239 150.388L356.454 175.791V124.984L312.239 99.5803V150.388Z" fill="#282A25"/>
<path d="M185.794 271.99L231.088 245.971V193.934L185.794 219.953V271.99Z" fill="#282A25"/>
<path d="M185.733 219.927L140.451 193.896L185.733 167.877L231.027 193.896L185.733 219.927Z" fill="#FF73DF"/>
<path d="M185.734 220.542L139.373 193.896L185.734 167.25L232.094 193.896L185.734 220.542ZM141.518 193.896L185.734 219.3L229.937 193.896L185.722 168.492L141.518 193.896Z" fill="#282A25"/>
<path d="M140.597 245.86L185.879 271.879V219.841L140.597 193.822V245.86Z" fill="white"/>
<path d="M186.424 272.821L140.063 246.187V192.906L186.424 219.54V272.821ZM141.142 245.559L185.357 270.963V220.156L141.142 194.752V245.559Z" fill="#282A25"/>
<path d="M242.124 303.611L287.418 277.592V225.555L242.124 251.574V303.611Z" fill="#282A25"/>
<path d="M242.063 251.548L196.781 225.517L242.063 199.498L287.357 225.517L242.063 251.548Z" fill="#FF73DF"/>
<path d="M242.064 252.163L195.703 225.517L242.064 198.871L288.424 225.517L242.064 252.163ZM197.848 225.517L242.064 250.921L286.267 225.517L242.052 200.114L197.848 225.517Z" fill="#282A25"/>
<path d="M196.927 277.481L242.209 303.5V251.462L196.927 225.443V277.481Z" fill="white"/>
<path d="M242.754 304.442L196.394 277.808V224.527L242.754 251.161V304.442ZM197.472 277.18L241.688 302.584V251.777L197.472 226.373V277.18Z" fill="#282A25"/>
<path d="M299.875 284.005L254.593 257.974L299.875 231.955L345.169 257.974L299.875 284.005Z" fill="#FF73DF"/>
<path d="M299.875 284.62L253.515 257.974L299.875 231.328L346.236 257.974L299.875 284.62ZM255.66 257.974L299.875 283.378L344.078 257.974L299.863 232.571L255.66 257.974Z" fill="#282A25"/>
<path d="M254.738 309.938L300.02 335.957V283.919L254.738 257.9V309.938Z" fill="white"/>
<path d="M300.566 336.899L254.205 310.265V256.984L300.566 283.618V336.899ZM255.284 309.637L299.499 335.041V284.234L255.284 258.83V309.637Z" fill="#282A25"/>
<path d="M185.794 207.264L231.088 181.245V129.195L185.794 155.226V207.264Z" fill="#282A25"/>
<path d="M185.733 155.188L140.451 129.169L185.733 103.15L231.027 129.169L185.733 155.188Z" fill="#FF73DF"/>
<path d="M185.734 155.804L139.373 129.158L185.734 102.523L232.094 129.17L185.734 155.804ZM141.518 129.158L185.734 154.561L229.937 129.158L185.722 103.754L141.518 129.158Z" fill="#282A25"/>
<path d="M140.598 181.134L185.88 207.153V155.115L140.598 129.084V181.134Z" fill="white"/>
<path d="M186.424 208.083L140.063 181.436V128.156L186.424 154.802V208.083ZM141.142 180.821L185.357 206.225V155.418L141.142 130.014V180.821Z" fill="#282A25"/>
<path d="M242.124 238.885L287.418 212.866V160.816L242.124 186.847V238.885Z" fill="#282A25"/>
<path d="M242.063 186.809L196.781 160.79L242.063 134.771L287.357 160.79L242.063 186.809Z" fill="#FF73DF"/>
<path d="M242.064 187.425L195.703 160.779L242.064 134.145L288.424 160.791L242.064 187.425ZM197.848 160.779L242.064 186.182L286.267 160.779L242.052 135.375L197.848 160.779Z" fill="#282A25"/>
<path d="M196.928 212.755L242.21 238.774V186.736L196.928 160.705V212.755Z" fill="white"/>
<path d="M242.754 239.704L196.394 213.058V159.777L242.754 186.423V239.704ZM197.472 212.442L241.688 237.846V187.039L197.472 161.635V212.442Z" fill="#282A25"/>
<path d="M299.936 271.342L345.23 245.323V193.273L299.936 219.304V271.342Z" fill="#282A25"/>
<path d="M299.875 219.266L254.593 193.247L299.875 167.229L345.169 193.247L299.875 219.266Z" fill="#FF73DF"/>
<path d="M299.875 219.882L253.515 193.236L299.875 166.602L346.236 193.248L299.875 219.882ZM255.66 193.236L299.875 218.639L344.078 193.236L299.863 167.832L255.66 193.236Z" fill="#282A25"/>
<path d="M254.739 245.212L300.021 271.231V219.193L254.739 193.162V245.212Z" fill="white"/>
<path d="M300.566 272.161L254.205 245.515V192.234L300.566 218.881V272.161ZM255.284 244.899L299.499 270.303V219.496L255.284 194.092V244.899Z" fill="#282A25"/>
<path d="M185.794 142.899L231.088 116.868V64.8301L185.794 90.849V142.899Z" fill="#282A25"/>
<path d="M185.733 90.8253L140.451 64.8064L185.733 38.7754L231.027 64.8064L185.733 90.8253Z" fill="#FF73DF"/>
<path d="M185.734 91.4404L139.373 64.7943L185.734 38.1602L232.094 64.8063L185.734 91.4404ZM141.53 64.7943L185.746 90.198L229.949 64.7943L185.734 39.4026L141.53 64.7943Z" fill="#282A25"/>
<path d="M140.598 116.759L185.88 142.789V90.7396L140.598 64.7207V116.759Z" fill="white"/>
<path d="M186.424 143.719L140.063 117.073V63.793L186.424 90.4391V143.719ZM141.142 116.458L185.357 141.862V91.0543L141.13 65.6506V116.458H141.142Z" fill="#282A25"/>
<path d="M242.124 174.52L287.418 148.489V96.4512L242.124 122.47V174.52Z" fill="#282A25"/>
<path d="M242.063 122.446L196.781 96.4275L242.063 70.3965L287.357 96.4275L242.063 122.446Z" fill="#FF73DF"/>
<path d="M242.064 123.062L195.703 96.4153L242.064 69.7812L288.424 96.4274L242.064 123.062ZM197.861 96.4153L242.076 121.819L286.279 96.4153L242.064 71.0237L197.861 96.4153Z" fill="#282A25"/>
<path d="M196.928 148.38L242.21 174.411V122.361L196.928 96.3418V148.38Z" fill="white"/>
<path d="M242.754 175.34L196.394 148.694V95.4141L242.754 122.06V175.34ZM197.472 148.079L241.688 173.483V122.675L197.46 97.2717V148.079H197.472Z" fill="#282A25"/>
<path d="M299.936 206.973L345.23 180.942V128.904L299.936 154.923V206.973Z" fill="#282A25"/>
<path d="M299.875 154.899L254.593 128.881L299.875 102.85L345.169 128.881L299.875 154.899Z" fill="#FF73DF"/>
<path d="M299.875 155.515L253.515 128.868L299.875 102.234L346.236 128.881L299.875 155.515ZM255.672 128.868L299.887 154.272L344.091 128.868L299.875 103.477L255.672 128.868Z" fill="#282A25"/>
<path d="M254.739 180.833L300.021 206.864V154.814L254.739 128.795V180.833Z" fill="white"/>
<path d="M300.566 207.794L254.205 181.147V127.867L300.566 154.513V207.794ZM255.284 180.532L299.499 205.936V155.129L255.272 129.725V180.532H255.284Z" fill="#282A25"/>
<path d="M129.421 305.731L174.703 279.712V227.662L129.421 253.681V305.731Z" fill="#282A25"/>
<path d="M129.36 253.657L84.0781 227.638L129.36 201.619L174.654 227.638L129.36 253.657Z" fill="#FF73DF"/>
<path d="M129.361 254.272L83 227.638L129.361 201.004L175.721 227.65L129.361 254.284V254.272ZM85.1574 227.638L129.373 253.042L173.576 227.638L129.361 202.234L85.1574 227.638Z" fill="#282A25"/>
<path d="M84.2236 279.603L129.506 305.622V253.584L84.2236 227.553V279.603Z" fill="white"/>
<path d="M130.05 306.551L83.6777 279.917V226.637L130.038 253.283V306.563L130.05 306.551ZM84.7565 279.29L128.972 304.693V253.886L84.7565 228.482V279.29Z" fill="#282A25"/>
<path d="M185.69 285.274L140.408 259.255L185.69 233.236L230.984 259.255L185.69 285.274Z" fill="#FF73DF"/>
<path d="M185.691 285.889L139.33 259.255L185.691 232.621L232.051 259.267L185.691 285.901V285.889ZM141.488 259.255L185.703 284.659L229.906 259.255L185.691 233.851L141.488 259.255Z" fill="#282A25"/>
<path d="M129.421 239.735L174.703 213.716V161.666L129.421 187.685V239.735Z" fill="#282A25"/>
<path d="M129.36 187.661L84.0781 161.642L129.36 135.623L174.654 161.642L129.36 187.661Z" fill="#FF73DF"/>
<path d="M129.361 188.276L83 161.642L129.361 135.008L175.721 161.654L129.361 188.288V188.276ZM85.1574 161.642L129.373 187.046L173.576 161.642L129.361 136.238L85.1574 161.642Z" fill="#282A25"/>
<path d="M84.2236 213.607L129.506 239.625V187.588L84.2236 161.557V213.607Z" fill="white"/>
<path d="M130.05 240.555L83.6777 213.921V160.641L130.038 187.287V240.567L130.05 240.555ZM84.7565 213.294L128.972 238.697V187.89L84.7565 162.486V213.294Z" fill="#282A25"/>
<path d="M185.751 271.356L231.033 245.337V193.287L185.751 219.306V271.356Z" fill="#282A25"/>
<path d="M185.69 219.282L140.408 193.263L185.69 167.244L230.984 193.263L185.69 219.282Z" fill="#FF73DF"/>
<path d="M185.691 219.897L139.33 193.263L185.691 166.629L232.051 193.275L185.691 219.909V219.897ZM141.488 193.263L185.703 218.667L229.906 193.263L185.691 167.859L141.488 193.263Z" fill="#282A25"/>
<path d="M140.554 245.228L185.836 271.247V219.209L140.554 193.178V245.228Z" fill="white"/>
<path d="M186.381 272.176L140.008 245.542V192.262L186.368 218.908V272.188L186.381 272.176ZM141.087 244.915L185.302 270.318V219.511L141.087 194.107V244.915Z" fill="#282A25"/>
<path d="M243.562 303.813L288.844 277.794V225.744L243.562 251.763V303.813Z" fill="#282A25"/>
<path d="M243.502 251.739L198.22 225.72L243.502 199.701L288.796 225.72L243.502 251.739Z" fill="#FF73DF"/>
<path d="M243.502 252.354L197.142 225.72L243.502 199.086L289.863 225.732L243.502 252.366V252.354ZM199.299 225.72L243.514 251.124L287.717 225.72L243.502 200.316L199.299 225.72Z" fill="#282A25"/>
<path d="M198.365 277.685L243.647 303.704V251.666L198.365 225.635V277.685Z" fill="white"/>
<path d="M244.192 304.633L197.819 277.999V224.719L244.18 251.365V304.645L244.192 304.633ZM198.898 277.372L243.113 302.775V251.968L198.898 226.564V277.372Z" fill="#282A25"/>
<path d="M129.421 174.245L174.703 148.226V96.1758L129.421 122.195V174.245Z" fill="#282A25"/>
<path d="M129.36 122.173L84.0781 96.1537L129.36 70.1348L174.654 96.1537L129.36 122.173Z" fill="#FF73DF"/>
<path d="M129.361 122.788L83 96.1536L129.361 69.5195L175.721 96.1657L129.361 122.8V122.788ZM85.1574 96.1536L129.373 121.557L173.576 96.1536L129.361 70.7499L85.1574 96.1536Z" fill="#282A25"/>
<path d="M84.2236 148.118L129.506 174.137V122.099L84.2236 96.0684V148.118Z" fill="white"/>
<path d="M130.05 175.067L83.6777 148.433V95.1523L130.038 121.798V175.079L130.05 175.067ZM84.7565 147.805L128.972 173.209V122.402L84.7565 96.9979V147.805Z" fill="#282A25"/>
<path d="M185.751 205.866L231.033 179.847V127.797L185.751 153.816V205.866Z" fill="#282A25"/>
<path d="M185.69 153.794L140.408 127.775L185.69 101.756L230.984 127.775L185.69 153.794Z" fill="#FF73DF"/>
<path d="M185.691 154.409L139.33 127.775L185.691 101.141L232.051 127.787L185.691 154.421V154.409ZM141.488 127.775L185.703 153.178L229.906 127.775L185.691 102.371L141.488 127.775Z" fill="#282A25"/>
<path d="M140.554 179.739L185.836 205.758V153.72L140.554 127.689V179.739Z" fill="white"/>
<path d="M186.381 206.688L140.008 180.054V126.773L186.368 153.42V206.7L186.381 206.688ZM141.087 179.426L185.302 204.83V154.023L141.087 128.619V179.426Z" fill="#282A25"/>
<path d="M243.562 238.323L288.844 212.304V160.254L243.562 186.273V238.323Z" fill="#282A25"/>
<path d="M243.502 186.251L198.22 160.232L243.502 134.213L288.796 160.232L243.502 186.251Z" fill="#FF73DF"/>
<path d="M243.502 186.866L197.142 160.232L243.502 133.598L289.863 160.244L243.502 186.878V186.866ZM199.299 160.232L243.514 185.635L287.717 160.232L243.502 134.828L199.299 160.232Z" fill="#282A25"/>
<path d="M198.365 212.196L243.647 238.215V186.177L198.365 160.146V212.196Z" fill="white"/>
<path d="M244.192 239.145L197.819 212.511V159.23L244.18 185.877V239.157L244.192 239.145ZM198.898 211.883L243.113 237.287V186.48L198.898 161.076V211.883Z" fill="#282A25"/>
</g>
<defs>
<clipPath id="clip0_204_2782">
<rect width="320" height="258" fill="white"/>
</clipPath>
</defs>
</svg>
