<svg xmlns="http://www.w3.org/2000/svg" width="101" height="101" viewBox="0 0 101 101" fill="none">
  <path fill-rule="evenodd" clip-rule="evenodd" d="M52.6063 23.7029L71.4438 34.668C73.1307 35.652 74.1147 37.4795 74.2553 39.4476V61.2372C74.2553 63.3458 73.1307 65.1733 71.4438 66.1574L62.5873 71.3588C62.3062 71.4994 61.8845 71.4994 61.6033 71.3588L54.715 67.4226C54.4338 67.282 54.4338 66.7197 54.715 66.5791L64.8366 60.6749C65.6801 60.1126 66.1018 59.2691 66.1018 58.4256V42.5403C66.1018 41.5563 65.6801 40.7128 64.8366 40.2911L50.0759 31.7158C49.9353 31.5752 49.7948 31.4347 49.7948 31.2941V23.2812C49.7948 23.1406 49.9353 23 50.0759 23C50.9194 23 51.7629 23.2812 52.6063 23.7029ZM38.8286 58.2855L48.5285 63.9086C49.3719 64.3303 50.356 64.3303 51.0589 63.9086L60.7587 58.2855C61.6022 57.8637 62.0239 57.0203 62.0239 56.0362V44.79C62.0239 43.9465 61.6022 43.1031 60.7587 42.5407L51.0589 36.9176C50.2154 36.4959 49.2313 36.4959 48.5285 36.9176L46.1386 38.3234C45.998 38.464 45.7169 38.3234 45.7169 38.0423V25.2497C45.7169 24.8279 45.2952 24.5468 45.014 24.8279L38.8286 28.3424C37.9851 28.7641 37.5634 29.6076 37.5634 30.5916V55.8956C37.5634 56.8797 37.9851 57.7231 38.8286 58.2855ZM44.4517 48.1639C44.4517 47.6015 44.7328 47.1798 45.1546 46.8987L48.9502 44.6494C49.3719 44.3683 50.0748 44.3683 50.4965 44.6494L54.2921 46.8987C54.7139 47.1798 54.995 47.7421 54.995 48.1639V52.5218C54.995 53.0841 54.7139 53.5058 54.2921 53.787L50.4965 56.0362C50.0748 56.3174 49.3719 56.3174 48.9502 56.0362L45.1546 53.9275C44.7328 53.6464 44.4517 53.0841 44.4517 52.6623V48.1639ZM57.1036 73.6061L34.7517 60.673C33.9083 60.2512 33.4865 59.4078 33.4865 58.4237V32.4168C33.4865 31.9951 33.0648 31.7139 32.7836 31.9951L28.1446 34.6661C26.4576 35.6501 25.333 37.4776 25.333 39.5863V61.3759C25.333 63.344 26.4576 65.1715 28.1446 66.2961L46.982 77.2612C48.6689 78.2452 50.9182 78.2452 52.6051 77.2612L57.2442 74.5902C57.5253 74.1684 57.5253 73.7467 57.1036 73.6061Z" fill="white"/>
</svg>