<svg width="100%" height="100%" viewBox="0 0 320 258" fill="none" xmlns="http://www.w3.org/2000/svg">
<g clip-path="url(#clip0_204_2396)">
<g clip-path="url(#clip1_204_2396)">
<path d="M429.21 180.935L367.02 170.13L275.334 123.609L196.992 117.879L130.168 76.718L18.7049 181.923L118.06 244.805L225.558 269.958L342.926 323.296L429.925 319.215L429.21 180.935Z" fill="white" stroke="#263238" stroke-linecap="round" stroke-linejoin="round"/>
<path d="M415.155 185.361L366.276 177.767L273.14 131.676L193.335 123.6L134.497 87.0381L39.7579 183.949L124.181 238.816L226.99 263.64L345.245 313.89L411.98 308.226L415.155 185.361Z" fill="#01EA83" stroke="#263238" stroke-linecap="round" stroke-linejoin="round"/>
<g opacity="0.64">
<path d="M135.387 146.062L167.837 167.68L178.688 171.428C178.688 171.428 160.085 180.047 132.321 173.346C104.548 166.641 100.13 159.339 100.13 159.339L135.377 146.058L135.387 146.062Z" fill="white"/>
<path d="M306.702 152.588L328.698 165.973L328.942 175.314L315.021 167.036L312.217 186.888L295.348 178.755L299.567 156.493L306.702 152.588Z" fill="white"/>
<path d="M310.623 189.816L308.961 199.653L299.335 194.011L302.012 186.26L310.623 189.816Z" fill="white"/>
<path d="M316.823 191.958L315.325 203.004L334.592 212.558L336.573 205.138L316.823 191.958Z" fill="white"/>
<path d="M181.791 196.812C191.64 200.214 197.867 208.067 195.7 214.344C193.532 220.62 183.785 222.956 173.936 219.554C164.087 216.152 157.86 208.299 160.027 202.023C162.195 195.747 171.942 193.41 181.791 196.812ZM176.078 213.353C180.558 214.901 184.987 213.839 185.973 210.984C186.959 208.13 184.13 204.56 179.649 203.013C175.169 201.465 170.74 202.527 169.754 205.382C168.768 208.237 171.597 211.806 176.078 213.353Z" fill="white"/>
<path d="M309.062 286.473L306.883 247.539L337.36 259.8L337.917 273.291L323.436 268.289L325.727 296.852L309.062 286.473Z" fill="white"/>
<path d="M274.807 191.328L255.741 179.538L226.003 178.524L245.424 189.284L252.724 186.589L272.486 198.049L274.807 191.328Z" fill="white"/>
<path d="M280.561 171.33L275.398 184.592L266.813 179.309L272.47 167.954L280.561 171.33Z" fill="white"/>
</g>
<path d="M51.9796 171.442L69.9248 162.829C67.7102 161.736 65.5967 160.657 63.5654 159.585L66.4626 156.618C69.0005 157.939 71.6771 159.287 74.493 160.63L127.985 134.956C117.935 129.718 108.338 124.88 100.884 121.406L103.842 118.387C111.862 122.151 121.924 127.266 132.273 132.682L132.398 131.952L133.742 132.195L152.651 123.12L127.289 94.3966L130.09 91.5238L156.396 121.314L175.164 112.308L179.188 114.809L140.472 133.387L237.189 150.669C237.977 149.798 238.767 148.95 239.542 148.053C245.06 141.633 249.415 135.181 252.72 129.594L257.127 130.037C253.653 136.084 248.888 143.294 242.668 150.551C242.402 150.861 242.12 151.187 241.845 151.494L264.505 155.543L285.981 165.162L294.71 142.341L298.315 144.126L274.453 206.503C275.748 206.951 277.03 207.372 278.301 207.769C313.566 218.817 354.815 221.67 361.455 220.546C365.992 219.785 377.844 212.855 384.317 208.849C375.23 205.17 366.713 200.822 362.366 196.252C356.4 189.97 342.683 174.06 330.922 160.265L340.038 164.778C350.088 176.512 360.343 188.327 365.264 193.498C374.054 202.754 403.13 211.506 414.377 214.629L414.272 218.761C410.075 217.618 402.777 215.531 394.837 212.789C392.899 212.12 390.924 211.406 388.955 210.673C386.917 211.979 369.082 223.339 362.127 224.513C355.03 225.701 313.58 223.033 277.111 211.611C275.765 211.188 274.407 210.74 273.037 210.267L269.776 218.789L298.38 229.611L298.858 229.606L298.856 229.796L355.674 251.283L413.298 256.162L413.195 260.168L377.704 257.156L393.421 309.792L389.354 310.143L373.425 256.8L354.79 255.22L298.901 234.075L299.28 286.153L315.656 301.32L304.789 296.699L237.208 234.085L190.856 183.978C183.404 185.921 175.289 187.086 166.455 187.145C158.865 187.189 151.4 186.717 144.13 185.835L146.705 205.397L169.813 249.836L164.656 248.594L142.988 206.938L142.82 206.626L140.009 185.3C129.466 183.785 119.358 181.437 109.861 178.611L102.499 224.735L98.8282 222.346L105.999 177.415C104.008 176.78 102.038 176.142 100.1 175.473C90.79 172.257 82.1954 168.654 74.5339 165.045L43.806 179.791L51.9734 171.43L51.9796 171.442ZM295.26 282.415L294.898 232.555L268.36 222.522L258.479 248.341L295.26 282.415ZM141.738 137.686C162.462 148.716 182.115 159.693 186.358 162.174C187.228 162.687 188.394 163.386 189.833 164.242C193.588 166.481 199.433 169.959 206.599 174.053C216.445 169.286 225.555 162.636 233.919 154.163L141.744 137.698L141.738 137.686ZM284.574 168.929L263.337 159.414L238.682 155.014C231.526 162.562 222.249 170.339 210.669 176.358C222.718 183.133 237.729 191.132 252.729 197.847L252.974 197.656L253.308 198.1C259.174 200.718 265.031 203.122 270.698 205.185L284.565 168.926L284.574 168.929ZM269.275 208.936C265.627 207.613 261.915 206.14 258.175 204.563L266.642 215.824L269.278 208.927L269.275 208.936ZM239.981 231.203L255.323 245.41L264.95 220.233L250.743 201.329C234.699 194.116 218.704 185.503 206.301 178.468C202.783 180.078 199.08 181.518 195.168 182.737L239.974 231.19L239.981 231.203ZM166.429 183.147C179.143 183.064 191.047 180.7 202.089 176.082C196.042 172.608 191.103 169.664 187.788 167.683C186.358 166.83 185.199 166.143 184.338 165.634C178.056 161.952 154.743 149.012 132.419 137.281L79.1813 162.831C102.236 173.333 133.06 183.365 166.416 183.154L166.429 183.147Z" fill="white" stroke="#263238" stroke-linecap="round" stroke-linejoin="round"/>
<path d="M274.806 127.68L261.609 164.203" stroke="#263238" stroke-linecap="round" stroke-linejoin="round"/>
<path d="M183.271 144.805L131.225 226.785" stroke="#263238" stroke-linecap="round" stroke-linejoin="round"/>
<path d="M197.204 122.873L185.764 140.896" stroke="#263238" stroke-linecap="round" stroke-linejoin="round"/>
<path d="M225.57 266.895L233.579 245.359" stroke="#263238" stroke-linecap="round" stroke-linejoin="round"/>
</g>
<g clip-path="url(#clip2_204_2396)">
<path d="M289.51 309.84H304.113L304.113 36.5972H289.51L289.51 309.84Z" fill="#BDBDBD" stroke="#263238" stroke-miterlimit="10"/>
<path d="M261.86 309.84H296.429L296.429 36.5972H261.86L261.86 309.84Z" fill="white" stroke="#263238" stroke-miterlimit="10"/>
<path d="M207.441 309.84H293.434V123.587H207.441L207.441 309.84Z" fill="#01EA83" stroke="#263238" stroke-linecap="round" stroke-linejoin="round"/>
<path d="M207.441 237.955H293.434V123.586L207.441 123.586V237.955Z" fill="#263238" stroke="#263238" stroke-miterlimit="10"/>
<path d="M207.441 163.891H293.434V123.586H207.441V163.891Z" fill="#BDBDBD" stroke="#263238" stroke-miterlimit="10"/>
<path d="M207.441 181.826H293.434V163.519H207.441V181.826Z" fill="white" stroke="#263238" stroke-miterlimit="10"/>
<path d="M195.137 309.84H209.74L209.74 36.5972H195.137L195.137 309.84Z" fill="#BDBDBD" stroke="#263238" stroke-miterlimit="10"/>
<path d="M167.487 309.84H202.056L202.056 36.5972H167.487L167.487 309.84Z" fill="white" stroke="#263238" stroke-miterlimit="10"/>
<path d="M154.16 40.8203L314.839 40.8203V24.1603L154.16 24.1603V40.8203Z" fill="#01EA83" stroke="#263238" stroke-linecap="round" stroke-linejoin="round"/>
<path d="M154.161 40.8203L193.744 40.8203V24.1603L154.161 24.1603V40.8203Z" fill="#01EA83" stroke="#263238" stroke-linecap="round" stroke-linejoin="round"/>
<path d="M233.792 153.449H270.845V129.132H233.792V153.449Z" fill="#263238" stroke="#263238" stroke-miterlimit="10"/>
<path d="M241.732 148.252H262.905V134.353H241.732V148.252Z" fill="white" stroke="#263238" stroke-miterlimit="10"/>
<path d="M233.792 132.033H270.845V129.133H233.792V132.033Z" fill="white" stroke="#263238" stroke-miterlimit="10"/>
<path d="M260.398 176.605H283.567V166.767H260.398V176.605Z" fill="white" stroke="#263238" stroke-miterlimit="10"/>
<path d="M260.398 171.385H283.567V166.744H260.398V171.385Z" fill="white" stroke="#263238" stroke-miterlimit="10"/>
<path d="M219.283 176.605H242.452V166.767H219.283V176.605Z" fill="white" stroke="#263238" stroke-miterlimit="10"/>
<path d="M219.283 171.385H242.452V166.744H219.283V171.385Z" fill="white" stroke="#263238" stroke-miterlimit="10"/>
<path d="M175.891 202.756H193.744V137.74H175.891V202.756Z" fill="white" stroke="#263238" stroke-miterlimit="10"/>
<path d="M175.914 202.756H189.193V137.74H175.914V202.756Z" fill="white" stroke="#263238" stroke-miterlimit="10"/>
<path d="M178.723 199.809H186.361V140.663H178.723V199.809Z" fill="white" stroke="#263238" stroke-miterlimit="10"/>
<path d="M185.688 140.779C177.446 146.046 172.803 159.76 172.594 160.363L175.519 161.337C175.565 161.198 179.373 149.991 185.688 144.608V140.779Z" fill="white" stroke="#263238" stroke-miterlimit="10"/>
<path d="M182.786 148.53C182.786 148.53 182.786 148.53 182.809 148.53C183.088 148.53 183.32 148.274 183.297 147.996L183.018 143.077C183.018 142.798 182.74 142.566 182.484 142.589C182.206 142.589 181.974 142.845 181.997 143.123L182.275 148.042C182.275 148.321 182.507 148.53 182.786 148.53Z" fill="white" stroke="#263238" stroke-width="0.5" stroke-miterlimit="10"/>
<path d="M179.233 152.915C179.512 152.915 179.744 152.683 179.744 152.404V147.485C179.744 147.207 179.512 146.975 179.233 146.975C178.955 146.975 178.723 147.207 178.723 147.485V152.404C178.723 152.683 178.955 152.915 179.233 152.915Z" fill="white" stroke="#263238" stroke-width="0.5" stroke-miterlimit="10"/>
<path d="M176.773 158.368C176.773 158.368 176.843 158.368 176.889 158.368C177.168 158.299 177.353 158.043 177.284 157.765L176.193 152.567C176.123 152.289 175.868 152.103 175.589 152.173C175.31 152.242 175.125 152.498 175.194 152.776L176.286 157.974C176.332 158.206 176.541 158.391 176.796 158.391L176.773 158.368Z" fill="white" stroke="#263238" stroke-width="0.5" stroke-miterlimit="10"/>
<path d="M175.403 174.795C175.403 174.795 174.033 187.905 174.312 188.995C174.59 190.086 180.603 191.455 180.603 191.455" stroke="#263238" stroke-miterlimit="10"/>
<path d="M167.951 197.464L177.772 195.098C180.325 194.471 182.043 192.058 181.765 189.436L180.302 175.352L177.238 175.676L178.7 189.761C178.816 190.828 178.097 191.849 177.052 192.104L167.231 194.471L167.951 197.464Z" fill="black"/>
<path d="M171.678 195.484L167.596 195.949L168.491 203.787L172.573 203.322L171.678 195.484Z" fill="black" stroke="#263238" stroke-miterlimit="10"/>
<path d="M169.284 174.527L165.201 174.992L167.594 195.948L171.677 195.482L169.284 174.527Z" fill="white" stroke="#263238" stroke-miterlimit="10"/>
<path d="M172.037 158.09L178.12 160.851L177.353 164.146L181.904 167.186L180.65 175.516L165.211 179.553L161.683 175.516L164.445 161.872L170.273 160.851L172.037 158.09Z" fill="white" stroke="#263238" stroke-miterlimit="10"/>
<path d="M167.487 163.891L174.057 162.638L175.543 159.691L172.037 158.09L170.273 160.851L164.445 161.872L161.683 175.516L164.469 178.718L167.487 163.891Z" fill="white" stroke="#263238" stroke-miterlimit="10"/>
<path d="M158.107 76.9944C161.009 51.6332 170.319 46.25 177.702 46.25C177.771 46.25 177.841 46.25 177.911 46.25C182.693 46.3196 186.849 48.1991 190.238 51.8652C202.775 65.3696 201.034 99.2233 200.895 101.451V178.648C200.895 179.855 199.92 180.829 198.712 180.829C197.505 180.829 196.53 179.855 196.53 178.648V101.242C196.553 100.894 198.457 67.133 187.035 54.812C184.434 52.0276 181.44 50.6354 177.841 50.589C177.795 50.589 177.748 50.589 177.702 50.589C167.626 50.589 163.842 65.2071 162.426 77.4817C161.056 89.3386 161.729 101.613 164.422 113.934L167.719 129.063V149.482L160.174 114.839C157.388 102.054 156.691 89.2922 158.107 76.9712V76.9944Z" fill="#263238"/>
<path d="M196.46 182.059H201.382V174.494H196.46V182.059Z" fill="white" stroke="#263238" stroke-miterlimit="10"/>
<path d="M159.617 265.986C164.353 256.983 169.716 246.797 169.716 234.615C169.716 216.029 168.23 200.97 168.207 200.808L172.525 200.367C172.525 200.53 174.057 215.797 174.057 234.615C174.057 247.841 168.184 259.025 163.471 268.005C159.733 275.082 156.529 281.208 157.829 285.407C158.618 287.937 159.849 289.538 161.497 290.211C163.865 291.162 166.674 290.164 167.858 289.654V294.271C166.698 294.619 165.235 294.944 163.68 294.944C162.449 294.944 161.172 294.758 159.895 294.248C156.947 293.065 154.857 290.535 153.673 286.684C151.839 280.767 155.438 273.899 159.617 265.963V265.986Z" fill="black"/>
</g>
</g>
<defs>
<clipPath id="clip0_204_2396">
<rect width="320" height="258" fill="white"/>
</clipPath>
<clipPath id="clip1_204_2396">
<rect width="434.51" height="167.68" fill="white" transform="matrix(-0.945209 -0.326466 -0.326466 0.945209 474.444 191.852)"/>
</clipPath>
<clipPath id="clip2_204_2396">
<rect width="163" height="288" fill="white" transform="translate(153 23)"/>
</clipPath>
</defs>
</svg>
