<svg xmlns="http://www.w3.org/2000/svg" width="101" height="101" viewBox="0 0 101 101" fill="none">
  <path d="M73.2202 27.3643L53.6445 41.9034L57.2646 33.3255L73.2202 27.3643Z" fill="#F18608" stroke="#F18608" stroke-width="0.232154" stroke-linecap="round" stroke-linejoin="round"/>
  <path d="M28.0287 27.3643L47.447 42.0411L44.004 33.3255L28.0287 27.3643ZM66.1767 61.0659L60.963 69.0536L72.1182 72.1227L75.3251 61.243L66.1767 61.0659ZM25.9629 61.243L29.1501 72.1227L40.3053 69.0536L35.0917 61.0659L25.9629 61.243Z" fill="#E4761B" stroke="#E4761B" stroke-width="0.232154" stroke-linecap="round" stroke-linejoin="round"/>
  <path d="M39.6769 47.5692L36.5684 52.2713L47.6449 52.7632L47.2514 40.8604L39.6769 47.5692ZM61.5741 47.5692L53.9012 40.7227L53.6454 52.7632L64.7023 52.2713L61.5741 47.5692ZM40.3064 69.0533L46.9563 65.8071L41.2114 61.3214L40.3064 69.0533ZM54.2947 65.8071L60.9642 69.0533L60.0395 61.3214L54.2947 65.8071Z" fill="#E4761B" stroke="#E4761B" stroke-width="0.232154" stroke-linecap="round" stroke-linejoin="round"/>
  <path d="M60.9644 69.0538L54.2949 65.8076L54.8261 70.1556L54.7671 71.9853L60.9644 69.0538ZM40.3066 69.0538L46.504 71.9853L46.4646 70.1556L46.9565 65.8076L40.3066 69.0538Z" fill="#D7C1B3" stroke="#D7C1B3" stroke-width="0.232154" stroke-linecap="round" stroke-linejoin="round"/>
  <path d="M46.6008 58.4497L41.0527 56.8167L44.9679 55.0264L46.6008 58.4497ZM54.6475 58.4497L56.2805 55.0264L60.2153 56.8167L54.6475 58.4497Z" fill="#233447" stroke="#233447" stroke-width="0.232154" stroke-linecap="round" stroke-linejoin="round"/>
  <path d="M40.3054 69.0534L41.2498 61.0658L35.0918 61.2428L40.3054 69.0534ZM60.0188 61.0658L60.9632 69.0534L66.1768 61.2428L60.0188 61.0658ZM64.7012 52.2715L53.6444 52.7633L54.6675 58.4491L56.3004 55.0259L60.2352 56.8162L64.7012 52.2715ZM41.053 56.8162L44.9878 55.0259L46.6011 58.4491L47.6438 52.7633L36.5674 52.2715L41.053 56.8162Z" fill="#CD6116" stroke="#CD6116" stroke-width="0.232154" stroke-linecap="round" stroke-linejoin="round"/>
  <path d="M36.5684 52.2715L41.2114 61.3215L41.054 56.8162L36.5684 52.2715ZM60.2362 56.8162L60.0395 61.3215L64.7023 52.2715L60.2362 56.8162ZM47.6449 52.7633L46.6021 58.4491L47.9006 65.158L48.1957 56.3243L47.6449 52.7633ZM53.6454 52.7633L53.1142 56.3047L53.3503 65.158L54.6685 58.4491L53.6454 52.7633Z" fill="#F18608" stroke="#F18608" stroke-width="0.232154" stroke-linecap="round" stroke-linejoin="round"/>
  <path d="M54.6672 58.4494L53.349 65.1582L54.2934 65.8074L60.0382 61.3218L60.2349 56.8164L54.6672 58.4494ZM41.0527 56.8164L41.2101 61.3218L46.955 65.8074L47.8993 65.1582L46.6008 58.4494L41.0527 56.8164Z" fill="#F6851B" stroke="#F6851B" stroke-width="0.232154" stroke-linecap="round" stroke-linejoin="round"/>
  <path d="M54.7671 71.9851L54.8261 70.1555L54.3342 69.7226H46.9171L46.4646 70.1555L46.504 71.9851L40.3066 69.0537L42.4708 70.8244L46.8581 73.8739H54.3933L58.8002 70.8244L60.9644 69.0537L54.7671 71.9851Z" fill="#C0AD9E" stroke="#C0AD9E" stroke-width="0.232154" stroke-linecap="round" stroke-linejoin="round"/>
  <path d="M54.2951 65.8074L53.3508 65.1582H47.901L46.9567 65.8074L46.4648 70.1554L46.9173 69.7226H54.3345L54.8263 70.1554L54.2951 65.8074Z" fill="#161616" stroke="#161616" stroke-width="0.232154" stroke-linecap="round" stroke-linejoin="round"/>
  <path d="M74.0473 42.8477L75.7196 34.8207L73.221 27.3643L54.2946 41.4115L61.574 47.5695L71.8635 50.5796L74.1457 47.9236L73.162 47.2154L74.7359 45.7792L73.5161 44.8348L75.09 43.6347L74.0473 42.8477ZM25.5508 34.8207L27.2231 42.8477L26.1607 43.6347L27.7346 44.8348L26.5345 45.7792L28.1084 47.2154L27.1247 47.9236L29.3872 50.5796L39.6768 47.5695L46.9562 41.4115L28.0297 27.3643L25.5508 34.8207Z" fill="#763D16" stroke="#763D16" stroke-width="0.232154" stroke-linecap="round" stroke-linejoin="round"/>
  <path d="M71.8625 50.5793L61.5729 47.5692L64.7011 52.2713L60.0383 61.3214L66.1767 61.2427H75.3251L71.8625 50.5793ZM39.6757 47.5692L29.3862 50.5793L25.9629 61.2427H35.0917L41.2103 61.3214L36.5672 52.2713L39.6757 47.5692ZM53.6443 52.7632L54.2935 41.4112L57.284 33.3252H44.004L46.9551 41.4112L47.6437 52.7632L47.8798 56.3438L47.8995 65.1578H53.3492L53.3885 56.3438L53.6443 52.7632Z" fill="#F6851B" stroke="#F6851B" stroke-width="0.232154" stroke-linecap="round" stroke-linejoin="round"/>
</svg>