<svg width="275" height="224" viewBox="0 0 275 224" fill="none" xmlns="http://www.w3.org/2000/svg">
<path d="M320.155 230.806L26.7871 201.108C24.8426 200.911 23.4325 199.173 23.6305 197.238L40.4797 30.4208C40.6772 28.4746 42.413 27.0635 44.3462 27.2618L49.9051 27.822C51.3461 27.9625 52.7246 27.217 53.3958 25.9334L60.1568 12.9126C60.3667 12.5157 60.6345 12.1391 60.9859 11.8498C62.6349 10.5338 64.7474 9.90355 66.8752 10.1273L140.835 17.618C142.493 17.783 144.061 18.4649 145.317 19.5483C145.672 19.8515 145.928 20.2388 146.118 20.6634L153.377 36.5434C153.894 37.6826 154.988 38.4655 156.235 38.592L337.714 56.9703C339.659 57.1681 341.069 58.9056 340.871 60.8404L324.021 227.647C323.824 229.593 322.088 231.004 320.155 230.806Z" fill="#01EA83" stroke="#263238" stroke-miterlimit="10"/>
<path d="M306.168 236.621H17.0392C13.513 236.621 10.6465 233.752 10.6465 230.223V68.2768C10.6465 64.7475 13.513 61.8786 17.0392 61.8786H17.8241C20.4403 61.8786 22.7949 60.2848 23.7618 57.8485L28.1639 46.7826C28.6644 45.5075 29.5517 44.4032 30.7233 43.7088C31.9632 42.9688 33.3964 42.5703 34.8638 42.5703H109.199C110.2 42.5703 111.19 42.7525 112.111 43.1054C113.419 43.6063 114.489 44.5854 115.194 45.7922L122.758 58.7137C123.907 60.6719 126 61.8786 128.275 61.8786H306.179C309.706 61.8786 312.572 64.7475 312.572 68.2768V230.212C312.572 233.741 309.706 236.61 306.179 236.61L306.168 236.621Z" fill="#01EA83"/>
<mask id="mask0_203_27290" style="mask-type:luminance" maskUnits="userSpaceOnUse" x="10" y="42" width="303" height="195">
<path d="M306.168 236.621H17.0392C13.513 236.621 10.6465 233.752 10.6465 230.223V68.2768C10.6465 64.7475 13.513 61.8786 17.0392 61.8786H17.8241C20.4403 61.8786 22.7949 60.2848 23.7618 57.8485L28.1639 46.7826C28.6644 45.5075 29.5517 44.4032 30.7233 43.7088C31.9632 42.9688 33.3964 42.5703 34.8638 42.5703H109.199C110.2 42.5703 111.19 42.7525 112.111 43.1054C113.419 43.6063 114.489 44.5854 115.194 45.7922L122.758 58.7137C123.907 60.6719 126 61.8786 128.275 61.8786H306.179C309.706 61.8786 312.572 64.7475 312.572 68.2768V230.212C312.572 233.741 309.706 236.61 306.179 236.61L306.168 236.621Z" fill="white"/>
</mask>
<g mask="url(#mask0_203_27290)">
<path d="M306.168 236.621H17.0392C13.513 236.621 10.6465 233.752 10.6465 230.223V68.2768C10.6465 64.7475 13.513 61.8786 17.0392 61.8786H17.8241C20.4403 61.8786 22.7949 60.2848 23.7618 57.8485L28.1639 46.7826C28.6644 45.5075 29.5517 44.4032 30.7233 43.7088C31.9632 42.9688 33.3964 42.5703 34.8638 42.5703H109.199C110.2 42.5703 111.19 42.7525 112.111 43.1054C113.419 43.6063 114.489 44.5854 115.194 45.7922L122.758 58.7137C123.907 60.6719 126 61.8786 128.275 61.8786H306.179C309.706 61.8786 312.572 64.7475 312.572 68.2768V230.212C312.572 233.741 309.706 236.61 306.179 236.61L306.168 236.621Z" fill="#263238"/>
</g>
<path d="M306.168 236.621H17.0392C13.513 236.621 10.6465 233.752 10.6465 230.223V68.2768C10.6465 64.7475 13.513 61.8786 17.0392 61.8786H17.8241C20.4403 61.8786 22.7949 60.2848 23.7618 57.8485L28.1639 46.7826C28.6644 45.5075 29.5517 44.4032 30.7233 43.7088C31.9632 42.9688 33.3964 42.5703 34.8638 42.5703H109.199C110.2 42.5703 111.19 42.7525 112.111 43.1054C113.419 43.6063 114.489 44.5854 115.194 45.7922L122.758 58.7137C123.907 60.6719 126 61.8786 128.275 61.8786H306.179C309.706 61.8786 312.572 64.7475 312.572 68.2768V230.212C312.572 233.741 309.706 236.61 306.179 236.61L306.168 236.621Z" stroke="#263238" stroke-miterlimit="10"/>
<path d="M92.3295 60.8436H46.0789C44.0568 60.8436 42.4043 59.1999 42.4043 57.1655C42.4043 55.1301 44.0463 53.4873 46.0789 53.4873H92.3409C94.3735 53.4873 96.0155 55.1301 96.0155 57.1655C96.0155 59.2008 94.3735 60.8436 92.3409 60.8436H92.3295Z" fill="white" stroke="#263238"/>
<path d="M296.521 268.486H7.39273C3.86649 268.486 1 265.617 1 262.087V100.153C1 96.6235 3.86649 93.7546 7.39273 93.7546H8.1776C10.7938 93.7546 13.1485 92.1607 14.1153 89.7244L18.5174 78.6586C19.0179 77.3835 19.9052 76.2792 21.0768 75.5848C22.3167 74.8448 23.7499 74.4463 25.2173 74.4463H99.5527C100.554 74.4463 101.543 74.6284 102.465 74.9814C103.773 75.4823 104.842 76.4614 105.547 77.6681L113.112 90.5897C114.26 92.5478 116.353 93.7546 118.628 93.7546H296.533C300.059 93.7546 302.926 96.6235 302.926 100.153V262.087C302.926 265.617 300.059 268.486 296.533 268.486H296.521Z" fill="#01EA83" stroke="#263238" stroke-miterlimit="10"/>
<path d="M122.386 29.9988L76.2678 26.3552C73.971 26.1732 72.2528 24.1647 72.4345 21.8659C72.6162 19.5672 74.6229 17.8477 76.9197 18.0297L123.038 21.6733C125.335 21.8554 127.053 23.8639 126.872 26.1626C126.69 28.4614 124.683 30.1809 122.386 29.9988Z" fill="#01EA83"/>
<path d="M122.426 29.5004L122.426 29.5004L76.3073 25.8567C74.2852 25.6965 72.773 23.9282 72.9329 21.9053C73.093 19.8805 74.86 18.368 76.8802 18.5281L76.8803 18.5281L122.999 22.1718C122.999 22.1718 122.999 22.1718 122.999 22.1718C125.021 22.3321 126.533 24.1003 126.373 26.1232C126.213 28.148 124.446 29.6605 122.426 29.5004Z" fill="white" stroke="#263238"/>
<path d="M82.685 93.2196H36.4344C34.1366 93.2196 32.2598 91.3525 32.2598 89.0414C32.2598 86.7417 34.1253 84.8633 36.4344 84.8633H82.6964C85.0055 84.8633 86.871 86.7304 86.871 89.0414C86.871 91.3525 85.0055 93.2196 82.6964 93.2196H82.685Z" fill="#01EA83"/>
<path d="M82.685 92.7196H36.4344C34.4123 92.7196 32.7598 91.0759 32.7598 89.0414C32.7598 87.0166 34.4027 85.3633 36.4344 85.3633H82.6964C84.7289 85.3633 86.371 87.0061 86.371 89.0414C86.371 91.0768 84.7289 92.7196 82.6964 92.7196H82.685Z" fill="white" stroke="#263238"/>
</svg>
