<svg width="100%" height="100%" viewBox="0 0 320 258" fill="none" xmlns="http://www.w3.org/2000/svg">
<g clip-path="url(#clip0_204_2468)">
<circle cx="215.306" cy="244.031" r="160.584" stroke="#282A25"/>
<circle cx="278.863" cy="137.737" r="103.602" stroke="#282A25"/>
<circle cx="140.242" cy="154.723" r="91" stroke="#282A25"/>
<circle cx="56.9612" cy="315.807" r="153.461" stroke="#282A25"/>
<circle cx="375.842" cy="303.752" r="153.461" stroke="#282A25"/>
<path d="M393.408 180.797C402.058 150.877 384.727 119.635 354.699 111.016C324.67 102.396 293.314 119.664 284.664 149.585C276.013 179.505 293.344 210.747 323.373 219.366C353.402 227.985 384.757 210.717 393.408 180.797Z" fill="#282A25"/>
<path d="M339.059 221.98C307.646 221.98 282.081 196.517 282.081 165.208C282.081 133.898 307.646 108.436 339.059 108.436C370.472 108.436 396.038 133.898 396.038 165.208C396.038 196.517 370.483 221.98 339.059 221.98ZM339.059 109.213C308.073 109.213 282.861 134.333 282.861 165.208C282.861 196.082 308.073 221.202 339.059 221.202C370.046 221.202 395.257 196.082 395.257 165.208C395.257 134.333 370.046 109.213 339.059 109.213Z" fill="#282A25"/>
<path d="M401.097 170.851C407.423 140.358 387.743 110.53 357.141 104.226C326.538 97.9227 296.601 117.531 290.274 148.024C283.948 178.516 303.628 208.344 334.231 214.648C364.833 220.951 394.771 201.343 401.097 170.851Z" fill="#FAFF00"/>
<path opacity="0.64" d="M388.216 156.561C387.115 132.288 366.8 113.512 342.841 114.624C318.882 115.736 300.353 136.314 301.454 160.587C302.555 184.86 322.87 203.636 346.828 202.524C370.787 201.412 389.317 180.833 388.216 156.561Z" fill="white"/>
<path d="M345.686 216.216C314.273 216.216 288.708 190.754 288.708 159.444C288.708 128.134 314.273 102.672 345.686 102.672C377.099 102.672 402.665 128.134 402.665 159.444C402.665 190.754 377.11 216.216 345.686 216.216ZM345.686 103.449C314.7 103.449 289.488 128.57 289.488 159.444C289.488 190.318 314.7 215.439 345.686 215.439C376.673 215.439 401.884 190.318 401.884 159.444C401.884 128.57 376.673 103.449 345.686 103.449Z" fill="#282A25"/>
<path d="M345.688 203.734C320.788 203.734 300.54 183.549 300.54 158.75C300.54 133.951 320.799 113.766 345.688 113.766C370.577 113.766 390.836 133.951 390.836 158.75C390.836 183.549 370.577 203.734 345.688 203.734ZM345.688 114.802C321.371 114.802 301.581 134.521 301.581 158.75C301.581 182.979 321.371 202.698 345.688 202.698C370.004 202.698 389.795 182.979 389.795 158.75C389.795 134.521 370.004 114.802 345.688 114.802Z" fill="#282A25"/>
<path d="M196.883 297.931C225.373 297.931 248.469 274.918 248.469 246.531C248.469 218.143 225.373 195.131 196.883 195.131C168.392 195.131 145.296 218.143 145.296 246.531C145.296 274.918 168.392 297.931 196.883 297.931Z" fill="#282A25"/>
<path d="M196.883 298.422C168.161 298.422 144.805 275.15 144.805 246.532C144.805 217.915 168.161 194.643 196.883 194.643C225.604 194.643 248.961 217.915 248.961 246.532C248.961 275.15 225.604 298.422 196.883 298.422ZM196.883 195.635C168.719 195.635 145.801 218.471 145.801 246.532C145.801 274.594 168.719 297.43 196.883 297.43C225.046 297.43 247.965 274.594 247.965 246.532C247.965 218.471 225.046 195.635 196.883 195.635Z" fill="#282A25"/>
<path d="M253.109 253.204C259.712 225.589 242.597 197.87 214.882 191.291C187.167 184.712 159.347 201.765 152.744 229.38C146.142 256.995 163.256 284.714 190.971 291.293C218.686 297.871 246.506 280.818 253.109 253.204Z" fill="#FAFF00"/>
<path opacity="0.64" d="M242.513 241.461C241.492 218.957 222.657 201.55 200.445 202.581C178.232 203.612 161.053 222.691 162.074 245.194C163.094 267.698 181.929 285.106 204.141 284.075C226.354 283.044 243.533 263.965 242.513 241.461Z" fill="white"/>
<path d="M202.923 293.156C174.202 293.156 150.845 269.884 150.845 241.267C150.845 212.649 174.202 189.377 202.923 189.377C231.644 189.377 255.001 212.649 255.001 241.267C255.001 269.884 231.644 293.156 202.923 293.156ZM202.923 190.369C174.759 190.369 151.841 213.205 151.841 241.267C151.841 269.328 174.759 292.164 202.923 292.164C231.086 292.164 254.005 269.328 254.005 241.267C254.005 213.205 231.086 190.369 202.923 190.369Z" fill="#282A25"/>
<path d="M202.061 284.555C179.262 284.555 160.712 266.072 160.712 243.356C160.712 220.639 179.262 202.156 202.061 202.156C224.86 202.156 243.41 220.639 243.41 243.356C243.41 266.072 224.86 284.555 202.061 284.555ZM202.061 203.493C179.992 203.493 162.04 221.38 162.04 243.369C162.04 265.358 179.992 283.245 202.061 283.245C224.13 283.245 242.082 265.358 242.082 243.369C242.082 221.38 224.13 203.493 202.061 203.493Z" fill="#282A25"/>
<path d="M202.022 218.021L188.266 240.976C188.212 241.068 188.305 241.174 188.398 241.121L202.155 235.009C202.155 235.009 202.221 234.956 202.221 234.916V218.087C202.221 217.981 202.075 217.942 202.022 218.034V218.021Z" fill="#282A25"/>
<path d="M217.517 241.24L203.495 218.007C203.442 217.914 203.296 217.954 203.296 218.06V234.915C203.296 234.915 203.322 234.995 203.362 235.008L217.384 241.385C217.477 241.425 217.57 241.319 217.517 241.24Z" fill="#282A25"/>
<path d="M188.052 242.458L187.906 242.524L202.061 251.269C202.127 251.309 202.22 251.269 202.22 251.177V236.319C202.22 236.24 202.141 236.187 202.074 236.226L188.052 242.458Z" fill="#282A25"/>
<path d="M202.327 266.576L202.141 255.714C202.141 255.714 202.114 255.648 202.088 255.621L188.756 247.683C188.663 247.63 188.544 247.749 188.61 247.842L202.128 266.642C202.194 266.722 202.327 266.682 202.327 266.576Z" fill="#282A25"/>
<path d="M216.906 247.669L203.375 255.74C203.375 255.74 203.322 255.793 203.322 255.832L203.428 266.549C203.428 266.655 203.561 266.695 203.628 266.615L217.052 247.828C217.119 247.735 217.012 247.616 216.906 247.669Z" fill="#282A25"/>
<path d="M217.729 242.735L203.481 236.252C203.415 236.226 203.335 236.266 203.335 236.345V242.59L203.375 251.242C203.375 251.322 203.468 251.375 203.534 251.335L217.901 242.801L217.742 242.722L217.729 242.735Z" fill="#282A25"/>
<g style="mix-blend-mode:overlay" opacity="0.32">
<path d="M202.022 218.021L188.266 240.976C188.212 241.068 188.305 241.174 188.398 241.121L202.155 235.009C202.155 235.009 202.221 234.956 202.221 234.916V218.087C202.221 217.981 202.075 217.942 202.022 218.034V218.021Z" fill="url(#paint0_linear_204_2468)"/>
<path d="M217.517 241.24L203.495 218.007C203.442 217.914 203.296 217.954 203.296 218.06V234.915C203.296 234.915 203.322 234.995 203.362 235.008L217.384 241.385C217.477 241.425 217.57 241.319 217.517 241.24Z" fill="url(#paint1_linear_204_2468)"/>
<path d="M188.052 242.458L187.906 242.524L202.061 251.269C202.127 251.309 202.22 251.269 202.22 251.177V236.319C202.22 236.24 202.141 236.187 202.074 236.226L188.052 242.458Z" fill="url(#paint2_linear_204_2468)"/>
<path d="M202.327 266.576L202.141 255.714C202.141 255.714 202.114 255.648 202.088 255.621L188.756 247.683C188.663 247.63 188.544 247.749 188.61 247.842L202.128 266.642C202.194 266.722 202.327 266.682 202.327 266.576Z" fill="url(#paint3_linear_204_2468)"/>
<path d="M216.906 247.669L203.375 255.74C203.375 255.74 203.322 255.793 203.322 255.832L203.428 266.549C203.428 266.655 203.561 266.695 203.628 266.615L217.052 247.828C217.119 247.735 217.012 247.616 216.906 247.669Z" fill="url(#paint4_linear_204_2468)"/>
<path d="M217.729 242.735L203.481 236.252C203.415 236.226 203.335 236.266 203.335 236.345V242.59L203.375 251.242C203.375 251.322 203.468 251.375 203.534 251.335L217.901 242.801L217.742 242.722L217.729 242.735Z" fill="url(#paint5_linear_204_2468)"/>
</g>
<path d="M244.283 119.562C249.459 88.2384 228.17 58.6646 196.733 53.5071C165.295 48.3496 135.614 69.5614 130.438 100.885C125.262 132.209 146.55 161.783 177.988 166.94C209.425 172.098 239.107 150.886 244.283 119.562Z" fill="#282A25"/>
<path d="M187.376 168.164C155.315 168.164 129.231 142.175 129.231 110.23C129.231 78.2838 155.315 52.2949 187.376 52.2949C219.438 52.2949 245.521 78.2838 245.521 110.23C245.521 142.175 219.438 168.164 187.376 168.164ZM187.376 53.2161C155.82 53.2161 130.156 78.7874 130.156 110.23C130.156 141.672 155.82 167.243 187.376 167.243C218.933 167.243 244.597 141.672 244.597 110.23C244.597 78.7874 218.933 53.2161 187.376 53.2161Z" fill="#282A25"/>
<path d="M251.22 112.755C255.868 81.3489 234.085 52.1346 202.566 47.5027C171.046 42.8707 141.725 64.575 137.077 95.9807C132.428 127.386 154.211 156.601 185.731 161.233C217.25 165.865 246.571 144.16 251.22 112.755Z" fill="#FAFF00"/>
<path opacity="0.64" d="M239.066 101.097C237.916 75.75 216.702 56.1433 191.683 57.3045C166.664 58.4656 147.314 79.9549 148.464 105.302C149.614 130.649 170.828 150.256 195.847 149.095C220.866 147.934 240.216 126.444 239.066 101.097Z" fill="white"/>
<path d="M194.132 162.293C162.071 162.293 135.987 136.304 135.987 104.358C135.987 72.4127 162.071 46.4238 194.132 46.4238C226.194 46.4238 252.277 72.4127 252.277 104.358C252.277 136.304 226.194 162.293 194.132 162.293ZM194.132 47.345C162.576 47.345 136.912 72.9163 136.912 104.358C136.912 135.801 162.576 161.372 194.132 161.372C225.689 161.372 251.353 135.801 251.353 104.358C251.353 72.9163 225.689 47.345 194.132 47.345Z" fill="#282A25"/>
<path d="M194.131 149.592C168.701 149.592 148.017 128.982 148.017 103.645C148.017 78.3066 168.701 57.6973 194.131 57.6973C219.561 57.6973 240.245 78.3066 240.245 103.645C240.245 128.982 219.561 149.592 194.131 149.592ZM194.131 58.9255C169.379 58.9255 149.249 78.9821 149.249 103.645C149.249 128.307 169.379 148.364 194.131 148.364C218.883 148.364 239.012 128.307 239.012 103.645C239.012 78.9821 218.883 58.9255 194.131 58.9255Z" fill="#282A25"/>
<path d="M198.162 130.041C198.162 128.776 198.162 125.104 198.162 123.814H192.171C192.171 125.19 192.196 128.899 192.171 130.213L185.86 130.274C185.835 128.96 185.86 125.239 185.86 123.789C184.861 123.789 183.949 123.789 183.025 123.789C181.04 123.789 174.31 123.814 174.31 123.814V116.789L179.98 116.703C179.98 116.703 179.98 99.7165 179.992 92.6543C179.992 92.4332 179.992 89.1662 179.992 89.1662H174.31V82.3251C174.31 82.3251 182.075 82.2759 184.911 82.2759C185.206 82.2759 185.49 82.2759 185.847 82.2759C185.847 80.8881 185.847 77.1912 185.847 75.9015C185.847 75.877 192.196 75.9015 192.196 75.9015C192.245 77.142 192.208 80.8881 192.208 82.2268H198.199C198.199 80.8881 198.186 77.1912 198.199 75.9015H204.51C204.535 77.1789 204.559 80.6793 204.51 81.9443C204.485 82.5461 204.658 82.7795 205.262 82.9637C209.071 84.1183 211.647 86.5992 212.596 90.4681C213.693 94.9142 211.61 99.2743 207.555 101.473C207.444 101.534 207.345 101.596 207.148 101.706C212.596 103.598 215.456 107.282 214.778 113.018C214.075 118.987 210.624 122.623 204.522 123.568C204.522 124.944 204.522 128.678 204.522 130.029L198.162 130.066V130.041ZM188.584 116.875C192.985 116.776 197.299 116.715 201.626 116.58C202.858 116.543 203.98 116.064 204.855 115.18C206.47 113.534 206.642 111.544 206.038 109.468C205.41 107.319 203.733 106.201 201.638 106.042C198.125 105.784 194.587 105.784 191.074 105.698C190.26 105.673 189.434 105.698 188.584 105.698V116.887V116.875ZM188.584 98.6971C188.855 98.7217 189.077 98.7462 189.299 98.7462C192.553 98.7339 195.807 98.7462 199.049 98.6848C199.986 98.6602 200.96 98.5251 201.835 98.2058C204.51 97.2478 205.644 94.0667 204.263 91.5858C203.339 89.9031 201.786 89.3136 199.998 89.2644C197.126 89.1785 194.242 89.1785 191.37 89.1539C190.458 89.1539 189.533 89.1539 188.572 89.1539V98.6971H188.584Z" fill="#282A25"/>
<path d="M185.86 130.716C185.613 130.716 185.404 130.52 185.404 130.262C185.379 129.291 185.391 127.019 185.404 125.312V124.231H184.874L174.322 124.256C174.199 124.256 174.088 124.207 173.989 124.121C173.903 124.035 173.854 123.912 173.854 123.789V116.764C173.854 116.518 174.051 116.309 174.31 116.297L179.524 116.211V92.617C179.536 92.4451 179.536 90.4922 179.536 89.5833H174.31C174.051 89.5833 173.854 89.3745 173.854 89.1166V82.2755C173.854 82.0176 174.063 81.821 174.31 81.8088C174.31 81.8088 182.075 81.7596 184.911 81.7596H185.379V80.7402C185.379 79.0576 185.379 76.7977 185.379 75.8397C185.379 75.5285 186.262 75.373 188.029 75.373C191.103 75.373 192.639 75.5326 192.639 75.852C192.676 76.7854 192.664 79.1313 192.664 80.8385V81.7105H197.73V80.6911C197.73 79.033 197.73 76.7854 197.73 75.8397C197.829 75.0168 203.413 75.3115 204.535 75.3852C204.769 75.3975 204.966 75.594 204.966 75.8397C204.991 77.1047 205.015 80.6297 204.966 81.9193C204.954 82.3001 204.978 82.3615 205.398 82.4843C209.502 83.7248 212.066 86.3654 213.052 90.3202C214.137 94.7295 212.214 99.2002 208.233 101.583C213.459 103.72 215.888 107.663 215.247 113.03C214.532 119.097 210.994 122.855 204.991 123.912V124.98C204.991 126.675 204.991 128.984 204.991 129.979C204.991 130.237 204.781 130.434 204.535 130.434L198.174 130.47C197.915 130.47 197.718 130.262 197.718 130.016C197.718 129.083 197.718 126.835 197.718 125.201V124.231H192.652V125.275C192.652 126.958 192.664 129.205 192.652 130.176C192.652 130.421 192.442 130.63 192.196 130.63L185.884 130.691L185.86 130.716ZM184.861 123.31H185.847C186.106 123.31 186.303 123.519 186.303 123.777V125.324C186.303 126.798 186.303 128.689 186.303 129.795L191.703 129.746C191.703 128.64 191.703 126.761 191.703 125.312V123.801C191.703 123.543 191.912 123.334 192.159 123.334H198.149C198.408 123.334 198.606 123.543 198.606 123.801V125.226C198.606 126.626 198.606 128.481 198.606 129.574L204.042 129.537C204.042 128.407 204.042 126.466 204.042 124.993V123.531C204.042 123.298 204.202 123.113 204.436 123.077C210.304 122.168 213.619 118.753 214.31 112.932C214.926 107.663 212.461 104.015 206.988 102.111C206.815 102.05 206.692 101.902 206.679 101.718C206.667 101.534 206.753 101.362 206.901 101.276L207.32 101.03C211.228 98.9177 213.163 94.705 212.128 90.5413C211.228 86.9181 208.874 84.5108 205.102 83.3686C204.3 83.123 203.992 82.6931 204.017 81.8947C204.054 80.7525 204.042 77.8171 204.017 76.3187C202.858 76.3187 199.764 76.3187 198.618 76.3187C198.618 77.3749 198.618 79.2541 198.618 80.7034V82.1772C198.618 82.4352 198.408 82.6439 198.162 82.6439H192.171C191.912 82.6439 191.715 82.4352 191.715 82.1772V80.8385C191.715 79.3646 191.74 77.3995 191.715 76.3064C190.556 76.3064 187.425 76.3064 186.279 76.3064C186.279 77.4118 186.279 79.3032 186.279 80.7525V82.2264C186.279 82.4843 186.069 82.6931 185.823 82.6931H184.898C182.482 82.6931 176.467 82.7422 174.766 82.7422V88.6622H179.992C180.251 88.6622 180.448 88.871 180.448 89.1289C180.448 89.1289 180.448 92.3959 180.448 92.617V116.665C180.436 116.923 180.226 117.12 179.98 117.132L174.766 117.218V123.334L184.861 123.31ZM188.584 117.316C188.461 117.316 188.35 117.267 188.263 117.181C188.177 117.095 188.128 116.972 188.128 116.85V105.661C188.128 105.403 188.337 105.194 188.584 105.194H189.385C189.964 105.194 190.532 105.194 191.086 105.194C192.06 105.218 193.034 105.243 194.02 105.255C196.535 105.304 199.136 105.354 201.687 105.538C204.103 105.722 205.854 107.085 206.495 109.296C207.222 111.765 206.778 113.84 205.188 115.449C204.239 116.42 203.006 116.948 201.638 116.997C198.507 117.095 195.388 117.157 192.233 117.218L188.596 117.292L188.584 117.316ZM189.04 106.127V116.383L192.208 116.321C195.364 116.26 198.482 116.199 201.601 116.1C202.735 116.063 203.733 115.621 204.522 114.835C205.878 113.46 206.223 111.74 205.595 109.579C205.052 107.736 203.647 106.643 201.601 106.483C199.074 106.299 196.485 106.25 193.983 106.201C193.009 106.176 192.023 106.164 191.049 106.14C190.495 106.127 189.94 106.14 189.373 106.14H189.028L189.04 106.127ZM189.287 99.1756C189.126 99.1756 188.966 99.1634 188.793 99.1511L188.535 99.1265C188.288 99.1142 188.103 98.9054 188.103 98.6721V89.1289C188.103 88.871 188.313 88.6622 188.559 88.6622H189.471C190.112 88.6622 190.741 88.6622 191.357 88.6622L193.65 88.6867C195.77 88.699 197.891 88.7236 199.998 88.7727C202.217 88.8341 203.733 89.6693 204.646 91.3274C205.385 92.6661 205.496 94.2382 204.954 95.663C204.424 97.0385 203.339 98.1194 201.971 98.5984C201.12 98.9054 200.097 99.0774 199.037 99.1019C196.609 99.1511 194.18 99.1634 191.752 99.1634H189.274L189.287 99.1756ZM189.04 98.2422C189.126 98.2422 189.2 98.2422 189.299 98.2422H191.777C194.205 98.2422 196.621 98.2299 199.049 98.1808C200.011 98.1562 200.935 98.0088 201.687 97.7386C202.809 97.3456 203.696 96.4613 204.116 95.3436C204.559 94.1768 204.473 92.8749 203.869 91.7695C203.117 90.4062 201.884 89.743 199.998 89.6939C197.891 89.6325 195.783 89.6202 193.663 89.6079L191.37 89.5833C190.753 89.5833 190.125 89.5833 189.496 89.5833H189.04V98.2422Z" fill="#282A25"/>
<path style="mix-blend-mode:overlay" opacity="0.32" d="M198.162 130.041C198.162 128.776 198.162 125.104 198.162 123.814H192.171C192.171 125.19 192.196 128.899 192.171 130.213L185.86 130.274C185.835 128.96 185.86 125.239 185.86 123.789C184.861 123.789 183.949 123.789 183.025 123.789C181.04 123.789 174.31 123.814 174.31 123.814V116.789L179.98 116.703C179.98 116.703 179.98 99.7165 179.992 92.6543C179.992 92.4332 179.992 89.1662 179.992 89.1662H174.31V82.3251C174.31 82.3251 182.075 82.2759 184.911 82.2759C185.206 82.2759 185.49 82.2759 185.847 82.2759C185.847 80.8881 185.847 77.1912 185.847 75.9015C185.847 75.877 192.196 75.9015 192.196 75.9015C192.245 77.142 192.208 80.8881 192.208 82.2268H198.199C198.199 80.8881 198.186 77.1912 198.199 75.9015H204.51C204.535 77.1789 204.559 80.6793 204.51 81.9443C204.485 82.5461 204.658 82.7795 205.262 82.9637C209.071 84.1183 211.647 86.5992 212.596 90.4681C213.693 94.9142 211.61 99.2743 207.555 101.473C207.444 101.534 207.345 101.596 207.148 101.706C212.596 103.598 215.456 107.282 214.778 113.018C214.075 118.987 210.624 122.623 204.522 123.568C204.522 124.944 204.522 128.678 204.522 130.029L198.162 130.066V130.041ZM188.584 116.875C192.985 116.776 197.299 116.715 201.626 116.58C202.858 116.543 203.98 116.064 204.855 115.18C206.47 113.534 206.642 111.544 206.038 109.468C205.41 107.319 203.733 106.201 201.638 106.042C198.125 105.784 194.587 105.784 191.074 105.698C190.26 105.673 189.434 105.698 188.584 105.698V116.887V116.875ZM188.584 98.6971C188.855 98.7217 189.077 98.7462 189.299 98.7462C192.553 98.7339 195.807 98.7462 199.049 98.6848C199.986 98.6602 200.96 98.5251 201.835 98.2058C204.51 97.2478 205.644 94.0667 204.263 91.5858C203.339 89.9031 201.786 89.3136 199.998 89.2644C197.126 89.1785 194.242 89.1785 191.37 89.1539C190.458 89.1539 189.533 89.1539 188.572 89.1539V98.6971H188.584Z" fill="url(#paint6_linear_204_2468)"/>
<path d="M115.572 180.395C119.384 157.274 103.663 135.451 80.4579 131.652C57.2526 127.854 35.3504 143.518 31.5379 166.639C27.7254 189.76 43.4464 211.583 66.6516 215.382C89.8569 219.181 111.759 203.517 115.572 180.395Z" fill="#282A25"/>
<path d="M73.5617 216.363C49.8494 216.363 30.5527 197.136 30.5527 173.51C30.5527 149.883 49.8494 130.656 73.5617 130.656C97.274 130.656 116.571 149.883 116.571 173.51C116.571 197.136 97.274 216.363 73.5617 216.363ZM73.5617 131.522C50.3246 131.522 31.422 150.357 31.422 173.51C31.422 196.663 50.3246 215.497 73.5617 215.497C96.7988 215.497 115.701 196.663 115.701 173.51C115.701 150.357 96.7988 131.522 73.5617 131.522Z" fill="#282A25"/>
<path d="M120.588 180.573C126.904 158.003 113.661 134.604 91.0084 128.311C68.3561 122.018 44.8726 135.213 38.5565 157.783C32.2403 180.354 45.4834 203.752 68.1357 210.045C90.788 216.339 114.272 203.143 120.588 180.573Z" fill="#FAFF00"/>
<path opacity="0.64" d="M112.703 167.379C111.863 148.852 96.3561 134.52 78.0684 135.369C59.7807 136.218 45.6368 151.925 46.4773 170.453C47.3177 188.98 62.8242 203.312 81.1119 202.463C99.3996 201.614 113.543 185.907 112.703 167.379Z" fill="white"/>
<path d="M79.5656 212.019C55.8533 212.019 36.5566 192.792 36.5566 169.166C36.5566 145.539 55.8533 126.312 79.5656 126.312C103.278 126.312 122.575 145.539 122.575 169.166C122.575 192.792 103.278 212.019 79.5656 212.019ZM79.5656 127.179C56.3285 127.179 37.4259 146.013 37.4259 169.166C37.4259 192.319 56.3285 211.153 79.5656 211.153C102.803 211.153 121.705 192.319 121.705 169.166C121.705 146.013 102.803 127.179 79.5656 127.179Z" fill="#282A25"/>
<path d="M79.1516 203.062C60.3185 203.062 44.9971 187.796 44.9971 169.031C44.9971 150.266 60.3185 135 79.1516 135C97.9847 135 113.306 150.266 113.306 169.031C113.306 187.796 97.9847 203.062 79.1516 203.062ZM79.1516 136.143C60.9559 136.143 46.156 150.89 46.156 169.019C46.156 187.149 60.9559 201.896 79.1516 201.896C97.3473 201.896 112.147 187.149 112.147 169.019C112.147 150.89 97.3473 136.143 79.1516 136.143Z" fill="#282A25"/>
<path d="M89.9365 168.856C87.9779 168.521 86.1236 168.971 84.6633 169.953C84.1881 170.265 83.5507 170.011 83.4232 169.457C83.3421 169.11 83.2378 168.775 83.1103 168.567C82.7162 167.909 82.9017 167.089 83.5623 166.685C85.8338 165.288 87.2709 162.678 86.958 159.756C86.5987 156.442 83.91 153.74 80.5837 153.382C76.2145 152.897 72.5174 156.292 72.5174 160.553C72.5174 163.151 73.8965 165.415 75.9479 166.685C76.6085 167.089 76.7939 167.909 76.3999 168.567C76.2724 168.775 76.1681 169.11 76.0986 169.457C75.9711 170.011 75.3336 170.265 74.8585 169.953C73.3866 168.983 71.5438 168.521 69.5852 168.856C66.6183 169.364 64.2192 171.754 63.7209 174.722C62.898 179.63 67.0471 183.822 71.9495 183.106C74.8932 182.679 77.3271 180.392 77.9413 177.494C78.1036 176.708 78.1383 175.946 78.0688 175.219C78.0108 174.688 78.486 174.237 79.0191 174.353C79.2625 174.399 79.5059 174.434 79.7725 174.434C80.039 174.434 80.2824 174.41 80.5258 174.353C81.0473 174.249 81.5225 174.688 81.4761 175.219C81.395 175.946 81.4298 176.708 81.592 177.482C82.2063 180.381 84.6285 182.667 87.5839 183.094C92.4862 183.81 96.6353 179.618 95.8125 174.711C95.3141 171.743 92.9267 169.353 89.9481 168.844L89.9365 168.856Z" fill="#282A25"/>
<path style="mix-blend-mode:overlay" opacity="0.32" d="M89.9365 168.856C87.9779 168.521 86.1236 168.971 84.6633 169.953C84.1881 170.265 83.5507 170.011 83.4232 169.457C83.3421 169.11 83.2378 168.775 83.1103 168.567C82.7162 167.909 82.9017 167.089 83.5623 166.685C85.8338 165.288 87.2709 162.678 86.958 159.756C86.5987 156.442 83.91 153.74 80.5837 153.382C76.2145 152.897 72.5174 156.292 72.5174 160.553C72.5174 163.151 73.8965 165.415 75.9479 166.685C76.6085 167.089 76.7939 167.909 76.3999 168.567C76.2724 168.775 76.1681 169.11 76.0986 169.457C75.9711 170.011 75.3336 170.265 74.8585 169.953C73.3866 168.983 71.5438 168.521 69.5852 168.856C66.6183 169.364 64.2192 171.754 63.7209 174.722C62.898 179.63 67.0471 183.822 71.9495 183.106C74.8932 182.679 77.3271 180.392 77.9413 177.494C78.1036 176.708 78.1383 175.946 78.0688 175.219C78.0108 174.688 78.486 174.237 79.0191 174.353C79.2625 174.399 79.5059 174.434 79.7725 174.434C80.039 174.434 80.2824 174.41 80.5258 174.353C81.0473 174.249 81.5225 174.688 81.4761 175.219C81.395 175.946 81.4298 176.708 81.592 177.482C82.2063 180.381 84.6285 182.667 87.5839 183.094C92.4862 183.81 96.6353 179.618 95.8125 174.711C95.3141 171.743 92.9267 169.353 89.9481 168.844L89.9365 168.856Z" fill="url(#paint7_linear_204_2468)"/>
<path d="M98.5952 90.7628C100.593 82.2626 95.2967 73.7581 86.7656 71.7675C78.2345 69.777 69.6991 75.0541 67.7013 83.5543C65.7035 92.0545 70.9998 100.559 79.5309 102.55C88.062 104.54 96.5974 99.263 98.5952 90.7628Z" fill="#282A25"/>
<path d="M83.1482 103.292C74.2147 103.292 66.9512 96.0552 66.9512 87.154C66.9512 78.2529 74.2147 71.0156 83.1482 71.0156C92.0817 71.0156 99.3452 78.2529 99.3452 87.154C99.3452 96.0552 92.0817 103.292 83.1482 103.292ZM83.1482 71.6866C74.5918 71.6866 67.6246 78.6286 67.6246 87.154C67.6246 95.6795 74.5918 102.622 83.1482 102.622C91.7046 102.622 98.6718 95.6795 98.6718 87.154C98.6718 78.6286 91.7046 71.6866 83.1482 71.6866Z" fill="#282A25"/>
<path d="M100.446 89.181C102.466 80.686 97.1919 72.1677 88.666 70.1549C80.1402 68.1421 71.591 73.3969 69.5709 81.8919C67.5507 90.3869 72.8246 98.9052 81.3505 100.918C89.8763 102.931 98.4255 97.676 100.446 89.181Z" fill="#FAFF00"/>
<path opacity="0.64" d="M97.469 85.6114C97.153 78.646 91.3234 73.2581 84.4481 73.5771C77.5729 73.8962 72.2555 79.8015 72.5715 86.7669C72.8874 93.7323 78.7171 99.1202 85.5923 98.8012C92.4676 98.4821 97.7849 92.5768 97.469 85.6114Z" fill="white"/>
<path d="M85.0046 101.683C76.0711 101.683 68.8076 94.4458 68.8076 85.5447C68.8076 76.6435 76.0711 69.4062 85.0046 69.4062C93.9381 69.4062 101.202 76.6435 101.202 85.5447C101.202 94.4458 93.9381 101.683 85.0046 101.683ZM85.0046 70.0772C76.4482 70.0772 69.481 77.0192 69.481 85.5447C69.481 94.0701 76.4482 101.012 85.0046 101.012C93.561 101.012 100.528 94.0701 100.528 85.5447C100.528 77.0192 93.561 70.0772 85.0046 70.0772Z" fill="#282A25"/>
<path d="M85.0056 98.2573C77.8588 98.2573 72.0498 92.4693 72.0498 85.3484C72.0498 78.2274 77.8588 72.4395 85.0056 72.4395C92.1524 72.4395 97.9614 78.2274 97.9614 85.3484C97.9614 92.4693 92.1524 98.2573 85.0056 98.2573ZM85.0056 73.3251C78.3526 73.3251 72.9476 78.7195 72.9476 85.3394C72.9476 91.9594 78.3616 97.3538 85.0056 97.3538C91.6496 97.3538 97.0636 91.9594 97.0636 85.3394C97.0636 78.7195 91.6496 73.3251 85.0056 73.3251Z" fill="#282A25"/>
<path d="M306.483 38.525C308.229 27.8758 300.98 17.8323 290.293 16.0922C279.605 14.3522 269.525 21.5745 267.778 32.2237C266.032 42.873 273.28 52.9165 283.968 54.6565C294.656 56.3966 304.736 49.1743 306.483 38.525Z" fill="#282A25"/>
<path d="M287.142 55.2536C276.144 55.2536 267.192 46.3346 267.192 35.3758C267.192 24.4171 276.144 15.498 287.142 15.498C298.141 15.498 307.092 24.4171 307.092 35.3758C307.092 46.3346 298.141 55.2536 287.142 55.2536ZM287.142 16.169C276.512 16.169 267.866 24.7839 267.866 35.3758C267.866 45.9678 276.512 54.5827 287.142 54.5827C297.773 54.5827 306.419 45.9678 306.419 35.3758C306.419 24.7839 297.773 16.169 287.142 16.169Z" fill="#282A25"/>
<path d="M308.701 36.8956C310.656 26.2825 303.606 16.0997 292.954 14.1518C282.302 12.2039 272.083 19.2285 270.128 29.8417C268.173 40.4549 275.223 50.6377 285.875 52.5855C296.526 54.5334 306.746 47.5088 308.701 36.8956Z" fill="#FAFF00"/>
<path opacity="0.64" d="M304.368 32.2947C303.982 23.7777 296.853 17.1897 288.447 17.5798C280.04 17.97 273.538 25.1906 273.924 33.7076C274.311 42.2245 281.439 48.8126 289.846 48.4225C298.252 48.0323 304.754 40.8117 304.368 32.2947Z" fill="white"/>
<path d="M289.44 53.2575C278.442 53.2575 269.49 44.3385 269.49 33.3798C269.49 22.421 278.442 13.502 289.44 13.502C300.439 13.502 309.39 22.421 309.39 33.3798C309.39 44.3385 300.439 53.2575 289.44 53.2575ZM289.44 14.1729C278.81 14.1729 270.164 22.7878 270.164 33.3798C270.164 43.9717 278.81 52.5866 289.44 52.5866C300.071 52.5866 308.717 43.9717 308.717 33.3798C308.717 22.7878 300.071 14.1729 289.44 14.1729Z" fill="#282A25"/>
<path d="M289.439 48.9995C280.658 48.9995 273.521 41.8875 273.521 33.1384C273.521 24.3893 280.658 17.2773 289.439 17.2773C298.22 17.2773 305.358 24.3893 305.358 33.1384C305.358 41.8875 298.22 48.9995 289.439 48.9995ZM289.439 18.1719C281.161 18.1719 274.418 24.8814 274.418 33.1384C274.418 41.3955 281.152 48.1049 289.439 48.1049C297.726 48.1049 304.46 41.3955 304.46 33.1384C304.46 24.8814 297.726 18.1719 289.439 18.1719Z" fill="#282A25"/>
</g>
<defs>
<linearGradient id="paint0_linear_204_2468" x1="193.072" y1="226.7" x2="201.452" y2="237.843" gradientUnits="userSpaceOnUse">
<stop stop-color="white"/>
<stop offset="1"/>
</linearGradient>
<linearGradient id="paint1_linear_204_2468" x1="212.458" y1="226.355" x2="205.048" y2="238.472" gradientUnits="userSpaceOnUse">
<stop stop-color="white"/>
<stop offset="1"/>
</linearGradient>
<linearGradient id="paint2_linear_204_2468" x1="202.114" y1="243.754" x2="189.319" y2="237.354" gradientUnits="userSpaceOnUse">
<stop stop-color="white"/>
<stop offset="1"/>
</linearGradient>
<linearGradient id="paint3_linear_204_2468" x1="192.753" y1="252.631" x2="202.878" y2="261.876" gradientUnits="userSpaceOnUse">
<stop stop-color="white"/>
<stop offset="1"/>
</linearGradient>
<linearGradient id="paint4_linear_204_2468" x1="206.947" y1="253.716" x2="216.405" y2="263.646" gradientUnits="userSpaceOnUse">
<stop stop-color="white"/>
<stop offset="1"/>
</linearGradient>
<linearGradient id="paint5_linear_204_2468" x1="203.773" y1="244.415" x2="215.602" y2="235.947" gradientUnits="userSpaceOnUse">
<stop stop-color="white"/>
<stop offset="1"/>
</linearGradient>
<linearGradient id="paint6_linear_204_2468" x1="174.297" y1="103.057" x2="214.889" y2="103.057" gradientUnits="userSpaceOnUse">
<stop stop-color="white"/>
<stop offset="1"/>
</linearGradient>
<linearGradient id="paint7_linear_204_2468" x1="67.8584" y1="161.523" x2="91.6894" y2="183.226" gradientUnits="userSpaceOnUse">
<stop stop-color="white"/>
<stop offset="1"/>
</linearGradient>
<clipPath id="clip0_204_2468">
<rect width="320" height="258" fill="white"/>
</clipPath>
</defs>
</svg>
