<svg xmlns="http://www.w3.org/2000/svg" width="101" height="101" viewBox="0 0 101 101" fill="none">
  <path fill-rule="evenodd" clip-rule="evenodd" d="M49.833 25C63.9178 25 75.333 36.4152 75.333 50.5C75.333 64.5848 63.9178 76 49.833 76C35.7482 76 24.333 64.5848 24.333 50.5C24.333 36.4152 35.7482 25 49.833 25Z" fill="url(#paint0_radial_533_5772)"/>
  <path d="M40.5396 44.6923C45.6694 39.682 53.9968 39.682 59.1267 44.6923L59.7442 45.3C60.0032 45.549 60.0032 45.9574 59.7442 46.2064L57.6325 48.2683C57.503 48.3978 57.2938 48.3978 57.1644 48.2683L56.3177 47.4416C52.7317 43.9453 46.9345 43.9453 43.3485 47.4416L42.4421 48.3281C42.3126 48.4576 42.1034 48.4576 41.9739 48.3281L39.8622 46.2662C39.6032 46.0171 39.6032 45.6087 39.8622 45.3597L40.5396 44.6923ZM63.4995 48.9556L65.3821 50.7884C65.6411 51.0375 65.6411 51.4458 65.3821 51.6949L56.9054 59.9724C56.6464 60.2214 56.228 60.2214 55.979 59.9724L49.9626 54.0955C49.9028 54.0357 49.7933 54.0357 49.7335 54.0955L43.7171 59.9724C43.4581 60.2214 43.0397 60.2214 42.7907 59.9724L34.2841 51.6949C34.0251 51.4458 34.0251 51.0375 34.2841 50.7884L36.1667 48.9556C36.4257 48.7066 36.844 48.7066 37.0931 48.9556L43.1095 54.8326C43.1692 54.8923 43.2788 54.8923 43.3386 54.8326L49.355 48.9556C49.614 48.7066 50.0323 48.7066 50.2813 48.9556L56.2978 54.8326C56.3575 54.8923 56.4671 54.8923 56.5269 54.8326L62.5433 48.9556C62.8222 48.7066 63.2405 48.7066 63.4995 48.9556Z" fill="white"/>
  <defs>
    <radialGradient id="paint0_radial_533_5772" cx="0" cy="0" r="1" gradientUnits="userSpaceOnUse" gradientTransform="translate(24.3332 50.5008) scale(51)">
      <stop stop-color="#5D9DF6"/>
      <stop offset="1" stop-color="#006FFF"/>
    </radialGradient>
  </defs>
</svg>