<svg xmlns="http://www.w3.org/2000/svg" width="101" height="101" viewBox="0 0 101 101" fill="none">
  <path d="M50.6296 44.5742C47.6739 44.572 44.7839 45.4465 42.3252 47.0871C39.8664 48.7276 37.9497 51.0607 36.817 53.7907C35.6845 56.521 35.3872 59.5258 35.9628 62.4251C36.5382 65.3241 37.9608 67.9877 40.0502 70.0781C42.1397 72.1688 44.8022 73.5929 47.701 74.1698C50.6 74.7469 53.6048 74.4513 56.3356 73.3203C59.0666 72.1894 61.4005 70.2739 63.0424 67.8162C64.6844 65.3584 65.5606 62.4687 65.5601 59.513C65.5609 57.5517 65.1753 55.6094 64.4251 53.7972C63.6752 51.9851 62.5756 50.3381 61.1892 48.9509C59.8027 47.5637 58.1565 46.4634 56.3449 45.7122C54.5329 44.9613 52.5909 44.5745 50.6296 44.5742ZM50.6296 61.798C50.1778 61.798 49.736 61.6639 49.3602 61.4129C48.9844 61.1617 48.6916 60.8049 48.5186 60.3875C48.3456 59.9698 48.3004 59.5105 48.3887 59.0672C48.4767 58.624 48.6943 58.2168 49.014 57.8974C49.3334 57.5778 49.7406 57.3601 50.1838 57.2719C50.6271 57.1839 51.0864 57.229 51.5041 57.402C51.9215 57.575 52.2783 57.8678 52.5295 58.2437C52.7805 58.6192 52.9146 59.061 52.9146 59.513C52.9163 59.8141 52.8587 60.1127 52.7446 60.3913C52.6305 60.6701 52.4626 60.9233 52.2502 61.1369C52.0376 61.3503 51.7851 61.5195 51.5071 61.6348C51.229 61.7504 50.9307 61.8096 50.6296 61.8091V61.798Z" fill="#F18608"/>
  <path d="M50.6283 27C47.6716 26.9962 44.7804 27.8694 42.3206 29.5094C39.8606 31.1493 37.9424 33.4822 36.809 36.2128C35.6752 38.9433 35.3774 41.9487 35.9525 44.8486C36.5277 47.7486 37.9504 50.413 40.0404 52.5039C42.1304 54.5951 44.7937 56.0192 47.6932 56.5961C50.593 57.173 53.5985 56.8766 56.3298 55.7447C59.0608 54.6124 61.395 52.6957 63.0361 50.2367C64.6776 47.7777 65.5526 44.887 65.5503 41.9305C65.5496 37.9723 63.9773 34.1764 61.1794 31.3768C58.3814 28.5772 54.5863 27.003 50.6283 27ZM50.6283 44.2238C50.1763 44.2238 49.7345 44.0898 49.3587 43.8387C48.9831 43.5876 48.69 43.2308 48.5173 42.8133C48.3443 42.3958 48.2989 41.9363 48.3872 41.4931C48.4754 41.0499 48.693 40.6427 49.0125 40.3232C49.3321 40.0036 49.7393 39.786 50.1825 39.6978C50.6256 39.6097 51.0851 39.6549 51.5025 39.8279C51.9202 40.0008 52.277 40.2937 52.528 40.6694C52.7792 41.0452 52.9131 41.4869 52.9131 41.9389C52.9136 42.239 52.8546 42.5363 52.7398 42.8137C52.6252 43.0911 52.457 43.3431 52.2447 43.5554C52.0326 43.7676 51.7803 43.9359 51.5031 44.0506C51.2258 44.1653 50.9284 44.2241 50.6283 44.2238Z" fill="#E03488"/>
  <path d="M47.9869 27H35.6914V74.4572H47.9869V27Z" fill="#72C3F3"/>
  <path fill-rule="evenodd" clip-rule="evenodd" d="M38.5459 50.7262C39.9306 48.8208 41.7465 47.2701 43.8455 46.2009C45.9442 45.1316 48.2661 44.5742 50.6215 44.5742C52.977 44.5742 55.2991 45.1316 57.3978 46.2009C59.4966 47.2701 61.3125 48.8208 62.6972 50.7262C61.3125 52.6317 59.4966 54.1823 57.3978 55.2514C55.2991 56.3207 52.977 56.878 50.6215 56.878C48.2661 56.878 45.9442 56.3207 43.8455 55.2514C41.7465 54.1823 39.9306 52.6317 38.5459 50.7262Z" fill="#E03D2D"/>
  <path fill-rule="evenodd" clip-rule="evenodd" d="M47.9827 56.6467C44.5424 56.0179 41.4316 54.2022 39.192 51.5161C36.9523 48.8299 35.7256 45.4433 35.7256 41.9459C35.7256 38.4486 36.9523 35.062 39.192 32.3758C41.4316 29.6897 44.5424 27.874 47.9827 27.2451V56.6467Z" fill="#2E0E8F"/>
  <path fill-rule="evenodd" clip-rule="evenodd" d="M47.9868 74.223C44.5392 73.6002 41.4198 71.7863 39.1734 69.0979C36.927 66.4095 35.6963 63.0173 35.6963 59.5138C35.6963 56.0104 36.927 52.6182 39.1734 49.9298C41.4198 47.2414 44.5392 45.4272 47.9868 44.8047V74.223Z" fill="#396E2D"/>
  <path fill-rule="evenodd" clip-rule="evenodd" d="M47.9853 44.8096C44.1927 45.4903 40.8103 47.6113 38.5459 50.7292C40.8111 53.8458 44.1932 55.9668 47.9853 56.6485V44.8096Z" fill="#7BC26E"/>
</svg>