<svg width="269" height="224" viewBox="0 0 269 224" fill="none" xmlns="http://www.w3.org/2000/svg">
<path fill-rule="evenodd" clip-rule="evenodd" d="M52.4804 187.023L42.6603 148.842L42.6441 148.832L79.8583 134.715C79.9458 126.11 81.2091 117.685 83.5264 109.609L51.8318 85.787L64.952 63.5811L57.7719 55.4817L71.8817 51.8528L108.195 68.1913C114.187 62.2971 120.993 57.1578 128.517 52.9909L122.949 13.7709L161.13 3.95087L175.247 41.1651C183.852 41.2525 192.277 42.5159 200.354 44.8332L217.944 21.4224L210.066 16.7675L224.175 13.1386L258.126 33.1981L241.787 69.5114C247.682 75.5033 252.821 82.3092 256.988 89.8336L296.208 84.2649L306.028 122.447L268.823 136.548C268.736 145.152 267.472 153.577 265.155 161.654L296.85 185.476L276.79 219.426L262.68 223.055L267.335 215.176L240.477 203.088C234.485 208.982 227.679 214.121 220.155 218.288L225.723 257.508L187.542 267.328L173.424 230.114C164.823 230.039 156.395 228.763 148.318 226.446L124.496 258.14L110.387 261.769L116.91 253.658L90.5623 238.09L106.901 201.777C101.007 195.785 95.8672 188.979 91.7004 181.455L52.4804 187.023ZM110.187 147.357C101.668 114.236 121.612 80.4806 154.733 71.9621C187.854 63.4436 221.61 83.3879 230.128 116.509C238.647 149.63 218.702 183.385 185.581 191.904C152.46 200.422 118.705 180.478 110.187 147.357Z" fill="#263238"/>
<path d="M122.777 13.1331L160.959 3.31302C161.282 3.22994 161.63 3.40235 161.751 3.71539L175.704 40.5036C183.93 40.6195 192.132 41.8164 200.094 44.0665L216.957 21.6282L209.712 17.3476C209.484 17.2132 209.347 16.9456 209.39 16.6864C209.43 16.4143 209.623 16.1995 209.882 16.133L223.991 12.5041C224.159 12.4609 224.344 12.4823 224.493 12.5816L258.444 32.6411C258.736 32.8138 258.859 33.1819 258.718 33.4935L242.561 69.3882C248.349 75.3387 253.322 81.9807 257.321 89.1211L296.098 83.5976C296.431 83.5532 296.746 83.7614 296.833 84.0974L306.653 122.279C306.736 122.602 306.563 122.949 306.25 123.071L269.462 137.024C269.346 145.25 268.149 153.452 265.899 161.414L297.233 184.957C297.506 185.162 297.576 185.544 297.404 185.836L277.344 219.786C277.258 219.933 277.11 220.053 276.942 220.097L262.832 223.725C262.574 223.792 262.301 223.697 262.135 223.478C261.968 223.259 261.963 222.971 262.097 222.743L266.378 215.499L240.61 203.901C234.65 209.704 228.017 214.661 220.877 218.66L226.368 257.418C226.412 257.751 226.204 258.066 225.868 258.153L187.687 267.973C187.364 268.056 187.016 267.883 186.894 267.57L172.942 230.782C164.715 230.666 156.514 229.469 148.552 227.219L125.009 258.553C124.916 258.673 124.787 258.761 124.645 258.798L110.535 262.427C110.264 262.497 109.959 262.382 109.815 262.144C109.658 261.908 109.672 261.588 109.848 261.364L115.878 253.848L90.1826 238.677C89.8902 238.504 89.768 238.136 89.9083 237.825L106.065 201.93C100.278 195.979 95.3049 189.337 91.3056 182.197L52.5382 187.704C52.2052 187.749 51.8899 187.54 51.8035 187.204L41.9835 149.023C41.9004 148.7 42.0728 148.352 42.3858 148.231L79.1741 134.278C79.29 126.052 80.4868 117.85 82.7369 109.888L51.4034 86.345C51.1302 86.1397 51.0597 85.7583 51.2324 85.4659L64.1128 63.6662L57.2586 55.9238C57.1054 55.7565 57.0552 55.5077 57.1216 55.284C57.1881 55.0603 57.3649 54.8908 57.5975 54.831L71.7073 51.2021C71.8494 51.1655 72.0048 51.1806 72.1444 51.2412L108.039 67.398C113.999 61.5946 120.632 56.6377 127.772 52.6385L122.265 13.8711C122.22 13.5381 122.429 13.2228 122.765 13.1364L122.777 13.1331ZM160.723 4.75135L123.691 14.2756L129.178 52.9105C129.222 53.1885 129.085 53.458 128.843 53.5891C121.525 57.6478 114.728 62.7158 108.669 68.6687C108.47 68.8577 108.182 68.9179 107.932 68.8031L71.8362 52.5602L59.0056 55.8602L65.4554 63.1555C65.6478 63.3678 65.6759 63.6912 65.5319 63.9349L52.7092 85.6372L83.9257 109.1C84.1468 109.263 84.2491 109.554 84.1668 109.823C81.8336 117.945 80.6024 126.334 80.533 134.741C80.5349 135.016 80.3651 135.267 80.1004 135.362L43.451 149.265L52.9752 186.297L91.6101 180.81C91.8881 180.766 92.1576 180.903 92.2887 181.145C96.3474 188.463 101.415 195.26 107.368 201.319C107.557 201.519 107.617 201.806 107.503 202.056L91.4097 237.824L117.254 253.094C117.417 253.19 117.541 253.351 117.578 253.548C117.611 253.733 117.567 253.937 117.439 254.08L112.18 260.626L124.119 257.556L147.796 226.05C147.96 225.828 148.254 225.739 148.519 225.809C156.641 228.142 165.03 229.373 173.441 229.455C173.716 229.453 173.966 229.623 174.062 229.888L187.965 266.537L224.997 257.013L219.51 218.378C219.466 218.1 219.603 217.831 219.845 217.7C227.163 213.641 233.959 208.573 240.019 202.62C240.218 202.431 240.506 202.371 240.756 202.485L267.614 214.574C267.786 214.654 267.92 214.799 267.979 214.976C268.026 215.157 268.021 215.352 267.912 215.517L264.073 222.015L276.361 218.855L295.969 185.668L264.753 162.205C264.531 162.041 264.429 161.751 264.511 161.482C266.845 153.36 268.076 144.971 268.158 136.56C268.156 136.285 268.326 136.035 268.591 135.939L305.24 122.036L295.716 85.0045L257.081 90.4916C256.803 90.5355 256.534 90.3982 256.402 90.1564C252.344 82.8384 247.276 76.0417 241.31 69.9856C241.121 69.7862 241.061 69.4987 241.176 69.2487L257.268 33.4806L224.081 13.8722L211.794 17.0326L218.291 20.8717C218.454 20.9677 218.565 21.132 218.611 21.3129C218.658 21.4938 218.598 21.6883 218.486 21.8412L200.895 45.2519C200.731 45.473 200.441 45.5753 200.172 45.493C192.05 43.1598 183.661 41.9286 175.25 41.8463C174.975 41.8482 174.725 41.6784 174.629 41.4137L160.726 4.76427L160.723 4.75135Z" fill="#263238"/>
<mask id="path-3-inside-1_203_27371" fill="white">
<path fill-rule="evenodd" clip-rule="evenodd" d="M38.3444 190.643L28.5244 152.461L28.5081 152.452L65.7223 138.334C65.8098 129.73 67.0731 121.305 69.3904 113.228L37.6958 89.4066L57.7553 55.4561L94.0687 71.7945C100.061 65.9003 106.866 60.7611 114.391 56.5942L108.822 17.3742L147.004 7.55413L161.121 44.7684C169.726 44.8558 178.151 46.1191 186.227 48.4364L210.049 16.7419L243.999 36.8014L227.661 73.1148C233.555 79.1066 238.694 85.9125 242.861 93.4369L282.081 87.8682L291.901 126.05L254.687 140.167C254.6 148.772 253.336 157.197 251.019 165.273L282.714 189.095L262.654 223.046L226.341 206.707C220.349 212.601 213.543 217.741 206.019 221.907L211.587 261.127L173.406 270.947L159.305 233.743C150.703 233.668 142.275 232.392 134.199 230.075L110.377 261.769L76.4263 241.71L92.7648 205.396C86.8706 199.405 81.7313 192.599 77.5644 185.074L38.3444 190.643ZM102.691 156.803C94.1729 123.682 114.117 89.9265 147.238 81.4081C180.359 72.8896 214.115 92.8338 222.633 125.955C231.151 159.076 211.207 192.831 178.086 201.35C144.965 209.868 111.21 189.924 102.691 156.803Z"/>
</mask>
<path fill-rule="evenodd" clip-rule="evenodd" d="M38.3444 190.643L28.5244 152.461L28.5081 152.452L65.7223 138.334C65.8098 129.73 67.0731 121.305 69.3904 113.228L37.6958 89.4066L57.7553 55.4561L94.0687 71.7945C100.061 65.9003 106.866 60.7611 114.391 56.5942L108.822 17.3742L147.004 7.55413L161.121 44.7684C169.726 44.8558 178.151 46.1191 186.227 48.4364L210.049 16.7419L243.999 36.8014L227.661 73.1148C233.555 79.1066 238.694 85.9125 242.861 93.4369L282.081 87.8682L291.901 126.05L254.687 140.167C254.6 148.772 253.336 157.197 251.019 165.273L282.714 189.095L262.654 223.046L226.341 206.707C220.349 212.601 213.543 217.741 206.019 221.907L211.587 261.127L173.406 270.947L159.305 233.743C150.703 233.668 142.275 232.392 134.199 230.075L110.377 261.769L76.4263 241.71L92.7648 205.396C86.8706 199.405 81.7313 192.599 77.5644 185.074L38.3444 190.643ZM102.691 156.803C94.1729 123.682 114.117 89.9265 147.238 81.4081C180.359 72.8896 214.115 92.8338 222.633 125.955C231.151 159.076 211.207 192.831 178.086 201.35C144.965 209.868 111.21 189.924 102.691 156.803Z" fill="#05AAFF"/>
<path d="M28.5244 152.461L29.4928 152.212L29.3898 151.811L29.0336 151.601L28.5244 152.461ZM38.3444 190.643L37.3759 190.892L37.5989 191.759L38.485 191.633L38.3444 190.643ZM28.5081 152.452L28.1534 151.517L26.21 152.254L27.9989 153.312L28.5081 152.452ZM65.7223 138.334L66.077 139.269L66.7154 139.027L66.7223 138.345L65.7223 138.334ZM69.3904 113.228L70.3516 113.504L70.5415 112.843L69.9913 112.429L69.3904 113.228ZM37.6958 89.4066L36.8349 88.8979L36.3797 89.6683L37.095 90.2059L37.6958 89.4066ZM57.7553 55.4561L58.1656 54.5441L57.3496 54.177L56.8944 54.9474L57.7553 55.4561ZM94.0687 71.7945L93.6584 72.7065L94.2823 72.9872L94.77 72.5074L94.0687 71.7945ZM114.391 56.5942L114.875 57.469L115.478 57.1354L115.381 56.4536L114.391 56.5942ZM108.822 17.3742L108.573 16.4057L107.706 16.6286L107.832 17.5148L108.822 17.3742ZM147.004 7.55413L147.939 7.19943L147.621 6.36275L146.755 6.58565L147.004 7.55413ZM161.121 44.7684L160.186 45.1231L160.428 45.7614L161.111 45.7683L161.121 44.7684ZM186.227 48.4364L185.951 49.3977L186.613 49.5875L187.027 49.0373L186.227 48.4364ZM210.049 16.7419L210.558 15.8809L209.787 15.4257L209.25 16.141L210.049 16.7419ZM243.999 36.8014L244.911 37.2117L245.279 36.3956L244.508 35.9404L243.999 36.8014ZM227.661 73.1148L226.749 72.7045L226.468 73.3283L226.948 73.816L227.661 73.1148ZM242.861 93.4369L241.987 93.9213L242.32 94.5237L243.002 94.4269L242.861 93.4369ZM282.081 87.8682L283.05 87.6191L282.827 86.7523L281.941 86.8781L282.081 87.8682ZM291.901 126.05L292.256 126.985L293.093 126.667L292.87 125.801L291.901 126.05ZM254.687 140.167L254.333 139.232L253.694 139.474L253.687 140.157L254.687 140.167ZM251.019 165.273L250.058 164.997L249.868 165.659L250.418 166.073L251.019 165.273ZM282.714 189.095L283.575 189.604L284.03 188.833L283.315 188.296L282.714 189.095ZM262.654 223.046L262.244 223.957L263.06 224.325L263.515 223.554L262.654 223.046ZM226.341 206.707L226.751 205.795L226.127 205.514L225.64 205.994L226.341 206.707ZM206.019 221.907L205.534 221.033L204.932 221.366L205.029 222.048L206.019 221.907ZM211.587 261.127L211.836 262.096L212.703 261.873L212.577 260.987L211.587 261.127ZM173.406 270.947L172.471 271.302L172.788 272.139L173.655 271.916L173.406 270.947ZM159.305 233.743L160.24 233.388L159.997 232.749L159.313 232.743L159.305 233.743ZM134.199 230.075L134.474 229.114L133.813 228.924L133.399 229.474L134.199 230.075ZM110.377 261.769L109.868 262.63L110.638 263.086L111.176 262.37L110.377 261.769ZM76.4263 241.71L75.5144 241.3L75.1472 242.116L75.9176 242.571L76.4263 241.71ZM92.7648 205.396L93.6767 205.807L93.9574 205.183L93.4776 204.695L92.7648 205.396ZM77.5644 185.074L78.4392 184.59L78.1056 183.987L77.4238 184.084L77.5644 185.074ZM27.5559 152.71L37.3759 190.892L39.3129 190.394L29.4928 152.212L27.5559 152.71ZM27.9989 153.312L28.0152 153.322L29.0336 151.601L29.0173 151.591L27.9989 153.312ZM65.3677 137.399L28.1534 151.517L28.8628 153.387L66.077 139.269L65.3677 137.399ZM68.4292 112.953C66.0876 121.114 64.8108 129.628 64.7224 138.324L66.7223 138.345C66.8088 129.831 68.0587 121.496 70.3516 113.504L68.4292 112.953ZM37.095 90.2059L68.7896 114.028L69.9913 112.429L38.2966 88.6072L37.095 90.2059ZM56.8944 54.9474L36.8349 88.8979L38.5568 89.9152L58.6163 55.9648L56.8944 54.9474ZM94.479 70.8826L58.1656 54.5441L57.345 56.368L93.6584 72.7065L94.479 70.8826ZM113.906 55.7194C106.301 59.9314 99.4221 65.1257 93.3674 71.0816L94.77 72.5074C100.699 66.675 107.432 61.5908 114.875 57.469L113.906 55.7194ZM107.832 17.5148L113.401 56.7348L115.381 56.4536L109.812 17.2336L107.832 17.5148ZM146.755 6.58565L108.573 16.4057L109.071 18.3427L147.253 8.52261L146.755 6.58565ZM162.056 44.4137L147.939 7.19943L146.069 7.90883L160.186 45.1231L162.056 44.4137ZM186.503 47.4752C178.342 45.1336 169.828 43.8568 161.131 43.7684L161.111 45.7683C169.624 45.8549 177.96 47.1047 185.951 49.3977L186.503 47.4752ZM209.25 16.141L185.428 47.8356L187.027 49.0373L210.848 17.3427L209.25 16.141ZM244.508 35.9404L210.558 15.8809L209.54 17.6028L243.491 37.6623L244.508 35.9404ZM228.573 73.5251L244.911 37.2117L243.088 36.3911L226.749 72.7045L228.573 73.5251ZM243.736 92.9524C239.524 85.3466 234.33 78.4681 228.374 72.4135L226.948 73.816C232.781 79.7451 237.865 86.4784 241.987 93.9213L243.736 92.9524ZM281.941 86.8781L242.721 92.4468L243.002 94.4269L282.222 88.8583L281.941 86.8781ZM292.87 125.801L283.05 87.6191L281.113 88.1173L290.933 126.299L292.87 125.801ZM255.042 141.102L292.256 126.985L291.547 125.115L254.333 139.232L255.042 141.102ZM251.98 165.549C254.322 157.388 255.599 148.874 255.687 140.177L253.687 140.157C253.601 148.67 252.351 157.006 250.058 164.997L251.98 165.549ZM283.315 188.296L251.62 164.474L250.418 166.073L282.113 189.894L283.315 188.296ZM263.515 223.554L283.575 189.604L281.853 188.586L261.793 222.537L263.515 223.554ZM225.931 207.619L262.244 223.957L263.065 222.134L226.751 205.795L225.931 207.619ZM206.503 222.782C214.109 218.57 220.987 213.376 227.042 207.42L225.64 205.994C219.71 211.827 212.977 216.911 205.534 221.033L206.503 222.782ZM212.577 260.987L207.009 221.767L205.029 222.048L210.597 261.268L212.577 260.987ZM173.655 271.916L211.836 262.096L211.338 260.159L173.157 269.979L173.655 271.916ZM158.37 234.097L172.471 271.302L174.341 270.593L160.24 233.388L158.37 234.097ZM133.923 231.036C142.083 233.377 150.601 234.667 159.296 234.743L159.313 232.743C150.805 232.669 142.467 231.407 134.474 229.114L133.923 231.036ZM111.176 262.37L134.998 230.676L133.399 229.474L109.577 261.169L111.176 262.37ZM75.9176 242.571L109.868 262.63L110.885 260.908L76.935 240.849L75.9176 242.571ZM91.8528 204.986L75.5144 241.3L77.3383 242.12L93.6767 205.807L91.8528 204.986ZM76.6896 185.559C80.9016 193.165 86.0959 200.043 92.0519 206.098L93.4776 204.695C87.6452 198.766 82.561 192.033 78.4392 184.59L76.6896 185.559ZM38.485 191.633L77.705 186.064L77.4238 184.084L38.2038 189.653L38.485 191.633ZM146.989 80.4396C113.333 89.0956 93.0668 123.396 101.723 157.052L103.66 156.554C95.2789 123.968 114.901 90.7574 147.487 82.3765L146.989 80.4396ZM223.601 125.706C214.945 92.0499 180.645 71.7835 146.989 80.4396L147.487 82.3765C180.073 73.9956 213.284 93.6178 221.664 126.204L223.601 125.706ZM178.335 202.318C211.991 193.662 232.257 159.362 223.601 125.706L221.664 126.204C230.045 158.79 210.423 192 177.837 200.381L178.335 202.318ZM101.723 157.052C110.379 190.708 144.679 210.974 178.335 202.318L177.837 200.381C145.251 208.762 112.041 189.14 103.66 156.554L101.723 157.052Z" fill="#263238" mask="url(#path-3-inside-1_203_27371)"/>
<path d="M103.201 156.668C94.7509 123.814 114.534 90.3314 147.388 81.8817C180.241 73.432 213.724 93.2152 222.174 126.069C230.623 158.922 210.84 192.405 177.987 200.855C145.133 209.305 111.65 189.521 103.201 156.668Z" stroke="#263238"/>
<path d="M108.667 16.7585L146.849 6.93841C147.172 6.85533 147.519 7.02774 147.641 7.34079L161.593 44.129C169.82 44.2449 178.021 45.4418 185.984 47.6919L209.526 16.3584C209.732 16.0851 210.113 16.0146 210.405 16.1874L244.356 36.2469C244.648 36.4196 244.77 36.7877 244.63 37.0993L228.473 72.994C234.26 78.9445 239.234 85.5865 243.233 92.727L282 87.2196C282.333 87.1753 282.649 87.3835 282.735 87.7195L292.555 125.901C292.638 126.224 292.466 126.572 292.153 126.693L255.364 140.646C255.249 148.872 254.052 157.074 251.802 165.036L283.135 188.579C283.408 188.784 283.479 189.166 283.306 189.458L263.247 223.408C263.074 223.701 262.706 223.823 262.394 223.683L226.499 207.526C220.539 213.329 213.907 218.286 206.766 222.285L212.258 261.043C212.302 261.376 212.094 261.692 211.758 261.778L173.576 271.598C173.253 271.681 172.906 271.509 172.784 271.196L158.831 234.407C150.605 234.292 142.403 233.095 134.454 230.841L110.911 262.175C110.706 262.448 110.325 262.518 110.032 262.346L76.0816 242.286C75.7892 242.113 75.667 241.745 75.8073 241.434L91.9641 205.539C86.177 199.589 81.2039 192.947 77.2046 185.806L38.4372 191.313C38.1042 191.358 37.7889 191.15 37.7025 190.814L27.8825 152.632C27.7994 152.309 27.9718 151.962 28.2849 151.84L65.0731 137.887C65.189 129.661 66.3858 121.459 68.636 113.497L37.3024 89.9541C37.0292 89.7489 36.9587 89.3675 37.1315 89.0751L57.191 55.1246C57.3637 54.8323 57.7318 54.71 58.0434 54.8503L93.9381 71.0071C99.8982 65.2038 106.531 60.2469 113.671 56.2476L108.164 17.4802C108.119 17.1473 108.328 16.8319 108.664 16.7455L108.667 16.7585ZM146.612 8.37675L109.581 17.901L115.068 56.5359C115.112 56.8139 114.974 57.0834 114.732 57.2144C107.414 61.2732 100.618 66.3412 94.5584 72.2941C94.359 72.4831 94.0715 72.5433 93.8215 72.4285L58.0534 56.3355L38.6082 89.2463L69.8247 112.709C70.0458 112.873 70.1481 113.163 70.0658 113.432C67.7326 121.554 66.5014 129.943 66.432 138.35C66.4339 138.625 66.2641 138.876 65.9994 138.971L29.35 152.874L38.8743 189.906L77.5091 184.419C77.7871 184.375 78.0566 184.512 78.1877 184.754C82.2464 192.072 87.3144 198.869 93.2673 204.928C93.4563 205.128 93.5165 205.415 93.4017 205.665L77.3088 241.433L110.22 260.879L133.682 229.662C133.846 229.441 134.14 229.352 134.405 229.421C142.527 231.754 150.916 232.985 159.327 233.068C159.602 233.066 159.852 233.236 159.948 233.5L173.851 270.15L210.883 260.625L205.396 221.991C205.352 221.713 205.489 221.443 205.731 221.312C213.052 217.266 219.846 212.185 225.905 206.232C226.104 206.043 226.392 205.983 226.642 206.098L262.41 222.191L281.855 189.28L250.639 165.817C250.418 165.654 250.315 165.363 250.398 165.094C252.744 156.969 253.962 148.583 254.044 140.173C254.042 139.898 254.212 139.647 254.477 139.552L291.126 125.649L281.602 88.617L242.967 94.104C242.689 94.148 242.42 94.0106 242.289 93.7688C238.23 86.4508 233.162 79.6542 227.196 73.5981C227.007 73.3987 226.947 73.1111 227.062 72.8612L243.155 37.0931L210.244 17.6479L186.781 48.8644C186.618 49.0855 186.327 49.1878 186.058 49.1055C177.936 46.7723 169.547 45.5411 161.136 45.4588C160.861 45.4607 160.611 45.2908 160.515 45.0261L146.612 8.37675Z" fill="#263238"/>
</svg>
