<svg width="119" height="118" viewBox="0 0 119 118" fill="none" xmlns="http://www.w3.org/2000/svg">
<g clip-path="url(#clip0_397_2208)">
<path opacity="0.8" fill-rule="evenodd" clip-rule="evenodd" d="M93.4742 74.5145C93.4742 87.3488 82.9525 97.7531 69.9734 97.7531H25.583V82.2607H69.9734C74.2998 82.2607 77.807 78.7926 77.807 74.5145C77.807 70.2364 74.2998 66.7683 69.9734 66.7683H54.3062V51.2758H69.9734C74.2998 51.2758 77.807 47.8078 77.807 43.5296C77.807 39.2515 74.2998 35.7834 69.9734 35.7834H25.583V20.291H69.9734C82.9525 20.291 93.4742 30.6953 93.4742 43.5296C93.4742 49.4815 91.2114 54.9107 87.4902 59.0221C91.2114 63.1334 93.4742 68.5626 93.4742 74.5145Z" fill="#FE815F"/>
<path opacity="0.12" d="M25.583 82.2607H63.7098C55.6111 91.668 42.7171 97.7531 28.1942 97.7531C27.3176 97.7531 26.447 97.7309 25.583 97.6872V82.2607ZM71.6966 66.7683H56.9174V51.2758H71.6966C72.2789 53.7787 72.5846 56.3692 72.5846 59.0221C72.5846 61.6749 72.2789 64.2654 71.6966 66.7683ZM63.7098 35.7834H25.583V20.3569C26.447 20.3132 27.3176 20.291 28.1942 20.291C42.7171 20.291 55.6111 26.3761 63.7098 35.7834Z" fill="black"/>
<path d="M25.583 20.291C47.2149 20.291 64.751 37.6315 64.751 59.0221C64.751 80.4126 47.2149 97.7531 25.583 97.7531V82.2607C38.5621 82.2607 49.0838 71.8564 49.0838 59.0221C49.0838 46.1877 38.5621 35.7834 25.583 35.7834V20.291Z" fill="#FF6238"/>
</g>
<defs>
<clipPath id="clip0_397_2208">
<rect width="68" height="78" fill="white" transform="translate(25.583 20.291)"/>
</clipPath>
</defs>
</svg>
