<svg width="100%" height="100%" viewBox="0 0 24 24" fill="inherit" xmlns="http://www.w3.org/2000/svg">
<g id="Decentralise" clip-path="url(#clip0_8_12132)">
<path id="Vector" d="M21.4878 14.051L21.4988 9.95C22.9148 9.711 23.9998 8.484 23.9998 7C23.9998 5.346 22.6538 4 20.9998 4C20.0008 4 19.1208 4.495 18.5758 5.248L14.9748 3.247C14.9818 3.164 14.9998 3.085 14.9998 3C14.9998 1.346 13.6538 0 11.9998 0C10.3458 0 8.99984 1.346 8.99984 3C8.99984 3.086 9.01784 3.168 9.02584 3.252L5.40984 5.23C4.86284 4.488 3.99084 4 3.00084 4C1.34684 4 0.000839844 5.346 0.000839844 7C0.000839844 8.483 1.08384 9.709 2.49984 9.949L2.48884 14.05C1.07084 14.29 -0.0141602 15.516 -0.0141602 17C-0.0141602 18.654 1.33184 20 2.98584 20C3.97584 20 4.84884 19.512 5.39484 18.77L9.01084 20.748C9.00384 20.833 8.98484 20.914 8.98484 21C8.98484 22.654 10.3308 24 11.9848 24C13.6388 24 14.9848 22.654 14.9848 21C14.9848 20.916 14.9668 20.837 14.9598 20.755L18.5758 18.771C19.1228 19.513 19.9948 20 20.9848 20C22.6388 20 23.9848 18.654 23.9848 17C23.9848 15.517 22.9018 14.291 21.4858 14.051H21.4878ZM20.9998 5C22.1028 5 22.9998 5.897 22.9998 7C22.9998 8.103 22.1028 9 20.9998 9C19.8968 9 18.9998 8.103 18.9998 7C18.9998 5.897 19.8968 5 20.9998 5ZM11.9998 1C13.1028 1 13.9998 1.897 13.9998 3C13.9998 4.103 13.1028 5 11.9998 5C10.8968 5 9.99984 4.103 9.99984 3C9.99984 1.897 10.8968 1 11.9998 1ZM0.99984 7C0.99984 5.897 1.89684 5 2.99984 5C4.10284 5 4.99984 5.897 4.99984 7C4.99984 8.103 4.10284 9 2.99984 9C1.89684 9 0.99984 8.103 0.99984 7ZM2.98584 19C1.88284 19 0.98584 18.103 0.98584 17C0.98584 15.897 1.88284 15 2.98584 15C4.08884 15 4.98584 15.897 4.98584 17C4.98584 18.103 4.08884 19 2.98584 19ZM11.9858 23C10.8828 23 9.98584 22.103 9.98584 21C9.98584 19.897 10.8828 19 11.9858 19C13.0888 19 13.9858 19.897 13.9858 21C13.9858 22.103 13.0888 23 11.9858 23ZM17.9858 17C17.9858 17.306 18.0458 17.596 18.1308 17.874L14.7058 19.753C14.2308 18.721 13.1938 18 11.9848 18C10.7758 18 9.74284 18.72 9.26684 19.749L5.83984 17.874C5.92584 17.595 5.98484 17.306 5.98484 17C5.98484 15.517 4.90184 14.291 3.48584 14.051L3.49684 9.95C4.91284 9.711 5.99784 8.484 5.99784 7C5.99784 6.694 5.93784 6.404 5.85284 6.126L9.27984 4.251C9.75584 5.28 10.7908 6 11.9978 6C13.2048 6 14.2418 5.279 14.7168 4.249L18.1358 6.149C18.0548 6.421 17.9978 6.703 17.9978 7.001C17.9978 8.484 19.0808 9.71 20.4968 9.95L20.4858 14.051C19.0698 14.29 17.9848 15.517 17.9848 17.001L17.9858 17ZM20.9858 19C19.8828 19 18.9858 18.103 18.9858 17C18.9858 15.897 19.8828 15 20.9858 15C22.0888 15 22.9858 15.897 22.9858 17C22.9858 18.103 22.0888 19 20.9858 19ZM8.00084 9.711V14.529L11.9998 16.816L16.0008 14.529V9.711L11.9998 7.424L8.00084 9.711ZM14.6838 10.11L12.0028 11.618L9.31984 10.109L11.9998 8.576L14.6838 10.11ZM9.00084 11.078L11.5018 12.485V15.38L9.00084 13.949V11.078ZM12.5018 15.376V12.484L15.0008 11.079V13.949L12.5018 15.376Z" fill="inherit"/>
</g>
<defs>
<clipPath id="clip0_8_12132">
<rect width="24" height="24" fill="inherit"/>
</clipPath>
</defs>
</svg>
