<svg width="100%" height="100%" viewBox="0 0 24 24" fill="inherit" xmlns="http://www.w3.org/2000/svg">
<g id="Defi" clip-path="url(#clip0_8_12136)">
<path id="Vector" d="M12 2C5.271 2 0 4.855 0 8.5V15.5C0 19.145 5.271 22 12 22C18.729 22 24 19.145 24 15.5V8.5C24 4.855 18.729 2 12 2ZM12 3C17.962 3 23 5.519 23 8.5C23 11.481 17.962 14 12 14C6.038 14 1 11.481 1 8.5C1 5.519 6.038 3 12 3ZM7 14.423V20.372C5.876 20.076 4.864 19.685 4 19.223V13.374C4.889 13.801 5.896 14.155 7 14.423ZM8 14.636C9.098 14.84 10.272 14.961 11.5 14.987V20.987C10.276 20.958 9.098 20.826 8 20.604V14.636ZM12.5 14.987C13.728 14.961 14.902 14.84 16 14.636V20.604C14.902 20.826 13.724 20.958 12.5 20.987V14.987ZM17 14.424C18.104 14.156 19.111 13.801 20 13.375V19.224C19.136 19.686 18.124 20.077 17 20.373V14.424ZM1 15.5V11.135C1.501 11.762 2.18 12.331 3 12.833V18.612C1.747 17.72 1 16.645 1 15.501V15.5ZM23 15.5C23 16.645 22.253 17.719 21 18.611V12.832C21.82 12.331 22.499 11.761 23 11.134V15.499V15.5Z" fill="inherit"/>
</g>
<defs>
<clipPath id="clip0_8_12136">
<rect width="24" height="24" fill="inherit"/>
</clipPath>
</defs>
</svg>
