<svg width="312" height="305" viewBox="0 0 312 305" fill="none" xmlns="http://www.w3.org/2000/svg">
<g id="DEFI" filter="url(#filter0_d_558_6128)">
<g clip-path="url(#clip0_558_6128)">
<rect x="118.021" y="56.1211" width="110" height="110" rx="55" transform="rotate(15.7722 118.021 56.1211)" fill="url(#paint0_linear_558_6128)"/>
<g id="Vector">
<path d="M158.324 70.4728C154.358 71.1146 150.458 72.1953 146.444 72.5254C144.459 72.6833 142.777 72.4927 143.492 71.6916C144.896 70.0821 156.644 67.2468 170.256 70.8747C166.224 69.8306 162.996 69.7322 158.324 70.4728Z" fill="#D9D9FE"/>
<path d="M158.324 70.4728C154.358 71.1146 150.458 72.1953 146.444 72.5254C144.459 72.6833 142.777 72.4927 143.492 71.6916C144.896 70.0821 156.644 67.2468 170.256 70.8747C166.224 69.8306 162.996 69.7322 158.324 70.4728Z" fill="url(#paint1_linear_558_6128)"/>
<path d="M158.324 70.4728C154.358 71.1146 150.458 72.1953 146.444 72.5254C144.459 72.6833 142.777 72.4927 143.492 71.6916C144.896 70.0821 156.644 67.2468 170.256 70.8747C166.224 69.8306 162.996 69.7322 158.324 70.4728Z" fill="#131315"/>
</g>
<g id="Vector_2">
<path d="M169.05 73.503C165.938 78.3713 156.681 77.478 156.168 74.5408C155.621 71.3367 164.014 69.2884 170.668 70.9917C170.318 70.9336 170.175 70.9609 170.012 71.1996C169.554 71.9105 169.508 72.7922 169.05 73.503Z" fill="#D9D9FE"/>
<path d="M169.05 73.503C165.938 78.3713 156.681 77.478 156.168 74.5408C155.621 71.3367 164.014 69.2884 170.668 70.9917C170.318 70.9336 170.175 70.9609 170.012 71.1996C169.554 71.9105 169.508 72.7922 169.05 73.503Z" fill="url(#paint2_linear_558_6128)"/>
<path d="M169.05 73.503C165.938 78.3713 156.681 77.478 156.168 74.5408C155.621 71.3367 164.014 69.2884 170.668 70.9917C170.318 70.9336 170.175 70.9609 170.012 71.1996C169.554 71.9105 169.508 72.7922 169.05 73.503Z" fill="#131315"/>
</g>
<g id="Vector_3">
<path d="M180.396 76.7075C183.71 80.1511 183.191 82.6612 180.503 82.6203C177.575 82.5658 171.238 78.7293 171.815 72.6032C171.897 71.6909 171.921 71.4131 171.21 71.1445C174.549 72.1959 178.147 74.3916 180.396 76.7075Z" fill="#D9D9FE"/>
<path d="M180.396 76.7075C183.71 80.1511 183.191 82.6612 180.503 82.6203C177.575 82.5658 171.238 78.7293 171.815 72.6032C171.897 71.6909 171.921 71.4131 171.21 71.1445C174.549 72.1959 178.147 74.3916 180.396 76.7075Z" fill="url(#paint3_linear_558_6128)"/>
<path d="M180.396 76.7075C183.71 80.1511 183.191 82.6612 180.503 82.6203C177.575 82.5658 171.238 78.7293 171.815 72.6032C171.897 71.6909 171.921 71.4131 171.21 71.1445C174.549 72.1959 178.147 74.3916 180.396 76.7075Z" fill="#131315"/>
</g>
<g id="Vector_4">
<path d="M186.676 78.4815C191.187 81.6261 194.788 85.4488 194.258 86.5057C192.976 86.916 188.87 83.1539 185.874 80.41C180.815 75.7959 177.668 73.1044 171.61 71.2578C178.472 73.3315 183.58 76.3328 186.676 78.4815Z" fill="#D9D9FE"/>
<path d="M186.676 78.4815C191.187 81.6261 194.788 85.4488 194.258 86.5057C192.976 86.916 188.87 83.1539 185.874 80.41C180.815 75.7959 177.668 73.1044 171.61 71.2578C178.472 73.3315 183.58 76.3328 186.676 78.4815Z" fill="url(#paint4_linear_558_6128)"/>
<path d="M186.676 78.4815C191.187 81.6261 194.788 85.4488 194.258 86.5057C192.976 86.916 188.87 83.1539 185.874 80.41C180.815 75.7959 177.668 73.1044 171.61 71.2578C178.472 73.3315 183.58 76.3328 186.676 78.4815Z" fill="#131315"/>
</g>
<g id="Vector_5">
<path d="M192.079 82.4611C186.66 77.8264 182.107 75.456 178.745 73.9102C183.664 76.1398 188.134 79.0425 192.079 82.4611Z" fill="#D9D9FE"/>
<path d="M192.079 82.4611C186.66 77.8264 182.107 75.456 178.745 73.9102C183.664 76.1398 188.134 79.0425 192.079 82.4611Z" fill="url(#paint5_linear_558_6128)"/>
<path d="M192.079 82.4611C186.66 77.8264 182.107 75.456 178.745 73.9102C183.664 76.1398 188.134 79.0425 192.079 82.4611Z" fill="#131315"/>
</g>
<g id="Vector_6">
<path d="M130.596 78.4879C126.86 80.9568 118.102 86.7511 116.878 85.8496C116.861 85.5737 116.845 85.244 118.456 83.7201C119.616 82.6382 120.812 81.6207 122.064 80.6459C124.289 78.9159 126.646 77.345 129.094 75.9763C131.543 74.6077 134.119 73.4106 136.756 72.4338C137.454 72.1703 138.146 71.9318 138.849 71.6969C141.284 70.907 141.84 70.9557 142.051 70.9748C142.05 71.0285 142.061 71.0858 142.072 71.1432C141.778 71.4128 141.642 71.5099 140.207 72.3651C136.798 74.3976 135.286 75.3802 130.596 78.4879Z" fill="#D9D9FE"/>
<path d="M130.596 78.4879C126.86 80.9568 118.102 86.7511 116.878 85.8496C116.861 85.5737 116.845 85.244 118.456 83.7201C119.616 82.6382 120.812 81.6207 122.064 80.6459C124.289 78.9159 126.646 77.345 129.094 75.9763C131.543 74.6077 134.119 73.4106 136.756 72.4338C137.454 72.1703 138.146 71.9318 138.849 71.6969C141.284 70.907 141.84 70.9557 142.051 70.9748C142.05 71.0285 142.061 71.0858 142.072 71.1432C141.778 71.4128 141.642 71.5099 140.207 72.3651C136.798 74.3976 135.286 75.3802 130.596 78.4879Z" fill="url(#paint6_linear_558_6128)"/>
<path d="M130.596 78.4879C126.86 80.9568 118.102 86.7511 116.878 85.8496C116.861 85.5737 116.845 85.244 118.456 83.7201C119.616 82.6382 120.812 81.6207 122.064 80.6459C124.289 78.9159 126.646 77.345 129.094 75.9763C131.543 74.6077 134.119 73.4106 136.756 72.4338C137.454 72.1703 138.146 71.9318 138.849 71.6969C141.284 70.907 141.84 70.9557 142.051 70.9748C142.05 71.0285 142.061 71.0858 142.072 71.1432C141.778 71.4128 141.642 71.5099 140.207 72.3651C136.798 74.3976 135.286 75.3802 130.596 78.4879Z" fill="#131315"/>
</g>
<g id="Vector_7">
<path d="M149.805 83.9133C142.43 92.4433 129.579 92.8934 129.382 86.386C129.164 78.9916 144.484 72.1091 151.376 73.5949C156.029 75.2752 151.318 82.1583 149.805 83.9133Z" fill="#D9D9FE"/>
<path d="M149.805 83.9133C142.43 92.4433 129.579 92.8934 129.382 86.386C129.164 78.9916 144.484 72.1091 151.376 73.5949C156.029 75.2752 151.318 82.1583 149.805 83.9133Z" fill="url(#paint7_linear_558_6128)"/>
<path d="M149.805 83.9133C142.43 92.4433 129.579 92.8934 129.382 86.386C129.164 78.9916 144.484 72.1091 151.376 73.5949C156.029 75.2752 151.318 82.1583 149.805 83.9133Z" fill="#131315"/>
</g>
<g id="Vector_8">
<path d="M177.622 91.7674C176.556 101.402 163.027 102.135 157.038 94.9536C150.388 86.9896 159.524 77.6016 167.617 78.3422C168.12 78.3892 168.784 78.536 169.281 78.6493C175.439 80.7142 178.08 87.6 177.622 91.7674Z" fill="#D9D9FE"/>
<path d="M177.622 91.7674C176.556 101.402 163.027 102.135 157.038 94.9536C150.388 86.9896 159.524 77.6016 167.617 78.3422C168.12 78.3892 168.784 78.536 169.281 78.6493C175.439 80.7142 178.08 87.6 177.622 91.7674Z" fill="url(#paint8_linear_558_6128)"/>
<path d="M177.622 91.7674C176.556 101.402 163.027 102.135 157.038 94.9536C150.388 86.9896 159.524 77.6016 167.617 78.3422C168.12 78.3892 168.784 78.536 169.281 78.6493C175.439 80.7142 178.08 87.6 177.622 91.7674Z" fill="#131315"/>
</g>
<g id="Vector_9">
<path d="M199.041 97.8192C201.553 104.967 198.6 109.704 193.074 107.37C182.843 103.057 180.098 85.1089 185.39 83.5675C185.892 83.4245 186.43 83.5359 186.855 83.6153C191.221 85.1602 196.916 91.7974 199.041 97.8192Z" fill="#D9D9FE"/>
<path d="M199.041 97.8192C201.553 104.967 198.6 109.704 193.074 107.37C182.843 103.057 180.098 85.1089 185.39 83.5675C185.892 83.4245 186.43 83.5359 186.855 83.6153C191.221 85.1602 196.916 91.7974 199.041 97.8192Z" fill="url(#paint9_linear_558_6128)"/>
<path d="M199.041 97.8192C201.553 104.967 198.6 109.704 193.074 107.37C182.843 103.057 180.098 85.1089 185.39 83.5675C185.892 83.4245 186.43 83.5359 186.855 83.6153C191.221 85.1602 196.916 91.7974 199.041 97.8192Z" fill="#131315"/>
</g>
<g id="Vector_10">
<path d="M209.406 110.777C209.583 111.64 209.528 111.787 209.442 111.994C209.086 112.056 208.404 111.538 206.086 107.21C205.978 107.016 195.678 86.5682 195.634 86.149C195.65 86.14 195.679 86.1345 195.707 86.1291C195.919 86.2432 196.146 86.402 196.916 87.2295C202.932 93.9302 207.237 102.032 209.406 110.777Z" fill="#D9D9FE"/>
<path d="M209.406 110.777C209.583 111.64 209.528 111.787 209.442 111.994C209.086 112.056 208.404 111.538 206.086 107.21C205.978 107.016 195.678 86.5682 195.634 86.149C195.65 86.14 195.679 86.1345 195.707 86.1291C195.919 86.2432 196.146 86.402 196.916 87.2295C202.932 93.9302 207.237 102.032 209.406 110.777Z" fill="url(#paint10_linear_558_6128)"/>
<path d="M209.406 110.777C209.583 111.64 209.528 111.787 209.442 111.994C209.086 112.056 208.404 111.538 206.086 107.21C205.978 107.016 195.678 86.5682 195.634 86.149C195.65 86.14 195.679 86.1345 195.707 86.1291C195.919 86.2432 196.146 86.402 196.916 87.2295C202.932 93.9302 207.237 102.032 209.406 110.777Z" fill="#131315"/>
</g>
<g id="Vector_11">
<path d="M123.616 102.282C118.19 112.27 109.511 116.488 107.324 110.204C104.617 102.405 115.363 84.7698 124.07 86.3618C128.734 88.1943 126.611 96.7707 123.616 102.282Z" fill="#D9D9FE"/>
<path d="M123.616 102.282C118.19 112.27 109.511 116.488 107.324 110.204C104.617 102.405 115.363 84.7698 124.07 86.3618C128.734 88.1943 126.611 96.7707 123.616 102.282Z" fill="url(#paint11_linear_558_6128)"/>
<path d="M123.616 102.282C118.19 112.27 109.511 116.488 107.324 110.204C104.617 102.405 115.363 84.7698 124.07 86.3618C128.734 88.1943 126.611 96.7707 123.616 102.282Z" fill="#131315"/>
</g>
<g id="Vector_12">
<path d="M156.62 111.603C152.042 122.672 135.082 125.852 129.976 113.769C125.704 103.63 135.466 90.2984 148.402 93.2474C156.959 96.1387 159.33 105.036 156.62 111.603Z" fill="#D9D9FE"/>
<path d="M156.62 111.603C152.042 122.672 135.082 125.852 129.976 113.769C125.704 103.63 135.466 90.2984 148.402 93.2474C156.959 96.1387 159.33 105.036 156.62 111.603Z" fill="url(#paint12_linear_558_6128)"/>
<path d="M156.62 111.603C152.042 122.672 135.082 125.852 129.976 113.769C125.704 103.63 135.466 90.2984 148.402 93.2474C156.959 96.1387 159.33 105.036 156.62 111.603Z" fill="#131315"/>
</g>
<g id="Vector_13">
<path d="M191.082 121.337C188.474 133.26 174.444 135.722 167.629 125.461C159.996 113.966 169.013 100.343 179.696 102.14C180.059 102.202 180.552 102.328 180.908 102.415C190.1 105.553 192.39 115.363 191.082 121.337Z" fill="#D9D9FE"/>
<path d="M191.082 121.337C188.474 133.26 174.444 135.722 167.629 125.461C159.996 113.966 169.013 100.343 179.696 102.14C180.059 102.202 180.552 102.328 180.908 102.415C190.1 105.553 192.39 115.363 191.082 121.337Z" fill="url(#paint13_linear_558_6128)"/>
<path d="M191.082 121.337C188.474 133.26 174.444 135.722 167.629 125.461C159.996 113.966 169.013 100.343 179.696 102.14C180.059 102.202 180.552 102.328 180.908 102.415C190.1 105.553 192.39 115.363 191.082 121.337Z" fill="#131315"/>
</g>
<g id="Vector_14">
<path d="M209.877 126.646C209.102 136.403 204.318 142.005 200.392 137.752C194.346 131.205 196.764 108.521 203.479 108.858C203.666 108.87 203.908 108.925 204.087 108.962C208.441 110.694 210.456 119.314 209.877 126.646Z" fill="#D9D9FE"/>
<path d="M209.877 126.646C209.102 136.403 204.318 142.005 200.392 137.752C194.346 131.205 196.764 108.521 203.479 108.858C203.666 108.87 203.908 108.925 204.087 108.962C208.441 110.694 210.456 119.314 209.877 126.646Z" fill="url(#paint14_linear_558_6128)"/>
<path d="M209.877 126.646C209.102 136.403 204.318 142.005 200.392 137.752C194.346 131.205 196.764 108.521 203.479 108.858C203.666 108.87 203.908 108.925 204.087 108.962C208.441 110.694 210.456 119.314 209.877 126.646Z" fill="#131315"/>
</g>
<g id="Vector_15">
<path d="M105.947 127.382C105.786 132.08 105.073 140.608 103.529 139.304C103.133 138.976 102.744 137.999 102.365 136.414L102.055 135.012C101.631 132.479 101.211 129.067 100.984 126.509C100.961 123.9 101.075 120.422 101.271 117.807C101.542 116.08 101.881 113.777 102.239 112.075C102.886 109.303 103.394 109.284 103.765 109.267C105.653 110.41 106.181 120.549 105.947 127.382Z" fill="#D9D9FE"/>
<path d="M105.947 127.382C105.786 132.08 105.073 140.608 103.529 139.304C103.133 138.976 102.744 137.999 102.365 136.414L102.055 135.012C101.631 132.479 101.211 129.067 100.984 126.509C100.961 123.9 101.075 120.422 101.271 117.807C101.542 116.08 101.881 113.777 102.239 112.075C102.886 109.303 103.394 109.284 103.765 109.267C105.653 110.41 106.181 120.549 105.947 127.382Z" fill="url(#paint15_linear_558_6128)"/>
<path d="M105.947 127.382C105.786 132.08 105.073 140.608 103.529 139.304C103.133 138.976 102.744 137.999 102.365 136.414L102.055 135.012C101.631 132.479 101.211 129.067 100.984 126.509C100.961 123.9 101.075 120.422 101.271 117.807C101.542 116.08 101.881 113.777 102.239 112.075C102.886 109.303 103.394 109.284 103.765 109.267C105.653 110.41 106.181 120.549 105.947 127.382Z" fill="#131315"/>
</g>
<g id="Vector_16">
<path d="M130.61 134.347C128.179 144.491 118.416 148.077 112.522 137.967C106.546 127.713 111.082 112.133 121.936 114.385C129.582 117.141 132.393 126.881 130.61 134.347Z" fill="#D9D9FE"/>
<path d="M130.61 134.347C128.179 144.491 118.416 148.077 112.522 137.967C106.546 127.713 111.082 112.133 121.936 114.385C129.582 117.141 132.393 126.881 130.61 134.347Z" fill="url(#paint16_linear_558_6128)"/>
<path d="M130.61 134.347C128.179 144.491 118.416 148.077 112.522 137.967C106.546 127.713 111.082 112.133 121.936 114.385C129.582 117.141 132.393 126.881 130.61 134.347Z" fill="#131315"/>
</g>
<g id="Vector_17">
<path d="M166.301 144.428C160.206 156.546 142.586 155.052 138.57 142.085C135.423 131.952 143.891 121.278 156.861 124.25C168.404 128.147 169.333 138.399 166.301 144.428Z" fill="#D9D9FE"/>
<path d="M166.301 144.428C160.206 156.546 142.586 155.052 138.57 142.085C135.423 131.952 143.891 121.278 156.861 124.25C168.404 128.147 169.333 138.399 166.301 144.428Z" fill="url(#paint17_linear_558_6128)"/>
<path d="M166.301 144.428C160.206 156.546 142.586 155.052 138.57 142.085C135.423 131.952 143.891 121.278 156.861 124.25C168.404 128.147 169.333 138.399 166.301 144.428Z" fill="#131315"/>
</g>
<g id="Vector_18">
<path d="M193.789 152.192C187.374 161.793 174.605 164.354 172.807 154.005C171.137 144.452 180.868 131.803 191.159 133.937C198.945 136.774 197.69 146.354 193.789 152.192Z" fill="#D9D9FE"/>
<path d="M193.789 152.192C187.374 161.793 174.605 164.354 172.807 154.005C171.137 144.452 180.868 131.803 191.159 133.937C198.945 136.774 197.69 146.354 193.789 152.192Z" fill="url(#paint18_linear_558_6128)"/>
<path d="M193.789 152.192C187.374 161.793 174.605 164.354 172.807 154.005C171.137 144.452 180.868 131.803 191.159 133.937C198.945 136.774 197.69 146.354 193.789 152.192Z" fill="#131315"/>
</g>
<g id="Vector_19">
<path d="M194.079 163.701C192.579 165.026 192.353 164.528 192.426 163.885C192.797 160.506 205.159 138.976 208.433 138.817C208.69 139.011 208.82 139.224 208.515 140.399C205.654 149.567 200.598 157.477 194.079 163.701Z" fill="#D9D9FE"/>
<path d="M194.079 163.701C192.579 165.026 192.353 164.528 192.426 163.885C192.797 160.506 205.159 138.976 208.433 138.817C208.69 139.011 208.82 139.224 208.515 140.399C205.654 149.567 200.598 157.477 194.079 163.701Z" fill="url(#paint19_linear_558_6128)"/>
<path d="M194.079 163.701C192.579 165.026 192.353 164.528 192.426 163.885C192.797 160.506 205.159 138.976 208.433 138.817C208.69 139.011 208.82 139.224 208.515 140.399C205.654 149.567 200.598 157.477 194.079 163.701Z" fill="#131315"/>
</g>
<g id="Vector_20">
<path d="M136.341 174.041C137.808 175.621 138.986 176.347 141.022 176.921C129.407 173.614 122.184 165.664 124.366 164.518C124.717 164.333 125.281 164.451 125.69 164.54C126.479 164.817 127.962 165.331 130.541 167.631C132.71 169.559 134.387 171.93 136.341 174.041Z" fill="#D9D9FE"/>
<path d="M136.341 174.041C137.808 175.621 138.986 176.347 141.022 176.921C129.407 173.614 122.184 165.664 124.366 164.518C124.717 164.333 125.281 164.451 125.69 164.54C126.479 164.817 127.962 165.331 130.541 167.631C132.71 169.559 134.387 171.93 136.341 174.041Z" fill="url(#paint20_linear_558_6128)"/>
<path d="M136.341 174.041C137.808 175.621 138.986 176.347 141.022 176.921C129.407 173.614 122.184 165.664 124.366 164.518C124.717 164.333 125.281 164.451 125.69 164.54C126.479 164.817 127.962 165.331 130.541 167.631C132.71 169.559 134.387 171.93 136.341 174.041Z" fill="#131315"/>
</g>
<g id="Vector_21">
<path d="M145.085 176.511C143.515 177.124 141.738 177.124 141.022 176.921C138.194 175.933 135.391 171.211 139.157 169.645C140.831 168.952 142.627 169.364 143.58 169.593C148.937 171.377 148.519 174.824 145.632 176.258C145.487 176.339 145.256 176.437 145.085 176.511Z" fill="#D9D9FE"/>
<path d="M145.085 176.511C143.515 177.124 141.738 177.124 141.022 176.921C138.194 175.933 135.391 171.211 139.157 169.645C140.831 168.952 142.627 169.364 143.58 169.593C148.937 171.377 148.519 174.824 145.632 176.258C145.487 176.339 145.256 176.437 145.085 176.511Z" fill="url(#paint21_linear_558_6128)"/>
<path d="M145.085 176.511C143.515 177.124 141.738 177.124 141.022 176.921C138.194 175.933 135.391 171.211 139.157 169.645C140.831 168.952 142.627 169.364 143.58 169.593C148.937 171.377 148.519 174.824 145.632 176.258C145.487 176.339 145.256 176.437 145.085 176.511Z" fill="#131315"/>
</g>
<g id="Vector_22">
<path d="M151.819 178.412C148.293 178.406 144.363 177.865 141.021 176.921C148.044 178.81 154.163 173.043 161.143 174.553C163.812 175.524 161.132 176.801 160.561 177.046C158.564 177.919 155.385 178.417 151.819 178.412Z" fill="#D9D9FE"/>
<path d="M151.819 178.412C148.293 178.406 144.363 177.865 141.021 176.921C148.044 178.81 154.163 173.043 161.143 174.553C163.812 175.524 161.132 176.801 160.561 177.046C158.564 177.919 155.385 178.417 151.819 178.412Z" fill="url(#paint22_linear_558_6128)"/>
<path d="M151.819 178.412C148.293 178.406 144.363 177.865 141.021 176.921C148.044 178.81 154.163 173.043 161.143 174.553C163.812 175.524 161.132 176.801 160.561 177.046C158.564 177.919 155.385 178.417 151.819 178.412Z" fill="#131315"/>
</g>
<g id="Vector_23">
<path d="M120.165 155.756C123.23 165.175 121.28 164.299 120.448 163.928C112.251 160.244 102.304 140.708 107.929 139.329C108.277 139.251 108.756 139.332 109.106 139.39C113.941 141.244 118.09 149.369 120.165 155.756Z" fill="#D9D9FE"/>
<path d="M120.165 155.756C123.23 165.175 121.28 164.299 120.448 163.928C112.251 160.244 102.304 140.708 107.929 139.329C108.277 139.251 108.756 139.332 109.106 139.39C113.941 141.244 118.09 149.369 120.165 155.756Z" fill="url(#paint23_linear_558_6128)"/>
<path d="M120.165 155.756C123.23 165.175 121.28 164.299 120.448 163.928C112.251 160.244 102.304 140.708 107.929 139.329C108.277 139.251 108.756 139.332 109.106 139.39C113.941 141.244 118.09 149.369 120.165 155.756Z" fill="#131315"/>
</g>
<g id="Vector_24">
<path d="M143.169 162.253C140.153 171.106 130.664 169.497 125.373 159.219C121.478 151.64 124.195 144.18 133.417 146.256C141.848 149.112 145.038 156.79 143.169 162.253Z" fill="#D9D9FE"/>
<path d="M143.169 162.253C140.153 171.106 130.664 169.497 125.373 159.219C121.478 151.64 124.195 144.18 133.417 146.256C141.848 149.112 145.038 156.79 143.169 162.253Z" fill="url(#paint24_linear_558_6128)"/>
<path d="M143.169 162.253C140.153 171.106 130.664 169.497 125.373 159.219C121.478 151.64 124.195 144.18 133.417 146.256C141.848 149.112 145.038 156.79 143.169 162.253Z" fill="#131315"/>
</g>
<g id="Vector_25">
<path d="M167.217 169.046C160.416 174.295 147.605 176.573 148.642 165.792C149.281 159.209 156.814 153.38 165.932 155.44C173.773 158.129 172.924 164.64 167.217 169.046Z" fill="#D9D9FE"/>
<path d="M167.217 169.046C160.416 174.295 147.605 176.573 148.642 165.792C149.281 159.209 156.814 153.38 165.932 155.44C173.773 158.129 172.924 164.64 167.217 169.046Z" fill="url(#paint25_linear_558_6128)"/>
<path d="M167.217 169.046C160.416 174.295 147.605 176.573 148.642 165.792C149.281 159.209 156.814 153.38 165.932 155.44C173.773 158.129 172.924 164.64 167.217 169.046Z" fill="#131315"/>
</g>
<g id="Vector_26">
<path d="M180.306 172.743C173.408 176.27 164.496 177.901 165.184 175.994C165.92 173.966 181.337 160.591 189.084 161.979C192.839 163.528 187.348 169.134 180.306 172.743Z" fill="#D9D9FE"/>
<path d="M180.306 172.743C173.408 176.27 164.496 177.901 165.184 175.994C165.92 173.966 181.337 160.591 189.084 161.979C192.839 163.528 187.348 169.134 180.306 172.743Z" fill="url(#paint26_linear_558_6128)"/>
<path d="M180.306 172.743C173.408 176.27 164.496 177.901 165.184 175.994C165.92 173.966 181.337 160.591 189.084 161.979C192.839 163.528 187.348 169.134 180.306 172.743Z" fill="#131315"/>
</g>
<g id="Vector_27">
<path d="M176.545 175.014C180.651 173.301 184.149 171.388 187.888 168.812C184.373 171.316 180.557 173.396 176.545 175.014Z" fill="#D9D9FE"/>
<path d="M176.545 175.014C180.651 173.301 184.149 171.388 187.888 168.812C184.373 171.316 180.557 173.396 176.545 175.014Z" fill="url(#paint27_linear_558_6128)"/>
<path d="M176.545 175.014C180.651 173.301 184.149 171.388 187.888 168.812C184.373 171.316 180.557 173.396 176.545 175.014Z" fill="#131315"/>
</g>
</g>
</g>
<defs>
<filter id="filter0_d_558_6128" x="-11.8789" y="-18.8789" width="335.758" height="335.758" filterUnits="userSpaceOnUse" color-interpolation-filters="sRGB">
<feFlood flood-opacity="0" result="BackgroundImageFix"/>
<feColorMatrix in="SourceAlpha" type="matrix" values="0 0 0 0 0 0 0 0 0 0 0 0 0 0 0 0 0 0 127 0" result="hardAlpha"/>
<feOffset dy="25"/>
<feGaussianBlur stdDeviation="50"/>
<feComposite in2="hardAlpha" operator="out"/>
<feColorMatrix type="matrix" values="0 0 0 0 0.0392157 0 0 0 0 0.643137 0 0 0 0 0.572549 0 0 0 0.42 0"/>
<feBlend mode="normal" in2="BackgroundImageFix" result="effect1_dropShadow_558_6128"/>
<feBlend mode="normal" in="SourceGraphic" in2="effect1_dropShadow_558_6128" result="shape"/>
</filter>
<linearGradient id="paint0_linear_558_6128" x1="118.021" y1="83.6992" x2="228.021" y2="83.6992" gradientUnits="userSpaceOnUse">
<stop stop-color="#03FCF8"/>
<stop offset="1" stop-color="#04F79F"/>
</linearGradient>
<linearGradient id="paint1_linear_558_6128" x1="144.283" y1="67.927" x2="184.475" y2="79.7754" gradientUnits="userSpaceOnUse">
<stop stop-color="#CBDAFF"/>
<stop offset="1" stop-color="#F1D6FB"/>
</linearGradient>
<linearGradient id="paint2_linear_558_6128" x1="156.776" y1="71.4218" x2="177.457" y2="77.395" gradientUnits="userSpaceOnUse">
<stop stop-color="#CBDAFF"/>
<stop offset="1" stop-color="#F1D6FB"/>
</linearGradient>
<linearGradient id="paint3_linear_558_6128" x1="169.97" y1="75.1732" x2="191.625" y2="81.4334" gradientUnits="userSpaceOnUse">
<stop stop-color="#CBDAFF"/>
<stop offset="1" stop-color="#F1D6FB"/>
</linearGradient>
<linearGradient id="paint4_linear_558_6128" x1="170.29" y1="75.2559" x2="211.001" y2="87.2659" gradientUnits="userSpaceOnUse">
<stop stop-color="#CBDAFF"/>
<stop offset="1" stop-color="#F1D6FB"/>
</linearGradient>
<linearGradient id="paint5_linear_558_6128" x1="178.033" y1="76.0353" x2="201.805" y2="83.0773" gradientUnits="userSpaceOnUse">
<stop stop-color="#CBDAFF"/>
<stop offset="1" stop-color="#F1D6FB"/>
</linearGradient>
<linearGradient id="paint6_linear_558_6128" x1="119.64" y1="75.3466" x2="151.566" y2="84.4918" gradientUnits="userSpaceOnUse">
<stop stop-color="#CBDAFF"/>
<stop offset="1" stop-color="#F1D6FB"/>
</linearGradient>
<linearGradient id="paint7_linear_558_6128" x1="131.156" y1="78.6257" x2="163.922" y2="88.0145" gradientUnits="userSpaceOnUse">
<stop stop-color="#CBDAFF"/>
<stop offset="1" stop-color="#F1D6FB"/>
</linearGradient>
<linearGradient id="paint8_linear_558_6128" x1="155.277" y1="85.4475" x2="191.745" y2="95.914" gradientUnits="userSpaceOnUse">
<stop stop-color="#CBDAFF"/>
<stop offset="1" stop-color="#F1D6FB"/>
</linearGradient>
<linearGradient id="paint9_linear_558_6128" x1="181.177" y1="92.742" x2="214.069" y2="102.168" gradientUnits="userSpaceOnUse">
<stop stop-color="#CBDAFF"/>
<stop offset="1" stop-color="#F1D6FB"/>
</linearGradient>
<linearGradient id="paint10_linear_558_6128" x1="192.706" y1="95.986" x2="224.669" y2="105.142" gradientUnits="userSpaceOnUse">
<stop stop-color="#CBDAFF"/>
<stop offset="1" stop-color="#F1D6FB"/>
</linearGradient>
<linearGradient id="paint11_linear_558_6128" x1="109.132" y1="97.0325" x2="134.256" y2="104.186" gradientUnits="userSpaceOnUse">
<stop stop-color="#CBDAFF"/>
<stop offset="1" stop-color="#F1D6FB"/>
</linearGradient>
<linearGradient id="paint12_linear_558_6128" x1="129.808" y1="102.918" x2="173.932" y2="115.555" gradientUnits="userSpaceOnUse">
<stop stop-color="#CBDAFF"/>
<stop offset="1" stop-color="#F1D6FB"/>
</linearGradient>
<linearGradient id="paint13_linear_558_6128" x1="165.009" y1="112.776" x2="207.873" y2="125.049" gradientUnits="userSpaceOnUse">
<stop stop-color="#CBDAFF"/>
<stop offset="1" stop-color="#F1D6FB"/>
</linearGradient>
<linearGradient id="paint14_linear_558_6128" x1="196.282" y1="121.634" x2="219.743" y2="128.31" gradientUnits="userSpaceOnUse">
<stop stop-color="#CBDAFF"/>
<stop offset="1" stop-color="#F1D6FB"/>
</linearGradient>
<linearGradient id="paint15_linear_558_6128" x1="99.1644" y1="122.633" x2="114.108" y2="126.874" gradientUnits="userSpaceOnUse">
<stop stop-color="#CBDAFF"/>
<stop offset="1" stop-color="#F1D6FB"/>
</linearGradient>
<linearGradient id="paint16_linear_558_6128" x1="109.567" y1="125.546" x2="144.956" y2="135.657" gradientUnits="userSpaceOnUse">
<stop stop-color="#CBDAFF"/>
<stop offset="1" stop-color="#F1D6FB"/>
</linearGradient>
<linearGradient id="paint17_linear_558_6128" x1="138.302" y1="133.678" x2="185.313" y2="147.159" gradientUnits="userSpaceOnUse">
<stop stop-color="#CBDAFF"/>
<stop offset="1" stop-color="#F1D6FB"/>
</linearGradient>
<linearGradient id="paint18_linear_558_6128" x1="174.114" y1="143.788" x2="208.679" y2="153.66" gradientUnits="userSpaceOnUse">
<stop stop-color="#CBDAFF"/>
<stop offset="1" stop-color="#F1D6FB"/>
</linearGradient>
<linearGradient id="paint19_linear_558_6128" x1="196.231" y1="150.039" x2="210.609" y2="154.119" gradientUnits="userSpaceOnUse">
<stop stop-color="#CBDAFF"/>
<stop offset="1" stop-color="#F1D6FB"/>
</linearGradient>
<linearGradient id="paint20_linear_558_6128" x1="123.084" y1="167.718" x2="153.891" y2="176.746" gradientUnits="userSpaceOnUse">
<stop stop-color="#CBDAFF"/>
<stop offset="1" stop-color="#F1D6FB"/>
</linearGradient>
<linearGradient id="paint21_linear_558_6128" x1="137.263" y1="171.723" x2="153.851" y2="176.503" gradientUnits="userSpaceOnUse">
<stop stop-color="#CBDAFF"/>
<stop offset="1" stop-color="#F1D6FB"/>
</linearGradient>
<linearGradient id="paint22_linear_558_6128" x1="141.966" y1="173.051" x2="173.564" y2="182.32" gradientUnits="userSpaceOnUse">
<stop stop-color="#CBDAFF"/>
<stop offset="1" stop-color="#F1D6FB"/>
</linearGradient>
<linearGradient id="paint23_linear_558_6128" x1="104.161" y1="148.387" x2="137.042" y2="157.814" gradientUnits="userSpaceOnUse">
<stop stop-color="#CBDAFF"/>
<stop offset="1" stop-color="#F1D6FB"/>
</linearGradient>
<linearGradient id="paint24_linear_558_6128" x1="122.9" y1="153.602" x2="157.049" y2="163.399" gradientUnits="userSpaceOnUse">
<stop stop-color="#CBDAFF"/>
<stop offset="1" stop-color="#F1D6FB"/>
</linearGradient>
<linearGradient id="paint25_linear_558_6128" x1="149.614" y1="161.227" x2="183.301" y2="170.889" gradientUnits="userSpaceOnUse">
<stop stop-color="#CBDAFF"/>
<stop offset="1" stop-color="#F1D6FB"/>
</linearGradient>
<linearGradient id="paint26_linear_558_6128" x1="167.76" y1="166.323" x2="200.589" y2="175.735" gradientUnits="userSpaceOnUse">
<stop stop-color="#CBDAFF"/>
<stop offset="1" stop-color="#F1D6FB"/>
</linearGradient>
<linearGradient id="paint27_linear_558_6128" x1="177.746" y1="170.52" x2="192.261" y2="174.682" gradientUnits="userSpaceOnUse">
<stop stop-color="#CBDAFF"/>
<stop offset="1" stop-color="#F1D6FB"/>
</linearGradient>
<clipPath id="clip0_558_6128">
<rect x="118.021" y="56.1211" width="110" height="110" rx="55" transform="rotate(15.7722 118.021 56.1211)" fill="white"/>
</clipPath>
</defs>
</svg>
