<svg width="373" height="373" viewBox="0 0 373 373" fill="none" xmlns="http://www.w3.org/2000/svg">
<g filter="url(#filter0_d_558_6098)">
<g clip-path="url(#clip0_558_6098)">
<rect x="137.789" y="50.832" width="171" height="171" rx="85.5" transform="rotate(21.2433 137.789 50.832)" fill="url(#paint0_linear_558_6098)"/>
<path d="M198.029 79.0149C191.796 79.4203 185.601 80.5146 179.341 80.4306C176.247 80.3808 173.671 79.8365 174.896 78.7027C177.307 76.4202 195.908 73.7738 216.435 81.4056C210.349 79.1921 205.369 78.5614 198.029 79.0149Z" fill="#D9D9FE"/>
<path d="M198.029 79.0149C191.796 79.4203 185.601 80.5146 179.341 80.4306C176.247 80.3808 173.671 79.8365 174.896 78.7027C177.307 76.4202 195.908 73.7738 216.435 81.4056C210.349 79.1921 205.369 78.5614 198.029 79.0149Z" fill="url(#paint1_linear_558_6098)"/>
<path d="M198.029 79.0149C191.796 79.4203 185.601 80.5146 179.341 80.4306C176.247 80.3808 173.671 79.8365 174.896 78.7027C177.307 76.4202 195.908 73.7738 216.435 81.4056C210.349 79.1921 205.369 78.5614 198.029 79.0149Z" fill="#131315"/>
<path d="M214.179 85.2923C208.643 92.3646 194.45 89.6102 194.091 84.989C193.72 79.9497 207.011 78.0239 217.056 81.646C216.523 81.5042 216.297 81.5252 216.01 81.8705C215.196 82.9027 214.994 84.2603 214.179 85.2923Z" fill="#D9D9FE"/>
<path d="M214.179 85.2923C208.643 92.3646 194.45 89.6102 194.091 84.989C193.72 79.9497 207.011 78.0239 217.056 81.646C216.523 81.5042 216.297 81.5252 216.01 81.8705C215.196 82.9027 214.994 84.2603 214.179 85.2923Z" fill="url(#paint2_linear_558_6098)"/>
<path d="M214.179 85.2923C208.643 92.3646 194.45 89.6102 194.091 84.989C193.72 79.9497 207.011 78.0239 217.056 81.646C216.523 81.5042 216.297 81.5252 216.01 81.8705C215.196 82.9027 214.994 84.2603 214.179 85.2923Z" fill="#131315"/>
<path d="M231.262 91.9329C235.88 97.753 234.705 101.56 230.551 101.099C226.028 100.58 216.79 93.7042 218.592 84.3098C218.853 82.9102 218.931 82.4838 217.871 81.9629C222.882 84.0847 228.125 88.0159 231.262 91.9329Z" fill="#D9D9FE"/>
<path d="M231.262 91.9329C235.88 97.753 234.705 101.56 230.551 101.099C226.028 100.58 216.79 93.7042 218.592 84.3098C218.853 82.9102 218.931 82.4838 217.871 81.9629C222.882 84.0847 228.125 88.0159 231.262 91.9329Z" fill="url(#paint3_linear_558_6098)"/>
<path d="M231.262 91.9329C235.88 97.753 234.705 101.56 230.551 101.099C226.028 100.58 216.79 93.7042 218.592 84.3098C218.853 82.9102 218.931 82.4838 217.871 81.9629C222.882 84.0847 228.125 88.0159 231.262 91.9329Z" fill="#131315"/>
<path d="M240.718 95.6097C247.232 101.144 252.237 107.594 251.262 109.151C249.216 109.595 243.42 103.165 239.19 98.475C232.046 90.5849 227.575 85.9536 218.475 82.1982C228.786 86.4242 236.245 91.8257 240.718 95.6097Z" fill="#D9D9FE"/>
<path d="M240.718 95.6097C247.232 101.144 252.237 107.594 251.262 109.151C249.216 109.595 243.42 103.165 239.19 98.475C232.046 90.5849 227.575 85.9536 218.475 82.1982C228.786 86.4242 236.245 91.8257 240.718 95.6097Z" fill="url(#paint4_linear_558_6098)"/>
<path d="M240.718 95.6097C247.232 101.144 252.237 107.594 251.262 109.151C249.216 109.595 243.42 103.165 239.19 98.475C232.046 90.5849 227.575 85.9536 218.475 82.1982C228.786 86.4242 236.245 91.8257 240.718 95.6097Z" fill="#131315"/>
<path d="M248.488 102.569C240.789 94.5938 234.094 90.2508 229.121 87.3604C236.402 91.5396 242.89 96.6941 248.488 102.569Z" fill="#D9D9FE"/>
<path d="M248.488 102.569C240.789 94.5938 234.094 90.2508 229.121 87.3604C236.402 91.5396 242.89 96.6941 248.488 102.569Z" fill="url(#paint5_linear_558_6098)"/>
<path d="M248.488 102.569C240.789 94.5938 234.094 90.2508 229.121 87.3604C236.402 91.5396 242.89 96.6941 248.488 102.569Z" fill="#131315"/>
<path d="M153.936 87.3074C147.789 90.5742 133.376 98.2425 131.616 96.6661C131.63 96.2366 131.655 95.7241 134.374 93.6047C136.329 92.1024 138.331 90.7052 140.413 89.3823C144.113 87.035 147.992 84.9533 151.984 83.1983C155.976 81.4432 160.14 79.9728 164.365 78.8519C165.485 78.5476 166.59 78.2811 167.714 78.0219C171.598 77.1604 172.451 77.3181 172.776 77.379C172.765 77.4619 172.774 77.5522 172.782 77.6426C172.289 78.0163 172.064 78.1464 169.716 79.2571C164.139 81.897 161.654 83.1935 153.936 87.3074Z" fill="#D9D9FE"/>
<path d="M153.936 87.3074C147.789 90.5742 133.376 98.2425 131.616 96.6661C131.63 96.2366 131.655 95.7241 134.374 93.6047C136.329 92.1024 138.331 90.7052 140.413 89.3823C144.113 87.035 147.992 84.9533 151.984 83.1983C155.976 81.4432 160.14 79.9728 164.365 78.8519C165.485 78.5476 166.59 78.2811 167.714 78.0219C171.598 77.1604 172.451 77.3181 172.776 77.379C172.765 77.4619 172.774 77.5522 172.782 77.6426C172.289 78.0163 172.064 78.1464 169.716 79.2571C164.139 81.897 161.654 83.1935 153.936 87.3074Z" fill="url(#paint6_linear_558_6098)"/>
<path d="M153.936 87.3074C147.789 90.5742 133.376 98.2425 131.616 96.6661C131.63 96.2366 131.655 95.7241 134.374 93.6047C136.329 92.1024 138.331 90.7052 140.413 89.3823C144.113 87.035 147.992 84.9533 151.984 83.1983C155.976 81.4432 160.14 79.9728 164.365 78.8519C165.485 78.5476 166.59 78.2811 167.714 78.0219C171.598 77.1604 172.451 77.3181 172.776 77.379C172.765 77.4619 172.774 77.5522 172.782 77.6426C172.289 78.0163 172.064 78.1464 169.716 79.2571C164.139 81.897 161.654 83.1935 153.936 87.3074Z" fill="#131315"/>
<path d="M182.856 98.5498C170.18 110.657 150.226 109.448 150.885 99.3494C151.645 87.8745 176.371 79.4948 186.816 82.8155C193.768 86.1054 185.457 96.0584 182.856 98.5498Z" fill="#D9D9FE"/>
<path d="M182.856 98.5498C170.18 110.657 150.226 109.448 150.885 99.3494C151.645 87.8745 176.371 79.4948 186.816 82.8155C193.768 86.1054 185.457 96.0584 182.856 98.5498Z" fill="url(#paint7_linear_558_6098)"/>
<path d="M182.856 98.5498C170.18 110.657 150.226 109.448 150.885 99.3494C151.645 87.8745 176.371 79.4948 186.816 82.8155C193.768 86.1054 185.457 96.0584 182.856 98.5498Z" fill="#131315"/>
<path d="M224.738 114.827C221.66 129.578 200.617 128.707 192.413 116.707C183.304 103.397 198.833 90.2239 211.246 92.5695C212.017 92.7166 213.022 93.0423 213.775 93.2913C222.999 97.3994 226.064 108.446 224.738 114.827Z" fill="#D9D9FE"/>
<path d="M224.738 114.827C221.66 129.578 200.617 128.707 192.413 116.707C183.304 103.397 198.833 90.2239 211.246 92.5695C212.017 92.7166 213.022 93.0423 213.775 93.2913C222.999 97.3994 226.064 108.446 224.738 114.827Z" fill="url(#paint8_linear_558_6098)"/>
<path d="M224.738 114.827C221.66 129.578 200.617 128.707 192.413 116.707C183.304 103.397 198.833 90.2239 211.246 92.5695C212.017 92.7166 213.022 93.0423 213.775 93.2913C222.999 97.3994 226.064 108.446 224.738 114.827Z" fill="#131315"/>
<path d="M256.984 127.367C259.812 138.801 254.541 145.693 246.335 141.263C231.142 133.072 229.555 104.891 237.973 103.29C238.77 103.143 239.587 103.395 240.233 103.581C246.76 106.619 254.589 117.734 256.984 127.367Z" fill="#D9D9FE"/>
<path d="M256.984 127.367C259.812 138.801 254.541 145.693 246.335 141.263C231.142 133.072 229.555 104.891 237.973 103.29C238.77 103.143 239.587 103.395 240.233 103.581C246.76 106.619 254.589 117.734 256.984 127.367Z" fill="url(#paint9_linear_558_6098)"/>
<path d="M256.984 127.367C259.812 138.801 254.541 145.693 246.335 141.263C231.142 133.072 229.555 104.891 237.973 103.29C238.77 103.143 239.587 103.395 240.233 103.581C246.76 106.619 254.589 117.734 256.984 127.367Z" fill="#131315"/>
<path d="M271.104 148.955C271.25 150.317 271.143 150.536 270.98 150.843C270.419 150.886 269.441 149.984 266.496 142.943C266.357 142.628 253.449 109.458 253.443 108.803C253.469 108.791 253.514 108.787 253.56 108.783C253.871 108.991 254.198 109.27 255.267 110.665C263.583 121.926 269.044 135.1 271.104 148.955Z" fill="#D9D9FE"/>
<path d="M271.104 148.955C271.25 150.317 271.143 150.536 270.98 150.843C270.419 150.886 269.441 149.984 266.496 142.943C266.357 142.628 253.449 109.458 253.443 108.803C253.469 108.791 253.514 108.787 253.56 108.783C253.871 108.991 254.198 109.27 255.267 110.665C263.583 121.926 269.044 135.1 271.104 148.955Z" fill="url(#paint10_linear_558_6098)"/>
<path d="M271.104 148.955C271.25 150.317 271.143 150.536 270.98 150.843C270.419 150.886 269.441 149.984 266.496 142.943C266.357 142.628 253.449 109.458 253.443 108.803C253.469 108.791 253.514 108.787 253.56 108.783C253.871 108.991 254.198 109.27 255.267 110.665C263.583 121.926 269.044 135.1 271.104 148.955Z" fill="#131315"/>
<path d="M139.608 123.093C129.731 137.746 115.675 142.985 113.222 132.938C110.188 120.468 129.432 94.7707 142.67 98.5247C149.616 102.052 145.058 115.009 139.608 123.093Z" fill="#D9D9FE"/>
<path d="M139.608 123.093C129.731 137.746 115.675 142.985 113.222 132.938C110.188 120.468 129.432 94.7707 142.67 98.5247C149.616 102.052 145.058 115.009 139.608 123.093Z" fill="url(#paint11_linear_558_6098)"/>
<path d="M139.608 123.093C129.731 137.746 115.675 142.985 113.222 132.938C110.188 120.468 129.432 94.7707 142.67 98.5247C149.616 102.052 145.058 115.009 139.608 123.093Z" fill="#131315"/>
<path d="M189.296 142.41C180.572 158.86 153.856 161.266 147.745 141.812C142.637 125.49 159.718 106.306 179.299 112.787C192.113 118.529 194.463 132.649 189.296 142.41Z" fill="#D9D9FE"/>
<path d="M189.296 142.41C180.572 158.86 153.856 161.266 147.745 141.812C142.637 125.49 159.718 106.306 179.299 112.787C192.113 118.529 194.463 132.649 189.296 142.41Z" fill="url(#paint12_linear_558_6098)"/>
<path d="M189.296 142.41C180.572 158.86 153.856 161.266 147.745 141.812C142.637 125.49 159.718 106.306 179.299 112.787C192.113 118.529 194.463 132.649 189.296 142.41Z" fill="#131315"/>
<path d="M241.183 162.581C235.38 180.645 213.304 182.375 204.279 165.487C194.171 146.568 210.143 126.822 226.409 131.187C226.961 131.337 227.706 131.605 228.243 131.792C242.003 138.011 244.092 153.53 241.183 162.581Z" fill="#D9D9FE"/>
<path d="M241.183 162.581C235.38 180.645 213.304 182.375 204.279 165.487C194.171 146.568 210.143 126.822 226.409 131.187C226.961 131.337 227.706 131.605 228.243 131.792C242.003 138.011 244.092 153.53 241.183 162.581Z" fill="url(#paint13_linear_558_6098)"/>
<path d="M241.183 162.581C235.38 180.645 213.304 182.375 204.279 165.487C194.171 146.568 210.143 126.822 226.409 131.187C226.961 131.337 227.706 131.605 228.243 131.792C242.003 138.011 244.092 153.53 241.183 162.581Z" fill="#131315"/>
<path d="M269.482 173.581C266.836 188.565 258.603 196.525 253.158 189.361C244.772 178.334 251.877 143.589 262.218 145.107C262.505 145.153 262.871 145.274 263.143 145.358C269.625 148.682 271.465 162.32 269.482 173.581Z" fill="#D9D9FE"/>
<path d="M269.482 173.581C266.836 188.565 258.603 196.525 253.158 189.361C244.772 178.334 251.877 143.589 262.218 145.107C262.505 145.153 262.871 145.274 263.143 145.358C269.625 148.682 271.465 162.32 269.482 173.581Z" fill="url(#paint14_linear_558_6098)"/>
<path d="M269.482 173.581C266.836 188.565 258.603 196.525 253.158 189.361C244.772 178.334 251.877 143.589 262.218 145.107C262.505 145.153 262.871 145.274 263.143 145.358C269.625 148.682 271.465 162.32 269.482 173.581Z" fill="#131315"/>
<path d="M108.543 159.315C107.598 166.563 105.231 179.653 103.034 177.407C102.471 176.84 102.014 175.27 101.661 172.761L101.39 170.546C101.109 166.564 100.965 161.221 100.993 157.229C101.345 153.189 102.037 147.823 102.728 143.805C103.402 141.174 104.268 137.66 105.075 135.08C106.487 130.886 107.275 130.932 107.852 130.96C110.604 133.009 109.919 148.776 108.543 159.315Z" fill="#D9D9FE"/>
<path d="M108.543 159.315C107.598 166.563 105.231 179.653 103.034 177.407C102.471 176.84 102.014 175.27 101.661 172.761L101.39 170.546C101.109 166.564 100.965 161.221 100.993 157.229C101.345 153.189 102.037 147.823 102.728 143.805C103.402 141.174 104.268 137.66 105.075 135.08C106.487 130.886 107.275 130.932 107.852 130.96C110.604 133.009 109.919 148.776 108.543 159.315Z" fill="url(#paint15_linear_558_6098)"/>
<path d="M108.543 159.315C107.598 166.563 105.231 179.653 103.034 177.407C102.471 176.84 102.014 175.27 101.661 172.761L101.39 170.546C101.109 166.564 100.965 161.221 100.993 157.229C101.345 153.189 102.037 147.823 102.728 143.805C103.402 141.174 104.268 137.66 105.075 135.08C106.487 130.886 107.275 130.932 107.852 130.96C110.604 133.009 109.919 148.776 108.543 159.315Z" fill="#131315"/>
<path d="M145.676 173.75C140.41 189.086 124.772 193.189 117.149 176.671C109.421 159.918 118.75 136.48 135.212 141.574C146.636 146.972 149.542 162.461 145.676 173.75Z" fill="#D9D9FE"/>
<path d="M145.676 173.75C140.41 189.086 124.772 193.189 117.149 176.671C109.421 159.918 118.75 136.48 135.212 141.574C146.636 146.972 149.542 162.461 145.676 173.75Z" fill="url(#paint16_linear_558_6098)"/>
<path d="M145.676 173.75C140.41 189.086 124.772 193.189 117.149 176.671C109.421 159.918 118.75 136.48 135.212 141.574C146.636 146.972 149.542 162.461 145.676 173.75Z" fill="#131315"/>
<path d="M199.412 194.64C188.184 212.488 161.139 207.566 156.847 186.904C153.478 170.757 168.165 155.494 187.795 162.016C205.079 169.757 204.998 185.76 199.412 194.64Z" fill="#D9D9FE"/>
<path d="M199.412 194.64C188.184 212.488 161.139 207.566 156.847 186.904C153.478 170.757 168.165 155.494 187.795 162.016C205.079 169.757 204.998 185.76 199.412 194.64Z" fill="url(#paint17_linear_558_6098)"/>
<path d="M199.412 194.64C188.184 212.488 161.139 207.566 156.847 186.904C153.478 170.757 168.165 155.494 187.795 162.016C205.079 169.757 204.998 185.76 199.412 194.64Z" fill="#131315"/>
<path d="M240.799 210.729C229.449 224.635 209.309 226.705 208.06 210.425C206.892 195.394 223.826 177.263 239.434 182.09C251.062 187.633 247.701 202.273 240.799 210.729Z" fill="#D9D9FE"/>
<path d="M240.799 210.729C229.449 224.635 209.309 226.705 208.06 210.425C206.892 195.394 223.826 177.263 239.434 182.09C251.062 187.633 247.701 202.273 240.799 210.729Z" fill="url(#paint18_linear_558_6098)"/>
<path d="M240.799 210.729C229.449 224.635 209.309 226.705 208.06 210.425C206.892 195.394 223.826 177.263 239.434 182.09C251.062 187.633 247.701 202.273 240.799 210.729Z" fill="#131315"/>
<path d="M239.542 228.581C237.024 230.409 236.749 229.605 236.958 228.62C238.033 223.447 260.353 191.963 265.443 192.201C265.812 192.54 265.981 192.889 265.335 194.661C259.549 208.424 250.553 219.917 239.542 228.581Z" fill="#D9D9FE"/>
<path d="M239.542 228.581C237.024 230.409 236.749 229.605 236.958 228.62C238.033 223.447 260.353 191.963 265.443 192.201C265.812 192.54 265.981 192.889 265.335 194.661C259.549 208.424 250.553 219.917 239.542 228.581Z" fill="url(#paint19_linear_558_6098)"/>
<path d="M239.542 228.581C237.024 230.409 236.749 229.605 236.958 228.62C238.033 223.447 260.353 191.963 265.443 192.201C265.812 192.54 265.981 192.889 265.335 194.661C259.549 208.424 250.553 219.917 239.542 228.581Z" fill="#131315"/>
<path d="M148.662 236.024C150.697 238.686 152.414 239.984 155.478 241.175C137.996 234.336 127.996 220.963 131.543 219.514C132.113 219.279 132.968 219.545 133.588 219.743C134.769 220.289 136.987 221.303 140.637 225.246C143.707 228.55 145.951 232.468 148.662 236.024Z" fill="#D9D9FE"/>
<path d="M148.662 236.024C150.697 238.686 152.414 239.984 155.478 241.175C137.996 234.336 127.996 220.963 131.543 219.514C132.113 219.279 132.968 219.545 133.588 219.743C134.769 220.289 136.987 221.303 140.637 225.246C143.707 228.55 145.951 232.468 148.662 236.024Z" fill="url(#paint20_linear_558_6098)"/>
<path d="M148.662 236.024C150.697 238.686 152.414 239.984 155.478 241.175C137.996 234.336 127.996 220.963 131.543 219.514C132.113 219.279 132.968 219.545 133.588 219.743C134.769 220.289 136.987 221.303 140.637 225.246C143.707 228.55 145.951 232.468 148.662 236.024Z" fill="#131315"/>
<path d="M161.829 241.142C159.307 241.859 156.558 241.595 155.479 241.176C151.251 239.227 147.612 231.504 153.672 229.639C156.365 228.815 159.084 229.719 160.525 230.214C168.549 233.769 167.392 239.041 162.711 240.832C162.475 240.936 162.103 241.053 161.829 241.142Z" fill="#D9D9FE"/>
<path d="M161.829 241.142C159.307 241.859 156.558 241.595 155.479 241.176C151.251 239.227 147.612 231.504 153.672 229.639C156.365 228.815 159.084 229.719 160.525 230.214C168.549 233.769 167.392 239.041 162.711 240.832C162.475 240.936 162.103 241.053 161.829 241.142Z" fill="url(#paint21_linear_558_6098)"/>
<path d="M161.829 241.142C159.307 241.859 156.558 241.595 155.479 241.176C151.251 239.227 147.612 231.504 153.672 229.639C156.365 228.815 159.084 229.719 160.525 230.214C168.549 233.769 167.392 239.041 162.711 240.832C162.475 240.936 162.103 241.053 161.829 241.142Z" fill="#131315"/>
<path d="M171.964 245.083C166.509 244.55 160.507 243.131 155.476 241.175C166.063 245.138 176.387 237.121 186.965 240.493C190.952 242.391 186.615 243.969 185.695 244.263C182.476 245.318 177.482 245.618 171.964 245.083Z" fill="#D9D9FE"/>
<path d="M171.964 245.083C166.509 244.55 160.507 243.131 155.476 241.175C166.063 245.138 176.387 237.121 186.965 240.493C190.952 242.391 186.615 243.969 185.695 244.263C182.476 245.318 177.482 245.618 171.964 245.083Z" fill="url(#paint22_linear_558_6098)"/>
<path d="M171.964 245.083C166.509 244.55 160.507 243.131 155.476 241.175C166.063 245.138 176.387 237.121 186.965 240.493C190.952 242.391 186.615 243.969 185.695 244.263C182.476 245.318 177.482 245.618 171.964 245.083Z" fill="#131315"/>
<path d="M126.341 205.331C129.687 220.36 126.799 218.715 125.567 218.019C113.428 211.102 100.931 179.397 109.841 178.097C110.391 178.028 111.12 178.224 111.653 178.366C118.86 181.951 124.075 195.139 126.341 205.331Z" fill="#D9D9FE"/>
<path d="M126.341 205.331C129.687 220.36 126.799 218.715 125.567 218.019C113.428 211.102 100.931 179.397 109.841 178.097C110.391 178.028 111.12 178.224 111.653 178.366C118.86 181.951 124.075 195.139 126.341 205.331Z" fill="url(#paint23_linear_558_6098)"/>
<path d="M126.341 205.331C129.687 220.36 126.799 218.715 125.567 218.019C113.428 211.102 100.931 179.397 109.841 178.097C110.391 178.028 111.12 178.224 111.653 178.366C118.86 181.951 124.075 195.139 126.341 205.331Z" fill="#131315"/>
<path d="M160.975 218.795C154.996 232.047 140.55 228.151 133.886 211.462C128.981 199.156 134.292 188.015 148.254 192.594C160.878 198.263 164.676 210.618 160.975 218.795Z" fill="#D9D9FE"/>
<path d="M160.975 218.795C154.996 232.047 140.55 228.151 133.886 211.462C128.981 199.156 134.292 188.015 148.254 192.594C160.878 198.263 164.676 210.618 160.975 218.795Z" fill="url(#paint24_linear_558_6098)"/>
<path d="M160.975 218.795C154.996 232.047 140.55 228.151 133.886 211.462C128.981 199.156 134.292 188.015 148.254 192.594C160.878 198.263 164.676 210.618 160.975 218.795Z" fill="#131315"/>
<path d="M197.183 232.87C185.881 239.985 165.718 241.611 168.921 225.082C170.885 214.989 183.407 207.086 197.211 211.626C208.946 216.949 206.668 226.898 197.183 232.87Z" fill="#D9D9FE"/>
<path d="M197.183 232.87C185.881 239.985 165.718 241.611 168.921 225.082C170.885 214.989 183.407 207.086 197.211 211.626C208.946 216.949 206.668 226.898 197.183 232.87Z" fill="url(#paint25_linear_558_6098)"/>
<path d="M197.183 232.87C185.881 239.985 165.718 241.611 168.921 225.082C170.885 214.989 183.407 207.086 197.211 211.626C208.946 216.949 206.668 226.898 197.183 232.87Z" fill="#131315"/>
<path d="M216.889 240.531C205.692 244.968 191.66 246.17 193.007 243.322C194.446 240.291 220.285 221.88 232.068 225.176C237.648 228.129 228.321 235.99 216.889 240.531Z" fill="#D9D9FE"/>
<path d="M216.889 240.531C205.692 244.968 191.66 246.17 193.007 243.322C194.446 240.291 220.285 221.88 232.068 225.176C237.648 228.129 228.321 235.99 216.889 240.531Z" fill="url(#paint26_linear_558_6098)"/>
<path d="M216.889 240.531C205.692 244.968 191.66 246.17 193.007 243.322C194.446 240.291 220.285 221.88 232.068 225.176C237.648 228.129 228.321 235.99 216.889 240.531Z" fill="#131315"/>
<path d="M210.731 243.49C217.339 241.447 223.035 239.005 229.203 235.573C223.392 238.927 217.179 241.58 210.731 243.49Z" fill="#D9D9FE"/>
<path d="M210.731 243.49C217.339 241.447 223.035 239.005 229.203 235.573C223.392 238.927 217.179 241.58 210.731 243.49Z" fill="url(#paint27_linear_558_6098)"/>
<path d="M210.731 243.49C217.339 241.447 223.035 239.005 229.203 235.573C223.392 238.927 217.179 241.58 210.731 243.49Z" fill="#131315"/>
</g>
</g>
<defs>
<filter id="filter0_d_558_6098" x="-24.1699" y="-24.168" width="421.34" height="421.339" filterUnits="userSpaceOnUse" color-interpolation-filters="sRGB">
<feFlood flood-opacity="0" result="BackgroundImageFix"/>
<feColorMatrix in="SourceAlpha" type="matrix" values="0 0 0 0 0 0 0 0 0 0 0 0 0 0 0 0 0 0 127 0" result="hardAlpha"/>
<feOffset dy="25"/>
<feGaussianBlur stdDeviation="50"/>
<feComposite in2="hardAlpha" operator="out"/>
<feColorMatrix type="matrix" values="0 0 0 0 0.0392157 0 0 0 0 0.643137 0 0 0 0 0.572549 0 0 0 0.42 0"/>
<feBlend mode="normal" in2="BackgroundImageFix" result="effect1_dropShadow_558_6098"/>
<feBlend mode="normal" in="SourceGraphic" in2="effect1_dropShadow_558_6098" result="shape"/>
</filter>
<linearGradient id="paint0_linear_558_6098" x1="137.789" y1="93.7035" x2="308.789" y2="93.7035" gradientUnits="userSpaceOnUse">
<stop stop-color="#03FCF8"/>
<stop offset="1" stop-color="#04F79F"/>
</linearGradient>
<linearGradient id="paint1_linear_558_6098" x1="176.678" y1="72.9944" x2="237.118" y2="97.2864" gradientUnits="userSpaceOnUse">
<stop stop-color="#CBDAFF"/>
<stop offset="1" stop-color="#F1D6FB"/>
</linearGradient>
<linearGradient id="paint2_linear_558_6098" x1="195.495" y1="80.2525" x2="226.612" y2="92.561" gradientUnits="userSpaceOnUse">
<stop stop-color="#CBDAFF"/>
<stop offset="1" stop-color="#F1D6FB"/>
</linearGradient>
<linearGradient id="paint3_linear_558_6098" x1="215.356" y1="88.0134" x2="247.937" y2="100.91" gradientUnits="userSpaceOnUse">
<stop stop-color="#CBDAFF"/>
<stop offset="1" stop-color="#F1D6FB"/>
</linearGradient>
<linearGradient id="paint4_linear_558_6098" x1="215.838" y1="88.1894" x2="277.058" y2="112.809" gradientUnits="userSpaceOnUse">
<stop stop-color="#CBDAFF"/>
<stop offset="1" stop-color="#F1D6FB"/>
</linearGradient>
<linearGradient id="paint5_linear_558_6098" x1="227.704" y1="90.5434" x2="263.446" y2="104.964" gradientUnits="userSpaceOnUse">
<stop stop-color="#CBDAFF"/>
<stop offset="1" stop-color="#F1D6FB"/>
</linearGradient>
<linearGradient id="paint6_linear_558_6098" x1="137.447" y1="80.8226" x2="185.496" y2="99.7063" gradientUnits="userSpaceOnUse">
<stop stop-color="#CBDAFF"/>
<stop offset="1" stop-color="#F1D6FB"/>
</linearGradient>
<linearGradient id="paint7_linear_558_6098" x1="154.782" y1="87.6036" x2="204.094" y2="106.989" gradientUnits="userSpaceOnUse">
<stop stop-color="#CBDAFF"/>
<stop offset="1" stop-color="#F1D6FB"/>
</linearGradient>
<linearGradient id="paint8_linear_558_6098" x1="191.097" y1="101.736" x2="245.979" y2="123.337" gradientUnits="userSpaceOnUse">
<stop stop-color="#CBDAFF"/>
<stop offset="1" stop-color="#F1D6FB"/>
</linearGradient>
<linearGradient id="paint9_linear_558_6098" x1="230.093" y1="116.863" x2="279.596" y2="136.324" gradientUnits="userSpaceOnUse">
<stop stop-color="#CBDAFF"/>
<stop offset="1" stop-color="#F1D6FB"/>
</linearGradient>
<linearGradient id="paint10_linear_558_6098" x1="247.453" y1="123.591" x2="295.559" y2="142.497" gradientUnits="userSpaceOnUse">
<stop stop-color="#CBDAFF"/>
<stop offset="1" stop-color="#F1D6FB"/>
</linearGradient>
<linearGradient id="paint11_linear_558_6098" x1="117.972" y1="112.823" x2="155.791" y2="127.616" gradientUnits="userSpaceOnUse">
<stop stop-color="#CBDAFF"/>
<stop offset="1" stop-color="#F1D6FB"/>
</linearGradient>
<linearGradient id="paint12_linear_558_6098" x1="149.094" y1="124.995" x2="215.5" y2="151.091" gradientUnits="userSpaceOnUse">
<stop stop-color="#CBDAFF"/>
<stop offset="1" stop-color="#F1D6FB"/>
</linearGradient>
<linearGradient id="paint13_linear_558_6098" x1="202.105" y1="145.469" x2="266.617" y2="170.814" gradientUnits="userSpaceOnUse">
<stop stop-color="#CBDAFF"/>
<stop offset="1" stop-color="#F1D6FB"/>
</linearGradient>
<linearGradient id="paint14_linear_558_6098" x1="249.188" y1="163.809" x2="284.502" y2="177.617" gradientUnits="userSpaceOnUse">
<stop stop-color="#CBDAFF"/>
<stop offset="1" stop-color="#F1D6FB"/>
</linearGradient>
<linearGradient id="paint15_linear_558_6098" x1="98.7517" y1="150.962" x2="121.247" y2="159.74" gradientUnits="userSpaceOnUse">
<stop stop-color="#CBDAFF"/>
<stop offset="1" stop-color="#F1D6FB"/>
</linearGradient>
<linearGradient id="paint16_linear_558_6098" x1="114.417" y1="157.012" x2="167.682" y2="177.903" gradientUnits="userSpaceOnUse">
<stop stop-color="#CBDAFF"/>
<stop offset="1" stop-color="#F1D6FB"/>
</linearGradient>
<linearGradient id="paint17_linear_558_6098" x1="157.678" y1="173.855" x2="228.428" y2="201.683" gradientUnits="userSpaceOnUse">
<stop stop-color="#CBDAFF"/>
<stop offset="1" stop-color="#F1D6FB"/>
</linearGradient>
<linearGradient id="paint18_linear_558_6098" x1="211.598" y1="194.808" x2="263.623" y2="215.207" gradientUnits="userSpaceOnUse">
<stop stop-color="#CBDAFF"/>
<stop offset="1" stop-color="#F1D6FB"/>
</linearGradient>
<linearGradient id="paint19_linear_558_6098" x1="244.898" y1="207.759" x2="266.543" y2="216.203" gradientUnits="userSpaceOnUse">
<stop stop-color="#CBDAFF"/>
<stop offset="1" stop-color="#F1D6FB"/>
</linearGradient>
<linearGradient id="paint20_linear_558_6098" x1="129.085" y1="224.275" x2="175.419" y2="242.811" gradientUnits="userSpaceOnUse">
<stop stop-color="#CBDAFF"/>
<stop offset="1" stop-color="#F1D6FB"/>
</linearGradient>
<linearGradient id="paint21_linear_558_6098" x1="150.434" y1="232.574" x2="175.395" y2="242.429" gradientUnits="userSpaceOnUse">
<stop stop-color="#CBDAFF"/>
<stop offset="1" stop-color="#F1D6FB"/>
</linearGradient>
<linearGradient id="paint22_linear_558_6098" x1="157.511" y1="235.326" x2="205.035" y2="254.352" gradientUnits="userSpaceOnUse">
<stop stop-color="#CBDAFF"/>
<stop offset="1" stop-color="#F1D6FB"/>
</linearGradient>
<linearGradient id="paint23_linear_558_6098" x1="102.667" y1="191.555" x2="152.151" y2="211.016" gradientUnits="userSpaceOnUse">
<stop stop-color="#CBDAFF"/>
<stop offset="1" stop-color="#F1D6FB"/>
</linearGradient>
<linearGradient id="paint24_linear_558_6098" x1="130.892" y1="202.404" x2="182.284" y2="222.626" gradientUnits="userSpaceOnUse">
<stop stop-color="#CBDAFF"/>
<stop offset="1" stop-color="#F1D6FB"/>
</linearGradient>
<linearGradient id="paint25_linear_558_6098" x1="171.102" y1="218.162" x2="221.799" y2="238.106" gradientUnits="userSpaceOnUse">
<stop stop-color="#CBDAFF"/>
<stop offset="1" stop-color="#F1D6FB"/>
</linearGradient>
<linearGradient id="paint26_linear_558_6098" x1="198.426" y1="228.737" x2="247.832" y2="248.167" gradientUnits="userSpaceOnUse">
<stop stop-color="#CBDAFF"/>
<stop offset="1" stop-color="#F1D6FB"/>
</linearGradient>
<linearGradient id="paint27_linear_558_6098" x1="213.256" y1="236.714" x2="235.1" y2="245.305" gradientUnits="userSpaceOnUse">
<stop stop-color="#CBDAFF"/>
<stop offset="1" stop-color="#F1D6FB"/>
</linearGradient>
<clipPath id="clip0_558_6098">
<rect x="137.789" y="50.832" width="171" height="171" rx="85.5" transform="rotate(21.2433 137.789 50.832)" fill="white"/>
</clipPath>
</defs>
</svg>
