<svg width="123" height="111" viewBox="0 0 123 111" fill="none" xmlns="http://www.w3.org/2000/svg">
<g id="DEFI">
<g clip-path="url(#clip0_514_23362)">
<rect y="24.2734" width="101.651" height="101.651" rx="50.8254" transform="rotate(-13.8152 0 24.2734)" fill="url(#paint0_linear_514_23362)"/>
<g id="Vector">
<path d="M38.9355 17.4193C36.0412 19.7447 33.4002 22.3926 30.3253 24.4894C28.8028 25.5217 27.3636 26.1362 27.5725 25.1663C27.9664 23.2323 36.1137 15.5934 48.708 12.2977C44.991 13.2987 42.3522 14.6923 38.9355 17.4193Z" fill="#D9D9FE"/>
<path d="M38.9355 17.4193C36.0412 19.7447 33.4002 22.3926 30.3253 24.4894C28.8028 25.5217 27.3636 26.1362 27.5725 25.1663C27.9664 23.2323 36.1137 15.5934 48.708 12.2977C44.991 13.2987 42.3522 14.6923 38.9355 17.4193Z" fill="url(#paint1_linear_514_23362)"/>
<path d="M38.9355 17.4193C36.0412 19.7447 33.4002 22.3926 30.3253 24.4894C28.8028 25.5217 27.3636 26.1362 27.5725 25.1663C27.9664 23.2323 36.1137 15.5934 48.708 12.2977C44.991 13.2987 42.3522 14.6923 38.9355 17.4193Z" fill="#131315"/>
</g>
<g id="Vector_2">
<path d="M48.9396 14.9563C48.6606 20.288 40.8139 23.7941 39.0613 21.668C37.16 19.3425 42.9695 13.8673 49.0941 12.1999C48.7865 12.3127 48.6838 12.4001 48.6621 12.6661C48.6181 13.4465 48.9838 14.1758 48.9396 14.9563Z" fill="#D9D9FE"/>
<path d="M48.9396 14.9563C48.6606 20.288 40.8139 23.7941 39.0613 21.668C37.16 19.3425 42.9695 13.8673 49.0941 12.1999C48.7865 12.3127 48.6838 12.4001 48.6621 12.6661C48.6181 13.4465 48.9838 14.1758 48.9396 14.9563Z" fill="url(#paint2_linear_514_23362)"/>
<path d="M48.9396 14.9563C48.6606 20.288 40.8139 23.7941 39.0613 21.668C37.16 19.3425 42.9695 13.8673 49.0941 12.1999C48.7865 12.3127 48.6838 12.4001 48.6621 12.6661C48.6181 13.4465 48.9838 14.1758 48.9396 14.9563Z" fill="#131315"/>
</g>
<g id="Vector_3">
<path d="M59.5168 12.3581C63.7514 13.6132 64.4796 15.8671 62.3008 17.0608C59.9227 18.3531 53.08 18.1614 50.7486 12.9751C50.3978 12.2048 50.2904 11.9706 49.5967 12.0791C52.7593 11.4007 56.6531 11.5231 59.5168 12.3581Z" fill="#D9D9FE"/>
<path d="M59.5168 12.3581C63.7514 13.6132 64.4796 15.8671 62.3008 17.0608C59.9227 18.3531 53.08 18.1614 50.7486 12.9751C50.3978 12.2048 50.2904 11.9706 49.5967 12.0791C52.7593 11.4007 56.6531 11.5231 59.5168 12.3581Z" fill="url(#paint3_linear_514_23362)"/>
<path d="M59.5168 12.3581C63.7514 13.6132 64.4796 15.8671 62.3008 17.0608C59.9227 18.3531 53.08 18.1614 50.7486 12.9751C50.3978 12.2048 50.2904 11.9706 49.5967 12.0791C52.7593 11.4007 56.6531 11.5231 59.5168 12.3581Z" fill="#131315"/>
</g>
<g id="Vector_4">
<path d="M65.3746 10.9171C70.4343 11.3859 75.0719 12.815 75.1289 13.9057C74.2855 14.8207 69.2694 13.6709 65.6096 12.833C59.4389 11.4333 55.6822 10.7062 49.9717 11.9863C56.432 10.5218 61.9058 10.6033 65.3746 10.9171Z" fill="#D9D9FE"/>
<path d="M65.3746 10.9171C70.4343 11.3859 75.0719 12.815 75.1289 13.9057C74.2855 14.8207 69.2694 13.6709 65.6096 12.833C59.4389 11.4333 55.6822 10.7062 49.9717 11.9863C56.432 10.5218 61.9058 10.6033 65.3746 10.9171Z" fill="url(#paint4_linear_514_23362)"/>
<path d="M65.3746 10.9171C70.4343 11.3859 75.0719 12.815 75.1289 13.9057C74.2855 14.8207 69.2694 13.6709 65.6096 12.833C59.4389 11.4333 55.6822 10.7062 49.9717 11.9863C56.432 10.5218 61.9058 10.6033 65.3746 10.9171Z" fill="#131315"/>
</g>
<g id="Vector_5">
<path d="M71.532 11.6497C65.0624 10.3981 60.3218 10.5707 56.915 10.8623C61.8849 10.4098 66.8019 10.7027 71.532 11.6497Z" fill="#D9D9FE"/>
<path d="M71.532 11.6497C65.0624 10.3981 60.3218 10.5707 56.915 10.8623C61.8849 10.4098 66.8019 10.7027 71.532 11.6497Z" fill="url(#paint5_linear_514_23362)"/>
<path d="M71.532 11.6497C65.0624 10.3981 60.3218 10.5707 56.915 10.8623C61.8849 10.4098 66.8019 10.7027 71.532 11.6497Z" fill="#131315"/>
</g>
<g id="Vector_6">
<path d="M20.3116 36.5119C18.4358 40.2005 14.0413 48.8531 12.6463 48.6872C12.5068 48.4732 12.344 48.2153 12.9429 46.2558C13.3816 44.857 13.8787 43.4935 14.4401 42.1389C15.4387 39.7335 16.6156 37.3959 17.9588 35.1788C19.3019 32.9618 20.8262 30.8243 22.4989 28.8365C22.94 28.306 23.3869 27.7989 23.8454 27.2889C25.4411 25.5435 25.9102 25.3289 26.0889 25.2477C26.1121 25.2916 26.1471 25.3327 26.1821 25.3737C26.0694 25.7242 26.0044 25.8643 25.2414 27.2063C23.4289 30.3953 22.6623 31.8748 20.3116 36.5119Z" fill="#D9D9FE"/>
<path d="M20.3116 36.5119C18.4358 40.2005 14.0413 48.8531 12.6463 48.6872C12.5068 48.4732 12.344 48.2153 12.9429 46.2558C13.3816 44.857 13.8787 43.4935 14.4401 42.1389C15.4387 39.7335 16.6156 37.3959 17.9588 35.1788C19.3019 32.9618 20.8262 30.8243 22.4989 28.8365C22.94 28.306 23.3869 27.7989 23.8454 27.2889C25.4411 25.5435 25.9102 25.3289 26.0889 25.2477C26.1121 25.2916 26.1471 25.3327 26.1821 25.3737C26.0694 25.7242 26.0044 25.8643 25.2414 27.2063C23.4289 30.3953 22.6623 31.8748 20.3116 36.5119Z" fill="url(#paint6_linear_514_23362)"/>
<path d="M20.3116 36.5119C18.4358 40.2005 14.0413 48.8531 12.6463 48.6872C12.5068 48.4732 12.344 48.2153 12.9429 46.2558C13.3816 44.857 13.8787 43.4935 14.4401 42.1389C15.4387 39.7335 16.6156 37.3959 17.9588 35.1788C19.3019 32.9618 20.8262 30.8243 22.4989 28.8365C22.94 28.306 23.3869 27.7989 23.8454 27.2889C25.4411 25.5435 25.9102 25.3289 26.0889 25.2477C26.1121 25.2916 26.1471 25.3327 26.1821 25.3737C26.0694 25.7242 26.0044 25.8643 25.2414 27.2063C23.4289 30.3953 22.6623 31.8748 20.3116 36.5119Z" fill="#131315"/>
</g>
<g id="Vector_7">
<path d="M38.2226 32.104C36.1885 42.3234 26.0664 48.5489 22.939 43.4095C19.3903 37.5666 28.5609 25.0459 34.7773 23.0952C39.2833 22.3223 38.6377 30.0034 38.2226 32.104Z" fill="#D9D9FE"/>
<path d="M38.2226 32.104C36.1885 42.3234 26.0664 48.5489 22.939 43.4095C19.3903 37.5666 28.5609 25.0459 34.7773 23.0952C39.2833 22.3223 38.6377 30.0034 38.2226 32.104Z" fill="url(#paint7_linear_514_23362)"/>
<path d="M38.2226 32.104C36.1885 42.3234 26.0664 48.5489 22.939 43.4095C19.3903 37.5666 28.5609 25.0459 34.7773 23.0952C39.2833 22.3223 38.6377 30.0034 38.2226 32.104Z" fill="#131315"/>
</g>
<g id="Vector_8">
<path d="M64.1575 25.7236C67.6967 33.9521 57.1598 40.714 49.0703 37.6759C40.0929 34.31 43.1511 22.5973 49.9925 19.4999C50.4175 19.3085 51.0181 19.1235 51.4692 18.9878C57.3606 17.837 62.6242 22.1657 64.1575 25.7236Z" fill="#D9D9FE"/>
<path d="M64.1575 25.7236C67.6967 33.9521 57.1598 40.714 49.0703 37.6759C40.0929 34.31 43.1511 22.5973 49.9925 19.4999C50.4175 19.3085 51.0181 19.1235 51.4692 18.9878C57.3606 17.837 62.6242 22.1657 64.1575 25.7236Z" fill="url(#paint8_linear_514_23362)"/>
<path d="M64.1575 25.7236C67.6967 33.9521 57.1598 40.714 49.0703 37.6759C40.0929 34.31 43.1511 22.5973 49.9925 19.4999C50.4175 19.3085 51.0181 19.1235 51.4692 18.9878C57.3606 17.837 62.6242 22.1657 64.1575 25.7236Z" fill="#131315"/>
</g>
<g id="Vector_9">
<path d="M84.1355 20.8166C89.4156 25.4144 89.2044 30.568 83.6983 31.2145C73.5087 32.4167 63.114 19.2456 66.6632 15.5923C67.001 15.2486 67.4845 15.0924 67.8624 14.9623C72.0756 14.2117 79.6805 16.9469 84.1355 20.8166Z" fill="#D9D9FE"/>
<path d="M84.1355 20.8166C89.4156 25.4144 89.2044 30.568 83.6983 31.2145C73.5087 32.4167 63.114 19.2456 66.6632 15.5923C67.001 15.2486 67.4845 15.0924 67.8624 14.9623C72.0756 14.2117 79.6805 16.9469 84.1355 20.8166Z" fill="url(#paint9_linear_514_23362)"/>
<path d="M84.1355 20.8166C89.4156 25.4144 89.2044 30.568 83.6983 31.2145C73.5087 32.4167 63.114 19.2456 66.6632 15.5923C67.001 15.2486 67.4845 15.0924 67.8624 14.9623C72.0756 14.2117 79.6805 16.9469 84.1355 20.8166Z" fill="#131315"/>
</g>
<g id="Vector_10">
<path d="M98.3765 26.4973C98.9125 27.1104 98.9352 27.2537 98.9608 27.4584C98.7024 27.671 97.9186 27.5658 94.0812 25.1455C93.9058 25.0396 76.299 13.3068 76.0721 12.9902C76.0811 12.9756 76.1015 12.9581 76.1221 12.9407C76.3445 12.9356 76.599 12.9599 77.5954 13.2735C85.4872 15.9133 92.643 20.4594 98.3765 26.4973Z" fill="#D9D9FE"/>
<path d="M98.3765 26.4973C98.9125 27.1104 98.9352 27.2537 98.9608 27.4584C98.7024 27.671 97.9186 27.5658 94.0812 25.1455C93.9058 25.0396 76.299 13.3068 76.0721 12.9902C76.0811 12.9756 76.1015 12.9581 76.1221 12.9407C76.3445 12.9356 76.599 12.9599 77.5954 13.2735C85.4872 15.9133 92.643 20.4594 98.3765 26.4973Z" fill="url(#paint10_linear_514_23362)"/>
<path d="M98.3765 26.4973C98.9125 27.1104 98.9352 27.2537 98.9608 27.4584C98.7024 27.671 97.9186 27.5658 94.0812 25.1455C93.9058 25.0396 76.299 13.3068 76.0721 12.9902C76.0811 12.9756 76.1015 12.9581 76.1221 12.9407C76.3445 12.9356 76.599 12.9599 77.5954 13.2735C85.4872 15.9133 92.643 20.4594 98.3765 26.4973Z" fill="#131315"/>
</g>
<g id="Vector_11">
<path d="M25.5588 58.8164C25.7561 69.3189 20.7057 76.6681 16.0817 72.6166C10.3471 67.5844 10.9364 48.5095 18.6598 45.816C23.2443 45.1603 25.4507 53.0214 25.5588 58.8164Z" fill="#D9D9FE"/>
<path d="M25.5588 58.8164C25.7561 69.3189 20.7057 76.6681 16.0817 72.6166C10.3471 67.5844 10.9364 48.5095 18.6598 45.816C23.2443 45.1603 25.4507 53.0214 25.5588 58.8164Z" fill="url(#paint11_linear_514_23362)"/>
<path d="M25.5588 58.8164C25.7561 69.3189 20.7057 76.6681 16.0817 72.6166C10.3471 67.5844 10.9364 48.5095 18.6598 45.816C23.2443 45.1603 25.4507 53.0214 25.5588 58.8164Z" fill="#131315"/>
</g>
<g id="Vector_12">
<path d="M56.3318 51.2488C57.7035 62.2324 45.5254 72.5259 35.909 65.1462C27.8501 58.9479 29.6114 43.7804 41.3523 40.2478C49.5481 38.6668 55.5128 44.7349 56.3318 51.2488Z" fill="#D9D9FE"/>
<path d="M56.3318 51.2488C57.7035 62.2324 45.5254 72.5259 35.909 65.1462C27.8501 58.9479 29.6114 43.7804 41.3523 40.2478C49.5481 38.6668 55.5128 44.7349 56.3318 51.2488Z" fill="url(#paint12_linear_514_23362)"/>
<path d="M56.3318 51.2488C57.7035 62.2324 45.5254 72.5259 35.909 65.1462C27.8501 58.9479 29.6114 43.7804 41.3523 40.2478C49.5481 38.6668 55.5128 44.7349 56.3318 51.2488Z" fill="#131315"/>
</g>
<g id="Vector_13">
<path d="M88.4676 43.3464C91.8121 54.1178 81.6605 62.4979 71.5025 57.3618C60.1239 51.6071 61.1535 36.5452 70.5591 33.1152C70.8786 32.9994 71.3325 32.8754 71.6578 32.7831C80.477 31.1108 86.7925 37.949 88.4676 43.3464Z" fill="#D9D9FE"/>
<path d="M88.4676 43.3464C91.8121 54.1178 81.6605 62.4979 71.5025 57.3618C60.1239 51.6071 61.1535 36.5452 70.5591 33.1152C70.8786 32.9994 71.3325 32.8754 71.6578 32.7831C80.477 31.1108 86.7925 37.949 88.4676 43.3464Z" fill="url(#paint13_linear_514_23362)"/>
<path d="M88.4676 43.3464C91.8121 54.1178 81.6605 62.4979 71.5025 57.3618C60.1239 51.6071 61.1535 36.5452 70.5591 33.1152C70.8786 32.9994 71.3325 32.8754 71.6578 32.7831C80.477 31.1108 86.7925 37.949 88.4676 43.3464Z" fill="#131315"/>
</g>
<g id="Vector_14">
<path d="M105.997 39.0344C109.825 47.2289 108.537 53.9135 103.441 52.2869C95.5955 49.7847 87.189 30.452 92.7389 27.6596C92.8944 27.5841 93.114 27.5178 93.2752 27.4658C97.564 26.8703 103.116 32.8783 105.997 39.0344Z" fill="#D9D9FE"/>
<path d="M105.997 39.0344C109.825 47.2289 108.537 53.9135 103.441 52.2869C95.5955 49.7847 87.189 30.452 92.7389 27.6596C92.8944 27.5841 93.114 27.5178 93.2752 27.4658C97.564 26.8703 103.116 32.8783 105.997 39.0344Z" fill="url(#paint14_linear_514_23362)"/>
<path d="M105.997 39.0344C109.825 47.2289 108.537 53.9135 103.441 52.2869C95.5955 49.7847 87.189 30.452 92.7389 27.6596C92.8944 27.5841 93.114 27.5178 93.2752 27.4658C97.564 26.8703 103.116 32.8783 105.997 39.0344Z" fill="#131315"/>
</g>
<g id="Vector_15">
<path d="M22.8114 87.0505C24.8263 90.8996 28.1444 98.0778 26.3084 97.7348C25.8406 97.6512 25.0824 97.0433 24.054 95.9431L23.1656 94.9575C21.6692 93.1159 19.7748 90.5654 18.4252 88.6134C17.2165 86.5273 15.7212 83.68 14.6856 81.4892C14.1153 79.9786 13.3364 77.973 12.8481 76.442C12.1035 73.9192 12.5024 73.672 12.7928 73.489C14.8319 73.5462 19.882 81.4527 22.8114 87.0505Z" fill="#D9D9FE"/>
<path d="M22.8114 87.0505C24.8263 90.8996 28.1444 98.0778 26.3084 97.7348C25.8406 97.6512 25.0824 97.0433 24.054 95.9431L23.1656 94.9575C21.6692 93.1159 19.7748 90.5654 18.4252 88.6134C17.2165 86.5273 15.7212 83.68 14.6856 81.4892C14.1153 79.9786 13.3364 77.973 12.8481 76.442C12.1035 73.9192 12.5024 73.672 12.7928 73.489C14.8319 73.5462 19.882 81.4527 22.8114 87.0505Z" fill="url(#paint15_linear_514_23362)"/>
<path d="M22.8114 87.0505C24.8263 90.8996 28.1444 98.0778 26.3084 97.7348C25.8406 97.6512 25.0824 97.0433 24.054 95.9431L23.1656 94.9575C21.6692 93.1159 19.7748 90.5654 18.4252 88.6134C17.2165 86.5273 15.7212 83.68 14.6856 81.4892C14.1153 79.9786 13.3364 77.973 12.8481 76.442C12.1035 73.9192 12.5024 73.672 12.7928 73.489C14.8319 73.5462 19.882 81.4527 22.8114 87.0505Z" fill="#131315"/>
</g>
<g id="Vector_16">
<path d="M45.8086 81.3904C48.4833 90.6508 42.2743 97.9869 32.9249 92.5525C23.4442 87.039 19.9806 72.4489 29.7305 69.3064C37.1322 68.0325 43.835 74.5769 45.8086 81.3904Z" fill="#D9D9FE"/>
<path d="M45.8086 81.3904C48.4833 90.6508 42.2743 97.9869 32.9249 92.5525C23.4442 87.039 19.9806 72.4489 29.7305 69.3064C37.1322 68.0325 43.835 74.5769 45.8086 81.3904Z" fill="url(#paint16_linear_514_23362)"/>
<path d="M45.8086 81.3904C48.4833 90.6508 42.2743 97.9869 32.9249 92.5525C23.4442 87.039 19.9806 72.4489 29.7305 69.3064C37.1322 68.0325 43.835 74.5769 45.8086 81.3904Z" fill="#131315"/>
</g>
<g id="Vector_17">
<path d="M79.0917 73.2092C79.7227 85.7278 64.8814 92.5675 55.738 83.9793C48.5852 77.2727 50.5199 64.8306 62.2988 61.301C73.3525 59.1664 78.7774 66.9806 79.0917 73.2092Z" fill="#D9D9FE"/>
<path d="M79.0917 73.2092C79.7227 85.7278 64.8814 92.5675 55.738 83.9793C48.5852 77.2727 50.5199 64.8306 62.2988 61.301C73.3525 59.1664 78.7774 66.9806 79.0917 73.2092Z" fill="url(#paint17_linear_514_23362)"/>
<path d="M79.0917 73.2092C79.7227 85.7278 64.8814 92.5675 55.738 83.9793C48.5852 77.2727 50.5199 64.8306 62.2988 61.301C73.3525 59.1664 78.7774 66.9806 79.0917 73.2092Z" fill="#131315"/>
</g>
<g id="Vector_18">
<path d="M104.724 66.906C103.95 77.5483 94.8564 85.4322 88.6898 77.9368C82.9892 71.0218 85.0379 56.417 94.2809 53.4364C101.832 52.1631 105.195 60.4347 104.724 66.906Z" fill="#D9D9FE"/>
<path d="M104.724 66.906C103.95 77.5483 94.8564 85.4322 88.6898 77.9368C82.9892 71.0218 85.0379 56.417 94.2809 53.4364C101.832 52.1631 105.195 60.4347 104.724 66.906Z" fill="url(#paint18_linear_514_23362)"/>
<path d="M104.724 66.906C103.95 77.5483 94.8564 85.4322 88.6898 77.9368C82.9892 71.0218 85.0379 56.417 94.2809 53.4364C101.832 52.1631 105.195 60.4347 104.724 66.906Z" fill="#131315"/>
</g>
<g id="Vector_19">
<path d="M110.206 76.0206C109.605 77.7697 109.197 77.473 108.962 76.9224C107.718 74.0381 107.829 51.0965 110.387 49.4743C110.682 49.5135 110.884 49.6253 111.175 50.7082C113.059 59.3808 112.605 68.0448 110.206 76.0206Z" fill="#D9D9FE"/>
<path d="M110.206 76.0206C109.605 77.7697 109.197 77.473 108.962 76.9224C107.718 74.0381 107.829 51.0965 110.387 49.4743C110.682 49.5135 110.884 49.6253 111.175 50.7082C113.059 59.3808 112.605 68.0448 110.206 76.0206Z" fill="url(#paint19_linear_514_23362)"/>
<path d="M110.206 76.0206C109.605 77.7697 109.197 77.473 108.962 76.9224C107.718 74.0381 107.829 51.0965 110.387 49.4743C110.682 49.5135 110.884 49.6253 111.175 50.7082C113.059 59.3808 112.605 68.0448 110.206 76.0206Z" fill="#131315"/>
</g>
<g id="Vector_20">
<path d="M68.5236 110.676C70.4229 111.276 71.7014 111.322 73.5992 110.855C62.757 113.496 53.3251 110.404 54.5557 108.487C54.7531 108.178 55.26 108.016 55.6291 107.901C56.3902 107.763 57.8162 107.499 60.9382 108.171C63.5604 108.731 65.9901 109.871 68.5236 110.676Z" fill="#D9D9FE"/>
<path d="M68.5236 110.676C70.4229 111.276 71.7014 111.322 73.5992 110.855C62.757 113.496 53.3251 110.404 54.5557 108.487C54.7531 108.178 55.26 108.016 55.6291 107.901C56.3902 107.763 57.8162 107.499 60.9382 108.171C63.5604 108.731 65.9901 109.871 68.5236 110.676Z" fill="url(#paint20_linear_514_23362)"/>
<path d="M68.5236 110.676C70.4229 111.276 71.7014 111.322 73.5992 110.855C62.757 113.496 53.3251 110.404 54.5557 108.487C54.7531 108.178 55.26 108.016 55.6291 107.901C56.3902 107.763 57.8162 107.499 60.9382 108.171C63.5604 108.731 65.9901 109.871 68.5236 110.676Z" fill="#131315"/>
</g>
<g id="Vector_21">
<path d="M76.6797 108.67C75.6975 109.88 74.2695 110.69 73.6016 110.855C70.8786 111.35 66.4709 108.835 68.7826 105.858C69.812 104.537 71.4436 104.049 72.3137 103.798C77.4322 102.788 78.6695 105.748 77.0033 108.218C76.9238 108.349 76.7826 108.533 76.6797 108.67Z" fill="#D9D9FE"/>
<path d="M76.6797 108.67C75.6975 109.88 74.2695 110.69 73.6016 110.855C70.8786 111.35 66.4709 108.835 68.7826 105.858C69.812 104.537 71.4436 104.049 72.3137 103.798C77.4322 102.788 78.6695 105.748 77.0033 108.218C76.9238 108.349 76.7826 108.533 76.6797 108.67Z" fill="url(#paint21_linear_514_23362)"/>
<path d="M76.6797 108.67C75.6975 109.88 74.2695 110.69 73.6016 110.855C70.8786 111.35 66.4709 108.835 68.7826 105.858C69.812 104.537 71.4436 104.049 72.3137 103.798C77.4322 102.788 78.6695 105.748 77.0033 108.218C76.9238 108.349 76.7826 108.533 76.6797 108.67Z" fill="#131315"/>
</g>
<g id="Vector_22">
<path d="M82.9568 107.128C80.1209 108.731 76.7157 110.09 73.5994 110.856C80.1046 109.17 82.3904 101.743 88.6889 99.7723C91.2772 99.3345 89.7057 101.583 89.3585 102.041C88.1524 103.653 85.8247 105.504 82.9568 107.128Z" fill="#D9D9FE"/>
<path d="M82.9568 107.128C80.1209 108.731 76.7157 110.09 73.5994 110.856C80.1046 109.17 82.3904 101.743 88.6889 99.7723C91.2772 99.3345 89.7057 101.583 89.3585 102.041C88.1524 103.653 85.8247 105.504 82.9568 107.128Z" fill="url(#paint22_linear_514_23362)"/>
<path d="M82.9568 107.128C80.1209 108.731 76.7157 110.09 73.5994 110.856C80.1046 109.17 82.3904 101.743 88.6889 99.7723C91.2772 99.3345 89.7057 101.583 89.3585 102.041C88.1524 103.653 85.8247 105.504 82.9568 107.128Z" fill="#131315"/>
</g>
<g id="Vector_23">
<path d="M47.1851 103.361C53.9452 109.532 51.9783 109.718 51.1411 109.799C42.8724 110.579 25.9656 99.4186 29.8572 95.7433C30.1009 95.5219 30.5229 95.3686 30.8305 95.2556C35.5615 94.539 42.6028 99.1756 47.1851 103.361Z" fill="#D9D9FE"/>
<path d="M47.1851 103.361C53.9452 109.532 51.9783 109.718 51.1411 109.799C42.8724 110.579 25.9656 99.4186 29.8572 95.7433C30.1009 95.5219 30.5229 95.3686 30.8305 95.2556C35.5615 94.539 42.6028 99.1756 47.1851 103.361Z" fill="url(#paint23_linear_514_23362)"/>
<path d="M47.1851 103.361C53.9452 109.532 51.9783 109.718 51.1411 109.799C42.8724 110.579 25.9656 99.4186 29.8572 95.7433C30.1009 95.5219 30.5229 95.3686 30.8305 95.2556C35.5615 94.539 42.6028 99.1756 47.1851 103.361Z" fill="#131315"/>
</g>
<g id="Vector_24">
<path d="M68.6355 98.0892C70.2512 106.58 61.8916 109.616 52.9505 103.771C46.3616 99.4578 45.1415 92.223 53.4992 89.6838C61.5779 88.1316 67.6444 92.8464 68.6355 98.0892Z" fill="#D9D9FE"/>
<path d="M68.6355 98.0892C70.2512 106.58 61.8916 109.616 52.9505 103.771C46.3616 99.4578 45.1415 92.223 53.4992 89.6838C61.5779 88.1316 67.6444 92.8464 68.6355 98.0892Z" fill="url(#paint24_linear_514_23362)"/>
<path d="M68.6355 98.0892C70.2512 106.58 61.8916 109.616 52.9505 103.771C46.3616 99.4578 45.1415 92.223 53.4992 89.6838C61.5779 88.1316 67.6444 92.8464 68.6355 98.0892Z" fill="#131315"/>
</g>
<g id="Vector_25">
<path d="M91.0586 92.572C87.9891 99.8933 78.733 107.569 74.6474 98.4324C72.1568 92.8508 75.5514 84.7295 83.8183 82.2249C91.3462 80.8082 93.6349 86.4271 91.0586 92.572Z" fill="#D9D9FE"/>
<path d="M91.0586 92.572C87.9891 99.8933 78.733 107.569 74.6474 98.4324C72.1568 92.8508 75.5514 84.7295 83.8183 82.2249C91.3462 80.8082 93.6349 86.4271 91.0586 92.572Z" fill="url(#paint25_linear_514_23362)"/>
<path d="M91.0586 92.572C87.9891 99.8933 78.733 107.569 74.6474 98.4324C72.1568 92.8508 75.5514 84.7295 83.8183 82.2249C91.3462 80.8082 93.6349 86.4271 91.0586 92.572Z" fill="#131315"/>
</g>
<g id="Vector_26">
<path d="M103.264 89.5717C99.3308 95.5539 92.9132 100.93 92.5959 99.0844C92.2616 97.1185 98.5481 79.3362 105.407 76.9172C109.131 76.4483 107.277 83.4584 103.264 89.5717Z" fill="#D9D9FE"/>
<path d="M103.264 89.5717C99.3308 95.5539 92.9132 100.93 92.5959 99.0844C92.2616 97.1185 98.5481 79.3362 105.407 76.9172C109.131 76.4483 107.277 83.4584 103.264 89.5717Z" fill="url(#paint26_linear_514_23362)"/>
<path d="M103.264 89.5717C99.3308 95.5539 92.9132 100.93 92.5959 99.0844C92.2616 97.1185 98.5481 79.3362 105.407 76.9172C109.131 76.4483 107.277 83.4584 103.264 89.5717Z" fill="#131315"/>
</g>
<g id="Vector_27">
<path d="M101.277 93.1127C103.795 89.862 105.732 86.7291 107.562 82.9525C105.879 86.5688 103.762 89.9818 101.277 93.1127Z" fill="#D9D9FE"/>
<path d="M101.277 93.1127C103.795 89.862 105.732 86.7291 107.562 82.9525C105.879 86.5688 103.762 89.9818 101.277 93.1127Z" fill="url(#paint27_linear_514_23362)"/>
<path d="M101.277 93.1127C103.795 89.862 105.732 86.7291 107.562 82.9525C105.879 86.5688 103.762 89.9818 101.277 93.1127Z" fill="#131315"/>
</g>
</g>
</g>
<defs>
<linearGradient id="paint0_linear_514_23362" x1="-3.36796e-08" y1="49.7583" x2="101.651" y2="49.7583" gradientUnits="userSpaceOnUse">
<stop stop-color="#03FCF8"/>
<stop offset="1" stop-color="#04F79F"/>
</linearGradient>
<linearGradient id="paint1_linear_514_23362" x1="26.4905" y1="21.7802" x2="64.1948" y2="12.9629" gradientUnits="userSpaceOnUse">
<stop stop-color="#CBDAFF"/>
<stop offset="1" stop-color="#F1D6FB"/>
</linearGradient>
<linearGradient id="paint2_linear_514_23362" x1="38.1269" y1="18.884" x2="57.4712" y2="14.248" gradientUnits="userSpaceOnUse">
<stop stop-color="#CBDAFF"/>
<stop offset="1" stop-color="#F1D6FB"/>
</linearGradient>
<linearGradient id="paint3_linear_514_23362" x1="50.4388" y1="15.8821" x2="70.6966" y2="11.0324" gradientUnits="userSpaceOnUse">
<stop stop-color="#CBDAFF"/>
<stop offset="1" stop-color="#F1D6FB"/>
</linearGradient>
<linearGradient id="paint4_linear_514_23362" x1="50.7346" y1="15.8017" x2="88.93" y2="6.87749" gradientUnits="userSpaceOnUse">
<stop stop-color="#CBDAFF"/>
<stop offset="1" stop-color="#F1D6FB"/>
</linearGradient>
<linearGradient id="paint5_linear_514_23362" x1="57.3125" y1="12.8949" x2="79.6285" y2="7.70749" gradientUnits="userSpaceOnUse">
<stop stop-color="#CBDAFF"/>
<stop offset="1" stop-color="#F1D6FB"/>
</linearGradient>
<linearGradient id="paint6_linear_514_23362" x1="10.074" y1="38.9866" x2="39.9022" y2="31.7687" gradientUnits="userSpaceOnUse">
<stop stop-color="#CBDAFF"/>
<stop offset="1" stop-color="#F1D6FB"/>
</linearGradient>
<linearGradient id="paint7_linear_514_23362" x1="20.8242" y1="36.3637" x2="51.4387" y2="28.9582" gradientUnits="userSpaceOnUse">
<stop stop-color="#CBDAFF"/>
<stop offset="1" stop-color="#F1D6FB"/>
</linearGradient>
<linearGradient id="paint8_linear_514_23362" x1="43.3175" y1="30.8404" x2="77.3991" y2="22.6117" gradientUnits="userSpaceOnUse">
<stop stop-color="#CBDAFF"/>
<stop offset="1" stop-color="#F1D6FB"/>
</linearGradient>
<linearGradient id="paint9_linear_514_23362" x1="67.4638" y1="24.8872" x2="98.1964" y2="17.4538" gradientUnits="userSpaceOnUse">
<stop stop-color="#CBDAFF"/>
<stop offset="1" stop-color="#F1D6FB"/>
</linearGradient>
<linearGradient id="paint10_linear_514_23362" x1="78.2073" y1="22.2313" x2="108.071" y2="15.005" gradientUnits="userSpaceOnUse">
<stop stop-color="#CBDAFF"/>
<stop offset="1" stop-color="#F1D6FB"/>
</linearGradient>
<linearGradient id="paint11_linear_514_23362" x1="11.5242" y1="61.2069" x2="34.9779" y2="55.4916" gradientUnits="userSpaceOnUse">
<stop stop-color="#CBDAFF"/>
<stop offset="1" stop-color="#F1D6FB"/>
</linearGradient>
<linearGradient id="paint12_linear_514_23362" x1="30.8231" y1="56.5024" x2="72.0467" y2="46.5256" gradientUnits="userSpaceOnUse">
<stop stop-color="#CBDAFF"/>
<stop offset="1" stop-color="#F1D6FB"/>
</linearGradient>
<linearGradient id="paint13_linear_514_23362" x1="63.6093" y1="48.3636" x2="103.655" y2="38.6683" gradientUnits="userSpaceOnUse">
<stop stop-color="#CBDAFF"/>
<stop offset="1" stop-color="#F1D6FB"/>
</linearGradient>
<linearGradient id="paint14_linear_514_23362" x1="92.7847" y1="41.2095" x2="114.684" y2="35.8699" gradientUnits="userSpaceOnUse">
<stop stop-color="#CBDAFF"/>
<stop offset="1" stop-color="#F1D6FB"/>
</linearGradient>
<linearGradient id="paint15_linear_514_23362" x1="15.1945" y1="86.3291" x2="29.1379" y2="82.919" gradientUnits="userSpaceOnUse">
<stop stop-color="#CBDAFF"/>
<stop offset="1" stop-color="#F1D6FB"/>
</linearGradient>
<linearGradient id="paint16_linear_514_23362" x1="24.8829" y1="83.9195" x2="57.9346" y2="75.8969" gradientUnits="userSpaceOnUse">
<stop stop-color="#CBDAFF"/>
<stop offset="1" stop-color="#F1D6FB"/>
</linearGradient>
<linearGradient id="paint17_linear_514_23362" x1="51.6867" y1="77.3459" x2="95.6155" y2="66.7288" gradientUnits="userSpaceOnUse">
<stop stop-color="#CBDAFF"/>
<stop offset="1" stop-color="#F1D6FB"/>
</linearGradient>
<linearGradient id="paint18_linear_514_23362" x1="85.0788" y1="69.1293" x2="117.359" y2="61.2915" gradientUnits="userSpaceOnUse">
<stop stop-color="#CBDAFF"/>
<stop offset="1" stop-color="#F1D6FB"/>
</linearGradient>
<linearGradient id="paint19_linear_514_23362" x1="105.702" y1="64.0597" x2="119.118" y2="60.778" gradientUnits="userSpaceOnUse">
<stop stop-color="#CBDAFF"/>
<stop offset="1" stop-color="#F1D6FB"/>
</linearGradient>
<linearGradient id="paint20_linear_514_23362" x1="54.9856" y1="111.644" x2="83.8609" y2="104.842" gradientUnits="userSpaceOnUse">
<stop stop-color="#CBDAFF"/>
<stop offset="1" stop-color="#F1D6FB"/>
</linearGradient>
<linearGradient id="paint21_linear_514_23362" x1="68.2094" y1="108.392" x2="83.7204" y2="104.664" gradientUnits="userSpaceOnUse">
<stop stop-color="#CBDAFF"/>
<stop offset="1" stop-color="#F1D6FB"/>
</linearGradient>
<linearGradient id="paint22_linear_514_23362" x1="72.5927" y1="107.315" x2="102.214" y2="100.346" gradientUnits="userSpaceOnUse">
<stop stop-color="#CBDAFF"/>
<stop offset="1" stop-color="#F1D6FB"/>
</linearGradient>
<linearGradient id="paint23_linear_514_23362" x1="30.9617" y1="104.742" x2="61.6858" y2="97.3145" gradientUnits="userSpaceOnUse">
<stop stop-color="#CBDAFF"/>
<stop offset="1" stop-color="#F1D6FB"/>
</linearGradient>
<linearGradient id="paint24_linear_514_23362" x1="48.4001" y1="100.386" x2="80.3124" y2="92.6771" gradientUnits="userSpaceOnUse">
<stop stop-color="#CBDAFF"/>
<stop offset="1" stop-color="#F1D6FB"/>
</linearGradient>
<linearGradient id="paint25_linear_514_23362" x1="73.3457" y1="94.3209" x2="104.825" y2="86.7143" gradientUnits="userSpaceOnUse">
<stop stop-color="#CBDAFF"/>
<stop offset="1" stop-color="#F1D6FB"/>
</linearGradient>
<linearGradient id="paint26_linear_514_23362" x1="90.2529" y1="90.137" x2="120.929" y2="82.7215" gradientUnits="userSpaceOnUse">
<stop stop-color="#CBDAFF"/>
<stop offset="1" stop-color="#F1D6FB"/>
</linearGradient>
<linearGradient id="paint27_linear_514_23362" x1="100.192" y1="88.9532" x2="113.754" y2="85.6748" gradientUnits="userSpaceOnUse">
<stop stop-color="#CBDAFF"/>
<stop offset="1" stop-color="#F1D6FB"/>
</linearGradient>
<clipPath id="clip0_514_23362">
<rect y="24.2734" width="101.651" height="101.651" rx="50.8254" transform="rotate(-13.8152 0 24.2734)" fill="white"/>
</clipPath>
</defs>
</svg>
