<svg width="562" height="585" viewBox="0 0 562 585" fill="none" xmlns="http://www.w3.org/2000/svg">
<g filter="url(#filter0_d_558_6158)">
<g clip-path="url(#clip0_558_6158)">
<rect x="57.873" y="131.016" width="411" height="411" rx="205.5" transform="rotate(-13.8152 57.873 131.016)" fill="url(#paint0_linear_558_6158)"/>
<path d="M215.301 103.295C203.599 112.697 192.92 123.403 180.488 131.881C174.332 136.055 168.513 138.54 169.357 134.618C170.95 126.798 203.891 95.9121 254.814 82.587C239.785 86.634 229.116 92.269 215.301 103.295Z" fill="#D9D9FE"/>
<path d="M215.301 103.295C203.599 112.697 192.92 123.403 180.488 131.881C174.332 136.055 168.513 138.54 169.357 134.618C170.95 126.798 203.891 95.9121 254.814 82.587C239.785 86.634 229.116 92.269 215.301 103.295Z" fill="url(#paint1_linear_558_6158)"/>
<path d="M215.301 103.295C203.599 112.697 192.92 123.403 180.488 131.881C174.332 136.055 168.513 138.54 169.357 134.618C170.95 126.798 203.891 95.9121 254.814 82.587C239.785 86.634 229.116 92.269 215.301 103.295Z" fill="#131315"/>
<path d="M255.75 93.3482C254.622 114.906 222.895 129.081 215.809 120.485C208.122 111.083 231.611 88.9451 256.375 82.2031C255.131 82.6596 254.716 83.0126 254.628 84.0881C254.45 87.2436 255.928 90.1925 255.75 93.3482Z" fill="#D9D9FE"/>
<path d="M255.75 93.3482C254.622 114.906 222.895 129.081 215.809 120.485C208.122 111.083 231.611 88.9451 256.375 82.2031C255.131 82.6596 254.716 83.0126 254.628 84.0881C254.45 87.2436 255.928 90.1925 255.75 93.3482Z" fill="url(#paint2_linear_558_6158)"/>
<path d="M255.75 93.3482C254.622 114.906 222.895 129.081 215.809 120.485C208.122 111.083 231.611 88.9451 256.375 82.2031C255.131 82.6596 254.716 83.0126 254.628 84.0881C254.45 87.2436 255.928 90.1925 255.75 93.3482Z" fill="#131315"/>
<path d="M298.516 82.8313C315.637 87.9061 318.582 97.0191 309.772 101.845C300.157 107.071 272.49 106.295 263.064 85.3257C261.645 82.2115 261.211 81.2643 258.406 81.7031C271.193 78.9602 286.937 79.4552 298.516 82.8313Z" fill="#D9D9FE"/>
<path d="M298.516 82.8313C315.637 87.9061 318.582 97.0191 309.772 101.845C300.157 107.071 272.49 106.295 263.064 85.3257C261.645 82.2115 261.211 81.2643 258.406 81.7031C271.193 78.9602 286.937 79.4552 298.516 82.8313Z" fill="url(#paint3_linear_558_6158)"/>
<path d="M298.516 82.8313C315.637 87.9061 318.582 97.0191 309.772 101.845C300.157 107.071 272.49 106.295 263.064 85.3257C261.645 82.2115 261.211 81.2643 258.406 81.7031C271.193 78.9602 286.937 79.4552 298.516 82.8313Z" fill="#131315"/>
<path d="M322.201 77.007C342.658 78.9024 361.409 84.6806 361.64 89.0908C358.23 92.79 337.948 88.1411 323.151 84.7535C298.201 79.0942 283.012 76.1542 259.923 81.3301C286.044 75.4087 308.176 75.7381 322.201 77.007Z" fill="#D9D9FE"/>
<path d="M322.201 77.007C342.658 78.9024 361.409 84.6806 361.64 89.0908C358.23 92.79 337.948 88.1411 323.151 84.7535C298.201 79.0942 283.012 76.1542 259.923 81.3301C286.044 75.4087 308.176 75.7381 322.201 77.007Z" fill="url(#paint4_linear_558_6158)"/>
<path d="M322.201 77.007C342.658 78.9024 361.409 84.6806 361.64 89.0908C358.23 92.79 337.948 88.1411 323.151 84.7535C298.201 79.0942 283.012 76.1542 259.923 81.3301C286.044 75.4087 308.176 75.7381 322.201 77.007Z" fill="#131315"/>
<path d="M347.095 79.9718C320.937 74.911 301.77 75.6092 287.995 76.7881C308.089 74.9585 327.97 76.1426 347.095 79.9718Z" fill="#D9D9FE"/>
<path d="M347.095 79.9718C320.937 74.911 301.77 75.6092 287.995 76.7881C308.089 74.9585 327.97 76.1426 347.095 79.9718Z" fill="url(#paint5_linear_558_6158)"/>
<path d="M347.095 79.9718C320.937 74.911 301.77 75.6092 287.995 76.7881C308.089 74.9585 327.97 76.1426 347.095 79.9718Z" fill="#131315"/>
<path d="M140 180.484C132.415 195.398 114.647 230.383 109.007 229.712C108.443 228.847 107.785 227.804 110.206 219.881C111.98 214.226 113.99 208.713 116.26 203.236C120.298 193.51 125.056 184.059 130.487 175.094C135.917 166.13 142.08 157.488 148.844 149.451C150.627 147.306 152.434 145.255 154.288 143.193C160.739 136.136 162.636 135.268 163.359 134.94C163.453 135.118 163.594 135.284 163.736 135.45C163.28 136.867 163.017 137.433 159.932 142.859C152.604 155.753 149.504 161.735 140 180.484Z" fill="#D9D9FE"/>
<path d="M140 180.484C132.415 195.398 114.647 230.383 109.007 229.712C108.443 228.847 107.785 227.804 110.206 219.881C111.98 214.226 113.99 208.713 116.26 203.236C120.298 193.51 125.056 184.059 130.487 175.094C135.917 166.13 142.08 157.488 148.844 149.451C150.627 147.306 152.434 145.255 154.288 143.193C160.739 136.136 162.636 135.268 163.359 134.94C163.453 135.118 163.594 135.284 163.736 135.45C163.28 136.867 163.017 137.433 159.932 142.859C152.604 155.753 149.504 161.735 140 180.484Z" fill="url(#paint6_linear_558_6158)"/>
<path d="M140 180.484C132.415 195.398 114.647 230.383 109.007 229.712C108.443 228.847 107.785 227.804 110.206 219.881C111.98 214.226 113.99 208.713 116.26 203.236C120.298 193.51 125.056 184.059 130.487 175.094C135.917 166.13 142.08 157.488 148.844 149.451C150.627 147.306 152.434 145.255 154.288 143.193C160.739 136.136 162.636 135.268 163.359 134.94C163.453 135.118 163.594 135.284 163.736 135.45C163.28 136.867 163.017 137.433 159.932 142.859C152.604 155.753 149.504 161.735 140 180.484Z" fill="#131315"/>
<path d="M212.417 162.682C204.193 204.002 163.267 229.173 150.622 208.393C136.274 184.769 173.353 134.145 198.487 126.258C216.706 123.132 214.096 154.189 212.417 162.682Z" fill="#D9D9FE"/>
<path d="M212.417 162.682C204.193 204.002 163.267 229.173 150.622 208.393C136.274 184.769 173.353 134.145 198.487 126.258C216.706 123.132 214.096 154.189 212.417 162.682Z" fill="url(#paint7_linear_558_6158)"/>
<path d="M212.417 162.682C204.193 204.002 163.267 229.173 150.622 208.393C136.274 184.769 173.353 134.145 198.487 126.258C216.706 123.132 214.096 154.189 212.417 162.682Z" fill="#131315"/>
<path d="M317.282 136.881C331.592 170.151 288.988 197.491 256.281 185.207C219.983 171.598 232.348 124.241 260.009 111.717C261.728 110.943 264.156 110.195 265.98 109.646C289.8 104.993 311.082 122.496 317.282 136.881Z" fill="#D9D9FE"/>
<path d="M317.282 136.881C331.592 170.151 288.988 197.491 256.281 185.207C219.983 171.598 232.348 124.241 260.009 111.717C261.728 110.943 264.156 110.195 265.98 109.646C289.8 104.993 311.082 122.496 317.282 136.881Z" fill="url(#paint8_linear_558_6158)"/>
<path d="M317.282 136.881C331.592 170.151 288.988 197.491 256.281 185.207C219.983 171.598 232.348 124.241 260.009 111.717C261.728 110.943 264.156 110.195 265.98 109.646C289.8 104.993 311.082 122.496 317.282 136.881Z" fill="#131315"/>
<path d="M398.053 117.034C419.402 135.624 418.548 156.461 396.286 159.075C355.086 163.936 313.058 110.682 327.408 95.9105C328.774 94.5207 330.729 93.8894 332.257 93.3631C349.292 90.3284 380.04 101.387 398.053 117.034Z" fill="#D9D9FE"/>
<path d="M398.053 117.034C419.402 135.624 418.548 156.461 396.286 159.075C355.086 163.936 313.058 110.682 327.408 95.9105C328.774 94.5207 330.729 93.8894 332.257 93.3631C349.292 90.3284 380.04 101.387 398.053 117.034Z" fill="url(#paint9_linear_558_6158)"/>
<path d="M398.053 117.034C419.402 135.624 418.548 156.461 396.286 159.075C355.086 163.936 313.058 110.682 327.408 95.9105C328.774 94.5207 330.729 93.8894 332.257 93.3631C349.292 90.3284 380.04 101.387 398.053 117.034Z" fill="#131315"/>
<path d="M455.638 140.007C457.805 142.486 457.897 143.065 458.001 143.893C456.956 144.752 453.787 144.327 438.271 134.541C437.562 134.113 366.373 86.674 365.456 85.394C365.492 85.3348 365.575 85.2643 365.658 85.1937C366.557 85.1734 367.586 85.2716 371.615 86.5395C403.524 97.2126 432.456 115.594 455.638 140.007Z" fill="#D9D9FE"/>
<path d="M455.638 140.007C457.805 142.486 457.897 143.065 458.001 143.893C456.956 144.752 453.787 144.327 438.271 134.541C437.562 134.113 366.373 86.674 365.456 85.394C365.492 85.3348 365.575 85.2643 365.658 85.1937C366.557 85.1734 367.586 85.2716 371.615 86.5395C403.524 97.2126 432.456 115.594 455.638 140.007Z" fill="url(#paint10_linear_558_6158)"/>
<path d="M455.638 140.007C457.805 142.486 457.897 143.065 458.001 143.893C456.956 144.752 453.787 144.327 438.271 134.541C437.562 134.113 366.373 86.674 365.456 85.394C365.492 85.3348 365.575 85.2643 365.658 85.1937C366.557 85.1734 367.586 85.2716 371.615 86.5395C403.524 97.2126 432.456 115.594 455.638 140.007Z" fill="#131315"/>
<path d="M161.211 270.674C162.009 313.138 141.588 342.852 122.893 326.471C99.7061 306.125 102.089 229 133.316 218.11C151.853 215.459 160.774 247.243 161.211 270.674Z" fill="#D9D9FE"/>
<path d="M161.211 270.674C162.009 313.138 141.588 342.852 122.893 326.471C99.7061 306.125 102.089 229 133.316 218.11C151.853 215.459 160.774 247.243 161.211 270.674Z" fill="url(#paint11_linear_558_6158)"/>
<path d="M161.211 270.674C162.009 313.138 141.588 342.852 122.893 326.471C99.7061 306.125 102.089 229 133.316 218.11C151.853 215.459 160.774 247.243 161.211 270.674Z" fill="#131315"/>
<path d="M285.638 240.078C291.184 284.488 241.945 326.107 203.063 296.269C170.479 271.208 177.601 209.882 225.072 195.598C258.21 189.206 282.326 213.741 285.638 240.078Z" fill="#D9D9FE"/>
<path d="M285.638 240.078C291.184 284.488 241.945 326.107 203.063 296.269C170.479 271.208 177.601 209.882 225.072 195.598C258.21 189.206 282.326 213.741 285.638 240.078Z" fill="url(#paint12_linear_558_6158)"/>
<path d="M285.638 240.078C291.184 284.488 241.945 326.107 203.063 296.269C170.479 271.208 177.601 209.882 225.072 195.598C258.21 189.206 282.326 213.741 285.638 240.078Z" fill="#131315"/>
<path d="M415.573 208.124C429.095 251.676 388.05 285.559 346.979 264.792C300.972 241.525 305.135 180.626 343.164 166.757C344.456 166.289 346.291 165.788 347.606 165.414C383.264 158.653 408.8 186.302 415.573 208.124Z" fill="#D9D9FE"/>
<path d="M415.573 208.124C429.095 251.676 388.05 285.559 346.979 264.792C300.972 241.525 305.135 180.626 343.164 166.757C344.456 166.289 346.291 165.788 347.606 165.414C383.264 158.653 408.8 186.302 415.573 208.124Z" fill="url(#paint13_linear_558_6158)"/>
<path d="M415.573 208.124C429.095 251.676 388.05 285.559 346.979 264.792C300.972 241.525 305.135 180.626 343.164 166.757C344.456 166.289 346.291 165.788 347.606 165.414C383.264 158.653 408.8 186.302 415.573 208.124Z" fill="#131315"/>
<path d="M486.444 190.697C501.924 223.829 496.716 250.857 476.111 244.28C444.389 234.163 410.4 155.996 432.839 144.706C433.468 144.401 434.356 144.132 435.007 143.922C452.348 141.514 474.797 165.806 486.444 190.697Z" fill="#D9D9FE"/>
<path d="M486.444 190.697C501.924 223.829 496.716 250.857 476.111 244.28C444.389 234.163 410.4 155.996 432.839 144.706C433.468 144.401 434.356 144.132 435.007 143.922C452.348 141.514 474.797 165.806 486.444 190.697Z" fill="url(#paint14_linear_558_6158)"/>
<path d="M486.444 190.697C501.924 223.829 496.716 250.857 476.111 244.28C444.389 234.163 410.4 155.996 432.839 144.706C433.468 144.401 434.356 144.132 435.007 143.922C452.348 141.514 474.797 165.806 486.444 190.697Z" fill="#131315"/>
<path d="M150.107 384.826C158.253 400.389 171.669 429.412 164.246 428.025C162.354 427.687 159.289 425.229 155.131 420.781L151.539 416.796C145.488 409.35 137.829 399.037 132.372 391.145C127.485 382.71 121.439 371.198 117.252 362.34C114.946 356.232 111.797 348.123 109.822 341.933C106.812 331.732 108.425 330.733 109.599 329.993C117.843 330.224 138.262 362.192 150.107 384.826Z" fill="#D9D9FE"/>
<path d="M150.107 384.826C158.253 400.389 171.669 429.412 164.246 428.025C162.354 427.687 159.289 425.229 155.131 420.781L151.539 416.796C145.488 409.35 137.829 399.037 132.372 391.145C127.485 382.71 121.439 371.198 117.252 362.34C114.946 356.232 111.797 348.123 109.822 341.933C106.812 331.732 108.425 330.733 109.599 329.993C117.843 330.224 138.262 362.192 150.107 384.826Z" fill="url(#paint15_linear_558_6158)"/>
<path d="M150.107 384.826C158.253 400.389 171.669 429.412 164.246 428.025C162.354 427.687 159.289 425.229 155.131 420.781L151.539 416.796C145.488 409.35 137.829 399.037 132.372 391.145C127.485 382.71 121.439 371.198 117.252 362.34C114.946 356.232 111.797 348.123 109.822 341.933C106.812 331.732 108.425 330.733 109.599 329.993C117.843 330.224 138.262 362.192 150.107 384.826Z" fill="#131315"/>
<path d="M243.09 361.959C253.905 399.401 228.8 429.063 190.998 407.09C152.665 384.798 138.661 325.806 178.082 313.101C208.009 307.95 235.11 334.41 243.09 361.959Z" fill="#D9D9FE"/>
<path d="M243.09 361.959C253.905 399.401 228.8 429.063 190.998 407.09C152.665 384.798 138.661 325.806 178.082 313.101C208.009 307.95 235.11 334.41 243.09 361.959Z" fill="url(#paint16_linear_558_6158)"/>
<path d="M243.09 361.959C253.905 399.401 228.8 429.063 190.998 407.09C152.665 384.798 138.661 325.806 178.082 313.101C208.009 307.95 235.11 334.41 243.09 361.959Z" fill="#131315"/>
<path d="M377.661 328.867C380.212 379.483 320.205 407.138 283.236 372.414C254.316 345.297 262.138 294.99 309.763 280.719C354.456 272.088 376.391 303.683 377.661 328.867Z" fill="#D9D9FE"/>
<path d="M377.661 328.867C380.212 379.483 320.205 407.138 283.236 372.414C254.316 345.297 262.138 294.99 309.763 280.719C354.456 272.088 376.391 303.683 377.661 328.867Z" fill="url(#paint17_linear_558_6158)"/>
<path d="M377.661 328.867C380.212 379.483 320.205 407.138 283.236 372.414C254.316 345.297 262.138 294.99 309.763 280.719C354.456 272.088 376.391 303.683 377.661 328.867Z" fill="#131315"/>
<path d="M481.3 303.382C478.169 346.411 441.403 378.288 416.47 347.982C393.421 320.023 401.704 260.972 439.076 248.921C469.607 243.772 483.205 277.217 481.3 303.382Z" fill="#D9D9FE"/>
<path d="M481.3 303.382C478.169 346.411 441.403 378.288 416.47 347.982C393.421 320.023 401.704 260.972 439.076 248.921C469.607 243.772 483.205 277.217 481.3 303.382Z" fill="url(#paint18_linear_558_6158)"/>
<path d="M481.3 303.382C478.169 346.411 441.403 378.288 416.47 347.982C393.421 320.023 401.704 260.972 439.076 248.921C469.607 243.772 483.205 277.217 481.3 303.382Z" fill="#131315"/>
<path d="M503.463 340.241C501.034 347.313 499.382 346.114 498.433 343.887C493.406 332.225 493.852 239.467 504.194 232.908C505.389 233.066 506.203 233.518 507.38 237.897C514.998 272.962 513.165 307.993 503.463 340.241Z" fill="#D9D9FE"/>
<path d="M503.463 340.241C501.034 347.313 499.382 346.114 498.433 343.887C493.406 332.225 493.852 239.467 504.194 232.908C505.389 233.066 506.203 233.518 507.38 237.897C514.998 272.962 513.165 307.993 503.463 340.241Z" fill="url(#paint19_linear_558_6158)"/>
<path d="M503.463 340.241C501.034 347.313 499.382 346.114 498.433 343.887C493.406 332.225 493.852 239.467 504.194 232.908C505.389 233.066 506.203 233.518 507.38 237.897C514.998 272.962 513.165 307.993 503.463 340.241Z" fill="#131315"/>
<path d="M334.935 480.358C342.615 482.786 347.784 482.97 355.457 481.083C311.619 491.762 273.484 479.258 278.46 471.51C279.258 470.26 281.307 469.605 282.799 469.137C285.877 468.581 291.642 467.515 304.266 470.233C314.868 472.494 324.692 477.105 334.935 480.358Z" fill="#D9D9FE"/>
<path d="M334.935 480.358C342.615 482.786 347.784 482.97 355.457 481.083C311.619 491.762 273.484 479.258 278.46 471.51C279.258 470.26 281.307 469.605 282.799 469.137C285.877 468.581 291.642 467.515 304.266 470.233C314.868 472.494 324.692 477.105 334.935 480.358Z" fill="url(#paint20_linear_558_6158)"/>
<path d="M334.935 480.358C342.615 482.786 347.784 482.97 355.457 481.083C311.619 491.762 273.484 479.258 278.46 471.51C279.258 470.26 281.307 469.605 282.799 469.137C285.877 468.581 291.642 467.515 304.266 470.233C314.868 472.494 324.692 477.105 334.935 480.358Z" fill="#131315"/>
<path d="M367.911 472.249C363.94 477.14 358.166 480.417 355.466 481.081C344.456 483.086 326.635 472.914 335.981 460.878C340.143 455.539 346.74 453.565 350.258 452.549C370.954 448.464 375.957 460.434 369.22 470.422C368.898 470.952 368.327 471.695 367.911 472.249Z" fill="#D9D9FE"/>
<path d="M367.911 472.249C363.94 477.14 358.166 480.417 355.466 481.081C344.456 483.086 326.635 472.914 335.981 460.878C340.143 455.539 346.74 453.565 350.258 452.549C370.954 448.464 375.957 460.434 369.22 470.422C368.898 470.952 368.327 471.695 367.911 472.249Z" fill="url(#paint21_linear_558_6158)"/>
<path d="M367.911 472.249C363.94 477.14 358.166 480.417 355.466 481.081C344.456 483.086 326.635 472.914 335.981 460.878C340.143 455.539 346.74 453.565 350.258 452.549C370.954 448.464 375.957 460.434 369.22 470.422C368.898 470.952 368.327 471.695 367.911 472.249Z" fill="#131315"/>
<path d="M393.291 466.008C381.825 472.491 368.057 477.985 355.457 481.083C381.759 474.264 391.001 444.237 416.468 436.268C426.933 434.498 420.579 443.589 419.175 445.439C414.298 451.959 404.887 459.442 393.291 466.008Z" fill="#D9D9FE"/>
<path d="M393.291 466.008C381.825 472.491 368.057 477.985 355.457 481.083C381.759 474.264 391.001 444.237 416.468 436.268C426.933 434.498 420.579 443.589 419.175 445.439C414.298 451.959 404.887 459.442 393.291 466.008Z" fill="url(#paint22_linear_558_6158)"/>
<path d="M393.291 466.008C381.825 472.491 368.057 477.985 355.457 481.083C381.759 474.264 391.001 444.237 416.468 436.268C426.933 434.498 420.579 443.589 419.175 445.439C414.298 451.959 404.887 459.442 393.291 466.008Z" fill="#131315"/>
<path d="M248.656 450.786C275.989 475.735 268.036 476.486 264.651 476.816C231.219 479.968 162.86 434.844 178.595 419.984C179.58 419.089 181.286 418.469 182.53 418.013C201.659 415.115 230.129 433.862 248.656 450.786Z" fill="#D9D9FE"/>
<path d="M248.656 450.786C275.989 475.735 268.036 476.486 264.651 476.816C231.219 479.968 162.86 434.844 178.595 419.984C179.58 419.089 181.286 418.469 182.53 418.013C201.659 415.115 230.129 433.862 248.656 450.786Z" fill="url(#paint23_linear_558_6158)"/>
<path d="M248.656 450.786C275.989 475.735 268.036 476.486 264.651 476.816C231.219 479.968 162.86 434.844 178.595 419.984C179.58 419.089 181.286 418.469 182.53 418.013C201.659 415.115 230.129 433.862 248.656 450.786Z" fill="#131315"/>
<path d="M335.384 429.46C341.917 463.788 308.117 476.065 271.966 452.432C245.325 434.993 240.392 405.741 274.184 395.474C306.848 389.199 331.377 408.262 335.384 429.46Z" fill="#D9D9FE"/>
<path d="M335.384 429.46C341.917 463.788 308.117 476.065 271.966 452.432C245.325 434.993 240.392 405.741 274.184 395.474C306.848 389.199 331.377 408.262 335.384 429.46Z" fill="url(#paint24_linear_558_6158)"/>
<path d="M335.384 429.46C341.917 463.788 308.117 476.065 271.966 452.432C245.325 434.993 240.392 405.741 274.184 395.474C306.848 389.199 331.377 408.262 335.384 429.46Z" fill="#131315"/>
<path d="M426.045 407.166C413.635 436.768 376.21 467.803 359.69 430.861C349.621 408.293 363.346 375.456 396.771 365.33C427.208 359.602 436.462 382.32 426.045 407.166Z" fill="#D9D9FE"/>
<path d="M426.045 407.166C413.635 436.768 376.21 467.803 359.69 430.861C349.621 408.293 363.346 375.456 396.771 365.33C427.208 359.602 436.462 382.32 426.045 407.166Z" fill="url(#paint25_linear_558_6158)"/>
<path d="M426.045 407.166C413.635 436.768 376.21 467.803 359.69 430.861C349.621 408.293 363.346 375.456 396.771 365.33C427.208 359.602 436.462 382.32 426.045 407.166Z" fill="#131315"/>
<path d="M475.395 395.03C459.492 419.217 433.544 440.956 432.261 433.492C430.909 425.543 456.327 353.645 484.06 343.865C499.115 341.969 491.619 370.312 475.395 395.03Z" fill="#D9D9FE"/>
<path d="M475.395 395.03C459.492 419.217 433.544 440.956 432.261 433.492C430.909 425.543 456.327 353.645 484.06 343.865C499.115 341.969 491.619 370.312 475.395 395.03Z" fill="url(#paint26_linear_558_6158)"/>
<path d="M475.395 395.03C459.492 419.217 433.544 440.956 432.261 433.492C430.909 425.543 456.327 353.645 484.06 343.865C499.115 341.969 491.619 370.312 475.395 395.03Z" fill="#131315"/>
<path d="M467.362 409.353C477.542 396.209 485.377 383.542 492.774 368.273C485.971 382.894 477.41 396.694 467.362 409.353Z" fill="#D9D9FE"/>
<path d="M467.362 409.353C477.542 396.209 485.377 383.542 492.774 368.273C485.971 382.894 477.41 396.694 467.362 409.353Z" fill="url(#paint27_linear_558_6158)"/>
<path d="M467.362 409.353C477.542 396.209 485.377 383.542 492.774 368.273C485.971 382.894 477.41 396.694 467.362 409.353Z" fill="#131315"/>
</g>
</g>
<defs>
<filter id="filter0_d_558_6158" x="-42.127" y="-42.1279" width="697.254" height="697.254" filterUnits="userSpaceOnUse" color-interpolation-filters="sRGB">
<feFlood flood-opacity="0" result="BackgroundImageFix"/>
<feColorMatrix in="SourceAlpha" type="matrix" values="0 0 0 0 0 0 0 0 0 0 0 0 0 0 0 0 0 0 127 0" result="hardAlpha"/>
<feOffset dy="25"/>
<feGaussianBlur stdDeviation="50"/>
<feComposite in2="hardAlpha" operator="out"/>
<feColorMatrix type="matrix" values="0 0 0 0 0.0392157 0 0 0 0 0.643137 0 0 0 0 0.572549 0 0 0 0.42 0"/>
<feBlend mode="normal" in2="BackgroundImageFix" result="effect1_dropShadow_558_6158"/>
<feBlend mode="normal" in="SourceGraphic" in2="effect1_dropShadow_558_6158" result="shape"/>
</filter>
<linearGradient id="paint0_linear_558_6158" x1="57.873" y1="234.058" x2="468.873" y2="234.058" gradientUnits="userSpaceOnUse">
<stop stop-color="#03FCF8"/>
<stop offset="1" stop-color="#04F79F"/>
</linearGradient>
<linearGradient id="paint1_linear_558_6158" x1="164.982" y1="120.927" x2="317.431" y2="85.2767" gradientUnits="userSpaceOnUse">
<stop stop-color="#CBDAFF"/>
<stop offset="1" stop-color="#F1D6FB"/>
</linearGradient>
<linearGradient id="paint2_linear_558_6158" x1="212.031" y1="109.229" x2="290.245" y2="90.4842" gradientUnits="userSpaceOnUse">
<stop stop-color="#CBDAFF"/>
<stop offset="1" stop-color="#F1D6FB"/>
</linearGradient>
<linearGradient id="paint3_linear_558_6158" x1="261.811" y1="97.0795" x2="343.719" y2="77.471" gradientUnits="userSpaceOnUse">
<stop stop-color="#CBDAFF"/>
<stop offset="1" stop-color="#F1D6FB"/>
</linearGradient>
<linearGradient id="paint4_linear_558_6158" x1="263.008" y1="96.7567" x2="417.441" y2="60.6737" gradientUnits="userSpaceOnUse">
<stop stop-color="#CBDAFF"/>
<stop offset="1" stop-color="#F1D6FB"/>
</linearGradient>
<linearGradient id="paint5_linear_558_6158" x1="289.602" y1="85.0066" x2="379.831" y2="64.0324" gradientUnits="userSpaceOnUse">
<stop stop-color="#CBDAFF"/>
<stop offset="1" stop-color="#F1D6FB"/>
</linearGradient>
<linearGradient id="paint6_linear_558_6158" x1="98.6065" y1="190.49" x2="219.209" y2="161.306" gradientUnits="userSpaceOnUse">
<stop stop-color="#CBDAFF"/>
<stop offset="1" stop-color="#F1D6FB"/>
</linearGradient>
<linearGradient id="paint7_linear_558_6158" x1="142.071" y1="179.905" x2="265.854" y2="149.963" gradientUnits="userSpaceOnUse">
<stop stop-color="#CBDAFF"/>
<stop offset="1" stop-color="#F1D6FB"/>
</linearGradient>
<linearGradient id="paint8_linear_558_6158" x1="233.021" y1="157.57" x2="370.821" y2="124.299" gradientUnits="userSpaceOnUse">
<stop stop-color="#CBDAFF"/>
<stop offset="1" stop-color="#F1D6FB"/>
</linearGradient>
<linearGradient id="paint9_linear_558_6158" x1="330.645" y1="133.492" x2="454.905" y2="103.437" gradientUnits="userSpaceOnUse">
<stop stop-color="#CBDAFF"/>
<stop offset="1" stop-color="#F1D6FB"/>
</linearGradient>
<linearGradient id="paint10_linear_558_6158" x1="374.089" y1="122.758" x2="494.834" y2="93.5404" gradientUnits="userSpaceOnUse">
<stop stop-color="#CBDAFF"/>
<stop offset="1" stop-color="#F1D6FB"/>
</linearGradient>
<linearGradient id="paint11_linear_558_6158" x1="104.465" y1="280.339" x2="199.295" y2="257.231" gradientUnits="userSpaceOnUse">
<stop stop-color="#CBDAFF"/>
<stop offset="1" stop-color="#F1D6FB"/>
</linearGradient>
<linearGradient id="paint12_linear_558_6158" x1="182.5" y1="261.32" x2="349.177" y2="220.981" gradientUnits="userSpaceOnUse">
<stop stop-color="#CBDAFF"/>
<stop offset="1" stop-color="#F1D6FB"/>
</linearGradient>
<linearGradient id="paint13_linear_558_6158" x1="315.064" y1="228.411" x2="476.978" y2="189.21" gradientUnits="userSpaceOnUse">
<stop stop-color="#CBDAFF"/>
<stop offset="1" stop-color="#F1D6FB"/>
</linearGradient>
<linearGradient id="paint14_linear_558_6158" x1="433.024" y1="199.492" x2="521.567" y2="177.902" gradientUnits="userSpaceOnUse">
<stop stop-color="#CBDAFF"/>
<stop offset="1" stop-color="#F1D6FB"/>
</linearGradient>
<linearGradient id="paint15_linear_558_6158" x1="119.31" y1="381.909" x2="175.686" y2="368.121" gradientUnits="userSpaceOnUse">
<stop stop-color="#CBDAFF"/>
<stop offset="1" stop-color="#F1D6FB"/>
</linearGradient>
<linearGradient id="paint16_linear_558_6158" x1="158.482" y1="372.185" x2="292.119" y2="339.748" gradientUnits="userSpaceOnUse">
<stop stop-color="#CBDAFF"/>
<stop offset="1" stop-color="#F1D6FB"/>
</linearGradient>
<linearGradient id="paint17_linear_558_6158" x1="266.856" y1="345.593" x2="444.471" y2="302.665" gradientUnits="userSpaceOnUse">
<stop stop-color="#CBDAFF"/>
<stop offset="1" stop-color="#F1D6FB"/>
</linearGradient>
<linearGradient id="paint18_linear_558_6158" x1="401.869" y1="312.371" x2="532.387" y2="280.681" gradientUnits="userSpaceOnUse">
<stop stop-color="#CBDAFF"/>
<stop offset="1" stop-color="#F1D6FB"/>
</linearGradient>
<linearGradient id="paint19_linear_558_6158" x1="485.254" y1="291.88" x2="539.496" y2="278.612" gradientUnits="userSpaceOnUse">
<stop stop-color="#CBDAFF"/>
<stop offset="1" stop-color="#F1D6FB"/>
</linearGradient>
<linearGradient id="paint20_linear_558_6158" x1="280.197" y1="484.272" x2="396.948" y2="456.771" gradientUnits="userSpaceOnUse">
<stop stop-color="#CBDAFF"/>
<stop offset="1" stop-color="#F1D6FB"/>
</linearGradient>
<linearGradient id="paint21_linear_558_6158" x1="333.663" y1="471.124" x2="396.378" y2="456.052" gradientUnits="userSpaceOnUse">
<stop stop-color="#CBDAFF"/>
<stop offset="1" stop-color="#F1D6FB"/>
</linearGradient>
<linearGradient id="paint22_linear_558_6158" x1="351.387" y1="466.766" x2="471.154" y2="438.587" gradientUnits="userSpaceOnUse">
<stop stop-color="#CBDAFF"/>
<stop offset="1" stop-color="#F1D6FB"/>
</linearGradient>
<linearGradient id="paint23_linear_558_6158" x1="183.061" y1="456.368" x2="307.286" y2="426.337" gradientUnits="userSpaceOnUse">
<stop stop-color="#CBDAFF"/>
<stop offset="1" stop-color="#F1D6FB"/>
</linearGradient>
<linearGradient id="paint24_linear_558_6158" x1="253.567" y1="438.744" x2="382.597" y2="407.577" gradientUnits="userSpaceOnUse">
<stop stop-color="#CBDAFF"/>
<stop offset="1" stop-color="#F1D6FB"/>
</linearGradient>
<linearGradient id="paint25_linear_558_6158" x1="354.427" y1="414.237" x2="481.704" y2="383.481" gradientUnits="userSpaceOnUse">
<stop stop-color="#CBDAFF"/>
<stop offset="1" stop-color="#F1D6FB"/>
</linearGradient>
<linearGradient id="paint26_linear_558_6158" x1="422.788" y1="397.315" x2="546.817" y2="367.333" gradientUnits="userSpaceOnUse">
<stop stop-color="#CBDAFF"/>
<stop offset="1" stop-color="#F1D6FB"/>
</linearGradient>
<linearGradient id="paint27_linear_558_6158" x1="462.974" y1="392.535" x2="517.811" y2="379.279" gradientUnits="userSpaceOnUse">
<stop stop-color="#CBDAFF"/>
<stop offset="1" stop-color="#F1D6FB"/>
</linearGradient>
<clipPath id="clip0_558_6158">
<rect x="57.873" y="131.016" width="411" height="411" rx="205.5" transform="rotate(-13.8152 57.873 131.016)" fill="white"/>
</clipPath>
</defs>
</svg>
