<svg width="84" height="85" viewBox="0 0 84 85" fill="none" xmlns="http://www.w3.org/2000/svg">
<g id="DEFI">
<g clip-path="url(#clip0_514_23302)">
<rect x="31.0811" y="0.605469" width="61.1735" height="61.1735" rx="30.5867" transform="rotate(30.2167 31.0811 0.605469)" fill="url(#paint0_linear_514_23302)"/>
<g id="Vector">
<path d="M50.7947 13.9264C48.5698 13.7219 46.3195 13.7628 44.1121 13.3838C43.0215 13.1936 42.1418 12.8575 42.6378 12.5253C43.6172 11.8532 50.3376 11.956 57.1652 15.7982C55.1383 14.6764 53.4137 14.1757 50.7947 13.9264Z" fill="#D9D9FE"/>
<path d="M50.7947 13.9264C48.5698 13.7219 46.3195 13.7628 44.1121 13.3838C43.0215 13.1936 42.1418 12.8575 42.6378 12.5253C43.6172 11.8532 50.3376 11.956 57.1652 15.7982C55.1383 14.6764 53.4137 14.1757 50.7947 13.9264Z" fill="url(#paint1_linear_514_23302)"/>
<path d="M50.7947 13.9264C48.5698 13.7219 46.3195 13.7628 44.1121 13.3838C43.0215 13.1936 42.1418 12.8575 42.6378 12.5253C43.6172 11.8532 50.3376 11.956 57.1652 15.7982C55.1383 14.6764 53.4137 14.1757 50.7947 13.9264Z" fill="#131315"/>
</g>
<g id="Vector_2">
<path d="M56.1524 17.0442C53.8015 19.2343 48.94 17.4691 49.071 15.8161C49.2211 14.0147 54.0249 14.0758 57.3723 15.9162C57.192 15.8364 57.111 15.8312 56.9904 15.9372C56.6449 16.2565 56.498 16.725 56.1524 17.0442Z" fill="#D9D9FE"/>
<path d="M56.1524 17.0442C53.8015 19.2343 48.94 17.4691 49.071 15.8161C49.2211 14.0147 54.0249 14.0758 57.3723 15.9162C57.192 15.8364 57.111 15.8312 56.9904 15.9372C56.6449 16.2565 56.498 16.725 56.1524 17.0442Z" fill="url(#paint2_linear_514_23302)"/>
<path d="M56.1524 17.0442C53.8015 19.2343 48.94 17.4691 49.071 15.8161C49.2211 14.0147 54.0249 14.0758 57.3723 15.9162C57.192 15.8364 57.111 15.8312 56.9904 15.9372C56.6449 16.2565 56.498 16.725 56.1524 17.0442Z" fill="#131315"/>
</g>
<g id="Vector_3">
<path d="M61.817 20.3483C63.1241 22.6626 62.4965 23.9424 61.0545 23.5475C59.485 23.1119 56.6046 20.1668 57.7652 16.9476C57.9356 16.4676 57.9871 16.3213 57.6416 16.0781C59.2937 17.1075 60.9272 18.7892 61.817 20.3483Z" fill="#D9D9FE"/>
<path d="M61.817 20.3483C63.1241 22.6626 62.4965 23.9424 61.0545 23.5475C59.485 23.1119 56.6046 20.1668 57.7652 16.9476C57.9356 16.4676 57.9871 16.3213 57.6416 16.0781C59.2937 17.1075 60.9272 18.7892 61.817 20.3483Z" fill="url(#paint3_linear_514_23302)"/>
<path d="M61.817 20.3483C63.1241 22.6626 62.4965 23.9424 61.0545 23.5475C59.485 23.1119 56.6046 20.1668 57.7652 16.9476C57.9356 16.4676 57.9871 16.3213 57.6416 16.0781C59.2937 17.1075 60.9272 18.7892 61.817 20.3483Z" fill="#131315"/>
</g>
<g id="Vector_4">
<path d="M64.9543 22.1707C66.9474 24.4899 68.3562 27.0481 67.9246 27.5438C67.177 27.5869 65.4876 24.9912 64.2546 23.0979C62.1702 19.9112 60.849 18.0252 57.8428 16.1904C61.2505 18.2591 63.5848 20.5839 64.9543 22.1707Z" fill="#D9D9FE"/>
<path d="M64.9543 22.1707C66.9474 24.4899 68.3562 27.0481 67.9246 27.5438C67.177 27.5869 65.4876 24.9912 64.2546 23.0979C62.1702 19.9112 60.849 18.0252 57.8428 16.1904C61.2505 18.2591 63.5848 20.5839 64.9543 22.1707Z" fill="url(#paint4_linear_514_23302)"/>
<path d="M64.9543 22.1707C66.9474 24.4899 68.3562 27.0481 67.9246 27.5438C67.177 27.5869 65.4876 24.9912 64.2546 23.0979C62.1702 19.9112 60.849 18.0252 57.8428 16.1904C61.2505 18.2591 63.5848 20.5839 64.9543 22.1707Z" fill="#131315"/>
</g>
<g id="Vector_5">
<path d="M67.3093 25.0661C65.0337 21.8184 62.9104 19.9102 61.3145 18.6113C63.654 20.4944 65.6589 22.6778 67.3093 25.0661Z" fill="#D9D9FE"/>
<path d="M67.3093 25.0661C65.0337 21.8184 62.9104 19.9102 61.3145 18.6113C63.654 20.4944 65.6589 22.6778 67.3093 25.0661Z" fill="url(#paint5_linear_514_23302)"/>
<path d="M67.3093 25.0661C65.0337 21.8184 62.9104 19.9102 61.3145 18.6113C63.654 20.4944 65.6589 22.6778 67.3093 25.0661Z" fill="#131315"/>
</g>
<g id="Vector_6">
<path d="M34.7512 14.3978C32.3967 15.2092 26.876 17.1147 26.3419 16.4594C26.371 16.3084 26.4084 16.1287 27.4872 15.5315C28.2621 15.1098 29.0475 14.7278 29.857 14.3765C31.2953 13.7534 32.7823 13.2343 34.2908 12.8369C35.7993 12.4395 37.3528 12.1522 38.9081 11.9919C39.3208 11.9468 39.7263 11.9143 40.1379 11.8855C41.5584 11.7978 41.8512 11.9011 41.9625 11.9408C41.9541 11.9695 41.9521 12.0019 41.9501 12.0343C41.7547 12.1388 41.668 12.1722 40.7765 12.4337C38.6584 13.0553 37.7079 13.3748 34.7512 14.3978Z" fill="#D9D9FE"/>
<path d="M34.7512 14.3978C32.3967 15.2092 26.876 17.1147 26.3419 16.4594C26.371 16.3084 26.4084 16.1287 27.4872 15.5315C28.2621 15.1098 29.0475 14.7278 29.857 14.3765C31.2953 13.7534 32.7823 13.2343 34.2908 12.8369C35.7993 12.4395 37.3528 12.1522 38.9081 11.9919C39.3208 11.9468 39.7263 11.9143 40.1379 11.8855C41.5584 11.7978 41.8512 11.9011 41.9625 11.9408C41.9541 11.9695 41.9521 12.0019 41.9501 12.0343C41.7547 12.1388 41.668 12.1722 40.7765 12.4337C38.6584 13.0553 37.7079 13.3748 34.7512 14.3978Z" fill="url(#paint6_linear_514_23302)"/>
<path d="M34.7512 14.3978C32.3967 15.2092 26.876 17.1147 26.3419 16.4594C26.371 16.3084 26.4084 16.1287 27.4872 15.5315C28.2621 15.1098 29.0475 14.7278 29.857 14.3765C31.2953 13.7534 32.7823 13.2343 34.2908 12.8369C35.7993 12.4395 37.3528 12.1522 38.9081 11.9919C39.3208 11.9468 39.7263 11.9143 40.1379 11.8855C41.5584 11.7978 41.8512 11.9011 41.9625 11.9408C41.9541 11.9695 41.9521 12.0019 41.9501 12.0343C41.7547 12.1388 41.668 12.1722 40.7765 12.4337C38.6584 13.0553 37.7079 13.3748 34.7512 14.3978Z" fill="#131315"/>
</g>
<g id="Vector_7">
<path d="M44.3432 19.979C39.1885 23.5498 32.2049 22.0094 33.0016 18.4776C33.9102 14.4652 43.1152 12.8838 46.6208 14.6401C48.8937 16.1905 45.4015 19.2438 44.3432 19.979Z" fill="#D9D9FE"/>
<path d="M44.3432 19.979C39.1885 23.5498 32.2049 22.0094 33.0016 18.4776C33.9102 14.4652 43.1152 12.8838 46.6208 14.6401C48.8937 16.1905 45.4015 19.2438 44.3432 19.979Z" fill="url(#paint7_linear_514_23302)"/>
<path d="M44.3432 19.979C39.1885 23.5498 32.2049 22.0094 33.0016 18.4776C33.9102 14.4652 43.1152 12.8838 46.6208 14.6401C48.8937 16.1905 45.4015 19.2438 44.3432 19.979Z" fill="#131315"/>
</g>
<g id="Vector_8">
<path d="M58.2353 28.068C56.3247 33.1086 48.9373 31.6268 46.708 26.9286C44.2317 21.7172 50.4542 17.9287 54.7098 19.4502C54.9738 19.5451 55.311 19.7163 55.563 19.8463C58.5933 21.8127 59.06 25.8873 58.2353 28.068Z" fill="#D9D9FE"/>
<path d="M58.2353 28.068C56.3247 33.1086 48.9373 31.6268 46.708 26.9286C44.2317 21.7172 50.4542 17.9287 54.7098 19.4502C54.9738 19.5451 55.311 19.7163 55.563 19.8463C58.5933 21.8127 59.06 25.8873 58.2353 28.068Z" fill="url(#paint8_linear_514_23302)"/>
<path d="M58.2353 28.068C56.3247 33.1086 48.9373 31.6268 46.708 26.9286C44.2317 21.7172 50.4542 17.9287 54.7098 19.4502C54.9738 19.5451 55.311 19.7163 55.563 19.8463C58.5933 21.8127 59.06 25.8873 58.2353 28.068Z" fill="#131315"/>
</g>
<g id="Vector_9">
<path d="M68.93 34.3012C69.2913 38.4991 67.0443 40.6405 64.3916 38.6172C59.48 34.8752 60.4918 24.8285 63.5556 24.7324C63.8455 24.725 64.12 24.8597 64.338 24.9614C66.4749 26.399 68.6211 30.7634 68.93 34.3012Z" fill="#D9D9FE"/>
<path d="M68.93 34.3012C69.2913 38.4991 67.0443 40.6405 64.3916 38.6172C59.48 34.8752 60.4918 24.8285 63.5556 24.7324C63.8455 24.725 64.12 24.8597 64.338 24.9614C66.4749 26.399 68.6211 30.7634 68.93 34.3012Z" fill="url(#paint9_linear_514_23302)"/>
<path d="M68.93 34.3012C69.2913 38.4991 67.0443 40.6405 64.3916 38.6172C59.48 34.8752 60.4918 24.8285 63.5556 24.7324C63.8455 24.725 64.12 24.8597 64.338 24.9614C66.4749 26.399 68.6211 30.7634 68.93 34.3012Z" fill="#131315"/>
</g>
<g id="Vector_10">
<path d="M72.7142 42.7169C72.6896 43.2064 72.6395 43.2779 72.565 43.3772C72.3642 43.3611 72.0691 42.9877 71.4212 40.3354C71.3896 40.2162 68.6794 27.7751 68.7137 27.5432C68.7237 27.5406 68.7398 27.5416 68.756 27.5427C68.8543 27.6335 68.9543 27.7505 69.2542 28.303C71.5646 32.7461 72.7591 37.7063 72.7142 42.7169Z" fill="#D9D9FE"/>
<path d="M72.7142 42.7169C72.6896 43.2064 72.6395 43.2779 72.565 43.3772C72.3642 43.3611 72.0691 42.9877 71.4212 40.3354C71.3896 40.2162 68.6794 27.7751 68.7137 27.5432C68.7237 27.5406 68.7398 27.5416 68.756 27.5427C68.8543 27.6335 68.9543 27.7505 69.2542 28.303C71.5646 32.7461 72.7591 37.7063 72.7142 42.7169Z" fill="url(#paint10_linear_514_23302)"/>
<path d="M72.7142 42.7169C72.6896 43.2064 72.6395 43.2779 72.565 43.3772C72.3642 43.3611 72.0691 42.9877 71.4212 40.3354C71.3896 40.2162 68.6794 27.7751 68.7137 27.5432C68.7237 27.5406 68.7398 27.5416 68.756 27.5427C68.8543 27.6335 68.9543 27.7505 69.2542 28.303C71.5646 32.7461 72.7591 37.7063 72.7142 42.7169Z" fill="#131315"/>
</g>
<g id="Vector_11">
<path d="M27.6918 26.2404C23.3841 30.8671 18.1249 31.9342 17.819 28.2472C17.4427 23.6712 25.6764 15.6646 30.1447 17.7298C32.4025 19.3638 30.069 23.6879 27.6918 26.2404Z" fill="#D9D9FE"/>
<path d="M27.6918 26.2404C23.3841 30.8671 18.1249 31.9342 17.819 28.2472C17.4427 23.6712 25.6764 15.6646 30.1447 17.7298C32.4025 19.3638 30.069 23.6879 27.6918 26.2404Z" fill="url(#paint11_linear_514_23302)"/>
<path d="M27.6918 26.2404C23.3841 30.8671 18.1249 31.9342 17.819 28.2472C17.4427 23.6712 25.6764 15.6646 30.1447 17.7298C32.4025 19.3638 30.069 23.6879 27.6918 26.2404Z" fill="#131315"/>
</g>
<g id="Vector_12">
<path d="M44.1712 35.8378C40.1704 41.1637 30.5958 40.5235 29.5219 33.3081C28.6277 27.2554 35.7341 21.4296 42.2917 24.8123C46.499 27.5564 46.5415 32.6768 44.1712 35.8378Z" fill="#D9D9FE"/>
<path d="M44.1712 35.8378C40.1704 41.1637 30.5958 40.5235 29.5219 33.3081C28.6277 27.2554 35.7341 21.4296 42.2917 24.8123C46.499 27.5564 46.5415 32.6768 44.1712 35.8378Z" fill="url(#paint12_linear_514_23302)"/>
<path d="M44.1712 35.8378C40.1704 41.1637 30.5958 40.5235 29.5219 33.3081C28.6277 27.2554 35.7341 21.4296 42.2917 24.8123C46.499 27.5564 46.5415 32.6768 44.1712 35.8378Z" fill="#131315"/>
</g>
<g id="Vector_13">
<path d="M61.38 45.8609C58.3214 51.9202 50.4239 51.2998 48.1773 44.8286C45.6612 37.5792 52.4068 31.4931 57.9111 33.9433C58.0978 34.0268 58.346 34.1631 58.5254 34.2592C63.0406 37.2245 62.9128 42.8249 61.38 45.8609Z" fill="#D9D9FE"/>
<path d="M61.38 45.8609C58.3214 51.9202 50.4239 51.2998 48.1773 44.8286C45.6612 37.5792 52.4068 31.4931 57.9111 33.9433C58.0978 34.0268 58.346 34.1631 58.5254 34.2592C63.0406 37.2245 62.9128 42.8249 61.38 45.8609Z" fill="url(#paint13_linear_514_23302)"/>
<path d="M61.38 45.8609C58.3214 51.9202 50.4239 51.2998 48.1773 44.8286C45.6612 37.5792 52.4068 31.4931 57.9111 33.9433C58.0978 34.0268 58.346 34.1631 58.5254 34.2592C63.0406 37.2245 62.9128 42.8249 61.38 45.8609Z" fill="#131315"/>
</g>
<g id="Vector_14">
<path d="M70.7669 51.3268C68.9958 56.4738 65.6424 58.8272 64.1179 55.9918C61.77 51.6274 66.2194 39.7465 69.7887 40.8598C69.8875 40.8921 70.0103 40.9553 70.1018 41.0002C72.2065 42.5365 72.0956 47.4584 70.7669 51.3268Z" fill="#D9D9FE"/>
<path d="M70.7669 51.3268C68.9958 56.4738 65.6424 58.8272 64.1179 55.9918C61.77 51.6274 66.2194 39.7465 69.7887 40.8598C69.8875 40.8921 70.0103 40.9553 70.1018 41.0002C72.2065 42.5365 72.0956 47.4584 70.7669 51.3268Z" fill="url(#paint14_linear_514_23302)"/>
<path d="M70.7669 51.3268C68.9958 56.4738 65.6424 58.8272 64.1179 55.9918C61.77 51.6274 66.2194 39.7465 69.7887 40.8598C69.8875 40.8921 70.0103 40.9553 70.1018 41.0002C72.2065 42.5365 72.0956 47.4584 70.7669 51.3268Z" fill="#131315"/>
</g>
<g id="Vector_15">
<path d="M14.694 37.3056C13.9558 39.8138 12.3888 44.3075 11.7379 43.3911C11.5705 43.1592 11.4967 42.579 11.512 41.6729L11.5398 40.8749C11.6627 39.4521 11.91 37.5562 12.1425 36.1471C12.4921 34.7389 13.0362 32.8816 13.5044 31.5005C13.8896 30.6084 14.3915 29.4148 14.8206 28.5482C15.5537 27.1451 15.8297 27.2051 16.0319 27.2474C16.8902 28.125 15.768 33.6582 14.694 37.3056Z" fill="#D9D9FE"/>
<path d="M14.694 37.3056C13.9558 39.8138 12.3888 44.3075 11.7379 43.3911C11.5705 43.1592 11.4967 42.579 11.512 41.6729L11.5398 40.8749C11.6627 39.4521 11.91 37.5562 12.1425 36.1471C12.4921 34.7389 13.0362 32.8816 13.5044 31.5005C13.8896 30.6084 14.3915 29.4148 14.8206 28.5482C15.5537 27.1451 15.8297 27.2051 16.0319 27.2474C16.8902 28.125 15.768 33.6582 14.694 37.3056Z" fill="url(#paint15_linear_514_23302)"/>
<path d="M14.694 37.3056C13.9558 39.8138 12.3888 44.3075 11.7379 43.3911C11.5705 43.1592 11.4967 42.579 11.512 41.6729L11.5398 40.8749C11.6627 39.4521 11.91 37.5562 12.1425 36.1471C12.4921 34.7389 13.0362 32.8816 13.5044 31.5005C13.8896 30.6084 14.3915 29.4148 14.8206 28.5482C15.5537 27.1451 15.8297 27.2051 16.0319 27.2474C16.8902 28.125 15.768 33.6582 14.694 37.3056Z" fill="#131315"/>
</g>
<g id="Vector_16">
<path d="M27.0077 44.4803C24.2915 49.6058 18.5365 50.1827 16.7644 43.9207C14.9687 37.5696 19.5729 29.8081 25.1058 32.5267C28.8411 35.0716 29.0038 40.7068 27.0077 44.4803Z" fill="#D9D9FE"/>
<path d="M27.0077 44.4803C24.2915 49.6058 18.5365 50.1827 16.7644 43.9207C14.9687 37.5696 19.5729 29.8081 25.1058 32.5267C28.8411 35.0716 29.0038 40.7068 27.0077 44.4803Z" fill="url(#paint16_linear_514_23302)"/>
<path d="M27.0077 44.4803C24.2915 49.6058 18.5365 50.1827 16.7644 43.9207C14.9687 37.5696 19.5729 29.8081 25.1058 32.5267C28.8411 35.0716 29.0038 40.7068 27.0077 44.4803Z" fill="#131315"/>
</g>
<g id="Vector_17">
<path d="M44.832 54.8615C39.8686 60.5418 30.5864 57.2932 30.2226 49.7529C29.9332 43.8592 35.9746 39.2852 42.5473 42.685C48.2228 46.385 47.3014 52.0352 44.832 54.8615Z" fill="#D9D9FE"/>
<path d="M44.832 54.8615C39.8686 60.5418 30.5864 57.2932 30.2226 49.7529C29.9332 43.8592 35.9746 39.2852 42.5473 42.685C48.2228 46.385 47.3014 52.0352 44.832 54.8615Z" fill="url(#paint17_linear_514_23302)"/>
<path d="M44.832 54.8615C39.8686 60.5418 30.5864 57.2932 30.2226 49.7529C29.9332 43.8592 35.9746 39.2852 42.5473 42.685C48.2228 46.385 47.3014 52.0352 44.832 54.8615Z" fill="#131315"/>
</g>
<g id="Vector_18">
<path d="M58.5583 62.8551C53.7718 67.1357 46.5397 66.7433 47.0069 60.9209C47.4328 55.5445 54.4282 50.0824 59.6741 52.659C63.4738 55.2666 61.469 60.2523 58.5583 62.8551Z" fill="#D9D9FE"/>
<path d="M58.5583 62.8551C53.7718 67.1357 46.5397 66.7433 47.0069 60.9209C47.4328 55.5445 54.4282 50.0824 59.6741 52.659C63.4738 55.2666 61.469 60.2523 58.5583 62.8551Z" fill="url(#paint18_linear_514_23302)"/>
<path d="M58.5583 62.8551C53.7718 67.1357 46.5397 66.7433 47.0069 60.9209C47.4328 55.5445 54.4282 50.0824 59.6741 52.659C63.4738 55.2666 61.469 60.2523 58.5583 62.8551Z" fill="#131315"/>
</g>
<g id="Vector_19">
<path d="M57.1187 69.0891C56.1271 69.5946 56.0745 69.2954 56.2032 68.9589C56.8717 67.1909 66.5157 57.311 68.3009 57.6791C68.4123 57.8196 68.4527 57.9523 68.1257 58.5425C65.3132 63.083 61.4931 66.6419 57.1187 69.0891Z" fill="#D9D9FE"/>
<path d="M57.1187 69.0891C56.1271 69.5946 56.0745 69.2954 56.2032 68.9589C56.8717 67.1909 66.5157 57.311 68.3009 57.6791C68.4123 57.8196 68.4527 57.9523 68.1257 58.5425C65.3132 63.083 61.4931 66.6419 57.1187 69.0891Z" fill="url(#paint19_linear_514_23302)"/>
<path d="M57.1187 69.0891C56.1271 69.5946 56.0745 69.2954 56.2032 68.9589C56.8717 67.1909 66.5157 57.311 68.3009 57.6791C68.4123 57.8196 68.4527 57.9523 68.1257 58.5425C65.3132 63.083 61.4931 66.6419 57.1187 69.0891Z" fill="#131315"/>
</g>
<g id="Vector_20">
<path d="M24.5883 66.652C25.1589 67.7063 25.693 68.2607 26.7094 68.8526C20.9135 65.4603 18.1262 60.177 19.4603 59.8626C19.675 59.8114 19.962 59.9534 20.1701 60.0577C20.5569 60.3166 21.2843 60.7989 22.3539 62.3957C23.2545 63.7344 23.8287 65.2442 24.5883 66.652Z" fill="#D9D9FE"/>
<path d="M24.5883 66.652C25.1589 67.7063 25.693 68.2607 26.7094 68.8526C20.9135 65.4603 18.1262 60.177 19.4603 59.8626C19.675 59.8114 19.962 59.9534 20.1701 60.0577C20.5569 60.3166 21.2843 60.7989 22.3539 62.3957C23.2545 63.7344 23.8287 65.2442 24.5883 66.652Z" fill="url(#paint20_linear_514_23302)"/>
<path d="M24.5883 66.652C25.1589 67.7063 25.693 68.2607 26.7094 68.8526C20.9135 65.4603 18.1262 60.177 19.4603 59.8626C19.675 59.8114 19.962 59.9534 20.1701 60.0577C20.5569 60.3166 21.2843 60.7989 22.3539 62.3957C23.2545 63.7344 23.8287 65.2442 24.5883 66.652Z" fill="#131315"/>
</g>
<g id="Vector_21">
<path d="M28.9561 69.1959C28.0252 69.3084 27.0684 69.0618 26.7107 68.8535C25.3251 67.929 24.4705 64.9968 26.7157 64.6758C27.7135 64.535 28.6237 65.0063 29.1052 65.2616C31.7424 66.9654 31.0394 68.7639 29.2853 69.1357C29.196 69.1592 29.0581 69.1797 28.9561 69.1959Z" fill="#D9D9FE"/>
<path d="M28.9561 69.1959C28.0252 69.3084 27.0684 69.0618 26.7107 68.8535C25.3251 67.929 24.4705 64.9968 26.7157 64.6758C27.7135 64.535 28.6237 65.0063 29.1052 65.2616C31.7424 66.9654 31.0394 68.7639 29.2853 69.1357C29.196 69.1592 29.0581 69.1797 28.9561 69.1959Z" fill="url(#paint21_linear_514_23302)"/>
<path d="M28.9561 69.1959C28.0252 69.3084 27.0684 69.0618 26.7107 68.8535C25.3251 67.929 24.4705 64.9968 26.7157 64.6758C27.7135 64.535 28.6237 65.0063 29.1052 65.2616C31.7424 66.9654 31.0394 68.7639 29.2853 69.1357C29.196 69.1592 29.0581 69.1797 28.9561 69.1959Z" fill="#131315"/>
</g>
<g id="Vector_22">
<path d="M32.3185 71.1543C30.4208 70.6618 28.3792 69.8253 26.7103 68.8534C30.2304 70.8447 34.3258 68.5876 37.8753 70.3694C39.1783 71.2627 37.5579 71.5782 37.2162 71.6309C36.0199 71.8241 34.2386 71.6513 32.3185 71.1543Z" fill="#D9D9FE"/>
<path d="M32.3185 71.1543C30.4208 70.6618 28.3792 69.8253 26.7103 68.8534C30.2304 70.8447 34.3258 68.5876 37.8753 70.3694C39.1783 71.2627 37.5579 71.5782 37.2162 71.6309C36.0199 71.8241 34.2386 71.6513 32.3185 71.1543Z" fill="url(#paint22_linear_514_23302)"/>
<path d="M32.3185 71.1543C30.4208 70.6618 28.3792 69.8253 26.7103 68.8534C30.2304 70.8447 34.3258 68.5876 37.8753 70.3694C39.1783 71.2627 37.5579 71.5782 37.2162 71.6309C36.0199 71.8241 34.2386 71.6513 32.3185 71.1543Z" fill="#131315"/>
</g>
<g id="Vector_23">
<path d="M18.4145 54.5633C18.7583 60.0607 17.8296 59.3184 17.4332 59.0035C13.5296 55.8821 10.8827 43.9815 14.1038 44.0192C14.3018 44.0254 14.5486 44.1355 14.7289 44.2153C17.0756 45.8842 18.1827 50.8355 18.4145 54.5633Z" fill="#D9D9FE"/>
<path d="M18.4145 54.5633C18.7583 60.0607 17.8296 59.3184 17.4332 59.0035C13.5296 55.8821 10.8827 43.9815 14.1038 44.0192C14.3018 44.0254 14.5486 44.1355 14.7289 44.2153C17.0756 45.8842 18.1827 50.8355 18.4145 54.5633Z" fill="url(#paint23_linear_514_23302)"/>
<path d="M18.4145 54.5633C18.7583 60.0607 17.8296 59.3184 17.4332 59.0035C13.5296 55.8821 10.8827 43.9815 14.1038 44.0192C14.3018 44.0254 14.5486 44.1355 14.7289 44.2153C17.0756 45.8842 18.1827 50.8355 18.4145 54.5633Z" fill="#131315"/>
</g>
<g id="Vector_24">
<path d="M29.902 61.2493C27.0497 65.5987 22.1627 63.4157 20.739 57.1468C19.6924 52.5246 22.1907 48.884 26.8689 51.2813C31.0135 53.9889 31.6662 58.5664 29.902 61.2493Z" fill="#D9D9FE"/>
<path d="M29.902 61.2493C27.0497 65.5987 22.1627 63.4157 20.739 57.1468C19.6924 52.5246 22.1907 48.884 26.8689 51.2813C31.0135 53.9889 31.6662 58.5664 29.902 61.2493Z" fill="url(#paint24_linear_514_23302)"/>
<path d="M29.902 61.2493C27.0497 65.5987 22.1627 63.4157 20.739 57.1468C19.6924 52.5246 22.1907 48.884 26.8689 51.2813C31.0135 53.9889 31.6662 58.5664 29.902 61.2493Z" fill="#131315"/>
</g>
<g id="Vector_25">
<path d="M41.9109 68.2409C37.5204 70.1247 30.3048 69.5741 32.3589 63.9119C33.6161 60.4552 38.4818 58.3613 43.1063 60.7356C46.9559 63.2714 45.5958 66.6599 41.9109 68.2409Z" fill="#D9D9FE"/>
<path d="M41.9109 68.2409C37.5204 70.1247 30.3048 69.5741 32.3589 63.9119C33.6161 60.4552 38.4818 58.3613 43.1063 60.7356C46.9559 63.2714 45.5958 66.6599 41.9109 68.2409Z" fill="url(#paint25_linear_514_23302)"/>
<path d="M41.9109 68.2409C37.5204 70.1247 30.3048 69.5741 32.3589 63.9119C33.6161 60.4552 38.4818 58.3613 43.1063 60.7356C46.9559 63.2714 45.5958 66.6599 41.9109 68.2409Z" fill="#131315"/>
</g>
<g id="Vector_26">
<path d="M48.447 72.0528C44.243 72.9959 39.2174 72.6377 39.8523 71.7064C40.5299 70.7159 50.6879 65.6517 54.6675 67.4741C56.4746 68.8288 52.7402 71.0862 48.447 72.0528Z" fill="#D9D9FE"/>
<path d="M48.447 72.0528C44.243 72.9959 39.2174 72.6377 39.8523 71.7064C40.5299 70.7159 50.6879 65.6517 54.6675 67.4741C56.4746 68.8288 52.7402 71.0862 48.447 72.0528Z" fill="url(#paint26_linear_514_23302)"/>
<path d="M48.447 72.0528C44.243 72.9959 39.2174 72.6377 39.8523 71.7064C40.5299 70.7159 50.6879 65.6517 54.6675 67.4741C56.4746 68.8288 52.7402 71.0862 48.447 72.0528Z" fill="#131315"/>
</g>
<g id="Vector_27">
<path d="M46.106 72.7546C48.5551 72.4012 50.704 71.8563 53.0752 70.9876C50.8346 71.8484 48.4909 72.4395 46.106 72.7546Z" fill="#D9D9FE"/>
<path d="M46.106 72.7546C48.5551 72.4012 50.704 71.8563 53.0752 70.9876C50.8346 71.8484 48.4909 72.4395 46.106 72.7546Z" fill="url(#paint27_linear_514_23302)"/>
<path d="M46.106 72.7546C48.5551 72.4012 50.704 71.8563 53.0752 70.9876C50.8346 71.8484 48.4909 72.4395 46.106 72.7546Z" fill="#131315"/>
</g>
</g>
</g>
<defs>
<linearGradient id="paint0_linear_514_23302" x1="31.0811" y1="15.9423" x2="92.2545" y2="15.9423" gradientUnits="userSpaceOnUse">
<stop stop-color="#03FCF8"/>
<stop offset="1" stop-color="#04F79F"/>
</linearGradient>
<linearGradient id="paint1_linear_514_23302" x1="43.5861" y1="10.6076" x2="63.5876" y2="22.5639" gradientUnits="userSpaceOnUse">
<stop stop-color="#CBDAFF"/>
<stop offset="1" stop-color="#F1D6FB"/>
</linearGradient>
<linearGradient id="paint2_linear_514_23302" x1="49.8313" y1="14.2207" x2="60.1401" y2="20.3064" gradientUnits="userSpaceOnUse">
<stop stop-color="#CBDAFF"/>
<stop offset="1" stop-color="#F1D6FB"/>
</linearGradient>
<linearGradient id="paint3_linear_514_23302" x1="56.4152" y1="18.0758" x2="67.2087" y2="24.4511" gradientUnits="userSpaceOnUse">
<stop stop-color="#CBDAFF"/>
<stop offset="1" stop-color="#F1D6FB"/>
</linearGradient>
<linearGradient id="paint4_linear_514_23302" x1="56.577" y1="18.1604" x2="76.8357" y2="30.2758" gradientUnits="userSpaceOnUse">
<stop stop-color="#CBDAFF"/>
<stop offset="1" stop-color="#F1D6FB"/>
</linearGradient>
<linearGradient id="paint5_linear_514_23302" x1="60.6362" y1="19.657" x2="72.4614" y2="26.7471" gradientUnits="userSpaceOnUse">
<stop stop-color="#CBDAFF"/>
<stop offset="1" stop-color="#F1D6FB"/>
</linearGradient>
<linearGradient id="paint6_linear_514_23302" x1="29.2866" y1="11.1863" x2="45.2113" y2="20.5401" gradientUnits="userSpaceOnUse">
<stop stop-color="#CBDAFF"/>
<stop offset="1" stop-color="#F1D6FB"/>
</linearGradient>
<linearGradient id="paint7_linear_514_23302" x1="35.0338" y1="14.5445" x2="51.3772" y2="24.1461" gradientUnits="userSpaceOnUse">
<stop stop-color="#CBDAFF"/>
<stop offset="1" stop-color="#F1D6FB"/>
</linearGradient>
<linearGradient id="paint8_linear_514_23302" x1="47.0782" y1="21.5648" x2="65.2661" y2="32.2603" gradientUnits="userSpaceOnUse">
<stop stop-color="#CBDAFF"/>
<stop offset="1" stop-color="#F1D6FB"/>
</linearGradient>
<linearGradient id="paint9_linear_514_23302" x1="60.0141" y1="29.0889" x2="76.4203" y2="38.7278" gradientUnits="userSpaceOnUse">
<stop stop-color="#CBDAFF"/>
<stop offset="1" stop-color="#F1D6FB"/>
</linearGradient>
<linearGradient id="paint10_linear_514_23302" x1="65.772" y1="32.4346" x2="81.7156" y2="41.7996" gradientUnits="userSpaceOnUse">
<stop stop-color="#CBDAFF"/>
<stop offset="1" stop-color="#F1D6FB"/>
</linearGradient>
<linearGradient id="paint11_linear_514_23302" x1="20.6196" y1="21.4042" x2="33.1579" y2="28.7418" gradientUnits="userSpaceOnUse">
<stop stop-color="#CBDAFF"/>
<stop offset="1" stop-color="#F1D6FB"/>
</linearGradient>
<linearGradient id="paint12_linear_514_23302" x1="30.937" y1="27.4408" x2="52.9462" y2="40.3675" gradientUnits="userSpaceOnUse">
<stop stop-color="#CBDAFF"/>
<stop offset="1" stop-color="#F1D6FB"/>
</linearGradient>
<linearGradient id="paint13_linear_514_23302" x1="48.5259" y1="37.6338" x2="69.9077" y2="50.1894" gradientUnits="userSpaceOnUse">
<stop stop-color="#CBDAFF"/>
<stop offset="1" stop-color="#F1D6FB"/>
</linearGradient>
<linearGradient id="paint14_linear_514_23302" x1="64.1407" y1="46.7415" x2="75.8491" y2="53.5912" gradientUnits="userSpaceOnUse">
<stop stop-color="#CBDAFF"/>
<stop offset="1" stop-color="#F1D6FB"/>
</linearGradient>
<linearGradient id="paint15_linear_514_23302" x1="11.7002" y1="33.8074" x2="19.1594" y2="38.1643" gradientUnits="userSpaceOnUse">
<stop stop-color="#CBDAFF"/>
<stop offset="1" stop-color="#F1D6FB"/>
</linearGradient>
<linearGradient id="paint16_linear_514_23302" x1="16.896" y1="36.8216" x2="34.5521" y2="47.1756" gradientUnits="userSpaceOnUse">
<stop stop-color="#CBDAFF"/>
<stop offset="1" stop-color="#F1D6FB"/>
</linearGradient>
<linearGradient id="paint17_linear_514_23302" x1="31.2445" y1="45.1882" x2="54.692" y2="58.9693" gradientUnits="userSpaceOnUse">
<stop stop-color="#CBDAFF"/>
<stop offset="1" stop-color="#F1D6FB"/>
</linearGradient>
<linearGradient id="paint18_linear_514_23302" x1="49.1285" y1="55.5997" x2="66.3736" y2="65.711" gradientUnits="userSpaceOnUse">
<stop stop-color="#CBDAFF"/>
<stop offset="1" stop-color="#F1D6FB"/>
</linearGradient>
<linearGradient id="paint19_linear_514_23302" x1="60.1732" y1="62.0302" x2="67.3503" y2="66.2219" gradientUnits="userSpaceOnUse">
<stop stop-color="#CBDAFF"/>
<stop offset="1" stop-color="#F1D6FB"/>
</linearGradient>
<linearGradient id="paint20_linear_514_23302" x1="18.326" y1="61.408" x2="33.6644" y2="70.5434" gradientUnits="userSpaceOnUse">
<stop stop-color="#CBDAFF"/>
<stop offset="1" stop-color="#F1D6FB"/>
</linearGradient>
<linearGradient id="paint21_linear_514_23302" x1="25.4077" y1="65.5325" x2="33.6781" y2="70.4077" gradientUnits="userSpaceOnUse">
<stop stop-color="#CBDAFF"/>
<stop offset="1" stop-color="#F1D6FB"/>
</linearGradient>
<linearGradient id="paint22_linear_514_23302" x1="27.7559" y1="66.9002" x2="43.4873" y2="76.2751" gradientUnits="userSpaceOnUse">
<stop stop-color="#CBDAFF"/>
<stop offset="1" stop-color="#F1D6FB"/>
</linearGradient>
<linearGradient id="paint23_linear_514_23302" x1="10.8177" y1="48.3746" x2="27.2177" y2="58.0125" gradientUnits="userSpaceOnUse">
<stop stop-color="#CBDAFF"/>
<stop offset="1" stop-color="#F1D6FB"/>
</linearGradient>
<linearGradient id="paint24_linear_514_23302" x1="20.1863" y1="53.7787" x2="37.218" y2="63.792" gradientUnits="userSpaceOnUse">
<stop stop-color="#CBDAFF"/>
<stop offset="1" stop-color="#F1D6FB"/>
</linearGradient>
<linearGradient id="paint25_linear_514_23302" x1="33.5155" y1="61.5885" x2="50.3171" y2="71.4646" gradientUnits="userSpaceOnUse">
<stop stop-color="#CBDAFF"/>
<stop offset="1" stop-color="#F1D6FB"/>
</linearGradient>
<linearGradient id="paint26_linear_514_23302" x1="42.5811" y1="66.8551" x2="58.9552" y2="76.4778" gradientUnits="userSpaceOnUse">
<stop stop-color="#CBDAFF"/>
<stop offset="1" stop-color="#F1D6FB"/>
</linearGradient>
<linearGradient id="paint27_linear_514_23302" x1="47.3763" y1="70.501" x2="54.6157" y2="74.7556" gradientUnits="userSpaceOnUse">
<stop stop-color="#CBDAFF"/>
<stop offset="1" stop-color="#F1D6FB"/>
</linearGradient>
<clipPath id="clip0_514_23302">
<rect x="31.0811" y="0.605469" width="61.1735" height="61.1735" rx="30.5867" transform="rotate(30.2167 31.0811 0.605469)" fill="white"/>
</clipPath>
</defs>
</svg>
