<svg width="490" height="416" viewBox="0 0 490 416" fill="none" xmlns="http://www.w3.org/2000/svg">
<g filter="url(#filter0_d_558_6068)">
<g clip-path="url(#clip0_558_6068)">
<rect x="78.3242" y="101.562" width="289.07" height="289.07" rx="143.794" transform="rotate(-9.40493 78.3242 101.562)" fill="url(#paint0_linear_558_6068)"/>
<path d="M190.219 90.6382C181.504 96.5986 173.436 103.529 164.26 108.801C159.717 111.395 155.502 112.823 156.306 110.119C157.846 104.721 182.617 84.844 219.047 78.2539C208.289 80.279 200.502 83.6535 190.219 90.6382Z" fill="#D9D9FE"/>
<path d="M190.219 90.6382C181.504 96.5986 173.436 103.529 164.26 108.801C159.717 111.395 155.502 112.823 156.306 110.119C157.846 104.721 182.617 84.844 219.047 78.2539C208.289 80.279 200.502 83.6535 190.219 90.6382Z" fill="url(#paint1_linear_558_6068)"/>
<path d="M190.219 90.6382C181.504 96.5986 173.436 103.529 164.26 108.801C159.717 111.395 155.502 112.823 156.306 110.119C157.846 104.721 182.617 84.844 219.047 78.2539C208.289 80.279 200.502 83.6535 190.219 90.6382Z" fill="#131315"/>
<path d="M219.117 85.8508C217.16 100.907 194.145 109.132 189.641 102.72C184.758 95.7112 202.427 81.4575 220.158 78.0691C219.261 78.3219 218.95 78.547 218.831 79.2965C218.535 81.4996 219.413 83.6475 219.117 85.8508Z" fill="#D9D9FE"/>
<path d="M219.117 85.8508C217.16 100.907 194.145 109.132 189.641 102.72C184.758 95.7112 202.427 81.4575 220.158 78.0691C219.261 78.3219 218.95 78.547 218.831 79.2965C218.535 81.4996 219.413 83.6475 219.117 85.8508Z" fill="url(#paint2_linear_558_6068)"/>
<path d="M219.117 85.8508C217.16 100.907 194.145 109.132 189.641 102.72C184.758 95.7112 202.427 81.4575 220.158 78.0691C219.261 78.3219 218.95 78.547 218.831 79.2965C218.535 81.4996 219.413 83.6475 219.117 85.8508Z" fill="#131315"/>
<path d="M249.683 80.7886C261.415 85.2733 262.987 91.823 256.548 94.731C249.523 97.8752 230.163 95.8353 224.687 80.6204C223.861 78.3598 223.608 77.6721 221.617 77.8281C230.733 76.5962 241.746 77.7949 249.683 80.7886Z" fill="#D9D9FE"/>
<path d="M249.683 80.7886C261.415 85.2733 262.987 91.823 256.548 94.731C249.523 97.8752 230.163 95.8353 224.687 80.6204C223.861 78.3598 223.608 77.6721 221.617 77.8281C230.733 76.5962 241.746 77.7949 249.683 80.7886Z" fill="url(#paint3_linear_558_6068)"/>
<path d="M249.683 80.7886C261.415 85.2733 262.987 91.823 256.548 94.731C249.523 97.8752 230.163 95.8353 224.687 80.6204C223.861 78.3598 223.608 77.6721 221.617 77.8281C230.733 76.5962 241.746 77.7949 249.683 80.7886Z" fill="#131315"/>
<path d="M266.604 77.9862C280.847 80.4218 293.684 85.4879 293.607 88.593C291.015 91.0027 277.044 86.6457 266.851 83.4698C249.661 78.1518 239.168 75.2686 222.697 77.6494C241.335 74.9098 256.837 76.3378 266.604 77.9862Z" fill="#D9D9FE"/>
<path d="M266.604 77.9862C280.847 80.4218 293.684 85.4879 293.607 88.593C291.015 91.0027 277.044 86.6457 266.851 83.4698C249.661 78.1518 239.168 75.2686 222.697 77.6494C241.335 74.9098 256.837 76.3378 266.604 77.9862Z" fill="url(#paint4_linear_558_6068)"/>
<path d="M266.604 77.9862C280.847 80.4218 293.684 85.4879 293.607 88.593C291.015 91.0027 277.044 86.6457 266.851 83.4698C249.661 78.1518 239.168 75.2686 222.697 77.6494C241.335 74.9098 256.837 76.3378 266.604 77.9862Z" fill="#131315"/>
<path d="M283.903 81.4105C265.833 76.4468 252.354 75.8997 242.631 75.9814C256.821 75.7852 270.698 77.6908 283.903 81.4105Z" fill="#D9D9FE"/>
<path d="M283.903 81.4105C265.833 76.4468 252.354 75.8997 242.631 75.9814C256.821 75.7852 270.698 77.6908 283.903 81.4105Z" fill="url(#paint5_linear_558_6068)"/>
<path d="M283.903 81.4105C265.833 76.4468 252.354 75.8997 242.631 75.9814C256.821 75.7852 270.698 77.6908 283.903 81.4105Z" fill="#131315"/>
<path d="M133.238 140.696C127.113 150.744 112.761 174.316 108.842 173.541C108.493 172.903 108.088 172.137 110.215 166.712C111.765 162.842 113.472 159.084 115.36 155.366C118.718 148.765 122.566 142.394 126.859 136.402C131.152 130.409 135.941 124.682 141.119 119.412C142.485 118.004 143.863 116.664 145.275 115.318C150.181 110.719 151.558 110.213 152.082 110.021C152.138 110.151 152.229 110.275 152.319 110.399C151.923 111.368 151.708 111.751 149.251 115.389C143.415 124.035 140.917 128.062 133.238 140.696Z" fill="#D9D9FE"/>
<path d="M133.238 140.696C127.113 150.744 112.761 174.316 108.842 173.541C108.493 172.903 108.088 172.137 110.215 166.712C111.765 162.842 113.472 159.084 115.36 155.366C118.718 148.765 122.566 142.394 126.859 136.402C131.152 130.409 135.941 124.682 141.119 119.412C142.485 118.004 143.863 116.664 145.275 115.318C150.181 110.719 151.558 110.213 152.082 110.021C152.138 110.151 152.229 110.275 152.319 110.399C151.923 111.368 151.708 111.751 149.251 115.389C143.415 124.035 140.917 128.062 133.238 140.696Z" fill="url(#paint6_linear_558_6068)"/>
<path d="M133.238 140.696C127.113 150.744 112.761 174.316 108.842 173.541C108.493 172.903 108.088 172.137 110.215 166.712C111.765 162.842 113.472 159.084 115.36 155.366C118.718 148.765 122.566 142.394 126.859 136.402C131.152 130.409 135.941 124.682 141.119 119.412C142.485 118.004 143.863 116.664 145.275 115.318C150.181 110.719 151.558 110.213 152.082 110.021C152.138 110.151 152.229 110.275 152.319 110.399C151.923 111.368 151.708 111.751 149.251 115.389C143.415 124.035 140.917 128.062 133.238 140.696Z" fill="#131315"/>
<path d="M184.985 132.125C176.984 160.656 146.922 176.094 139.179 160.838C130.395 143.495 159.135 110 177.187 105.829C190.132 104.623 186.622 126.26 184.985 132.125Z" fill="#D9D9FE"/>
<path d="M184.985 132.125C176.984 160.656 146.922 176.094 139.179 160.838C130.395 143.495 159.135 110 177.187 105.829C190.132 104.623 186.622 126.26 184.985 132.125Z" fill="url(#paint7_linear_558_6068)"/>
<path d="M184.985 132.125C176.984 160.656 146.922 176.094 139.179 160.838C130.395 143.495 159.135 110 177.187 105.829C190.132 104.623 186.622 126.26 184.985 132.125Z" fill="#131315"/>
<path d="M259.922 119.706C268.157 143.81 236.803 160.678 214.531 150.295C189.813 138.789 201.045 106.248 221.12 98.9618C222.367 98.512 224.111 98.119 225.419 97.8328C242.375 95.8581 256.352 109.283 259.922 119.706Z" fill="#D9D9FE"/>
<path d="M259.922 119.706C268.157 143.81 236.803 160.678 214.531 150.295C189.813 138.789 201.045 106.248 221.12 98.9618C222.367 98.512 224.111 98.119 225.419 97.8328C242.375 95.8581 256.352 109.283 259.922 119.706Z" fill="url(#paint8_linear_558_6068)"/>
<path d="M259.922 119.706C268.157 143.81 236.803 160.678 214.531 150.295C189.813 138.789 201.045 106.248 221.12 98.9618C222.367 98.512 224.111 98.119 225.419 97.8328C242.375 95.8581 256.352 109.283 259.922 119.706Z" fill="#131315"/>
<path d="M317.627 110.154C331.593 124.345 329.867 138.911 314.114 139.54C284.96 140.72 258.368 101.103 269.23 91.5205C270.263 90.6198 271.668 90.2828 272.768 89.9964C284.878 88.7897 305.842 98.2078 317.627 110.154Z" fill="#D9D9FE"/>
<path d="M317.627 110.154C331.593 124.345 329.867 138.911 314.114 139.54C284.96 140.72 258.368 101.103 269.23 91.5205C270.263 90.6198 271.668 90.2828 272.768 89.9964C284.878 88.7897 305.842 98.2078 317.627 110.154Z" fill="url(#paint9_linear_558_6068)"/>
<path d="M317.627 110.154C331.593 124.345 329.867 138.911 314.114 139.54C284.96 140.72 258.368 101.103 269.23 91.5205C270.263 90.6198 271.668 90.2828 272.768 89.9964C284.878 88.7897 305.842 98.2078 317.627 110.154Z" fill="#131315"/>
<path d="M356.766 129.383C358.152 131.238 358.185 131.649 358.213 132.235C357.434 132.782 355.235 132.312 344.883 124.611C344.409 124.272 297.054 87.1552 296.48 86.2079C296.508 86.1684 296.57 86.1235 296.632 86.0784C297.264 86.1128 297.98 86.2373 300.737 87.3443C322.535 96.5547 341.83 111.009 356.766 129.383Z" fill="#D9D9FE"/>
<path d="M356.766 129.383C358.152 131.238 358.185 131.649 358.213 132.235C357.434 132.782 355.235 132.312 344.883 124.611C344.409 124.272 297.054 87.1552 296.48 86.2079C296.508 86.1684 296.57 86.1235 296.632 86.0784C297.264 86.1128 297.98 86.2373 300.737 87.3443C322.535 96.5547 341.83 111.009 356.766 129.383Z" fill="url(#paint10_linear_558_6068)"/>
<path d="M356.766 129.383C358.152 131.238 358.185 131.649 358.213 132.235C357.434 132.782 355.235 132.312 344.883 124.611C344.409 124.272 297.054 87.1552 296.48 86.2079C296.508 86.1684 296.57 86.1235 296.632 86.0784C297.264 86.1128 297.98 86.2373 300.737 87.3443C322.535 96.5547 341.83 111.009 356.766 129.383Z" fill="#131315"/>
<path d="M143.238 205.088C141.501 234.909 125.574 254.642 113.349 242.143C98.19 226.621 104.032 172.667 126.52 166.718C139.662 165.862 144.198 188.633 143.238 205.088Z" fill="#D9D9FE"/>
<path d="M143.238 205.088C141.501 234.909 125.574 254.642 113.349 242.143C98.19 226.621 104.032 172.667 126.52 166.718C139.662 165.862 144.198 188.633 143.238 205.088Z" fill="url(#paint11_linear_558_6068)"/>
<path d="M143.238 205.088C141.501 234.909 125.574 254.642 113.349 242.143C98.19 226.621 104.032 172.667 126.52 166.718C139.662 165.862 144.198 188.633 143.238 205.088Z" fill="#131315"/>
<path d="M232.15 190.36C233.638 221.802 196.858 248.324 171.206 225.298C149.711 205.961 158.022 163.341 192.084 155.893C215.668 153.202 231.253 171.712 232.15 190.36Z" fill="#D9D9FE"/>
<path d="M232.15 190.36C233.638 221.802 196.858 248.324 171.206 225.298C149.711 205.961 158.022 163.341 192.084 155.893C215.668 153.202 231.253 171.712 232.15 190.36Z" fill="url(#paint12_linear_558_6068)"/>
<path d="M232.15 190.36C233.638 221.802 196.858 248.324 171.206 225.298C149.711 205.961 158.022 163.341 192.084 155.893C215.668 153.202 231.253 171.712 232.15 190.36Z" fill="#131315"/>
<path d="M324.993 174.982C332.12 206.254 301.504 227.795 273.826 211.011C242.822 192.206 249.035 149.726 276.453 142.057C277.384 141.799 278.699 141.547 279.641 141.356C305.012 138.543 321.423 159.313 324.993 174.982Z" fill="#D9D9FE"/>
<path d="M324.993 174.982C332.12 206.254 301.504 227.795 273.826 211.011C242.822 192.206 249.035 149.726 276.453 142.057C277.384 141.799 278.699 141.547 279.641 141.356C305.012 138.543 321.423 159.313 324.993 174.982Z" fill="url(#paint13_linear_558_6068)"/>
<path d="M324.993 174.982C332.12 206.254 301.504 227.795 273.826 211.011C242.822 192.206 249.035 149.726 276.453 142.057C277.384 141.799 278.699 141.547 279.641 141.356C305.012 138.543 321.423 159.313 324.993 174.982Z" fill="#131315"/>
<path d="M375.627 166.596C384.691 190.667 379.577 209.339 365.484 203.612C343.786 194.802 324.178 138.149 340.525 131.445C340.982 131.265 341.619 131.125 342.088 131.013C354.378 130.262 368.806 148.511 375.627 166.596Z" fill="#D9D9FE"/>
<path d="M375.627 166.596C384.691 190.667 379.577 209.339 365.484 203.612C343.786 194.802 324.178 138.149 340.525 131.445C340.982 131.265 341.619 131.125 342.088 131.013C354.378 130.262 368.806 148.511 375.627 166.596Z" fill="url(#paint14_linear_558_6068)"/>
<path d="M375.627 166.596C384.691 190.667 379.577 209.339 365.484 203.612C343.786 194.802 324.178 138.149 340.525 131.445C340.982 131.265 341.619 131.125 342.088 131.013C354.378 130.262 368.806 148.511 375.627 166.596Z" fill="#131315"/>
<path d="M129.276 284.535C134.147 295.889 141.985 316.968 136.855 315.593C135.546 315.254 133.53 313.365 130.854 310.02L128.551 307.032C124.711 301.483 119.897 293.837 116.498 288.007C113.527 281.828 109.91 273.428 107.453 266.99C106.166 262.582 104.396 256.725 103.346 252.278C101.787 244.962 102.972 244.348 103.835 243.893C109.604 244.501 122.194 268.023 129.276 284.535Z" fill="#D9D9FE"/>
<path d="M129.276 284.535C134.147 295.889 141.985 316.968 136.855 315.593C135.546 315.254 133.53 313.365 130.854 310.02L128.551 307.032C124.711 301.483 119.897 293.837 116.498 288.007C113.527 281.828 109.91 273.428 107.453 266.99C106.166 262.582 104.396 256.725 103.346 252.278C101.787 244.962 102.972 244.348 103.835 243.893C109.604 244.501 122.194 268.023 129.276 284.535Z" fill="url(#paint15_linear_558_6068)"/>
<path d="M129.276 284.535C134.147 295.889 141.985 316.968 136.855 315.593C135.546 315.254 133.53 313.365 130.854 310.02L128.551 307.032C124.711 301.483 119.897 293.837 116.498 288.007C113.527 281.828 109.91 273.428 107.453 266.99C106.166 262.582 104.396 256.725 103.346 252.278C101.787 244.962 102.972 244.348 103.835 243.893C109.604 244.501 122.194 268.023 129.276 284.535Z" fill="#131315"/>
<path d="M195.718 273.531C201.277 300.372 182.068 319.815 156.748 302.362C131.072 284.656 124.443 242.53 152.774 235.753C174.039 233.759 191.612 253.781 195.718 273.531Z" fill="#D9D9FE"/>
<path d="M195.718 273.531C201.277 300.372 182.068 319.815 156.748 302.362C131.072 284.656 124.443 242.53 152.774 235.753C174.039 233.759 191.612 253.781 195.718 273.531Z" fill="url(#paint16_linear_558_6068)"/>
<path d="M195.718 273.531C201.277 300.372 182.068 319.815 156.748 302.362C131.072 284.656 124.443 242.53 152.774 235.753C174.039 233.759 191.612 253.781 195.718 273.531Z" fill="#131315"/>
<path d="M291.871 257.604C290.923 293.237 247.347 309.384 223.301 283.034C204.487 262.454 212.693 227.6 246.862 220.168C278.67 216.533 292.343 239.876 291.871 257.604Z" fill="#D9D9FE"/>
<path d="M291.871 257.604C290.923 293.237 247.347 309.384 223.301 283.034C204.487 262.454 212.693 227.6 246.862 220.168C278.67 216.533 292.343 239.876 291.871 257.604Z" fill="url(#paint17_linear_558_6068)"/>
<path d="M291.871 257.604C290.923 293.237 247.347 309.384 223.301 283.034C204.487 262.454 212.693 227.6 246.862 220.168C278.67 216.533 292.343 239.876 291.871 257.604Z" fill="#131315"/>
<path d="M365.925 245.338C361.402 275.343 333.896 295.708 318.051 273.108C303.4 252.255 312.402 211.293 339.261 204.863C360.949 202.904 368.676 227.093 365.925 245.338Z" fill="#D9D9FE"/>
<path d="M365.925 245.338C361.402 275.343 333.896 295.708 318.051 273.108C303.4 252.255 312.402 211.293 339.261 204.863C360.949 202.904 368.676 227.093 365.925 245.338Z" fill="url(#paint18_linear_558_6068)"/>
<path d="M365.925 245.338C361.402 275.343 333.896 295.708 318.051 273.108C303.4 252.255 312.402 211.293 339.261 204.863C360.949 202.904 368.676 227.093 365.925 245.338Z" fill="#131315"/>
<path d="M379.481 272.383C377.395 277.211 376.302 276.28 375.756 274.668C372.862 266.218 378.192 201.195 385.799 197.155C386.628 197.33 387.175 197.692 387.763 200.826C391.209 225.827 388.029 250.294 379.481 272.383Z" fill="#D9D9FE"/>
<path d="M379.481 272.383C377.395 277.211 376.302 276.28 375.756 274.668C372.862 266.218 378.192 201.195 385.799 197.155C386.628 197.33 387.175 197.692 387.763 200.826C391.209 225.827 388.029 250.294 379.481 272.383Z" fill="url(#paint19_linear_558_6068)"/>
<path d="M379.481 272.383C377.395 277.211 376.302 276.28 375.756 274.668C372.862 266.218 378.192 201.195 385.799 197.155C386.628 197.33 387.175 197.692 387.763 200.826C391.209 225.827 388.029 250.294 379.481 272.383Z" fill="#131315"/>
<path d="M253.724 361.524C258.978 363.642 262.593 364.05 268.076 363.142C236.757 368.26 210.691 357.429 214.599 352.264C215.226 351.431 216.699 351.083 217.771 350.836C219.959 350.612 224.06 350.176 232.765 352.765C240.077 354.924 246.717 358.688 253.724 361.524Z" fill="#D9D9FE"/>
<path d="M253.724 361.524C258.978 363.642 262.593 364.05 268.076 363.142C236.757 368.26 210.691 357.429 214.599 352.264C215.226 351.431 216.699 351.083 217.771 350.836C219.959 350.612 224.06 350.176 232.765 352.765C240.077 354.924 246.717 358.688 253.724 361.524Z" fill="url(#paint20_linear_558_6068)"/>
<path d="M253.724 361.524C258.978 363.642 262.593 364.05 268.076 363.142C236.757 368.26 210.691 357.429 214.599 352.264C215.226 351.431 216.699 351.083 217.771 350.836C219.959 350.612 224.06 350.176 232.765 352.765C240.077 354.924 246.717 358.688 253.724 361.524Z" fill="#131315"/>
<path d="M277.283 357.621C274.234 360.836 270.008 362.822 268.078 363.142C260.249 363.952 248.302 355.855 255.507 347.92C258.715 344.401 263.448 343.374 265.97 342.852C280.703 341.106 283.564 349.771 278.3 356.411C278.045 356.765 277.605 357.255 277.283 357.621Z" fill="#D9D9FE"/>
<path d="M277.283 357.621C274.234 360.836 270.008 362.822 268.078 363.142C260.249 363.952 248.302 355.855 255.507 347.92C258.715 344.401 263.448 343.374 265.97 342.852C280.703 341.106 283.564 349.771 278.3 356.411C278.045 356.765 277.605 357.255 277.283 357.621Z" fill="url(#paint21_linear_558_6068)"/>
<path d="M277.283 357.621C274.234 360.836 270.008 362.822 268.078 363.142C260.249 363.952 248.302 355.855 255.507 347.92C258.715 344.401 263.448 343.374 265.97 342.852C280.703 341.106 283.564 349.771 278.3 356.411C278.045 356.765 277.605 357.255 277.283 357.621Z" fill="#131315"/>
<path d="M295.42 354.617C287.029 358.544 277.077 361.651 268.073 363.143C286.887 359.783 294.992 339.226 313.281 335.015C320.715 334.34 315.768 340.372 314.684 341.593C310.911 345.901 303.907 350.64 295.42 354.617Z" fill="#D9D9FE"/>
<path d="M295.42 354.617C287.029 358.544 277.077 361.651 268.073 363.143C286.887 359.783 294.992 339.226 313.281 335.015C320.715 334.34 315.768 340.372 314.684 341.593C310.911 345.901 303.907 350.64 295.42 354.617Z" fill="url(#paint22_linear_558_6068)"/>
<path d="M295.42 354.617C287.029 358.544 277.077 361.651 268.073 363.143C286.887 359.783 294.992 339.226 313.281 335.015C320.715 334.34 315.768 340.372 314.684 341.593C310.911 345.901 303.907 350.64 295.42 354.617Z" fill="#131315"/>
<path d="M194.813 336.122C212.631 355.095 207.013 355.191 204.622 355.24C181.007 355.642 135.51 320.302 147.348 310.732C148.088 310.158 149.318 309.815 150.215 309.562C163.785 308.565 182.736 323.251 194.813 336.122Z" fill="#D9D9FE"/>
<path d="M194.813 336.122C212.631 355.095 207.013 355.191 204.622 355.24C181.007 355.642 135.51 320.302 147.348 310.732C148.088 310.158 149.318 309.815 150.215 309.562C163.785 308.565 182.736 323.251 194.813 336.122Z" fill="url(#paint23_linear_558_6068)"/>
<path d="M194.813 336.122C212.631 355.095 207.013 355.191 204.622 355.24C181.007 355.642 135.51 320.302 147.348 310.732C148.088 310.158 149.318 309.815 150.215 309.562C163.785 308.565 182.736 323.251 194.813 336.122Z" fill="#131315"/>
<path d="M256.785 325.856C259.509 350.283 235.143 357.064 211.07 338.536C193.332 324.866 191.454 304.086 215.707 298.714C238.952 296.08 255.121 310.775 256.785 325.856Z" fill="#D9D9FE"/>
<path d="M256.785 325.856C259.509 350.283 235.143 357.064 211.07 338.536C193.332 324.866 191.454 304.086 215.707 298.714C238.952 296.08 255.121 310.775 256.785 325.856Z" fill="url(#paint24_linear_558_6068)"/>
<path d="M256.785 325.856C259.509 350.283 235.143 357.064 211.07 338.536C193.332 324.866 191.454 304.086 215.707 298.714C238.952 296.08 255.121 310.775 256.785 325.856Z" fill="#131315"/>
<path d="M321.571 315.126C311.267 335.213 283.344 354.953 273.758 328.153C267.917 311.783 279.318 289.499 303.305 284.205C324.959 281.834 330.22 298.266 321.571 315.126Z" fill="#D9D9FE"/>
<path d="M321.571 315.126C311.267 335.213 283.344 354.953 273.758 328.153C267.917 311.783 279.318 289.499 303.305 284.205C324.959 281.834 330.22 298.266 321.571 315.126Z" fill="url(#paint25_linear_558_6068)"/>
<path d="M321.571 315.126C311.267 335.213 283.344 354.953 273.758 328.153C267.917 311.783 279.318 289.499 303.305 284.205C324.959 281.834 330.22 298.266 321.571 315.126Z" fill="#131315"/>
<path d="M356.834 309.285C344.374 325.386 325.002 339.227 324.506 333.923C323.988 328.276 345.701 279.232 365.678 273.873C376.338 273.358 369.548 292.829 356.834 309.285Z" fill="#D9D9FE"/>
<path d="M356.834 309.285C344.374 325.386 325.002 339.227 324.506 333.923C323.988 328.276 345.701 279.232 365.678 273.873C376.338 273.358 369.548 292.829 356.834 309.285Z" fill="url(#paint26_linear_558_6068)"/>
<path d="M356.834 309.285C344.374 325.386 325.002 339.227 324.506 333.923C323.988 328.276 345.701 279.232 365.678 273.873C376.338 273.358 369.548 292.829 356.834 309.285Z" fill="#131315"/>
<path d="M350.428 318.893C358.278 310.227 364.457 301.768 370.47 291.46C364.909 301.346 358.159 310.56 350.428 318.893Z" fill="#D9D9FE"/>
<path d="M350.428 318.893C358.278 310.227 364.457 301.768 370.47 291.46C364.909 301.346 358.159 310.56 350.428 318.893Z" fill="url(#paint27_linear_558_6068)"/>
<path d="M350.428 318.893C358.278 310.227 364.457 301.768 370.47 291.46C364.909 301.346 358.159 310.56 350.428 318.893Z" fill="#131315"/>
</g>
</g>
<defs>
<filter id="filter0_d_558_6068" x="-21.6758" y="-20.6748" width="532.422" height="532.422" filterUnits="userSpaceOnUse" color-interpolation-filters="sRGB">
<feFlood flood-opacity="0" result="BackgroundImageFix"/>
<feColorMatrix in="SourceAlpha" type="matrix" values="0 0 0 0 0 0 0 0 0 0 0 0 0 0 0 0 0 0 127 0" result="hardAlpha"/>
<feOffset dy="25"/>
<feGaussianBlur stdDeviation="50"/>
<feComposite in2="hardAlpha" operator="out"/>
<feColorMatrix type="matrix" values="0 0 0 0 0.0392157 0 0 0 0 0.643137 0 0 0 0 0.572549 0 0 0 0.42 0"/>
<feBlend mode="normal" in2="BackgroundImageFix" result="effect1_dropShadow_558_6068"/>
<feBlend mode="normal" in="SourceGraphic" in2="effect1_dropShadow_558_6068" result="shape"/>
</filter>
<linearGradient id="paint0_linear_558_6068" x1="78.3242" y1="174.035" x2="367.394" y2="174.035" gradientUnits="userSpaceOnUse">
<stop stop-color="#03FCF8"/>
<stop offset="1" stop-color="#04F79F"/>
</linearGradient>
<linearGradient id="paint1_linear_558_6068" x1="153.979" y1="100.281" x2="262.812" y2="83.5267" gradientUnits="userSpaceOnUse">
<stop stop-color="#CBDAFF"/>
<stop offset="1" stop-color="#F1D6FB"/>
</linearGradient>
<linearGradient id="paint2_linear_558_6068" x1="187.6" y1="94.6224" x2="243.462" y2="85.7081" gradientUnits="userSpaceOnUse">
<stop stop-color="#CBDAFF"/>
<stop offset="1" stop-color="#F1D6FB"/>
</linearGradient>
<linearGradient id="paint3_linear_558_6068" x1="223.173" y1="88.795" x2="281.671" y2="79.4745" gradientUnits="userSpaceOnUse">
<stop stop-color="#CBDAFF"/>
<stop offset="1" stop-color="#F1D6FB"/>
</linearGradient>
<linearGradient id="paint4_linear_558_6068" x1="224.026" y1="88.6342" x2="334.275" y2="71.6836" gradientUnits="userSpaceOnUse">
<stop stop-color="#CBDAFF"/>
<stop offset="1" stop-color="#F1D6FB"/>
</linearGradient>
<linearGradient id="paint5_linear_558_6068" x1="243.313" y1="81.8316" x2="307.721" y2="72.0035" gradientUnits="userSpaceOnUse">
<stop stop-color="#CBDAFF"/>
<stop offset="1" stop-color="#F1D6FB"/>
</linearGradient>
<linearGradient id="paint6_linear_558_6068" x1="103.67" y1="145.474" x2="189.822" y2="131.532" gradientUnits="userSpaceOnUse">
<stop stop-color="#CBDAFF"/>
<stop offset="1" stop-color="#F1D6FB"/>
</linearGradient>
<linearGradient id="paint7_linear_558_6068" x1="134.724" y1="140.398" x2="223.146" y2="126.096" gradientUnits="userSpaceOnUse">
<stop stop-color="#CBDAFF"/>
<stop offset="1" stop-color="#F1D6FB"/>
</linearGradient>
<linearGradient id="paint8_linear_558_6068" x1="199.715" y1="129.656" x2="298.147" y2="113.778" gradientUnits="userSpaceOnUse">
<stop stop-color="#CBDAFF"/>
<stop offset="1" stop-color="#F1D6FB"/>
</linearGradient>
<linearGradient id="paint9_linear_558_6068" x1="269.468" y1="118.05" x2="358.23" y2="103.694" gradientUnits="userSpaceOnUse">
<stop stop-color="#CBDAFF"/>
<stop offset="1" stop-color="#F1D6FB"/>
</linearGradient>
<linearGradient id="paint10_linear_558_6068" x1="300.513" y1="112.876" x2="386.766" y2="98.9181" gradientUnits="userSpaceOnUse">
<stop stop-color="#CBDAFF"/>
<stop offset="1" stop-color="#F1D6FB"/>
</linearGradient>
<linearGradient id="paint11_linear_558_6068" x1="102.922" y1="208.796" x2="170.671" y2="197.72" gradientUnits="userSpaceOnUse">
<stop stop-color="#CBDAFF"/>
<stop offset="1" stop-color="#F1D6FB"/>
</linearGradient>
<linearGradient id="paint12_linear_558_6068" x1="158.676" y1="199.677" x2="277.74" y2="180.405" gradientUnits="userSpaceOnUse">
<stop stop-color="#CBDAFF"/>
<stop offset="1" stop-color="#F1D6FB"/>
</linearGradient>
<linearGradient id="paint13_linear_558_6068" x1="253.414" y1="183.772" x2="369.076" y2="165.04" gradientUnits="userSpaceOnUse">
<stop stop-color="#CBDAFF"/>
<stop offset="1" stop-color="#F1D6FB"/>
</linearGradient>
<linearGradient id="paint14_linear_558_6068" x1="337.692" y1="169.874" x2="400.95" y2="159.523" gradientUnits="userSpaceOnUse">
<stop stop-color="#CBDAFF"/>
<stop offset="1" stop-color="#F1D6FB"/>
</linearGradient>
<linearGradient id="paint15_linear_558_6068" x1="107.837" y1="280.824" x2="148.117" y2="274.205" gradientUnits="userSpaceOnUse">
<stop stop-color="#CBDAFF"/>
<stop offset="1" stop-color="#F1D6FB"/>
</linearGradient>
<linearGradient id="paint16_linear_558_6068" x1="135.834" y1="276.126" x2="231.301" y2="260.607" gradientUnits="userSpaceOnUse">
<stop stop-color="#CBDAFF"/>
<stop offset="1" stop-color="#F1D6FB"/>
</linearGradient>
<linearGradient id="paint17_linear_558_6068" x1="213.265" y1="263.34" x2="340.139" y2="242.844" gradientUnits="userSpaceOnUse">
<stop stop-color="#CBDAFF"/>
<stop offset="1" stop-color="#F1D6FB"/>
</linearGradient>
<linearGradient id="paint18_linear_558_6068" x1="309.738" y1="247.346" x2="402.978" y2="232.182" gradientUnits="userSpaceOnUse">
<stop stop-color="#CBDAFF"/>
<stop offset="1" stop-color="#F1D6FB"/>
</linearGradient>
<linearGradient id="paint19_linear_558_6068" x1="369.327" y1="237.485" x2="408.082" y2="231.114" gradientUnits="userSpaceOnUse">
<stop stop-color="#CBDAFF"/>
<stop offset="1" stop-color="#F1D6FB"/>
</linearGradient>
<linearGradient id="paint20_linear_558_6068" x1="215.128" y1="361.308" x2="298.486" y2="348.338" gradientUnits="userSpaceOnUse">
<stop stop-color="#CBDAFF"/>
<stop offset="1" stop-color="#F1D6FB"/>
</linearGradient>
<linearGradient id="paint21_linear_558_6068" x1="253.328" y1="354.98" x2="298.122" y2="347.803" gradientUnits="userSpaceOnUse">
<stop stop-color="#CBDAFF"/>
<stop offset="1" stop-color="#F1D6FB"/>
</linearGradient>
<linearGradient id="paint22_linear_558_6068" x1="265.993" y1="352.883" x2="351.504" y2="339.6" gradientUnits="userSpaceOnUse">
<stop stop-color="#CBDAFF"/>
<stop offset="1" stop-color="#F1D6FB"/>
</linearGradient>
<linearGradient id="paint23_linear_558_6068" x1="148.512" y1="336.488" x2="237.249" y2="322.148" gradientUnits="userSpaceOnUse">
<stop stop-color="#CBDAFF"/>
<stop offset="1" stop-color="#F1D6FB"/>
</linearGradient>
<linearGradient id="paint24_linear_558_6068" x1="198.909" y1="327.942" x2="291.076" y2="313.065" gradientUnits="userSpaceOnUse">
<stop stop-color="#CBDAFF"/>
<stop offset="1" stop-color="#F1D6FB"/>
</linearGradient>
<linearGradient id="paint25_linear_558_6068" x1="270.967" y1="316.211" x2="361.883" y2="301.528" gradientUnits="userSpaceOnUse">
<stop stop-color="#CBDAFF"/>
<stop offset="1" stop-color="#F1D6FB"/>
</linearGradient>
<linearGradient id="paint26_linear_558_6068" x1="319.82" y1="308.042" x2="408.417" y2="293.725" gradientUnits="userSpaceOnUse">
<stop stop-color="#CBDAFF"/>
<stop offset="1" stop-color="#F1D6FB"/>
</linearGradient>
<linearGradient id="paint27_linear_558_6068" x1="348.261" y1="306.863" x2="387.433" y2="300.533" gradientUnits="userSpaceOnUse">
<stop stop-color="#CBDAFF"/>
<stop offset="1" stop-color="#F1D6FB"/>
</linearGradient>
<clipPath id="clip0_558_6068">
<rect x="78.3242" y="101.562" width="289.07" height="289.07" rx="143.794" transform="rotate(-9.40493 78.3242 101.562)" fill="white"/>
</clipPath>
</defs>
</svg>
