<svg width="104" height="127" viewBox="0 0 104 127" fill="none" xmlns="http://www.w3.org/2000/svg">
<g id="DEFI">
<g clip-path="url(#clip0_514_23332)">
<rect x="45.7021" y="0.25" width="93.2362" height="93.2362" rx="46.6181" transform="rotate(28.9044 45.7021 0.25)" fill="url(#paint0_linear_514_23332)"/>
<g id="Vector">
<path d="M76.2064 19.8558C72.809 19.6218 69.3817 19.7628 66.0049 19.2624C64.3365 19.0106 62.9843 18.5292 63.7286 18.0056C65.1975 16.9474 75.441 16.8695 85.9786 22.4855C82.851 20.8471 80.2057 20.1443 76.2064 19.8558Z" fill="#D9D9FE"/>
<path d="M76.2064 19.8558C72.809 19.6218 69.3817 19.7628 66.0049 19.2624C64.3365 19.0106 62.9843 18.5292 63.7286 18.0056C65.1975 16.9474 75.441 16.8695 85.9786 22.4855C82.851 20.8471 80.2057 20.1443 76.2064 19.8558Z" fill="url(#paint1_linear_514_23332)"/>
<path d="M76.2064 19.8558C72.809 19.6218 69.3817 19.7628 66.0049 19.2624C64.3365 19.0106 62.9843 18.5292 63.7286 18.0056C65.1975 16.9474 75.441 16.8695 85.9786 22.4855C82.851 20.8471 80.2057 20.1443 76.2064 19.8558Z" fill="#131315"/>
</g>
<g id="Vector_2">
<path d="M84.4767 24.4237C80.971 27.8429 73.5017 25.3229 73.6437 22.7996C73.8095 20.0495 81.1313 19.9749 86.296 22.6624C86.0185 22.547 85.895 22.542 85.7148 22.7077C85.1995 23.2062 84.9921 23.9253 84.4767 24.4237Z" fill="#D9D9FE"/>
<path d="M84.4767 24.4237C80.971 27.8429 73.5017 25.3229 73.6437 22.7996C73.8095 20.0495 81.1313 19.9749 86.296 22.6624C86.0185 22.547 85.895 22.542 85.7148 22.7077C85.1995 23.2062 84.9921 23.9253 84.4767 24.4237Z" fill="url(#paint2_linear_514_23332)"/>
<path d="M84.4767 24.4237C80.971 27.8429 73.5017 25.3229 73.6437 22.7996C73.8095 20.0495 81.1313 19.9749 86.296 22.6624C86.0185 22.547 85.895 22.542 85.7148 22.7077C85.1995 23.2062 84.9921 23.9253 84.4767 24.4237Z" fill="#131315"/>
</g>
<g id="Vector_3">
<path d="M93.2231 29.2564C95.2956 32.7371 94.3839 34.7091 92.1729 34.1577C89.7662 33.5488 85.2745 29.1617 86.9307 24.2161C87.1735 23.4788 87.2469 23.254 86.7119 22.8955C89.2652 24.4063 91.8129 26.9117 93.2231 29.2564Z" fill="#D9D9FE"/>
<path d="M93.2231 29.2564C95.2956 32.7371 94.3839 34.7091 92.1729 34.1577C89.7662 33.5488 85.2745 29.1617 86.9307 24.2161C87.1735 23.4788 87.2469 23.254 86.7119 22.8955C89.2652 24.4063 91.8129 26.9117 93.2231 29.2564Z" fill="url(#paint3_linear_514_23332)"/>
<path d="M93.2231 29.2564C95.2956 32.7371 94.3839 34.7091 92.1729 34.1577C89.7662 33.5488 85.2745 29.1617 86.9307 24.2161C87.1735 23.4788 87.2469 23.254 86.7119 22.8955C89.2652 24.4063 91.8129 26.9117 93.2231 29.2564Z" fill="#131315"/>
</g>
<g id="Vector_4">
<path d="M98.0643 31.9304C101.182 35.3947 103.418 39.2435 102.778 40.014C101.64 40.1057 98.9754 36.2096 97.0305 33.3677C93.7433 28.5848 91.6642 25.7572 87.0195 23.0664C92.2842 26.0995 95.9221 29.5605 98.0643 31.9304Z" fill="#D9D9FE"/>
<path d="M98.0643 31.9304C101.182 35.3947 103.418 39.2435 102.778 40.014C101.64 40.1057 98.9754 36.2096 97.0305 33.3677C93.7433 28.5848 91.6642 25.7572 87.0195 23.0664C92.2842 26.0995 95.9221 29.5605 98.0643 31.9304Z" fill="url(#paint4_linear_514_23332)"/>
<path d="M98.0643 31.9304C101.182 35.3947 103.418 39.2435 102.778 40.014C101.64 40.1057 98.9754 36.2096 97.0305 33.3677C93.7433 28.5848 91.6642 25.7572 87.0195 23.0664C92.2842 26.0995 95.9221 29.5605 98.0643 31.9304Z" fill="#131315"/>
</g>
<g id="Vector_5">
<path d="M101.759 36.2608C98.1785 31.3916 94.8766 28.5582 92.3994 26.6348C96.03 29.4223 99.1611 32.6793 101.759 36.2608Z" fill="#D9D9FE"/>
<path d="M101.759 36.2608C98.1785 31.3916 94.8766 28.5582 92.3994 26.6348C96.03 29.4223 99.1611 32.6793 101.759 36.2608Z" fill="url(#paint5_linear_514_23332)"/>
<path d="M101.759 36.2608C98.1785 31.3916 94.8766 28.5582 92.3994 26.6348C96.03 29.4223 99.1611 32.6793 101.759 36.2608Z" fill="#131315"/>
</g>
<g id="Vector_6">
<path d="M51.7725 21.1343C48.2132 22.4528 39.8678 25.5489 39.0311 24.5691C39.0702 24.3381 39.1209 24.063 40.7439 23.1153C41.9099 22.4456 43.0933 21.8361 44.3145 21.2726C46.4843 20.2731 48.7319 19.4302 51.0166 18.772C53.3012 18.1138 55.6584 17.6219 58.0225 17.3232C58.6499 17.2402 59.2665 17.1765 59.8928 17.1182C62.0542 16.935 62.5039 17.0822 62.6749 17.1387C62.6631 17.1828 62.6612 17.2322 62.6592 17.2816C62.3652 17.4477 62.2342 17.5016 60.885 17.9312C57.6792 18.9523 56.242 19.4723 51.7725 21.1343Z" fill="#D9D9FE"/>
<path d="M51.7725 21.1343C48.2132 22.4528 39.8678 25.5489 39.0311 24.5691C39.0702 24.3381 39.1209 24.063 40.7439 23.1153C41.9099 22.4456 43.0933 21.8361 44.3145 21.2726C46.4843 20.2731 48.7319 19.4302 51.0166 18.772C53.3012 18.1138 55.6584 17.6219 58.0225 17.3232C58.6499 17.2402 59.2665 17.1765 59.8928 17.1182C62.0542 16.935 62.5039 17.0822 62.6749 17.1387C62.6631 17.1828 62.6612 17.2322 62.6592 17.2816C62.3652 17.4477 62.2342 17.5016 60.885 17.9312C57.6792 18.9523 56.242 19.4723 51.7725 21.1343Z" fill="url(#paint6_linear_514_23332)"/>
<path d="M51.7725 21.1343C48.2132 22.4528 39.8678 25.5489 39.0311 24.5691C39.0702 24.3381 39.1209 24.063 40.7439 23.1153C41.9099 22.4456 43.0933 21.8361 44.3145 21.2726C46.4843 20.2731 48.7319 19.4302 51.0166 18.772C53.3012 18.1138 55.6584 17.6219 58.0225 17.3232C58.6499 17.2402 59.2665 17.1765 59.8928 17.1182C62.0542 16.935 62.5039 17.0822 62.6749 17.1387C62.6631 17.1828 62.6612 17.2322 62.6592 17.2816C62.3652 17.4477 62.2342 17.5016 60.885 17.9312C57.6792 18.9523 56.242 19.4723 51.7725 21.1343Z" fill="#131315"/>
</g>
<g id="Vector_7">
<path d="M66.5856 29.3107C58.8559 34.9316 48.1611 32.8282 49.2517 27.4189C50.4961 21.2733 64.4668 18.5425 69.8697 21.0962C73.3871 23.3793 68.1724 28.1535 66.5856 29.3107Z" fill="#D9D9FE"/>
<path d="M66.5856 29.3107C58.8559 34.9316 48.1611 32.8282 49.2517 27.4189C50.4961 21.2733 64.4668 18.5425 69.8697 21.0962C73.3871 23.3793 68.1724 28.1535 66.5856 29.3107Z" fill="url(#paint7_linear_514_23332)"/>
<path d="M66.5856 29.3107C58.8559 34.9316 48.1611 32.8282 49.2517 27.4189C50.4961 21.2733 64.4668 18.5425 69.8697 21.0962C73.3871 23.3793 68.1724 28.1535 66.5856 29.3107Z" fill="#131315"/>
</g>
<g id="Vector_8">
<path d="M88.0334 41.1458C85.2981 48.8929 73.99 46.8929 70.4293 39.8119C66.4742 31.9576 75.8233 25.9678 82.3608 28.1376C82.7663 28.2731 83.2861 28.5222 83.6746 28.7114C88.3607 31.6018 89.214 37.7941 88.0334 41.1458Z" fill="#D9D9FE"/>
<path d="M88.0334 41.1458C85.2981 48.8929 73.99 46.8929 70.4293 39.8119C66.4742 31.9576 75.8233 25.9678 82.3608 28.1376C82.7663 28.2731 83.2861 28.5222 83.6746 28.7114C88.3607 31.6018 89.214 37.7941 88.0334 41.1458Z" fill="url(#paint8_linear_514_23332)"/>
<path d="M88.0334 41.1458C85.2981 48.8929 73.99 46.8929 70.4293 39.8119C66.4742 31.9576 75.8233 25.9678 82.3608 28.1376C82.7663 28.2731 83.2861 28.5222 83.6746 28.7114C88.3607 31.6018 89.214 37.7941 88.0334 41.1458Z" fill="#131315"/>
</g>
<g id="Vector_9">
<path d="M104.548 50.2744C105.245 56.6583 101.896 59.9997 97.783 57.0092C90.1685 51.4788 91.3596 36.1351 96.0246 35.8818C96.4661 35.8604 96.8891 36.056 97.2247 36.2035C100.531 38.3194 103.954 44.8947 104.548 50.2744Z" fill="#D9D9FE"/>
<path d="M104.548 50.2744C105.245 56.6583 101.896 59.9997 97.783 57.0092C90.1685 51.4788 91.3596 36.1351 96.0246 35.8818C96.4661 35.8604 96.8891 36.056 97.2247 36.2035C100.531 38.3194 103.954 44.8947 104.548 50.2744Z" fill="url(#paint9_linear_514_23332)"/>
<path d="M104.548 50.2744C105.245 56.6583 101.896 59.9997 97.783 57.0092C90.1685 51.4788 91.3596 36.1351 96.0246 35.8818C96.4661 35.8604 96.8891 36.056 97.2247 36.2035C100.531 38.3194 103.954 44.8947 104.548 50.2744Z" fill="#131315"/>
</g>
<g id="Vector_10">
<path d="M110.606 62.9739C110.586 63.7205 110.512 63.8312 110.402 63.9851C110.096 63.9676 109.633 63.409 108.553 59.3901C108.501 59.2096 103.937 40.3474 103.981 39.9929C103.996 39.9886 104.021 39.9896 104.046 39.9906C104.199 40.1256 104.355 40.3003 104.831 41.1317C108.507 47.8212 110.5 55.3375 110.606 62.9739Z" fill="#D9D9FE"/>
<path d="M110.606 62.9739C110.586 63.7205 110.512 63.8312 110.402 63.9851C110.096 63.9676 109.633 63.409 108.553 59.3901C108.501 59.2096 103.937 40.3474 103.981 39.9929C103.996 39.9886 104.021 39.9896 104.046 39.9906C104.199 40.1256 104.355 40.3003 104.831 41.1317C108.507 47.8212 110.5 55.3375 110.606 62.9739Z" fill="url(#paint10_linear_514_23332)"/>
<path d="M110.606 62.9739C110.586 63.7205 110.512 63.8312 110.402 63.9851C110.096 63.9676 109.633 63.409 108.553 59.3901C108.501 59.2096 103.937 40.3474 103.981 39.9929C103.996 39.9886 104.021 39.9896 104.046 39.9906C104.199 40.1256 104.355 40.3003 104.831 41.1317C108.507 47.8212 110.5 55.3375 110.606 62.9739Z" fill="#131315"/>
</g>
<g id="Vector_11">
<path d="M41.4307 39.4252C35.0284 46.6252 27.0521 48.4349 26.4572 42.8275C25.7241 35.8681 37.9906 23.3809 44.8712 26.3717C48.3685 28.7826 44.9638 35.4528 41.4307 39.4252Z" fill="#D9D9FE"/>
<path d="M41.4307 39.4252C35.0284 46.6252 27.0521 48.4349 26.4572 42.8275C25.7241 35.8681 37.9906 23.3809 44.8712 26.3717C48.3685 28.7826 44.9638 35.4528 41.4307 39.4252Z" fill="url(#paint11_linear_514_23332)"/>
<path d="M41.4307 39.4252C35.0284 46.6252 27.0521 48.4349 26.4572 42.8275C25.7241 35.8681 37.9906 23.3809 44.8712 26.3717C48.3685 28.7826 44.9638 35.4528 41.4307 39.4252Z" fill="#131315"/>
</g>
<g id="Vector_12">
<path d="M66.8768 53.4816C60.9666 61.7366 46.3551 61.0952 44.4669 50.1385C42.8932 40.9469 53.5181 31.8221 63.6281 36.7474C70.1347 40.7819 70.3782 48.5825 66.8768 53.4816Z" fill="#D9D9FE"/>
<path d="M66.8768 53.4816C60.9666 61.7366 46.3551 61.0952 44.4669 50.1385C42.8932 40.9469 53.5181 31.8221 63.6281 36.7474C70.1347 40.7819 70.3782 48.5825 66.8768 53.4816Z" fill="url(#paint12_linear_514_23332)"/>
<path d="M66.8768 53.4816C60.9666 61.7366 46.3551 61.0952 44.4669 50.1385C42.8932 40.9469 53.5181 31.8221 63.6281 36.7474C70.1347 40.7819 70.3782 48.5825 66.8768 53.4816Z" fill="#131315"/>
</g>
<g id="Vector_13">
<path d="M93.4493 68.1505C89.0004 77.4901 76.9451 76.8204 73.2959 67.0384C69.2091 56.0802 79.2752 46.5711 87.7477 50.1125C88.0351 50.2332 88.4181 50.4321 88.6948 50.5723C95.6783 54.9332 95.679 63.4711 93.4493 68.1505Z" fill="#D9D9FE"/>
<path d="M93.4493 68.1505C89.0004 77.4901 76.9451 76.8204 73.2959 67.0384C69.2091 56.0802 79.2752 46.5711 87.7477 50.1125C88.0351 50.2332 88.4181 50.4321 88.6948 50.5723C95.6783 54.9332 95.679 63.4711 93.4493 68.1505Z" fill="url(#paint13_linear_514_23332)"/>
<path d="M93.4493 68.1505C89.0004 77.4901 76.9451 76.8204 73.2959 67.0384C69.2091 56.0802 79.2752 46.5711 87.7477 50.1125C88.0351 50.2332 88.4181 50.4321 88.6948 50.5723C95.6783 54.9332 95.679 63.4711 93.4493 68.1505Z" fill="#131315"/>
</g>
<g id="Vector_14">
<path d="M107.941 76.1607C105.422 84.0651 100.394 87.7681 97.9726 83.5009C94.2426 76.9328 100.608 58.6741 106.085 60.2459C106.237 60.2917 106.426 60.3837 106.567 60.449C109.828 62.7164 109.831 70.2199 107.941 76.1607Z" fill="#D9D9FE"/>
<path d="M107.941 76.1607C105.422 84.0651 100.394 87.7681 97.9726 83.5009C94.2426 76.9328 100.608 58.6741 106.085 60.2459C106.237 60.2917 106.426 60.3837 106.567 60.449C109.828 62.7164 109.831 70.2199 107.941 76.1607Z" fill="url(#paint14_linear_514_23332)"/>
<path d="M107.941 76.1607C105.422 84.0651 100.394 87.7681 97.9726 83.5009C94.2426 76.9328 100.608 58.6741 106.085 60.2459C106.237 60.2917 106.426 60.3837 106.567 60.449C109.828 62.7164 109.831 70.2199 107.941 76.1607Z" fill="#131315"/>
</g>
<g id="Vector_15">
<path d="M22.0149 56.7427C20.9775 60.5903 18.7468 67.4921 17.723 66.1185C17.4598 65.771 17.3271 64.8896 17.3188 63.5083L17.3334 62.2914C17.4709 60.1193 17.7815 57.2217 18.0867 55.0665C18.5702 52.9087 19.3343 50.0596 19.9997 47.9388C20.5554 46.5661 21.2785 44.7298 21.9021 43.3944C22.9702 41.231 23.3928 41.3126 23.7024 41.37C25.0409 42.6773 23.5241 51.1477 22.0149 56.7427Z" fill="#D9D9FE"/>
<path d="M22.0149 56.7427C20.9775 60.5903 18.7468 67.4921 17.723 66.1185C17.4598 65.771 17.3271 64.8896 17.3188 63.5083L17.3334 62.2914C17.4709 60.1193 17.7815 57.2217 18.0867 55.0665C18.5702 52.9087 19.3343 50.0596 19.9997 47.9388C20.5554 46.5661 21.2785 44.7298 21.9021 43.3944C22.9702 41.231 23.3928 41.3126 23.7024 41.37C25.0409 42.6773 23.5241 51.1477 22.0149 56.7427Z" fill="url(#paint15_linear_514_23332)"/>
<path d="M22.0149 56.7427C20.9775 60.5903 18.7468 67.4921 17.723 66.1185C17.4598 65.771 17.3271 64.8896 17.3188 63.5083L17.3334 62.2914C17.4709 60.1193 17.7815 57.2217 18.0867 55.0665C18.5702 52.9087 19.3343 50.0596 19.9997 47.9388C20.5554 46.5661 21.2785 44.7298 21.9021 43.3944C22.9702 41.231 23.3928 41.3126 23.7024 41.37C25.0409 42.6773 23.5241 51.1477 22.0149 56.7427Z" fill="#131315"/>
</g>
<g id="Vector_16">
<path d="M41.0274 67.2445C37.0676 75.1491 28.3186 76.2291 25.3999 66.7493C22.442 57.1346 29.1868 45.1476 37.7123 49.0969C43.4927 52.8442 43.9372 61.425 41.0274 67.2445Z" fill="#D9D9FE"/>
<path d="M41.0274 67.2445C37.0676 75.1491 28.3186 76.2291 25.3999 66.7493C22.442 57.1346 29.1868 45.1476 37.7123 49.0969C43.4927 52.8442 43.9372 61.425 41.0274 67.2445Z" fill="url(#paint16_linear_514_23332)"/>
<path d="M41.0274 67.2445C37.0676 75.1491 28.3186 76.2291 25.3999 66.7493C22.442 57.1346 29.1868 45.1476 37.7123 49.0969C43.4927 52.8442 43.9372 61.425 41.0274 67.2445Z" fill="#131315"/>
</g>
<g id="Vector_17">
<path d="M68.547 82.4375C61.1825 91.2659 46.9255 86.6399 46.1081 75.1632C45.4613 66.1929 54.5071 59.0125 64.6409 63.9635C73.4178 69.4032 72.2111 78.0447 68.547 82.4375Z" fill="#D9D9FE"/>
<path d="M68.547 82.4375C61.1825 91.2659 46.9255 86.6399 46.1081 75.1632C45.4613 66.1929 54.5071 59.0125 64.6409 63.9635C73.4178 69.4032 72.2111 78.0447 68.547 82.4375Z" fill="url(#paint17_linear_514_23332)"/>
<path d="M68.547 82.4375C61.1825 91.2659 46.9255 86.6399 46.1081 75.1632C45.4613 66.1929 54.5071 59.0125 64.6409 63.9635C73.4178 69.4032 72.2111 78.0447 68.547 82.4375Z" fill="#131315"/>
</g>
<g id="Vector_18">
<path d="M89.7408 94.14C82.5968 100.83 71.5634 100.484 72.072 91.5958C72.5334 83.3889 83.0018 74.8219 91.085 78.5649C96.9657 82.4055 94.085 90.0723 89.7408 94.14Z" fill="#D9D9FE"/>
<path d="M89.7408 94.14C82.5968 100.83 71.5634 100.484 72.072 91.5958C72.5334 83.3889 83.0018 74.8219 91.085 78.5649C96.9657 82.4055 94.085 90.0723 89.7408 94.14Z" fill="url(#paint18_linear_514_23332)"/>
<path d="M89.7408 94.14C82.5968 100.83 71.5634 100.484 72.072 91.5958C72.5334 83.3889 83.0018 74.8219 91.085 78.5649C96.9657 82.4055 94.085 90.0723 89.7408 94.14Z" fill="#131315"/>
</g>
<g id="Vector_19">
<path d="M87.7637 103.7C86.2703 104.505 86.1798 104.051 86.3641 103.533C87.321 100.816 101.671 85.4254 104.404 85.9239C104.579 86.1341 104.645 86.3348 104.167 87.2456C100.04 94.2622 94.3435 99.8185 87.7637 103.7Z" fill="#D9D9FE"/>
<path d="M87.7637 103.7C86.2703 104.505 86.1798 104.051 86.3641 103.533C87.321 100.816 101.671 85.4254 104.404 85.9239C104.579 86.1341 104.645 86.3348 104.167 87.2456C100.04 94.2622 94.3435 99.8185 87.7637 103.7Z" fill="url(#paint19_linear_514_23332)"/>
<path d="M87.7637 103.7C86.2703 104.505 86.1798 104.051 86.3641 103.533C87.321 100.816 101.671 85.4254 104.404 85.9239C104.579 86.1341 104.645 86.3348 104.167 87.2456C100.04 94.2622 94.3435 99.8185 87.7637 103.7Z" fill="#131315"/>
</g>
<g id="Vector_20">
<path d="M38.1165 101.11C39.0228 102.696 39.856 103.522 41.4252 104.389C32.4755 99.4219 28.0441 91.469 30.0658 90.9434C30.3912 90.8578 30.8335 91.0641 31.1542 91.2158C31.7527 91.5968 32.8777 92.3063 34.5633 94.702C35.9823 96.7105 36.91 98.9909 38.1165 101.11Z" fill="#D9D9FE"/>
<path d="M38.1165 101.11C39.0228 102.696 39.856 103.522 41.4252 104.389C32.4755 99.4219 28.0441 91.469 30.0658 90.9434C30.3912 90.8578 30.8335 91.0641 31.1542 91.2158C31.7527 91.5968 32.8777 92.3063 34.5633 94.702C35.9823 96.7105 36.91 98.9909 38.1165 101.11Z" fill="url(#paint20_linear_514_23332)"/>
<path d="M38.1165 101.11C39.0228 102.696 39.856 103.522 41.4252 104.389C32.4755 99.4219 28.0441 91.469 30.0658 90.9434C30.3912 90.8578 30.8335 91.0641 31.1542 91.2158C31.7527 91.5968 32.8777 92.3063 34.5633 94.702C35.9823 96.7105 36.91 98.9909 38.1165 101.11Z" fill="#131315"/>
</g>
<g id="Vector_21">
<path d="M44.8577 104.835C43.4432 105.039 41.9765 104.697 41.4243 104.392C39.2808 103.031 37.8761 98.5933 41.2861 98.0259C42.8016 97.7765 44.2048 98.4628 44.9475 98.835C49.0253 101.339 48.017 104.104 45.3571 104.732C45.2219 104.771 45.0124 104.807 44.8577 104.835Z" fill="#D9D9FE"/>
<path d="M44.8577 104.835C43.4432 105.039 41.9765 104.697 41.4243 104.392C39.2808 103.031 37.8761 98.5933 41.2861 98.0259C42.8016 97.7765 44.2048 98.4628 44.9475 98.835C49.0253 101.339 48.017 104.104 45.3571 104.732C45.2219 104.771 45.0124 104.807 44.8577 104.835Z" fill="url(#paint21_linear_514_23332)"/>
<path d="M44.8577 104.835C43.4432 105.039 41.9765 104.697 41.4243 104.392C39.2808 103.031 37.8761 98.5933 41.2861 98.0259C42.8016 97.7765 44.2048 98.4628 44.9475 98.835C49.0253 101.339 48.017 104.104 45.3571 104.732C45.2219 104.771 45.0124 104.807 44.8577 104.835Z" fill="#131315"/>
</g>
<g id="Vector_22">
<path d="M50.0461 107.709C47.1373 107.025 43.9972 105.821 41.4204 104.399C46.8535 107.31 53.0149 103.728 58.4857 106.319C60.5023 107.635 58.0442 108.172 57.5255 108.264C55.7094 108.6 52.9891 108.399 50.0461 107.709Z" fill="#D9D9FE"/>
<path d="M50.0461 107.709C47.1373 107.025 43.9972 105.821 41.4204 104.399C46.8535 107.31 53.0149 103.728 58.4857 106.319C60.5023 107.635 58.0442 108.172 57.5255 108.264C55.7094 108.6 52.9891 108.399 50.0461 107.709Z" fill="url(#paint22_linear_514_23332)"/>
<path d="M50.0461 107.709C47.1373 107.025 43.9972 105.821 41.4204 104.399C46.8535 107.31 53.0149 103.728 58.4857 106.319C60.5023 107.635 58.0442 108.172 57.5255 108.264C55.7094 108.6 52.9891 108.399 50.0461 107.709Z" fill="#131315"/>
</g>
<g id="Vector_23">
<path d="M28.2836 82.9068C28.9995 91.2713 27.5585 90.1725 26.9435 89.7066C20.8864 85.0867 16.438 67.0459 21.3473 66.9908C21.6493 66.9933 22.0291 67.1525 22.3067 67.2679C25.9406 69.7288 27.8004 77.2347 28.2836 82.9068Z" fill="#D9D9FE"/>
<path d="M28.2836 82.9068C28.9995 91.2713 27.5585 90.1725 26.9435 89.7066C20.8864 85.0867 16.438 67.0459 21.3473 66.9908C21.6493 66.9933 22.0291 67.1525 22.3067 67.2679C25.9406 69.7288 27.8004 77.2347 28.2836 82.9068Z" fill="url(#paint23_linear_514_23332)"/>
<path d="M28.2836 82.9068C28.9995 91.2713 27.5585 90.1725 26.9435 89.7066C20.8864 85.0867 16.438 67.0459 21.3473 66.9908C21.6493 66.9933 22.0291 67.1525 22.3067 67.2679C25.9406 69.7288 27.8004 77.2347 28.2836 82.9068Z" fill="#131315"/>
</g>
<g id="Vector_24">
<path d="M46.0217 92.6934C41.8273 99.4202 34.3047 96.2644 31.9166 86.7622C30.1605 79.7557 33.8401 74.1212 41.0521 77.6107C47.4619 81.5917 48.6161 88.5438 46.0217 92.6934Z" fill="#D9D9FE"/>
<path d="M46.0217 92.6934C41.8273 99.4202 34.3047 96.2644 31.9166 86.7622C30.1605 79.7557 33.8401 74.1212 41.0521 77.6107C47.4619 81.5917 48.6161 88.5438 46.0217 92.6934Z" fill="url(#paint24_linear_514_23332)"/>
<path d="M46.0217 92.6934C41.8273 99.4202 34.3047 96.2644 31.9166 86.7622C30.1605 79.7557 33.8401 74.1212 41.0521 77.6107C47.4619 81.5917 48.6161 88.5438 46.0217 92.6934Z" fill="#131315"/>
</g>
<g id="Vector_25">
<path d="M64.5619 102.939C57.9377 105.963 46.9239 105.376 49.8562 96.6762C51.6511 91.3652 58.9921 88.0049 66.1214 91.4613C72.0757 95.1908 70.1216 100.401 64.5619 102.939Z" fill="#D9D9FE"/>
<path d="M64.5619 102.939C57.9377 105.963 46.9239 105.376 49.8562 96.6762C51.6511 91.3652 58.9921 88.0049 66.1214 91.4613C72.0757 95.1908 70.1216 100.401 64.5619 102.939Z" fill="url(#paint25_linear_514_23332)"/>
<path d="M64.5619 102.939C57.9377 105.963 46.9239 105.376 49.8562 96.6762C51.6511 91.3652 58.9921 88.0049 66.1214 91.4613C72.0757 95.1908 70.1216 100.401 64.5619 102.939Z" fill="#131315"/>
</g>
<g id="Vector_26">
<path d="M74.6568 108.509C68.284 110.093 60.6139 109.722 61.5488 108.281C62.5468 106.748 77.8481 98.6771 83.9754 101.315C86.7763 103.316 81.1649 106.886 74.6568 108.509Z" fill="#D9D9FE"/>
<path d="M74.6568 108.509C68.284 110.093 60.6139 109.722 61.5488 108.281C62.5468 106.748 77.8481 98.6771 83.9754 101.315C86.7763 103.316 81.1649 106.886 74.6568 108.509Z" fill="url(#paint26_linear_514_23332)"/>
<path d="M74.6568 108.509C68.284 110.093 60.6139 109.722 61.5488 108.281C62.5468 106.748 77.8481 98.6771 83.9754 101.315C86.7763 103.316 81.1649 106.886 74.6568 108.509Z" fill="#131315"/>
</g>
<g id="Vector_27">
<path d="M71.1135 109.666C74.8329 109.042 78.0882 108.137 81.671 106.731C78.2869 108.121 74.7365 109.103 71.1135 109.666Z" fill="#D9D9FE"/>
<path d="M71.1135 109.666C74.8329 109.042 78.0882 108.137 81.671 106.731C78.2869 108.121 74.7365 109.103 71.1135 109.666Z" fill="url(#paint27_linear_514_23332)"/>
<path d="M71.1135 109.666C74.8329 109.042 78.0882 108.137 81.671 106.731C78.2869 108.121 74.7365 109.103 71.1135 109.666Z" fill="#131315"/>
</g>
</g>
</g>
<defs>
<linearGradient id="paint0_linear_514_23332" x1="45.7021" y1="23.6253" x2="138.938" y2="23.6253" gradientUnits="userSpaceOnUse">
<stop stop-color="#03FCF8"/>
<stop offset="1" stop-color="#04F79F"/>
</linearGradient>
<linearGradient id="paint1_linear_514_23332" x1="65.1065" y1="15.0505" x2="96.0007" y2="32.5705" gradientUnits="userSpaceOnUse">
<stop stop-color="#CBDAFF"/>
<stop offset="1" stop-color="#F1D6FB"/>
</linearGradient>
<linearGradient id="paint2_linear_514_23332" x1="74.7464" y1="20.3422" x2="90.6666" y2="29.2552" gradientUnits="userSpaceOnUse">
<stop stop-color="#CBDAFF"/>
<stop offset="1" stop-color="#F1D6FB"/>
</linearGradient>
<linearGradient id="paint3_linear_514_23332" x1="84.913" y1="25.9822" x2="101.582" y2="35.3197" gradientUnits="userSpaceOnUse">
<stop stop-color="#CBDAFF"/>
<stop offset="1" stop-color="#F1D6FB"/>
</linearGradient>
<linearGradient id="paint4_linear_514_23332" x1="85.1595" y1="26.1122" x2="116.451" y2="43.8657" gradientUnits="userSpaceOnUse">
<stop stop-color="#CBDAFF"/>
<stop offset="1" stop-color="#F1D6FB"/>
</linearGradient>
<linearGradient id="paint5_linear_514_23332" x1="91.4024" y1="28.2518" x2="109.668" y2="38.6424" gradientUnits="userSpaceOnUse">
<stop stop-color="#CBDAFF"/>
<stop offset="1" stop-color="#F1D6FB"/>
</linearGradient>
<linearGradient id="paint6_linear_514_23332" x1="43.3339" y1="16.4316" x2="67.9254" y2="30.1284" gradientUnits="userSpaceOnUse">
<stop stop-color="#CBDAFF"/>
<stop offset="1" stop-color="#F1D6FB"/>
</linearGradient>
<linearGradient id="paint7_linear_514_23332" x1="52.2108" y1="21.355" x2="77.449" y2="35.4147" gradientUnits="userSpaceOnUse">
<stop stop-color="#CBDAFF"/>
<stop offset="1" stop-color="#F1D6FB"/>
</linearGradient>
<linearGradient id="paint8_linear_514_23332" x1="70.8061" y1="31.6261" x2="98.8928" y2="47.2883" gradientUnits="userSpaceOnUse">
<stop stop-color="#CBDAFF"/>
<stop offset="1" stop-color="#F1D6FB"/>
</linearGradient>
<linearGradient id="paint9_linear_514_23332" x1="90.7803" y1="42.6435" x2="116.115" y2="56.7579" gradientUnits="userSpaceOnUse">
<stop stop-color="#CBDAFF"/>
<stop offset="1" stop-color="#F1D6FB"/>
</linearGradient>
<linearGradient id="paint10_linear_514_23332" x1="99.6695" y1="47.5488" x2="124.29" y2="61.2619" gradientUnits="userSpaceOnUse">
<stop stop-color="#CBDAFF"/>
<stop offset="1" stop-color="#F1D6FB"/>
</linearGradient>
<linearGradient id="paint11_linear_514_23332" x1="30.4858" y1="32.303" x2="49.8468" y2="43.0457" gradientUnits="userSpaceOnUse">
<stop stop-color="#CBDAFF"/>
<stop offset="1" stop-color="#F1D6FB"/>
</linearGradient>
<linearGradient id="paint12_linear_514_23332" x1="46.4183" y1="41.1489" x2="80.4055" y2="60.0775" gradientUnits="userSpaceOnUse">
<stop stop-color="#CBDAFF"/>
<stop offset="1" stop-color="#F1D6FB"/>
</linearGradient>
<linearGradient id="paint13_linear_514_23332" x1="73.5761" y1="56.0633" x2="106.594" y2="74.4484" gradientUnits="userSpaceOnUse">
<stop stop-color="#CBDAFF"/>
<stop offset="1" stop-color="#F1D6FB"/>
</linearGradient>
<linearGradient id="paint14_linear_514_23332" x1="97.6845" y1="69.4052" x2="115.764" y2="79.4336" gradientUnits="userSpaceOnUse">
<stop stop-color="#CBDAFF"/>
<stop offset="1" stop-color="#F1D6FB"/>
</linearGradient>
<linearGradient id="paint15_linear_514_23332" x1="17.331" y1="51.517" x2="28.8489" y2="57.8954" gradientUnits="userSpaceOnUse">
<stop stop-color="#CBDAFF"/>
<stop offset="1" stop-color="#F1D6FB"/>
</linearGradient>
<linearGradient id="paint16_linear_514_23332" x1="25.3526" y1="55.9277" x2="52.6171" y2="71.0881" gradientUnits="userSpaceOnUse">
<stop stop-color="#CBDAFF"/>
<stop offset="1" stop-color="#F1D6FB"/>
</linearGradient>
<linearGradient id="paint17_linear_514_23332" x1="47.5057" y1="68.1722" x2="83.7144" y2="88.3525" gradientUnits="userSpaceOnUse">
<stop stop-color="#CBDAFF"/>
<stop offset="1" stop-color="#F1D6FB"/>
</linearGradient>
<linearGradient id="paint18_linear_514_23332" x1="75.1191" y1="83.4138" x2="101.749" y2="98.2187" gradientUnits="userSpaceOnUse">
<stop stop-color="#CBDAFF"/>
<stop offset="1" stop-color="#F1D6FB"/>
</linearGradient>
<linearGradient id="paint19_linear_514_23332" x1="92.1715" y1="92.8375" x2="103.254" y2="98.974" gradientUnits="userSpaceOnUse">
<stop stop-color="#CBDAFF"/>
<stop offset="1" stop-color="#F1D6FB"/>
</linearGradient>
<linearGradient id="paint20_linear_514_23332" x1="28.3914" y1="93.3378" x2="52.0818" y2="106.722" gradientUnits="userSpaceOnUse">
<stop stop-color="#CBDAFF"/>
<stop offset="1" stop-color="#F1D6FB"/>
</linearGradient>
<linearGradient id="paint21_linear_514_23332" x1="39.323" y1="99.3768" x2="52.0949" y2="106.517" gradientUnits="userSpaceOnUse">
<stop stop-color="#CBDAFF"/>
<stop offset="1" stop-color="#F1D6FB"/>
</linearGradient>
<linearGradient id="paint22_linear_514_23332" x1="42.9454" y1="101.386" x2="67.243" y2="115.122" gradientUnits="userSpaceOnUse">
<stop stop-color="#CBDAFF"/>
<stop offset="1" stop-color="#F1D6FB"/>
</linearGradient>
<linearGradient id="paint23_linear_514_23332" x1="16.4922" y1="73.7419" x2="41.8178" y2="87.8551" gradientUnits="userSpaceOnUse">
<stop stop-color="#CBDAFF"/>
<stop offset="1" stop-color="#F1D6FB"/>
</linearGradient>
<linearGradient id="paint24_linear_514_23332" x1="30.9569" y1="81.6494" x2="57.258" y2="96.3124" gradientUnits="userSpaceOnUse">
<stop stop-color="#CBDAFF"/>
<stop offset="1" stop-color="#F1D6FB"/>
</linearGradient>
<linearGradient id="paint25_linear_514_23332" x1="51.5374" y1="93.0956" x2="77.4832" y2="107.558" gradientUnits="userSpaceOnUse">
<stop stop-color="#CBDAFF"/>
<stop offset="1" stop-color="#F1D6FB"/>
</linearGradient>
<linearGradient id="paint26_linear_514_23332" x1="65.5375" y1="100.794" x2="90.823" y2="114.885" gradientUnits="userSpaceOnUse">
<stop stop-color="#CBDAFF"/>
<stop offset="1" stop-color="#F1D6FB"/>
</linearGradient>
<linearGradient id="paint27_linear_514_23332" x1="72.9705" y1="106.188" x2="84.1499" y2="112.418" gradientUnits="userSpaceOnUse">
<stop stop-color="#CBDAFF"/>
<stop offset="1" stop-color="#F1D6FB"/>
</linearGradient>
<clipPath id="clip0_514_23332">
<rect x="45.7021" y="0.25" width="93.2362" height="93.2362" rx="46.6181" transform="rotate(28.9044 45.7021 0.25)" fill="white"/>
</clipPath>
</defs>
</svg>
