<svg width="168" height="194" viewBox="0 0 168 194" fill="none" xmlns="http://www.w3.org/2000/svg">
<g id="DEFI">
<g clip-path="url(#clip0_514_23272)">
<rect x="-62.7236" y="61.7627" width="179.96" height="179.96" rx="89.5188" transform="rotate(-19.803 -62.7236 61.7627)" fill="url(#paint0_linear_514_23272)"/>
<g id="Vector">
<path d="M4.56134 42.4941C-0.10525 47.123 -4.26632 52.273 -9.2931 56.5326C-11.7832 58.6314 -14.2037 59.9792 -14.015 58.2329C-13.6787 54.7549 -0.744379 39.8003 20.8221 31.6717C14.4623 34.1205 10.0736 37.0617 4.56134 42.4941Z" fill="#D9D9FE"/>
<path d="M4.56134 42.4941C-0.10525 47.123 -4.26632 52.273 -9.2931 56.5326C-11.7832 58.6314 -14.2037 59.9792 -14.015 58.2329C-13.6787 54.7549 -0.744379 39.8003 20.8221 31.6717C14.4623 34.1205 10.0736 37.0617 4.56134 42.4941Z" fill="url(#paint1_linear_514_23272)"/>
<path d="M4.56134 42.4941C-0.10525 47.123 -4.26632 52.273 -9.2931 56.5326C-11.7832 58.6314 -14.2037 59.9792 -14.015 58.2329C-13.6787 54.7549 -0.744379 39.8003 20.8221 31.6717C14.4623 34.1205 10.0736 37.0617 4.56134 42.4941Z" fill="#131315"/>
</g>
<g id="Vector_2">
<path d="M21.7226 36.3251C22.2161 45.7642 9.0477 53.3864 5.56924 49.9666C1.79222 46.2234 11.0099 35.5102 21.4857 31.4432C20.9649 31.6987 20.8003 31.8714 20.8112 32.3438C20.8778 33.726 21.6564 34.9427 21.7226 36.3251Z" fill="#D9D9FE"/>
<path d="M21.7226 36.3251C22.2161 45.7642 9.0477 53.3864 5.56924 49.9666C1.79222 46.2234 11.0099 35.5102 21.4857 31.4432C20.9649 31.6987 20.8003 31.8714 20.8112 32.3438C20.8778 33.726 21.6564 34.9427 21.7226 36.3251Z" fill="url(#paint2_linear_514_23272)"/>
<path d="M21.7226 36.3251C22.2161 45.7642 9.0477 53.3864 5.56924 49.9666C1.79222 46.2234 11.0099 35.5102 21.4857 31.4432C20.9649 31.6987 20.8003 31.8714 20.8112 32.3438C20.8778 33.726 21.6564 34.9427 21.7226 36.3251Z" fill="#131315"/>
</g>
<g id="Vector_3">
<path d="M39.8697 29.7862C47.5573 31.2141 49.2557 35.0481 45.6399 37.5521C41.6914 40.2667 29.608 41.1929 24.5453 32.4917C23.7854 31.2004 23.553 30.8078 22.3516 31.127C27.7947 29.3484 34.6732 28.8449 39.8697 29.7862Z" fill="#D9D9FE"/>
<path d="M39.8697 29.7862C47.5573 31.2141 49.2557 35.0481 45.6399 37.5521C41.6914 40.2667 29.608 41.1929 24.5453 32.4917C23.7854 31.2004 23.553 30.8078 22.3516 31.127C27.7947 29.3484 34.6732 28.8449 39.8697 29.7862Z" fill="url(#paint3_linear_514_23272)"/>
<path d="M39.8697 29.7862C47.5573 31.2141 49.2557 35.0481 45.6399 37.5521C41.6914 40.2667 29.608 41.1929 24.5453 32.4917C23.7854 31.2004 23.553 30.8078 22.3516 31.127C27.7947 29.3484 34.6732 28.8449 39.8697 29.7862Z" fill="#131315"/>
</g>
<g id="Vector_4">
<path d="M49.9139 26.1664C58.9092 26.0574 67.3386 27.7172 67.6404 29.6272C66.3244 31.3938 57.2801 30.2957 50.6815 29.4964C39.5583 28.1715 32.8094 27.585 22.9912 30.8936C34.0956 27.1219 43.7484 26.2544 49.9139 26.1664Z" fill="#D9D9FE"/>
<path d="M49.9139 26.1664C58.9092 26.0574 67.3386 27.7172 67.6404 29.6272C66.3244 31.3938 57.2801 30.2957 50.6815 29.4964C39.5583 28.1715 32.8094 27.585 22.9912 30.8936C34.0956 27.1219 43.7484 26.2544 49.9139 26.1664Z" fill="url(#paint4_linear_514_23272)"/>
<path d="M49.9139 26.1664C58.9092 26.0574 67.3386 27.7172 67.6404 29.6272C66.3244 31.3938 57.2801 30.2957 50.6815 29.4964C39.5583 28.1715 32.8094 27.585 22.9912 30.8936C34.0956 27.1219 43.7484 26.2544 49.9139 26.1664Z" fill="#131315"/>
</g>
<g id="Vector_5">
<path d="M60.8924 26.3257C49.2701 25.3166 40.9553 26.4961 35.0107 27.6387C43.6777 25.9241 52.3892 25.5317 60.8924 26.3257Z" fill="#D9D9FE"/>
<path d="M60.8924 26.3257C49.2701 25.3166 40.9553 26.4961 35.0107 27.6387C43.6777 25.9241 52.3892 25.5317 60.8924 26.3257Z" fill="url(#paint5_linear_514_23272)"/>
<path d="M60.8924 26.3257C49.2701 25.3166 40.9553 26.4961 35.0107 27.6387C43.6777 25.9241 52.3892 25.5317 60.8924 26.3257Z" fill="#131315"/>
</g>
<g id="Vector_6">
<path d="M6.0197 68.4885C4.32568 86.8578 -12.3468 99.6884 -18.8024 91.2168C-26.1298 81.5845 -12.2953 57.8456 -1.71015 53.263C6.08098 51.0699 6.36266 64.7133 6.0197 68.4885Z" fill="#D9D9FE"/>
<path d="M6.0197 68.4885C4.32568 86.8578 -12.3468 99.6884 -18.8024 91.2168C-26.1298 81.5845 -12.2953 57.8456 -1.71015 53.263C6.08098 51.0699 6.36266 64.7133 6.0197 68.4885Z" fill="url(#paint6_linear_514_23272)"/>
<path d="M6.0197 68.4885C4.32568 86.8578 -12.3468 99.6884 -18.8024 91.2168C-26.1298 81.5845 -12.2953 57.8456 -1.71015 53.263C6.08098 51.0699 6.36266 64.7133 6.0197 68.4885Z" fill="#131315"/>
</g>
<g id="Vector_7">
<path d="M50.513 52.4682C58.2641 66.3026 40.9603 80.1543 26.156 76.2991C9.72774 72.0306 12.9493 50.843 24.423 44.1259C25.136 43.7104 26.1594 43.2739 26.9285 42.9516C37.0891 39.8373 47.1561 46.487 50.513 52.4682Z" fill="#D9D9FE"/>
<path d="M50.513 52.4682C58.2641 66.3026 40.9603 80.1543 26.156 76.2991C9.72774 72.0306 12.9493 50.843 24.423 44.1259C25.136 43.7104 26.1594 43.2739 26.9285 42.9516C37.0891 39.8373 47.1561 46.487 50.513 52.4682Z" fill="url(#paint7_linear_514_23272)"/>
<path d="M50.513 52.4682C58.2641 66.3026 40.9603 80.1543 26.156 76.2991C9.72774 72.0306 12.9493 50.843 24.423 44.1259C25.136 43.7104 26.1594 43.2739 26.9285 42.9516C37.0891 39.8373 47.1561 46.487 50.513 52.4682Z" fill="#131315"/>
</g>
<g id="Vector_8">
<path d="M84.773 40.1365C94.9188 47.2568 95.4987 56.3698 85.9236 58.525C68.2045 62.5235 47.47 41.2526 53.0445 34.1647C53.5757 33.4971 54.3982 33.1329 55.0396 32.8339C62.3193 30.7343 76.2144 34.1457 84.773 40.1365Z" fill="#D9D9FE"/>
<path d="M84.773 40.1365C94.9188 47.2568 95.4987 56.3698 85.9236 58.525C68.2045 62.5235 47.47 41.2526 53.0445 34.1647C53.5757 33.4971 54.3982 33.1329 55.0396 32.8339C62.3193 30.7343 76.2144 34.1457 84.773 40.1365Z" fill="url(#paint8_linear_514_23272)"/>
<path d="M84.773 40.1365C94.9188 47.2568 95.4987 56.3698 85.9236 58.525C68.2045 62.5235 47.47 41.2526 53.0445 34.1647C53.5757 33.4971 54.3982 33.1329 55.0396 32.8339C62.3193 30.7343 76.2144 34.1457 84.773 40.1365Z" fill="#131315"/>
</g>
<g id="Vector_9">
<path d="M110.897 47.5065C111.954 48.487 112.021 48.7351 112.103 49.0908C111.688 49.5129 110.288 49.4724 103.085 45.9197C102.756 45.7655 69.5891 28.359 69.1311 27.8434C69.1442 27.816 69.1769 27.7816 69.2099 27.747C69.6005 27.6971 70.0531 27.6929 71.8654 28.061C86.2482 31.2514 99.6872 37.9344 110.897 47.5065Z" fill="#D9D9FE"/>
<path d="M110.897 47.5065C111.954 48.487 112.021 48.7351 112.103 49.0908C111.688 49.5129 110.288 49.4724 103.085 45.9197C102.756 45.7655 69.5891 28.359 69.1311 27.8434C69.1442 27.816 69.1769 27.7816 69.2099 27.747C69.6005 27.6971 70.0531 27.6929 71.8654 28.061C86.2482 31.2514 99.6872 37.9344 110.897 47.5065Z" fill="url(#paint9_linear_514_23272)"/>
<path d="M110.897 47.5065C111.954 48.487 112.021 48.7351 112.103 49.0908C111.688 49.5129 110.288 49.4724 103.085 45.9197C102.756 45.7655 69.5891 28.359 69.1311 27.8434C69.1442 27.816 69.1769 27.7816 69.2099 27.747C69.6005 27.6971 70.0531 27.6929 71.8654 28.061C86.2482 31.2514 99.6872 37.9344 110.897 47.5065Z" fill="#131315"/>
</g>
<g id="Vector_10">
<path d="M-11.3417 117.86C-9.0547 136.315 -16.5899 150.187 -25.4796 143.908C-36.506 136.107 -38.9911 102.412 -25.8898 96.2435C-17.9389 94.2425 -12.6023 107.676 -11.3417 117.86Z" fill="#D9D9FE"/>
<path d="M-11.3417 117.86C-9.0547 136.315 -16.5899 150.187 -25.4796 143.908C-36.506 136.107 -38.9911 102.412 -25.8898 96.2435C-17.9389 94.2425 -12.6023 107.676 -11.3417 117.86Z" fill="url(#paint10_linear_514_23272)"/>
<path d="M-11.3417 117.86C-9.0547 136.315 -16.5899 150.187 -25.4796 143.908C-36.506 136.107 -38.9911 102.412 -25.8898 96.2435C-17.9389 94.2425 -12.6023 107.676 -11.3417 117.86Z" fill="#131315"/>
</g>
<g id="Vector_11">
<path d="M41.4456 98.8518C45.8892 117.937 26.348 138.31 8.05337 127.093C-7.28081 117.668 -6.98074 90.6367 13.0394 82.2485C27.1778 77.9513 38.8005 87.5338 41.4456 98.8518Z" fill="#D9D9FE"/>
<path d="M41.4456 98.8518C45.8892 117.937 26.348 138.31 8.05337 127.093C-7.28081 117.668 -6.98074 90.6367 13.0394 82.2485C27.1778 77.9513 38.8005 87.5338 41.4456 98.8518Z" fill="url(#paint11_linear_514_23272)"/>
<path d="M41.4456 98.8518C45.8892 117.937 26.348 138.31 8.05337 127.093C-7.28081 117.668 -6.98074 90.6367 13.0394 82.2485C27.1778 77.9513 38.8005 87.5338 41.4456 98.8518Z" fill="#131315"/>
</g>
<g id="Vector_12">
<path d="M96.5657 79.0078C104.444 97.3556 88.1171 113.985 69.2833 106.818C48.1859 98.7872 47.2171 72.0773 63.1444 64.3009C63.6855 64.038 64.4619 63.7359 65.0175 63.5132C80.2367 58.9401 92.6194 69.814 96.5657 79.0078Z" fill="#D9D9FE"/>
<path d="M96.5657 79.0078C104.444 97.3556 88.1171 113.985 69.2833 106.818C48.1859 98.7872 47.2171 72.0773 63.1444 64.3009C63.6855 64.038 64.4619 63.7359 65.0175 63.5132C80.2367 58.9401 92.6194 69.814 96.5657 79.0078Z" fill="url(#paint12_linear_514_23272)"/>
<path d="M96.5657 79.0078C104.444 97.3556 88.1171 113.985 69.2833 106.818C48.1859 98.7872 47.2171 72.0773 63.1444 64.3009C63.6855 64.038 64.4619 63.7359 65.0175 63.5132C80.2367 58.9401 92.6194 69.814 96.5657 79.0078Z" fill="#131315"/>
</g>
<g id="Vector_13">
<path d="M126.628 68.171C134.883 81.8921 133.85 93.8996 124.576 91.9768C110.3 89.0201 91.9286 56.5331 101.185 50.5916C101.444 50.43 101.819 50.2726 102.093 50.1513C109.534 48.3107 120.42 57.8638 126.628 68.171Z" fill="#D9D9FE"/>
<path d="M126.628 68.171C134.883 81.8921 133.85 93.8996 124.576 91.9768C110.3 89.0201 91.9286 56.5331 101.185 50.5916C101.444 50.43 101.819 50.2726 102.093 50.1513C109.534 48.3107 120.42 57.8638 126.628 68.171Z" fill="url(#paint13_linear_514_23272)"/>
<path d="M126.628 68.171C134.883 81.8921 133.85 93.8996 124.576 91.9768C110.3 89.0201 91.9286 56.5331 101.185 50.5916C101.444 50.43 101.819 50.2726 102.093 50.1513C109.534 48.3107 120.42 57.8638 126.628 68.171Z" fill="#131315"/>
</g>
<g id="Vector_14">
<path d="M-10.9683 168.071C-6.70979 174.476 0.458076 186.502 -2.83803 186.237C-3.67718 186.176 -5.12442 185.246 -7.13828 183.499L-8.88447 181.928C-11.8593 178.962 -15.6658 174.821 -18.4026 171.633C-20.9161 168.183 -24.0746 163.446 -26.3027 159.78C-27.5857 157.226 -29.3276 153.838 -30.47 151.233C-32.247 146.928 -31.5903 146.419 -31.1127 146.043C-27.512 145.768 -17.1601 158.756 -10.9683 168.071Z" fill="#D9D9FE"/>
<path d="M-10.9683 168.071C-6.70979 174.476 0.458076 186.502 -2.83803 186.237C-3.67718 186.176 -5.12442 185.246 -7.13828 183.499L-8.88447 181.928C-11.8593 178.962 -15.6658 174.821 -18.4026 171.633C-20.9161 168.183 -24.0746 163.446 -26.3027 159.78C-27.5857 157.226 -29.3276 153.838 -30.47 151.233C-32.247 146.928 -31.5903 146.419 -31.1127 146.043C-27.512 145.768 -17.1601 158.756 -10.9683 168.071Z" fill="url(#paint14_linear_514_23272)"/>
<path d="M-10.9683 168.071C-6.70979 174.476 0.458076 186.502 -2.83803 186.237C-3.67718 186.176 -5.12442 185.246 -7.13828 183.499L-8.88447 181.928C-11.8593 178.962 -15.6658 174.821 -18.4026 171.633C-20.9161 168.183 -24.0746 163.446 -26.3027 159.78C-27.5857 157.226 -29.3276 153.838 -30.47 151.233C-32.247 146.928 -31.5903 146.419 -31.1127 146.043C-27.512 145.768 -17.1601 158.756 -10.9683 168.071Z" fill="#131315"/>
</g>
<g id="Vector_15">
<path d="M28.4794 153.867C34.899 169.678 25.3216 183.741 7.85621 175.9C-9.85479 167.943 -18.6476 142.893 -2.06125 135.56C10.7358 131.95 23.7461 142.235 28.4794 153.867Z" fill="#D9D9FE"/>
<path d="M28.4794 153.867C34.899 169.678 25.3216 183.741 7.85621 175.9C-9.85479 167.943 -18.6476 142.893 -2.06125 135.56C10.7358 131.95 23.7461 142.235 28.4794 153.867Z" fill="url(#paint15_linear_514_23272)"/>
<path d="M28.4794 153.867C34.899 169.678 25.3216 183.741 7.85621 175.9C-9.85479 167.943 -18.6476 142.893 -2.06125 135.56C10.7358 131.95 23.7461 142.235 28.4794 153.867Z" fill="#131315"/>
</g>
<g id="Vector_16">
<path d="M85.5679 133.318C88.9908 155.243 64.1227 170.027 46.4378 156.594C32.6051 146.106 33.7138 123.842 53.8013 115.452C72.8694 109.652 83.8644 122.409 85.5679 133.318Z" fill="#D9D9FE"/>
<path d="M85.5679 133.318C88.9908 155.243 64.1227 170.027 46.4378 156.594C32.6051 146.106 33.7138 123.842 53.8013 115.452C72.8694 109.652 83.8644 122.409 85.5679 133.318Z" fill="url(#paint16_linear_514_23272)"/>
<path d="M85.5679 133.318C88.9908 155.243 64.1227 170.027 46.4378 156.594C32.6051 146.106 33.7138 123.842 53.8013 115.452C72.8694 109.652 83.8644 122.409 85.5679 133.318Z" fill="#131315"/>
</g>
<g id="Vector_17">
<path d="M129.538 117.487C130.139 136.368 115.585 151.928 103.343 139.87C92.0288 128.747 92.9387 102.654 108.663 95.699C121.723 92.0625 129.172 106.005 129.538 117.487Z" fill="#D9D9FE"/>
<path d="M129.538 117.487C130.139 136.368 115.585 151.928 103.343 139.87C92.0288 128.747 92.9387 102.654 108.663 95.699C121.723 92.0625 129.172 106.005 129.538 117.487Z" fill="url(#paint17_linear_514_23272)"/>
<path d="M129.538 117.487C130.139 136.368 115.585 151.928 103.343 139.87C92.0288 128.747 92.9387 102.654 108.663 95.699C121.723 92.0625 129.172 106.005 129.538 117.487Z" fill="#131315"/>
</g>
<g id="Vector_18">
<path d="M140.873 132.518C140.137 135.709 139.364 135.262 138.848 134.335C136.127 129.487 132.084 89.0726 136.288 85.744C136.816 85.7584 137.191 85.9182 137.903 87.771C142.823 102.693 143.624 118.032 140.873 132.518Z" fill="#D9D9FE"/>
<path d="M140.873 132.518C140.137 135.709 139.364 135.262 138.848 134.335C136.127 129.487 132.084 89.0726 136.288 85.744C136.816 85.7584 137.191 85.9182 137.903 87.771C142.823 102.693 143.624 118.032 140.873 132.518Z" fill="url(#paint18_linear_514_23272)"/>
<path d="M140.873 132.518C140.137 135.709 139.364 135.262 138.848 134.335C136.127 129.487 132.084 89.0726 136.288 85.744C136.816 85.7584 137.191 85.9182 137.903 87.771C142.823 102.693 143.624 118.032 140.873 132.518Z" fill="#131315"/>
</g>
<g id="Vector_19">
<path d="M73.8858 201.238C77.3409 201.944 79.6003 201.788 82.8556 200.616C64.2534 207.269 47.0754 203.565 48.8883 199.964C49.1788 199.383 50.0412 199.005 50.6698 198.733C51.9845 198.35 54.4465 197.622 60.0677 198.229C64.7879 198.73 69.2765 200.289 73.8858 201.238Z" fill="#D9D9FE"/>
<path d="M73.8858 201.238C77.3409 201.944 79.6003 201.788 82.8556 200.616C64.2534 207.269 47.0754 203.565 48.8883 199.964C49.1788 199.383 50.0412 199.005 50.6698 198.733C51.9845 198.35 54.4465 197.622 60.0677 198.229C64.7879 198.73 69.2765 200.289 73.8858 201.238Z" fill="url(#paint19_linear_514_23272)"/>
<path d="M73.8858 201.238C77.3409 201.944 79.6003 201.788 82.8556 200.616C64.2534 207.269 47.0754 203.565 48.8883 199.964C49.1788 199.383 50.0412 199.005 50.6698 198.733C51.9845 198.35 54.4465 197.622 60.0677 198.229C64.7879 198.73 69.2765 200.289 73.8858 201.238Z" fill="#131315"/>
</g>
<g id="Vector_20">
<path d="M87.8724 196.197C86.3664 198.508 84.0018 200.199 82.8562 200.612C78.1532 201.988 69.928 198.372 73.4485 192.704C75.017 190.188 77.7998 189.028 79.2854 188.425C88.1109 185.7 90.8363 190.684 88.3588 195.342C88.2429 195.587 88.0284 195.937 87.8724 196.197Z" fill="#D9D9FE"/>
<path d="M87.8724 196.197C86.3664 198.508 84.0018 200.199 82.8562 200.612C78.1532 201.988 69.928 198.372 73.4485 192.704C75.017 190.188 77.7998 189.028 79.2854 188.425C88.1109 185.7 90.8363 190.684 88.3588 195.342C88.2429 195.587 88.0284 195.937 87.8724 196.197Z" fill="url(#paint20_linear_514_23272)"/>
<path d="M87.8724 196.197C86.3664 198.508 84.0018 200.199 82.8562 200.612C78.1532 201.988 69.928 198.372 73.4485 192.704C75.017 190.188 77.7998 189.028 79.2854 188.425C88.1109 185.7 90.8363 190.684 88.3588 195.342C88.2429 195.587 88.0284 195.937 87.8724 196.197Z" fill="#131315"/>
</g>
<g id="Vector_21">
<path d="M98.6432 192.327C93.9461 195.674 88.2013 198.695 82.856 200.62C93.9983 196.449 96.6514 182.951 107.377 178.317C111.854 177.069 109.502 181.318 108.975 182.188C107.149 185.249 103.393 188.938 98.6432 192.327Z" fill="#D9D9FE"/>
<path d="M98.6432 192.327C93.9461 195.674 88.2013 198.695 82.856 200.62C93.9983 196.449 96.6514 182.951 107.377 178.317C111.854 177.069 109.502 181.318 108.975 182.188C107.149 185.249 103.393 188.938 98.6432 192.327Z" fill="url(#paint21_linear_514_23272)"/>
<path d="M98.6432 192.327C93.9461 195.674 88.2013 198.695 82.856 200.62C93.9983 196.449 96.6514 182.951 107.377 178.317C111.854 177.069 109.502 181.318 108.975 182.188C107.149 185.249 103.393 188.938 98.6432 192.327Z" fill="#131315"/>
</g>
<g id="Vector_22">
<path d="M34.9593 192.299C48.0014 201.915 44.5726 202.605 43.1136 202.903C28.6987 205.803 -3.13051 189.275 3.04279 182.085C3.43106 181.651 4.14568 181.303 4.66653 181.047C12.8641 178.912 26.1181 185.775 34.9593 192.299Z" fill="#D9D9FE"/>
<path d="M34.9593 192.299C48.0014 201.915 44.5726 202.605 43.1136 202.903C28.6987 205.803 -3.13051 189.275 3.04279 182.085C3.43106 181.651 4.14568 181.303 4.66653 181.047C12.8641 178.912 26.1181 185.775 34.9593 192.299Z" fill="url(#paint22_linear_514_23272)"/>
<path d="M34.9593 192.299C48.0014 201.915 44.5726 202.605 43.1136 202.903C28.6987 205.803 -3.13051 189.275 3.04279 182.085C3.43106 181.651 4.14568 181.303 4.66653 181.047C12.8641 178.912 26.1181 185.775 34.9593 192.299Z" fill="#131315"/>
</g>
<g id="Vector_23">
<path d="M71.7513 179.045C76.1641 193.696 62.006 200.586 45.1839 191.946C32.7861 185.568 29.3017 173.055 43.5483 167.041C57.4859 162.816 69.0381 169.997 71.7513 179.045Z" fill="#D9D9FE"/>
<path d="M71.7513 179.045C76.1641 193.696 62.006 200.586 45.1839 191.946C32.7861 185.568 29.3017 173.055 43.5483 167.041C57.4859 162.816 69.0381 169.997 71.7513 179.045Z" fill="url(#paint23_linear_514_23272)"/>
<path d="M71.7513 179.045C76.1641 193.696 62.006 200.586 45.1839 191.946C32.7861 185.568 29.3017 173.055 43.5483 167.041C57.4859 162.816 69.0381 169.997 71.7513 179.045Z" fill="#131315"/>
</g>
<g id="Vector_24">
<path d="M110.217 165.193C106.164 178.651 91.2842 193.875 82.4033 178.542C76.9874 169.174 81.4644 154.248 95.5577 148.312C108.55 144.427 113.618 153.898 110.217 165.193Z" fill="#D9D9FE"/>
<path d="M110.217 165.193C106.164 178.651 91.2842 193.875 82.4033 178.542C76.9874 169.174 81.4644 154.248 95.5577 148.312C108.55 144.427 113.618 153.898 110.217 165.193Z" fill="url(#paint24_linear_514_23272)"/>
<path d="M110.217 165.193C106.164 178.651 91.2842 193.875 82.4033 178.542C76.9874 169.174 81.4644 154.248 95.5577 148.312C108.55 144.427 113.618 153.898 110.217 165.193Z" fill="#131315"/>
</g>
<g id="Vector_25">
<path d="M131.152 157.661C125.332 168.921 115.025 179.572 114.126 176.381C113.174 172.981 120.959 140.511 132.589 134.985C139.058 133.471 137.088 146.157 131.152 157.661Z" fill="#D9D9FE"/>
<path d="M131.152 157.661C125.332 168.921 115.025 179.572 114.126 176.381C113.174 172.981 120.959 140.511 132.589 134.985C139.058 133.471 137.088 146.157 131.152 157.661Z" fill="url(#paint25_linear_514_23272)"/>
<path d="M131.152 157.661C125.332 168.921 115.025 179.572 114.126 176.381C113.174 172.981 120.959 140.511 132.589 134.985C139.058 133.471 137.088 146.157 131.152 157.661Z" fill="#131315"/>
</g>
<g id="Vector_26">
<path d="M128.311 164.27C132.144 158.082 134.977 152.208 137.501 145.22C135.207 151.898 132.109 158.298 128.311 164.27Z" fill="#D9D9FE"/>
<path d="M128.311 164.27C132.144 158.082 134.977 152.208 137.501 145.22C135.207 151.898 132.109 158.298 128.311 164.27Z" fill="url(#paint26_linear_514_23272)"/>
<path d="M128.311 164.27C132.144 158.082 134.977 152.208 137.501 145.22C135.207 151.898 132.109 158.298 128.311 164.27Z" fill="#131315"/>
</g>
</g>
</g>
<defs>
<linearGradient id="paint0_linear_514_23272" x1="-62.7236" y1="106.88" x2="117.236" y2="106.88" gradientUnits="userSpaceOnUse">
<stop stop-color="#03FCF8"/>
<stop offset="1" stop-color="#04F79F"/>
</linearGradient>
<linearGradient id="paint1_linear_514_23272" x1="-16.5455" y1="52.4707" x2="48.2129" y2="29.9829" gradientUnits="userSpaceOnUse">
<stop stop-color="#CBDAFF"/>
<stop offset="1" stop-color="#F1D6FB"/>
</linearGradient>
<linearGradient id="paint2_linear_514_23272" x1="3.40994" y1="45.2373" x2="36.6137" y2="33.5023" gradientUnits="userSpaceOnUse">
<stop stop-color="#CBDAFF"/>
<stop offset="1" stop-color="#F1D6FB"/>
</linearGradient>
<linearGradient id="paint3_linear_514_23272" x1="24.5366" y1="37.6674" x2="59.3092" y2="25.3873" gradientUnits="userSpaceOnUse">
<stop stop-color="#CBDAFF"/>
<stop offset="1" stop-color="#F1D6FB"/>
</linearGradient>
<linearGradient id="paint4_linear_514_23272" x1="25.0392" y1="37.4705" x2="90.6423" y2="14.7036" gradientUnits="userSpaceOnUse">
<stop stop-color="#CBDAFF"/>
<stop offset="1" stop-color="#F1D6FB"/>
</linearGradient>
<linearGradient id="paint5_linear_514_23272" x1="36.0859" y1="31.1442" x2="74.42" y2="17.8893" gradientUnits="userSpaceOnUse">
<stop stop-color="#CBDAFF"/>
<stop offset="1" stop-color="#F1D6FB"/>
</linearGradient>
<linearGradient id="paint6_linear_514_23272" x1="-23.8272" y1="79.2017" x2="28.7087" y2="60.5091" gradientUnits="userSpaceOnUse">
<stop stop-color="#CBDAFF"/>
<stop offset="1" stop-color="#F1D6FB"/>
</linearGradient>
<linearGradient id="paint7_linear_514_23272" x1="14.7646" y1="65.3261" x2="73.2529" y2="44.5435" gradientUnits="userSpaceOnUse">
<stop stop-color="#CBDAFF"/>
<stop offset="1" stop-color="#F1D6FB"/>
</linearGradient>
<linearGradient id="paint8_linear_514_23272" x1="56.1707" y1="50.3825" x2="108.909" y2="31.6189" gradientUnits="userSpaceOnUse">
<stop stop-color="#CBDAFF"/>
<stop offset="1" stop-color="#F1D6FB"/>
</linearGradient>
<linearGradient id="paint9_linear_514_23272" x1="74.5971" y1="43.7201" x2="125.844" y2="25.4816" gradientUnits="userSpaceOnUse">
<stop stop-color="#CBDAFF"/>
<stop offset="1" stop-color="#F1D6FB"/>
</linearGradient>
<linearGradient id="paint10_linear_514_23272" x1="-35.6112" y1="124.66" x2="4.62858" y2="110.266" gradientUnits="userSpaceOnUse">
<stop stop-color="#CBDAFF"/>
<stop offset="1" stop-color="#F1D6FB"/>
</linearGradient>
<linearGradient id="paint11_linear_514_23272" x1="-2.4978" y1="112.813" x2="68.2427" y2="87.6334" gradientUnits="userSpaceOnUse">
<stop stop-color="#CBDAFF"/>
<stop offset="1" stop-color="#F1D6FB"/>
</linearGradient>
<linearGradient id="paint12_linear_514_23272" x1="53.7237" y1="92.4326" x2="122.442" y2="67.9664" gradientUnits="userSpaceOnUse">
<stop stop-color="#CBDAFF"/>
<stop offset="1" stop-color="#F1D6FB"/>
</linearGradient>
<linearGradient id="paint13_linear_514_23272" x1="103.768" y1="74.4407" x2="141.339" y2="60.995" gradientUnits="userSpaceOnUse">
<stop stop-color="#CBDAFF"/>
<stop offset="1" stop-color="#F1D6FB"/>
</linearGradient>
<linearGradient id="paint14_linear_514_23272" x1="-24.5128" y1="168.208" x2="-0.592212" y2="159.628" gradientUnits="userSpaceOnUse">
<stop stop-color="#CBDAFF"/>
<stop offset="1" stop-color="#F1D6FB"/>
</linearGradient>
<linearGradient id="paint15_linear_514_23272" x1="-7.89776" y1="162.185" x2="48.8154" y2="141.955" gradientUnits="userSpaceOnUse">
<stop stop-color="#CBDAFF"/>
<stop offset="1" stop-color="#F1D6FB"/>
</linearGradient>
<linearGradient id="paint16_linear_514_23272" x1="38.0796" y1="145.663" x2="113.465" y2="118.856" gradientUnits="userSpaceOnUse">
<stop stop-color="#CBDAFF"/>
<stop offset="1" stop-color="#F1D6FB"/>
</linearGradient>
<linearGradient id="paint17_linear_514_23272" x1="95.3583" y1="125.029" x2="150.747" y2="105.268" gradientUnits="userSpaceOnUse">
<stop stop-color="#CBDAFF"/>
<stop offset="1" stop-color="#F1D6FB"/>
</linearGradient>
<linearGradient id="paint18_linear_514_23272" x1="130.734" y1="112.29" x2="153.749" y2="104.034" gradientUnits="userSpaceOnUse">
<stop stop-color="#CBDAFF"/>
<stop offset="1" stop-color="#F1D6FB"/>
</linearGradient>
<linearGradient id="paint19_linear_514_23272" x1="50.228" y1="205.442" x2="99.8132" y2="188.134" gradientUnits="userSpaceOnUse">
<stop stop-color="#CBDAFF"/>
<stop offset="1" stop-color="#F1D6FB"/>
</linearGradient>
<linearGradient id="paint20_linear_514_23272" x1="72.9072" y1="197.272" x2="99.5293" y2="187.844" gradientUnits="userSpaceOnUse">
<stop stop-color="#CBDAFF"/>
<stop offset="1" stop-color="#F1D6FB"/>
</linearGradient>
<linearGradient id="paint21_linear_514_23272" x1="80.4295" y1="194.571" x2="131.297" y2="176.829" gradientUnits="userSpaceOnUse">
<stop stop-color="#CBDAFF"/>
<stop offset="1" stop-color="#F1D6FB"/>
</linearGradient>
<linearGradient id="paint22_linear_514_23272" x1="6.64938" y1="197.725" x2="59.3741" y2="178.974" gradientUnits="userSpaceOnUse">
<stop stop-color="#CBDAFF"/>
<stop offset="1" stop-color="#F1D6FB"/>
</linearGradient>
<linearGradient id="paint23_linear_514_23272" x1="36.5467" y1="186.825" x2="91.3115" y2="167.36" gradientUnits="userSpaceOnUse">
<stop stop-color="#CBDAFF"/>
<stop offset="1" stop-color="#F1D6FB"/>
</linearGradient>
<linearGradient id="paint24_linear_514_23272" x1="79.3521" y1="171.543" x2="133.373" y2="152.337" gradientUnits="userSpaceOnUse">
<stop stop-color="#CBDAFF"/>
<stop offset="1" stop-color="#F1D6FB"/>
</linearGradient>
<linearGradient id="paint25_linear_514_23272" x1="108.348" y1="161.059" x2="160.989" y2="142.338" gradientUnits="userSpaceOnUse">
<stop stop-color="#CBDAFF"/>
<stop offset="1" stop-color="#F1D6FB"/>
</linearGradient>
<linearGradient id="paint26_linear_514_23272" x1="125.633" y1="157.147" x2="148.907" y2="148.87" gradientUnits="userSpaceOnUse">
<stop stop-color="#CBDAFF"/>
<stop offset="1" stop-color="#F1D6FB"/>
</linearGradient>
<clipPath id="clip0_514_23272">
<rect x="-62.7236" y="61.7627" width="179.96" height="179.96" rx="89.5188" transform="rotate(-19.803 -62.7236 61.7627)" fill="white"/>
</clipPath>
</defs>
</svg>
