<svg width="100%" height="100%" viewBox="0 0 24 24" fill="inherit" xmlns="http://www.w3.org/2000/svg">
<g id="Exchange" clip-path="url(#clip0_8_12138)">
<path id="Vector" d="M24 12C24 18.617 18.617 24 12 24C5.383 24 0 18.617 0 12C0 5.383 5.383 0 12 0C16.028 0 19.787 2.036 22 5.365V1H23V5.5C23 6.327 22.327 7 21.5 7H17V6H21.221C19.2 2.9 15.725 1 12 1C5.935 1 1 5.935 1 12C1 18.065 5.935 23 12 23C18.065 23 23 18.065 23 12H24ZM16 10V9.495C16 8.119 14.881 7 13.505 7H12.5V5H11.5V7H10.495C9.119 7 8 8.119 8 9.495C8 10.603 8.744 11.59 9.81 11.893L13.916 13.067C14.554 13.25 15 13.84 15 14.505C15 15.329 14.329 16 13.505 16H10.495C9.671 16 9 15.329 9 14.505V14H8V14.505C8 15.881 9.119 17 10.495 17H11.5V19H12.5V17H13.505C14.881 17 16 15.881 16 14.505C16 13.397 15.256 12.41 14.19 12.107L10.084 10.933C9.446 10.75 9 10.16 9 9.495C9 8.671 9.671 8 10.495 8H13.505C14.329 8 15 8.671 15 9.495V10H16Z" fill="inherit"/>
</g>
<defs>
<clipPath id="clip0_8_12138">
<rect width="24" height="24" fill="inherit"/>
</clipPath>
</defs>
</svg>
