<svg width="100%" height="100%" viewBox="0 0 37 36" fill="inherit" xmlns="http://www.w3.org/2000/svg">
<g clip-path="url(#clip0_928_25985)">
<path d="M35.6785 29.3715C36.0475 29.7405 36.25 30.2295 36.25 30.75C36.25 31.2705 36.0475 31.761 35.6785 32.1285L32.0275 35.7795C31.8805 35.9265 31.6885 35.9985 31.4965 35.9985C31.3045 35.9985 31.1125 35.925 30.9655 35.7795C30.673 35.487 30.673 35.0115 30.9655 34.719L34.1845 31.5H25.747C25.333 31.5 24.997 31.164 24.997 30.75C24.997 30.336 25.333 30 25.747 30H34.1845L30.9655 26.781C30.673 26.4885 30.673 26.013 30.9655 25.7205C31.258 25.428 31.7335 25.428 32.026 25.7205L35.6785 29.3715ZM24.25 24C17.6335 24 12.25 18.6165 12.25 12C12.25 5.3835 17.6335 0 24.25 0C30.8665 0 36.25 5.3835 36.25 12C36.25 18.6165 30.8665 24 24.25 24ZM34.75 12C34.75 6.21 30.04 1.5 24.25 1.5C18.46 1.5 13.75 6.21 13.75 12C13.75 17.79 18.46 22.5 24.25 22.5C30.04 22.5 34.75 17.79 34.75 12ZM23.11 27.0435C22.717 26.904 22.291 27.1095 22.153 27.501C20.6725 31.6875 16.693 34.5015 12.25 34.5015C6.46 34.5015 1.75 29.7915 1.75 24.0015C1.75 19.5585 4.5625 15.579 8.7505 14.0985C9.1405 13.9605 9.346 13.533 9.208 13.1415C9.07 12.75 8.644 12.546 8.251 12.684C3.466 14.3745 0.2515 18.924 0.2515 24C0.2515 30.6165 5.635 36 12.2515 36C17.329 36 21.877 32.784 23.5675 28.0005C23.7055 27.6105 23.5015 27.1815 23.11 27.0435ZM30.25 15C30.25 17.067 28.567 18.75 26.5 18.75H25V20.25C25 20.664 24.664 21 24.25 21C23.836 21 23.5 20.664 23.5 20.25V18.75H22C20.7595 18.75 19.75 17.7405 19.75 16.5V7.5C19.75 6.2595 20.7595 5.25 22 5.25H23.5V3.75C23.5 3.336 23.836 3 24.25 3C24.664 3 25 3.336 25 3.75V5.25H25.75C27.817 5.25 29.5 6.933 29.5 9C29.5 10.0725 29.0485 11.04 28.324 11.724C29.4715 12.366 30.25 13.593 30.25 15ZM21.25 11.25H25.75C26.9905 11.25 28 10.2405 28 9C28 7.7595 26.9905 6.75 25.75 6.75H22C21.586 6.75 21.25 7.086 21.25 7.5V11.25ZM28.75 15C28.75 13.7595 27.7405 12.75 26.5 12.75H21.25V16.5C21.25 16.914 21.586 17.25 22 17.25H26.5C27.7405 17.25 28.75 16.2405 28.75 15ZM4.4725 10.281C4.6195 10.428 4.8115 10.5 5.0035 10.5C5.1955 10.5 5.3875 10.4265 5.5345 10.281C5.827 9.9885 5.827 9.513 5.5345 9.2205L2.3155 6.0015H10.753C11.167 6.0015 11.503 5.6655 11.503 5.2515C11.503 4.8375 11.167 4.5015 10.753 4.5015H2.3125L5.533 1.281C5.8255 0.9885 5.8255 0.513 5.533 0.2205C5.2405 -0.072 4.765 -0.072 4.4725 0.2205L0.8215 3.8715C0.4525 4.2405 0.25 4.7295 0.25 5.25C0.25 5.7705 0.4525 6.261 0.8215 6.6285L4.4725 10.281Z" fill="inherit"/>
</g>
<defs>
<clipPath id="clip0_928_25985">
<rect width="36" height="36" fill="white" transform="translate(0.25)"/>
</clipPath>
</defs>
</svg>
