<svg width="100%" height="100%" viewBox="0 0 37 36" fill="inherit" xmlns="http://www.w3.org/2000/svg">
<g clip-path="url(#clip0_928_25991)">
<path d="M24 7.5H17.25V1.5H25.5C25.914 1.5 26.25 1.164 26.25 0.75C26.25 0.336 25.914 0 25.5 0H7.5C7.086 0 6.75 0.336 6.75 0.75C6.75 1.164 7.086 1.5 7.5 1.5H15.75V7.5H1.5C1.086 7.5 0.75 7.836 0.75 8.25C0.75 8.664 1.086 9 1.5 9H15.75V16.5H1.5C1.086 16.5 0.75 16.836 0.75 17.25C0.75 17.664 1.086 18 1.5 18H24C25.2405 18 26.25 19.0095 26.25 20.25V21.75C26.25 22.9905 27.2595 24 28.5 24H34.5C35.7405 24 36.75 22.9905 36.75 21.75V20.25C36.75 13.2195 31.0305 7.5 24 7.5ZM35.25 21.75C35.25 22.1625 34.914 22.5 34.5 22.5H28.5C28.086 22.5 27.75 22.1625 27.75 21.75V20.25C27.75 18.1815 26.067 16.5 24 16.5H17.25V9H24C30.204 9 35.25 14.046 35.25 20.25V21.75ZM30.1155 27.621C29.5605 28.368 27.75 30.906 27.75 32.25C27.75 33.252 28.14 34.1925 28.848 34.902C29.556 35.6115 30.498 36 31.5 36C32.502 36 33.4425 35.61 34.152 34.902C34.8615 34.194 35.25 33.252 35.25 32.25C35.25 30.906 33.438 28.368 32.808 27.5325C32.088 26.826 30.9135 26.826 30.1155 27.621ZM33.09 33.84C32.241 34.6905 30.7575 34.6875 29.9085 33.84C29.484 33.4155 29.25 32.85 29.25 32.2485C29.25 31.662 30.324 29.853 31.2435 28.602C31.3335 28.515 31.4535 28.482 31.548 28.482C31.6065 28.482 31.6545 28.4955 31.68 28.515C32.676 29.853 33.75 31.662 33.75 32.247C33.75 32.847 33.516 33.4125 33.0915 33.8385L33.09 33.84Z" fill="inherit"/>
</g>
<defs>
<clipPath id="clip0_928_25991">
<rect width="36" height="36" fill="white" transform="translate(0.75)"/>
</clipPath>
</defs>
</svg>
