<svg width="100%" height="100%" viewBox="0 0 1006 97" fill="none" xmlns="http://www.w3.org/2000/svg">
<g clip-path="url(#clip0_203_21616)">
<mask id="mask0_203_21616" style="mask-type:luminance" maskUnits="userSpaceOnUse" x="-1" y="0" width="1006" height="103">
<path d="M1004.93 0H-0.00683594V102.706H1004.93V0Z" fill="white"/>
</mask>
<g mask="url(#mask0_203_21616)">
<path d="M114.843 0V37.3476H28.7056V0H-0.00683594V102.706H28.7056V65.358H114.843V102.706H143.556V0H114.843Z" fill="#3EF2CF"/>
<path d="M660.379 65.3584H631.667V102.706H660.379V65.3584Z" fill="#3EF2CF"/>
<path d="M660.375 0H631.664V37.3476H545.526V0H516.813V102.706H545.526V65.358H631.664L660.375 37.3476V0Z" fill="#3EF2CF"/>
<path d="M296.684 0H172.263V102.706H200.975V65.358H287.113V102.706H315.825V0H296.684ZM200.975 37.3476V28.0107H287.113V37.3476H200.975Z" fill="#3EF2CF"/>
<path d="M488.107 28.0107V0H373.256H363.685H344.544V102.706H363.685H373.256H488.107V74.6951H373.256V28.0107H488.107Z" fill="#3EF2CF"/>
<path d="M832.659 28.0107V0H717.806H708.237H689.094V102.706H708.237H717.806H832.659V74.6951H717.806V65.358H832.659V37.3476H717.806V28.0107H832.659Z" fill="#3EF2CF"/>
<path d="M976.212 0V65.358L890.076 0H861.364V102.706H890.076V37.3476L976.212 102.706H1004.92V0H976.212Z" fill="#3EF2CF"/>
</g>
</g>
<defs>
<clipPath id="clip0_203_21616">
<rect width="1006" height="97" fill="white"/>
</clipPath>
</defs>
</svg>
