<svg width="932" height="130" viewBox="0 0 932 130" fill="none" xmlns="http://www.w3.org/2000/svg">
<path d="M0.5 2.02656e-06V46.9785C0.5 64.6516 14.8269 78.9785 32.5 78.9785H401.5C419.173 78.9785 433.5 93.3054 433.5 110.978V130" stroke="url(#paint0_linear_203_23558)"/>
<path d="M931.5 2.02656e-06V46.9785C931.5 64.6516 917.173 78.9785 899.5 78.9785H530.5C512.827 78.9785 498.5 93.3054 498.5 110.978V130" stroke="url(#paint1_linear_203_23558)"/>
<path d="M186 2.02656e-06V33C186 50.6731 200.327 65 218 65H415C432.673 65 447 79.3269 447 97V130" stroke="url(#paint2_linear_203_23558)"/>
<path d="M746 2.02656e-06V33C746 50.6731 731.673 65 714 65H517C499.327 65 485 79.3269 485 97V130" stroke="url(#paint3_linear_203_23558)"/>
<path d="M373 2.02656e-06V19.0215C373 36.6946 387.327 51.0215 405 51.0215H427C444.673 51.0215 459 65.3484 459 83.0215V130" stroke="url(#paint4_linear_203_23558)"/>
<path d="M559 2.02656e-06V19.0215C559 36.6946 544.673 51.0215 527 51.0215H505C487.327 51.0215 473 65.3484 473 83.0215V130" stroke="url(#paint5_linear_203_23558)"/>
<defs>
<linearGradient id="paint0_linear_203_23558" x1="-18" y1="-41.2366" x2="449.138" y2="49.4333" gradientUnits="userSpaceOnUse">
<stop stop-color="white" stop-opacity="0"/>
<stop offset="0.45" stop-color="white" stop-opacity="0.59"/>
<stop offset="1" stop-color="white" stop-opacity="0"/>
</linearGradient>
<linearGradient id="paint1_linear_203_23558" x1="950" y1="-41.2366" x2="482.862" y2="49.4333" gradientUnits="userSpaceOnUse">
<stop stop-color="white" stop-opacity="0"/>
<stop offset="0.45" stop-color="white" stop-opacity="0.59"/>
<stop offset="1" stop-color="white" stop-opacity="0"/>
</linearGradient>
<linearGradient id="paint2_linear_203_23558" x1="174.849" y1="-41.2366" x2="463.089" y2="-7.5137" gradientUnits="userSpaceOnUse">
<stop stop-color="white" stop-opacity="0"/>
<stop offset="0.45" stop-color="white" stop-opacity="0.59"/>
<stop offset="1" stop-color="white" stop-opacity="0"/>
</linearGradient>
<linearGradient id="paint3_linear_203_23558" x1="757.151" y1="-41.2366" x2="468.911" y2="-7.5137" gradientUnits="userSpaceOnUse">
<stop stop-color="white" stop-opacity="0"/>
<stop offset="0.45" stop-color="white" stop-opacity="0.59"/>
<stop offset="1" stop-color="white" stop-opacity="0"/>
</linearGradient>
<linearGradient id="paint4_linear_203_23558" x1="369.326" y1="-41.2366" x2="465.458" y2="-37.5306" gradientUnits="userSpaceOnUse">
<stop stop-color="white" stop-opacity="0"/>
<stop offset="0.45" stop-color="white" stop-opacity="0.59"/>
<stop offset="1" stop-color="white" stop-opacity="0"/>
</linearGradient>
<linearGradient id="paint5_linear_203_23558" x1="562.674" y1="-41.2366" x2="466.542" y2="-37.5306" gradientUnits="userSpaceOnUse">
<stop stop-color="white" stop-opacity="0"/>
<stop offset="0.45" stop-color="white" stop-opacity="0.59"/>
<stop offset="1" stop-color="white" stop-opacity="0"/>
</linearGradient>
</defs>
</svg>
