<svg width="100%" height="100%" viewBox="0 0 33 30" fill="inherit" xmlns="http://www.w3.org/2000/svg">
<g clip-path="url(#clip0_8_12073)">
<path d="M28.3613 26.9998H4.30792C4.27795 26.989 4.24863 26.9731 4.21802 26.9693C1.74038 26.6392 -0.0371907 24.4619 0.00297692 21.9654C0.0654598 18.0879 0.0189164 14.2085 0.0221043 10.3298C0.0221043 10.1683 -0.0607812 9.94119 0.090963 9.85977C0.240157 9.77963 0.393176 9.966 0.533444 10.0512C5.41094 13.0172 10.2872 15.9844 15.1608 18.9561C15.5612 19.2004 15.9718 19.3505 16.45 19.3244C16.8498 19.3022 17.1807 19.1285 17.5084 18.9294C22.3508 15.9876 27.1932 13.0465 32.0382 10.1078C32.2257 9.99462 32.3927 9.83624 32.6248 9.80762V22.8762C32.4112 24.0313 31.8999 25.0229 31.0104 25.8091C30.2504 26.4802 29.3483 26.8319 28.3613 26.9998Z" fill="inherit"/>
<path d="M16.3384 3.00247C20.1562 3.00247 23.9734 2.99548 27.7913 3.00502C29.8845 3.01011 31.6914 4.31913 32.3621 6.28139C32.4815 6.6308 32.3878 6.89858 32.0809 7.08474C26.9688 10.1983 21.8548 13.3093 16.7484 16.4317C16.4538 16.6117 16.246 16.6085 15.9501 16.4279C10.8323 13.3042 5.70548 10.1932 0.581244 7.08029C0.280306 6.89752 0.185944 6.63864 0.298158 6.30365C0.961242 4.3293 2.77898 3.00947 4.88555 3.00502C8.70338 2.99611 12.5206 3.00247 16.3384 3.00247Z" fill="white"/>
</g>
<defs>
<clipPath id="clip0_8_12073">
<rect width="32.625" height="24" fill="inherit" transform="translate(0 3)"/>
</clipPath>
</defs>
</svg>
