<svg width="100%" height="100%" viewBox="0 0 24 24" fill="inherit" xmlns="http://www.w3.org/2000/svg">
<g id="News" clip-path="url(#clip0_8_12144)">
<path id="Vector" d="M19.5 2H7.5C5.01 2 3 4.01 3 6.5V15.5C3 17.99 5.01 20 7.5 20H19.5C21.99 20 24 17.99 24 15.5V6.5C24 4.01 21.99 2 19.5 2ZM19.5 3C20.45 3 21.32 3.38 21.95 4L15.98 9.97C14.61 11.34 12.4 11.34 11.03 9.97L5.05 4C5.68 3.38 6.55 3 7.5 3H19.5ZM23 15.5C23 17.43 21.43 19 19.5 19H7.5C5.57 19 4 17.43 4 15.5V6.5C4 5.88 4.16 5.31 4.44 4.8L10.32 10.68C11.2 11.56 12.35 12 13.5 12C14.65 12 15.8 11.56 16.68 10.68L22.56 4.8C22.84 5.3 23 5.88 23 6.5V15.5ZM18 22.5C18 22.78 17.78 23 17.5 23H4.5C2.02 23 0 20.98 0 18.5V7.5C0 7.22 0.22 7 0.5 7C0.78 7 1 7.22 1 7.5V18.5C1 20.43 2.57 22 4.5 22H17.5C17.78 22 18 22.22 18 22.5Z" fill="inherit"/>
</g>
<defs>
<clipPath id="clip0_8_12144">
<rect width="24" height="24" fill="inherit"/>
</clipPath>
</defs>
</svg>
