<svg width="100%" height="100%" viewBox="0 0 24 24" fill="inherit" xmlns="http://www.w3.org/2000/svg">
<g id="Partnership" clip-path="url(#clip0_8_12140)">
<path id="Vector" d="M24 15.5C24 15.776 23.776 16 23.5 16H22.333C21.581 16 20.835 16.248 20.233 16.7L14.141 21.268C13.513 21.756 12.758 22.001 12.001 22.001C11.244 22.001 10.483 21.755 9.851 21.262L3.766 16.7C3.164 16.248 2.418 16 1.666 16H0.5C0.224 16 0 15.776 0 15.5C0 15.224 0.224 15 0.5 15H1.667C2.635 15 3.593 15.319 4.366 15.899L10.458 20.467C11.368 21.177 12.631 21.174 13.535 20.473L19.634 15.899C19.849 15.738 20.078 15.598 20.318 15.478L13.039 10.02L11.728 11.275C11.264 11.739 10.63 12 9.969 12C9.116 12 8.365 11.553 7.93 10.949C7.227 9.973 7.375 8.557 8.277 7.656L11.306 4.804L10.32 3.906C9.254 2.936 7.589 2.763 6.384 3.367L4.069 4.525C3.447 4.836 2.751 5 2.056 5H0.5C0.224 5 0 4.776 0 4.5C0 4.224 0.224 4 0.5 4H2.056C2.596 4 3.138 3.872 3.621 3.631L5.936 2.473C6.553 2.163 7.246 2 7.939 2C9.094 2 10.166 2.415 10.993 3.167L12.035 4.117L12.99 3.218C14.329 1.958 16.427 1.653 18.063 2.473L20.378 3.631C20.861 3.872 21.403 4 21.943 4H23.499C23.775 4 23.999 4.224 23.999 4.5C23.999 4.776 23.775 5 23.499 5H21.943C21.249 5 20.552 4.836 19.93 4.525L17.615 3.367C16.343 2.729 14.714 2.967 13.675 3.946L8.972 8.374C8.424 8.922 8.321 9.782 8.741 10.365C9.008 10.735 9.4 10.959 9.846 10.995C10.282 11.027 10.716 10.873 11.028 10.56L15.193 6.573C15.392 6.382 15.709 6.389 15.9 6.589C16.09 6.788 16.084 7.105 15.884 7.296L13.771 9.319L21.462 15.087C21.748 15.03 22.04 15 22.333 15H23.5C23.776 15 24 15.224 24 15.5Z" fill="inherit"/>
</g>
<defs>
<clipPath id="clip0_8_12140">
<rect width="24" height="24" fill="inherit"/>
</clipPath>
</defs>
</svg>
