<svg width="146" height="52" viewBox="0 0 146 52" fill="none" xmlns="http://www.w3.org/2000/svg">
<path d="M70.3597 7.032C70.3597 7.992 70.0451 8.76533 69.4157 9.352C68.7864 9.93867 67.8424 10.232 66.5837 10.232H64.3277V15H63.2077V3.816H66.5837C67.8317 3.816 68.7704 4.10933 69.3997 4.696C70.0397 5.28267 70.3597 6.06133 70.3597 7.032ZM66.5837 9.272C68.3331 9.272 69.2077 8.52533 69.2077 7.032C69.2077 6.28533 68.9997 5.72 68.5837 5.336C68.1677 4.952 67.5011 4.76 66.5837 4.76H64.3277V9.272H66.5837ZM73.359 7.816C73.6043 7.272 73.9777 6.85067 74.479 6.552C74.991 6.25333 75.615 6.104 76.351 6.104V7.272H76.047C75.2363 7.272 74.5857 7.49067 74.095 7.928C73.6043 8.36533 73.359 9.096 73.359 10.12V15H72.239V6.264H73.359V7.816ZM81.8599 15.128C81.0385 15.128 80.2972 14.9467 79.6359 14.584C78.9852 14.2107 78.4679 13.688 78.0839 13.016C77.7105 12.3333 77.5239 11.5387 77.5239 10.632C77.5239 9.72533 77.7159 8.936 78.0999 8.264C78.4839 7.58133 79.0065 7.05867 79.6679 6.696C80.3292 6.32267 81.0705 6.136 81.8919 6.136C82.7132 6.136 83.4545 6.32267 84.1159 6.696C84.7879 7.05867 85.3105 7.58133 85.6839 8.264C86.0679 8.936 86.2599 9.72533 86.2599 10.632C86.2599 11.528 86.0679 12.3173 85.6839 13C85.2999 13.6827 84.7719 14.2107 84.0999 14.584C83.4279 14.9467 82.6812 15.128 81.8599 15.128ZM81.8599 14.152C82.4359 14.152 82.9692 14.024 83.4599 13.768C83.9505 13.5013 84.3452 13.1067 84.6439 12.584C84.9532 12.0507 85.1079 11.4 85.1079 10.632C85.1079 9.864 84.9585 9.21867 84.6599 8.696C84.3612 8.16267 83.9665 7.768 83.4759 7.512C82.9852 7.24533 82.4519 7.112 81.8759 7.112C81.2999 7.112 80.7665 7.24533 80.2759 7.512C79.7852 7.768 79.3905 8.16267 79.0919 8.696C78.8039 9.21867 78.6599 9.864 78.6599 10.632C78.6599 11.4 78.8039 12.0507 79.0919 12.584C79.3905 13.1067 79.7799 13.5013 80.2599 13.768C80.7505 14.024 81.2839 14.152 81.8599 14.152ZM92.1255 15.128C91.3042 15.128 90.5628 14.9467 89.9015 14.584C89.2508 14.2107 88.7335 13.688 88.3495 13.016C87.9762 12.3333 87.7895 11.5387 87.7895 10.632C87.7895 9.72533 87.9815 8.936 88.3655 8.264C88.7495 7.58133 89.2722 7.05867 89.9335 6.696C90.5948 6.32267 91.3362 6.136 92.1575 6.136C92.9788 6.136 93.7202 6.32267 94.3815 6.696C95.0535 7.05867 95.5762 7.58133 95.9495 8.264C96.3335 8.936 96.5255 9.72533 96.5255 10.632C96.5255 11.528 96.3335 12.3173 95.9495 13C95.5655 13.6827 95.0375 14.2107 94.3655 14.584C93.6935 14.9467 92.9468 15.128 92.1255 15.128ZM92.1255 14.152C92.7015 14.152 93.2348 14.024 93.7255 13.768C94.2162 13.5013 94.6108 13.1067 94.9095 12.584C95.2188 12.0507 95.3735 11.4 95.3735 10.632C95.3735 9.864 95.2242 9.21867 94.9255 8.696C94.6268 8.16267 94.2322 7.768 93.7415 7.512C93.2508 7.24533 92.7175 7.112 92.1415 7.112C91.5655 7.112 91.0322 7.24533 90.5415 7.512C90.0508 7.768 89.6562 8.16267 89.3575 8.696C89.0695 9.21867 88.9255 9.864 88.9255 10.632C88.9255 11.4 89.0695 12.0507 89.3575 12.584C89.6562 13.1067 90.0455 13.5013 90.5255 13.768C91.0162 14.024 91.5495 14.152 92.1255 14.152ZM102.007 7.208H99.9751V15H98.8551V7.208H97.6391V6.264H98.8551V5.656C98.8551 4.70667 99.0951 4.008 99.5751 3.56C100.066 3.112 100.855 2.888 101.943 2.888V3.848C101.218 3.848 100.706 3.98667 100.407 4.264C100.119 4.54133 99.9751 5.00533 99.9751 5.656V6.264H102.007V7.208ZM111.674 10.184C111.674 10.568 111.664 10.8613 111.642 11.064H104.394C104.426 11.7253 104.586 12.2907 104.874 12.76C105.162 13.2293 105.541 13.5867 106.01 13.832C106.48 14.0667 106.992 14.184 107.546 14.184C108.272 14.184 108.88 14.008 109.37 13.656C109.872 13.304 110.202 12.8293 110.362 12.232H111.546C111.333 13.0853 110.874 13.784 110.17 14.328C109.477 14.8613 108.602 15.128 107.546 15.128C106.725 15.128 105.989 14.9467 105.338 14.584C104.688 14.2107 104.176 13.688 103.802 13.016C103.44 12.3333 103.258 11.5387 103.258 10.632C103.258 9.72533 103.44 8.93067 103.802 8.248C104.165 7.56533 104.672 7.04267 105.322 6.68C105.973 6.31733 106.714 6.136 107.546 6.136C108.378 6.136 109.104 6.31733 109.722 6.68C110.352 7.04267 110.832 7.53333 111.162 8.152C111.504 8.76 111.674 9.43733 111.674 10.184ZM110.538 10.152C110.549 9.50133 110.416 8.94667 110.138 8.488C109.872 8.02933 109.504 7.68267 109.034 7.448C108.565 7.21333 108.053 7.096 107.498 7.096C106.666 7.096 105.957 7.36267 105.37 7.896C104.784 8.42933 104.458 9.18133 104.394 10.152H110.538ZM113.211 10.616C113.211 9.72 113.393 8.936 113.755 8.264C114.118 7.58133 114.614 7.05867 115.243 6.696C115.883 6.32267 116.603 6.136 117.403 6.136C118.171 6.136 118.865 6.32267 119.483 6.696C120.102 7.06933 120.555 7.55467 120.843 8.152V3.16H121.963V15H120.843V13.048C120.577 13.656 120.139 14.1573 119.531 14.552C118.923 14.936 118.209 15.128 117.387 15.128C116.587 15.128 115.867 14.9413 115.227 14.568C114.598 14.1947 114.102 13.6667 113.739 12.984C113.387 12.3013 113.211 11.512 113.211 10.616ZM120.843 10.632C120.843 9.928 120.699 9.30933 120.411 8.776C120.123 8.24267 119.729 7.832 119.227 7.544C118.737 7.256 118.193 7.112 117.595 7.112C116.977 7.112 116.422 7.25067 115.931 7.528C115.441 7.80533 115.051 8.21067 114.763 8.744C114.486 9.26667 114.347 9.89067 114.347 10.616C114.347 11.3307 114.486 11.96 114.763 12.504C115.051 13.0373 115.441 13.448 115.931 13.736C116.422 14.0133 116.977 14.152 117.595 14.152C118.193 14.152 118.737 14.008 119.227 13.72C119.729 13.432 120.123 13.0213 120.411 12.488C120.699 11.9547 120.843 11.336 120.843 10.632ZM64.3117 26.2C64.5997 25.592 65.0424 25.096 65.6397 24.712C66.2477 24.328 66.9624 24.136 67.7837 24.136C68.5837 24.136 69.2984 24.3227 69.9277 24.696C70.5571 25.0587 71.0477 25.5813 71.3997 26.264C71.7624 26.936 71.9437 27.72 71.9437 28.616C71.9437 29.512 71.7624 30.3013 71.3997 30.984C71.0477 31.6667 70.5517 32.1947 69.9117 32.568C69.2824 32.9413 68.5731 33.128 67.7837 33.128C66.9517 33.128 66.2317 32.9413 65.6237 32.568C65.0264 32.184 64.5891 31.688 64.3117 31.08V33H63.2077V21.16H64.3117V26.2ZM70.8077 28.616C70.8077 27.8907 70.6637 27.2667 70.3757 26.744C70.0984 26.2107 69.7144 25.8053 69.2237 25.528C68.7331 25.2507 68.1784 25.112 67.5597 25.112C66.9624 25.112 66.4131 25.256 65.9117 25.544C65.4211 25.832 65.0317 26.2427 64.7437 26.776C64.4557 27.3093 64.3117 27.928 64.3117 28.632C64.3117 29.336 64.4557 29.9547 64.7437 30.488C65.0317 31.0213 65.4211 31.432 65.9117 31.72C66.4131 32.008 66.9624 32.152 67.5597 32.152C68.1784 32.152 68.7331 32.0133 69.2237 31.736C69.7144 31.448 70.0984 31.0373 70.3757 30.504C70.6637 29.96 70.8077 29.3307 70.8077 28.616ZM81.2046 24.264L76.0206 37.112H74.8526L76.5486 32.952L72.9646 24.264H74.1966L77.1726 31.72L80.0526 24.264H81.2046ZM95.418 21.816V33H94.298V27.768H88.234V33H87.114V21.816H88.234V26.84H94.298V21.816H95.418ZM97.4614 28.616C97.4614 27.72 97.6374 26.936 97.9894 26.264C98.352 25.5813 98.848 25.0587 99.4774 24.696C100.117 24.3227 100.837 24.136 101.637 24.136C102.469 24.136 103.184 24.328 103.781 24.712C104.389 25.096 104.827 25.5867 105.093 26.184V24.264H106.213V33H105.093V31.064C104.816 31.6613 104.373 32.1573 103.765 32.552C103.168 32.936 102.453 33.128 101.621 33.128C100.832 33.128 100.117 32.9413 99.4774 32.568C98.848 32.1947 98.352 31.6667 97.9894 30.984C97.6374 30.3013 97.4614 29.512 97.4614 28.616ZM105.093 28.632C105.093 27.928 104.949 27.3093 104.661 26.776C104.373 26.2427 103.979 25.832 103.477 25.544C102.987 25.256 102.443 25.112 101.845 25.112C101.227 25.112 100.672 25.2507 100.181 25.528C99.6907 25.8053 99.3014 26.2107 99.0134 26.744C98.736 27.2667 98.5974 27.8907 98.5974 28.616C98.5974 29.3307 98.736 29.96 99.0134 30.504C99.3014 31.0373 99.6907 31.448 100.181 31.736C100.672 32.0133 101.227 32.152 101.845 32.152C102.443 32.152 102.987 32.008 103.477 31.72C103.979 31.432 104.373 31.0213 104.661 30.488C104.949 29.9547 105.093 29.336 105.093 28.632ZM108.258 28.632C108.258 27.7253 108.44 26.936 108.802 26.264C109.165 25.5813 109.666 25.0587 110.306 24.696C110.946 24.3227 111.677 24.136 112.498 24.136C113.576 24.136 114.461 24.4027 115.154 24.936C115.858 25.4693 116.312 26.1947 116.514 27.112H115.314C115.165 26.4827 114.84 25.992 114.338 25.64C113.848 25.2773 113.234 25.096 112.498 25.096C111.912 25.096 111.384 25.2293 110.914 25.496C110.445 25.7627 110.072 26.1627 109.794 26.696C109.528 27.2187 109.394 27.864 109.394 28.632C109.394 29.4 109.528 30.0507 109.794 30.584C110.072 31.1173 110.445 31.5173 110.914 31.784C111.384 32.0507 111.912 32.184 112.498 32.184C113.234 32.184 113.848 32.008 114.338 31.656C114.84 31.2933 115.165 30.792 115.314 30.152H116.514C116.312 31.048 115.858 31.768 115.154 32.312C114.45 32.856 113.565 33.128 112.498 33.128C111.677 33.128 110.946 32.9467 110.306 32.584C109.666 32.2107 109.165 31.688 108.802 31.016C108.44 30.3333 108.258 29.5387 108.258 28.632ZM123.303 33L119.703 29.08V33H118.583V21.16H119.703V28.168L123.223 24.264H124.791L120.647 28.616L124.823 33H123.303ZM134.174 28.184C134.174 28.568 134.164 28.8613 134.142 29.064H126.894C126.926 29.7253 127.086 30.2907 127.374 30.76C127.662 31.2293 128.041 31.5867 128.51 31.832C128.98 32.0667 129.492 32.184 130.046 32.184C130.772 32.184 131.38 32.008 131.87 31.656C132.372 31.304 132.702 30.8293 132.862 30.232H134.046C133.833 31.0853 133.374 31.784 132.67 32.328C131.977 32.8613 131.102 33.128 130.046 33.128C129.225 33.128 128.489 32.9467 127.838 32.584C127.188 32.2107 126.676 31.688 126.302 31.016C125.94 30.3333 125.758 29.5387 125.758 28.632C125.758 27.7253 125.94 26.9307 126.302 26.248C126.665 25.5653 127.172 25.0427 127.822 24.68C128.473 24.3173 129.214 24.136 130.046 24.136C130.878 24.136 131.604 24.3173 132.222 24.68C132.852 25.0427 133.332 25.5333 133.662 26.152C134.004 26.76 134.174 27.4373 134.174 28.184ZM133.038 28.152C133.049 27.5013 132.916 26.9467 132.638 26.488C132.372 26.0293 132.004 25.6827 131.534 25.448C131.065 25.2133 130.553 25.096 129.998 25.096C129.166 25.096 128.457 25.3627 127.87 25.896C127.284 26.4293 126.958 27.1813 126.894 28.152H133.038ZM140.319 24.104C141.365 24.104 142.218 24.4293 142.879 25.08C143.541 25.72 143.871 26.6533 143.871 27.88V33H142.767V28.008C142.767 27.0587 142.527 26.3333 142.047 25.832C141.578 25.3307 140.933 25.08 140.111 25.08C139.269 25.08 138.597 25.3467 138.095 25.88C137.594 26.4133 137.343 27.1973 137.343 28.232V33H136.223V24.264H137.343V25.752C137.621 25.2187 138.021 24.8133 138.543 24.536C139.066 24.248 139.658 24.104 140.319 24.104Z" fill="white"/>
<path d="M63.7637 49.056C63.3957 49.056 63.0704 48.992 62.7877 48.864C62.5104 48.736 62.2917 48.5573 62.1317 48.328C61.9717 48.0987 61.8864 47.8427 61.8757 47.56H62.4677C62.4944 47.832 62.6144 48.072 62.8277 48.28C63.0411 48.4827 63.3531 48.584 63.7637 48.584C64.1424 48.584 64.4411 48.488 64.6597 48.296C64.8837 48.0987 64.9957 47.8507 64.9957 47.552C64.9957 47.312 64.9344 47.12 64.8117 46.976C64.6891 46.8267 64.5371 46.7173 64.3557 46.648C64.1744 46.5733 63.9237 46.4933 63.6037 46.408C63.2304 46.3067 62.9344 46.208 62.7157 46.112C62.4971 46.016 62.3104 45.8667 62.1557 45.664C62.0011 45.4613 61.9237 45.1867 61.9237 44.84C61.9237 44.552 61.9984 44.296 62.1477 44.072C62.2971 43.8427 62.5077 43.664 62.7797 43.536C63.0517 43.408 63.3637 43.344 63.7157 43.344C64.2331 43.344 64.6491 43.472 64.9637 43.728C65.2837 43.9787 65.4677 44.304 65.5157 44.704H64.9077C64.8704 44.4747 64.7451 44.272 64.5317 44.096C64.3184 43.9147 64.0304 43.824 63.6677 43.824C63.3317 43.824 63.0517 43.9147 62.8277 44.096C62.6037 44.272 62.4917 44.5147 62.4917 44.824C62.4917 45.0587 62.5531 45.248 62.6757 45.392C62.7984 45.536 62.9504 45.6453 63.1317 45.72C63.3184 45.7947 63.5691 45.8747 63.8837 45.96C64.2464 46.0613 64.5397 46.1627 64.7637 46.264C64.9877 46.36 65.1771 46.5093 65.3317 46.712C65.4864 46.9147 65.5637 47.1867 65.5637 47.528C65.5637 47.7893 65.4944 48.0373 65.3557 48.272C65.2171 48.5067 65.0117 48.696 64.7397 48.84C64.4677 48.984 64.1424 49.056 63.7637 49.056ZM71.8459 44.552C72.3579 44.552 72.7739 44.7147 73.0939 45.04C73.4192 45.36 73.5819 45.8267 73.5819 46.44V49H73.0299V46.504C73.0299 46.0293 72.9152 45.6667 72.6859 45.416C72.4565 45.1653 72.1445 45.04 71.7499 45.04C71.3392 45.04 71.0112 45.176 70.7659 45.448C70.5205 45.72 70.3979 46.1147 70.3979 46.632V49H69.8459V46.504C69.8459 46.0293 69.7312 45.6667 69.5019 45.416C69.2725 45.1653 68.9579 45.04 68.5579 45.04C68.1472 45.04 67.8192 45.176 67.5739 45.448C67.3285 45.72 67.2059 46.1147 67.2059 46.632V49H66.6459V44.632H67.2059V45.384C67.3445 45.112 67.5419 44.9067 67.7979 44.768C68.0539 44.624 68.3392 44.552 68.6539 44.552C69.0325 44.552 69.3632 44.6427 69.6459 44.824C69.9339 45.0053 70.1419 45.272 70.2699 45.624C70.3872 45.2773 70.5872 45.0133 70.8699 44.832C71.1579 44.6453 71.4832 44.552 71.8459 44.552ZM74.5695 46.808C74.5695 46.36 74.6575 45.968 74.8335 45.632C75.0149 45.2907 75.2629 45.0293 75.5775 44.848C75.8975 44.6613 76.2575 44.568 76.6575 44.568C77.0735 44.568 77.4309 44.664 77.7295 44.856C78.0335 45.048 78.2522 45.2933 78.3855 45.592V44.632H78.9455V49H78.3855V48.032C78.2469 48.3307 78.0255 48.5787 77.7215 48.776C77.4229 48.968 77.0655 49.064 76.6495 49.064C76.2549 49.064 75.8975 48.9707 75.5775 48.784C75.2629 48.5973 75.0149 48.3333 74.8335 47.992C74.6575 47.6507 74.5695 47.256 74.5695 46.808ZM78.3855 46.816C78.3855 46.464 78.3135 46.1547 78.1695 45.888C78.0255 45.6213 77.8282 45.416 77.5775 45.272C77.3322 45.128 77.0602 45.056 76.7615 45.056C76.4522 45.056 76.1749 45.1253 75.9295 45.264C75.6842 45.4027 75.4895 45.6053 75.3455 45.872C75.2069 46.1333 75.1375 46.4453 75.1375 46.808C75.1375 47.1653 75.2069 47.48 75.3455 47.752C75.4895 48.0187 75.6842 48.224 75.9295 48.368C76.1749 48.5067 76.4522 48.576 76.7615 48.576C77.0602 48.576 77.3322 48.504 77.5775 48.36C77.8282 48.216 78.0255 48.0107 78.1695 47.744C78.3135 47.4773 78.3855 47.168 78.3855 46.816ZM80.784 45.408C80.9067 45.136 81.0933 44.9253 81.344 44.776C81.6 44.6267 81.912 44.552 82.28 44.552V45.136H82.128C81.7227 45.136 81.3973 45.2453 81.152 45.464C80.9067 45.6827 80.784 46.048 80.784 46.56V49H80.224V44.632H80.784V45.408ZM83.8504 45.104V47.816C83.8504 48.0827 83.9011 48.2667 84.0024 48.368C84.1038 48.4693 84.2824 48.52 84.5384 48.52H85.0504V49H84.4504C84.0558 49 83.7624 48.9093 83.5704 48.728C83.3784 48.5413 83.2824 48.2373 83.2824 47.816V45.104H82.6744V44.632H83.2824V43.536H83.8504V44.632H85.0504V45.104H83.8504ZM87.9133 46.2C87.9133 45.6507 88.0333 45.16 88.2733 44.728C88.5133 44.2907 88.8413 43.952 89.2573 43.712C89.6733 43.4667 90.1373 43.344 90.6493 43.344C91.2733 43.344 91.8066 43.4933 92.2493 43.792C92.6973 44.0853 93.0226 44.5013 93.2253 45.04H92.5693C92.4093 44.6613 92.164 44.3653 91.8333 44.152C91.508 43.9387 91.1133 43.832 90.6493 43.832C90.2386 43.832 89.868 43.928 89.5373 44.12C89.212 44.312 88.956 44.5893 88.7693 44.952C88.5826 45.3093 88.4893 45.7253 88.4893 46.2C88.4893 46.6747 88.5826 47.0907 88.7693 47.448C88.956 47.8053 89.212 48.08 89.5373 48.272C89.868 48.464 90.2386 48.56 90.6493 48.56C91.1133 48.56 91.508 48.456 91.8333 48.248C92.164 48.0347 92.4093 47.7413 92.5693 47.368H93.2253C93.0226 47.9013 92.6973 48.3147 92.2493 48.608C91.8013 48.9013 91.268 49.048 90.6493 49.048C90.1373 49.048 89.6733 48.928 89.2573 48.688C88.8413 48.4427 88.5133 48.104 88.2733 47.672C88.0333 47.24 87.9133 46.7493 87.9133 46.2ZM96.2532 49.064C95.8425 49.064 95.4718 48.9733 95.1412 48.792C94.8158 48.6053 94.5572 48.344 94.3652 48.008C94.1785 47.6667 94.0852 47.2693 94.0852 46.816C94.0852 46.3627 94.1812 45.968 94.3732 45.632C94.5652 45.2907 94.8265 45.0293 95.1572 44.848C95.4878 44.6613 95.8585 44.568 96.2692 44.568C96.6798 44.568 97.0505 44.6613 97.3812 44.848C97.7172 45.0293 97.9785 45.2907 98.1652 45.632C98.3572 45.968 98.4532 46.3627 98.4532 46.816C98.4532 47.264 98.3572 47.6587 98.1652 48C97.9732 48.3413 97.7092 48.6053 97.3732 48.792C97.0372 48.9733 96.6638 49.064 96.2532 49.064ZM96.2532 48.576C96.5412 48.576 96.8078 48.512 97.0532 48.384C97.2985 48.2507 97.4958 48.0533 97.6452 47.792C97.7998 47.5253 97.8772 47.2 97.8772 46.816C97.8772 46.432 97.8025 46.1093 97.6532 45.848C97.5038 45.5813 97.3065 45.384 97.0612 45.256C96.8158 45.1227 96.5492 45.056 96.2612 45.056C95.9732 45.056 95.7065 45.1227 95.4612 45.256C95.2158 45.384 95.0185 45.5813 94.8692 45.848C94.7252 46.1093 94.6532 46.432 94.6532 46.816C94.6532 47.2 94.7252 47.5253 94.8692 47.792C95.0185 48.0533 95.2132 48.2507 95.4532 48.384C95.6985 48.512 95.9652 48.576 96.2532 48.576ZM101.522 44.552C102.045 44.552 102.471 44.7147 102.802 45.04C103.133 45.36 103.298 45.8267 103.298 46.44V49H102.746V46.504C102.746 46.0293 102.626 45.6667 102.386 45.416C102.151 45.1653 101.829 45.04 101.418 45.04C100.997 45.04 100.661 45.1733 100.41 45.44C100.159 45.7067 100.034 46.0987 100.034 46.616V49H99.474V44.632H100.034V45.376C100.173 45.1093 100.373 44.9067 100.634 44.768C100.895 44.624 101.191 44.552 101.522 44.552ZM105.264 45.104V47.816C105.264 48.0827 105.315 48.2667 105.416 48.368C105.518 48.4693 105.696 48.52 105.952 48.52H106.464V49H105.864C105.47 49 105.176 48.9093 104.984 48.728C104.792 48.5413 104.696 48.2373 104.696 47.816V45.104H104.088V44.632H104.696V43.536H105.264V44.632H106.464V45.104H105.264ZM107.948 45.408C108.071 45.136 108.257 44.9253 108.508 44.776C108.764 44.6267 109.076 44.552 109.444 44.552V45.136H109.292C108.887 45.136 108.561 45.2453 108.316 45.464C108.071 45.6827 107.948 46.048 107.948 46.56V49H107.388V44.632H107.948V45.408ZM110.03 46.808C110.03 46.36 110.118 45.968 110.294 45.632C110.476 45.2907 110.724 45.0293 111.038 44.848C111.358 44.6613 111.718 44.568 112.118 44.568C112.534 44.568 112.892 44.664 113.19 44.856C113.494 45.048 113.713 45.2933 113.846 45.592V44.632H114.406V49H113.846V48.032C113.708 48.3307 113.486 48.5787 113.182 48.776C112.884 48.968 112.526 49.064 112.11 49.064C111.716 49.064 111.358 48.9707 111.038 48.784C110.724 48.5973 110.476 48.3333 110.294 47.992C110.118 47.6507 110.03 47.256 110.03 46.808ZM113.846 46.816C113.846 46.464 113.774 46.1547 113.63 45.888C113.486 45.6213 113.289 45.416 113.038 45.272C112.793 45.128 112.521 45.056 112.222 45.056C111.913 45.056 111.636 45.1253 111.39 45.264C111.145 45.4027 110.95 45.6053 110.806 45.872C110.668 46.1333 110.598 46.4453 110.598 46.808C110.598 47.1653 110.668 47.48 110.806 47.752C110.95 48.0187 111.145 48.224 111.39 48.368C111.636 48.5067 111.913 48.576 112.222 48.576C112.521 48.576 112.793 48.504 113.038 48.36C113.289 48.216 113.486 48.0107 113.63 47.744C113.774 47.4773 113.846 47.168 113.846 46.816ZM115.429 46.816C115.429 46.3627 115.52 45.968 115.701 45.632C115.882 45.2907 116.133 45.0293 116.453 44.848C116.773 44.6613 117.138 44.568 117.549 44.568C118.088 44.568 118.53 44.7013 118.877 44.968C119.229 45.2347 119.456 45.5973 119.557 46.056H118.957C118.882 45.7413 118.72 45.496 118.469 45.32C118.224 45.1387 117.917 45.048 117.549 45.048C117.256 45.048 116.992 45.1147 116.757 45.248C116.522 45.3813 116.336 45.5813 116.197 45.848C116.064 46.1093 115.997 46.432 115.997 46.816C115.997 47.2 116.064 47.5253 116.197 47.792C116.336 48.0587 116.522 48.2587 116.757 48.392C116.992 48.5253 117.256 48.592 117.549 48.592C117.917 48.592 118.224 48.504 118.469 48.328C118.72 48.1467 118.882 47.896 118.957 47.576H119.557C119.456 48.024 119.229 48.384 118.877 48.656C118.525 48.928 118.082 49.064 117.549 49.064C117.138 49.064 116.773 48.9733 116.453 48.792C116.133 48.6053 115.882 48.344 115.701 48.008C115.52 47.6667 115.429 47.2693 115.429 46.816ZM121.319 45.104V47.816C121.319 48.0827 121.37 48.2667 121.471 48.368C121.573 48.4693 121.751 48.52 122.007 48.52H122.519V49H121.919C121.525 49 121.231 48.9093 121.039 48.728C120.847 48.5413 120.751 48.2373 120.751 47.816V45.104H120.143V44.632H120.751V43.536H121.319V44.632H122.519V45.104H121.319ZM128.878 47.672H126.334L125.846 49H125.254L127.294 43.48H127.926L129.958 49H129.366L128.878 47.672ZM128.71 47.208L127.606 44.184L126.502 47.208H128.71ZM134.641 44.632V49H134.081V48.232C133.953 48.504 133.755 48.712 133.489 48.856C133.222 49 132.923 49.072 132.593 49.072C132.07 49.072 131.643 48.912 131.313 48.592C130.982 48.2667 130.817 47.7973 130.817 47.184V44.632H131.369V47.12C131.369 47.5947 131.486 47.9573 131.721 48.208C131.961 48.4587 132.286 48.584 132.697 48.584C133.118 48.584 133.454 48.4507 133.705 48.184C133.955 47.9173 134.081 47.5253 134.081 47.008V44.632H134.641ZM135.663 46.808C135.663 46.36 135.754 45.968 135.935 45.632C136.117 45.2907 136.365 45.0293 136.679 44.848C136.999 44.6613 137.359 44.568 137.759 44.568C138.143 44.568 138.49 44.6613 138.799 44.848C139.109 45.0347 139.335 45.2773 139.479 45.576V43.08H140.039V49H139.479V48.024C139.346 48.328 139.127 48.5787 138.823 48.776C138.519 48.968 138.162 49.064 137.751 49.064C137.351 49.064 136.991 48.9707 136.671 48.784C136.357 48.5973 136.109 48.3333 135.927 47.992C135.751 47.6507 135.663 47.256 135.663 46.808ZM139.479 46.816C139.479 46.464 139.407 46.1547 139.263 45.888C139.119 45.6213 138.922 45.416 138.671 45.272C138.426 45.128 138.154 45.056 137.855 45.056C137.546 45.056 137.269 45.1253 137.023 45.264C136.778 45.4027 136.583 45.6053 136.439 45.872C136.301 46.1333 136.231 46.4453 136.231 46.808C136.231 47.1653 136.301 47.48 136.439 47.752C136.583 48.0187 136.778 48.224 137.023 48.368C137.269 48.5067 137.546 48.576 137.855 48.576C138.154 48.576 138.426 48.504 138.671 48.36C138.922 48.216 139.119 48.0107 139.263 47.744C139.407 47.4773 139.479 47.168 139.479 46.816ZM141.598 43.808C141.486 43.808 141.39 43.768 141.31 43.688C141.23 43.608 141.19 43.5093 141.19 43.392C141.19 43.2747 141.23 43.1787 141.31 43.104C141.39 43.024 141.486 42.984 141.598 42.984C141.71 42.984 141.806 43.024 141.886 43.104C141.966 43.1787 142.006 43.2747 142.006 43.392C142.006 43.5093 141.966 43.608 141.886 43.688C141.806 43.768 141.71 43.808 141.598 43.808ZM141.878 44.632V49H141.318V44.632H141.878ZM143.874 45.104V47.816C143.874 48.0827 143.925 48.2667 144.026 48.368C144.127 48.4693 144.306 48.52 144.562 48.52H145.074V49H144.474C144.079 49 143.786 48.9093 143.594 48.728C143.402 48.5413 143.306 48.2373 143.306 47.816V45.104H142.698V44.632H143.306V43.536H143.874V44.632H145.074V45.104H143.874Z" fill="white"/>
<path opacity="0.9" fill-rule="evenodd" clip-rule="evenodd" d="M46.1939 4V13.7896H43.3459V4H40.521V13.7896H37.6498V4.02282H34.8018V13.7896H31.9305V4.02282H29.1057V13.7896H20.0058V4.02282H17.1578V16.5963H46.1939V19.3803H14.2634V4H11.4385V22.2099H46.1939V25.108H43.3227H8.5673V4H5.71925V25.108H2.82489V4H0V49H2.82489V39.2333H5.6961V49H8.54414V39.2333H11.4153V48.9772H14.2402V39.2333H17.1346V48.9772H19.9595V39.2333H29.0593V48.9772H31.8842V36.4265H2.82489V33.6197H34.7786V49H37.6035V30.8129H2.82489V27.9148H5.71925H40.4978V49H43.3227V27.9148H46.1939V49H49.042V4H46.1939Z" fill="#3EF2CF"/>
<path d="M137.811 18.1346C133.633 18.1431 130.244 14.7578 130.236 10.5676C130.229 6.39382 133.632 2.99432 137.81 3.00001C142.004 3.00641 145.383 6.38244 145.384 10.5669C145.384 14.7514 142.007 18.126 137.811 18.1346ZM136.295 12.5273C135.721 11.9521 135.162 11.3903 134.601 10.8322C134.258 10.4916 133.792 10.4795 133.481 10.7966C133.175 11.108 133.194 11.5652 133.531 11.903C134.257 12.6318 134.985 13.3592 135.715 14.0852C136.076 14.445 136.511 14.445 136.873 14.0873C137.197 13.7673 137.518 13.4438 137.84 13.1217C139.25 11.7131 140.66 10.3039 142.072 8.8967C142.228 8.74098 142.342 8.56819 142.356 8.34279C142.376 8.03135 142.203 7.74409 141.92 7.61184C141.626 7.4739 141.3 7.52936 141.055 7.77253C140.4 8.42243 139.748 9.07588 139.096 9.72791C138.167 10.6558 137.239 11.5844 136.295 12.5273Z" fill="#3EF2CF"/>
</svg>
