<svg width="100%" height="100%" viewBox="0 0 210 50" fill="none" xmlns="http://www.w3.org/2000/svg">
<g clip-path="url(#clip0_203_21921)">
<path d="M52.5958 29.7161L43.3438 39.0021C42.9672 39.3809 42.7559 39.8934 42.7559 40.4276C42.7559 40.9618 42.9672 41.4742 43.3438 41.8531L50.4138 48.9331C50.9993 49.505 51.7853 49.8253 52.6038 49.8253C53.4223 49.8253 54.2083 49.505 54.7938 48.9331L76.4638 27.5451C76.7501 27.2626 76.9773 26.926 77.1325 26.555C77.2876 26.1839 77.3675 25.7858 77.3675 25.3836C77.3675 24.9814 77.2876 24.5833 77.1325 24.2122C76.9773 23.8412 76.7501 23.5046 76.4638 23.2221L54.7958 1.8531C54.2103 1.28114 53.4243 0.960937 52.6058 0.960938C51.7873 0.960938 51.0013 1.28114 50.4158 1.8531L43.3458 8.9331C42.9692 9.31194 42.7579 9.82442 42.7579 10.3586C42.7579 10.8928 42.9692 11.4052 43.3458 11.7841L52.5978 21.0701C53.1703 21.6352 53.6248 22.3084 53.9349 23.0505C54.2451 23.7927 54.4047 24.5891 54.4045 25.3935C54.4043 26.1979 54.2443 26.9942 53.9338 27.7363C53.6234 28.4783 53.1686 29.1513 52.5958 29.7161Z" fill="white"/>
<path d="M24.7727 29.7161L34.0247 39.0021C34.4013 39.3809 34.6127 39.8934 34.6127 40.4276C34.6127 40.9618 34.4013 41.4742 34.0247 41.8531L26.9547 48.9331C26.3692 49.505 25.5832 49.8253 24.7647 49.8253C23.9462 49.8253 23.1602 49.505 22.5747 48.9331L0.899719 27.5451C0.613485 27.2626 0.386212 26.926 0.231092 26.555C0.0759719 26.1839 -0.00390625 25.7858 -0.00390625 25.3836C-0.00390625 24.9814 0.0759719 24.5833 0.231092 24.2122C0.386212 23.8412 0.613485 23.5046 0.899719 23.2221L22.5737 1.8531C23.1592 1.28114 23.9452 0.960938 24.7637 0.960938C25.5822 0.960937 26.3682 1.28114 26.9537 1.8531L34.0237 8.9331C34.4003 9.31194 34.6117 9.82442 34.6117 10.3586C34.6117 10.8928 34.4003 11.4052 34.0237 11.7841L24.7727 21.0711C24.2003 21.636 23.7458 22.309 23.4355 23.0511C23.1253 23.7931 22.9656 24.5893 22.9656 25.3936C22.9656 26.1979 23.1253 26.9941 23.4355 27.7361C23.7458 28.4782 24.2003 29.1512 24.7727 29.7161Z" fill="white"/>
<path d="M27.2002 27.1597C26.7318 26.691 26.4688 26.0554 26.4688 25.3927C26.4688 24.7301 26.7318 24.0945 27.2002 23.6257L36.9182 13.9077C37.387 13.4394 38.0225 13.1763 38.6852 13.1763C39.3479 13.1763 39.9834 13.4394 40.4522 13.9077L50.1702 23.6257C50.6386 24.0945 50.9017 24.7301 50.9017 25.3927C50.9017 26.0554 50.6386 26.691 50.1702 27.1597L40.4512 36.8767C39.9824 37.3451 39.3469 37.6082 38.6842 37.6082C38.0216 37.6082 37.386 37.3451 36.9172 36.8767L27.2002 27.1597Z" fill="white"/>
<path d="M118.81 40.053H111.905L108.097 30.09C107.855 29.379 107.344 28.7908 106.674 28.451C105.939 28.1173 105.137 27.9588 104.33 27.988H100.103V40.053H93.6572V10.123H106.924C110.384 10.123 113.006 10.8797 114.792 12.393C115.702 13.2059 116.416 14.2146 116.88 15.3433C117.344 16.4719 117.546 17.6911 117.47 18.909C117.518 20.747 116.959 22.5495 115.88 24.038C114.765 25.5252 113.192 26.6038 111.402 27.107C112.306 27.3216 113.135 27.7738 113.805 28.4168C114.475 29.0598 114.96 29.8702 115.211 30.764L118.81 40.053ZM105.962 22.986C107.391 23.0946 108.819 22.7724 110.062 22.061C110.506 21.7073 110.856 21.2503 111.083 20.73C111.31 20.2097 111.405 19.6419 111.362 19.076C111.409 18.5159 111.314 17.9532 111.087 17.4391C110.86 16.925 110.508 16.476 110.062 16.133C108.829 15.3923 107.396 15.0543 105.962 15.166H100.019V22.985L105.962 22.986Z" fill="white"/>
<path d="M144.13 18.7409V40.0539H137.894V36.9009C137.249 37.9967 136.306 38.8861 135.174 39.4649C133.945 40.0952 132.579 40.4129 131.198 40.3899C129.469 40.4222 127.768 39.9552 126.298 39.0449C124.863 38.1009 123.719 36.7761 122.995 35.2189C122.184 33.3948 121.784 31.4148 121.823 29.4189C121.787 27.4095 122.187 25.4161 122.995 23.5759C123.717 21.969 124.878 20.599 126.345 19.6239C127.781 18.6671 129.474 18.1688 131.2 18.1949C132.586 18.1722 133.955 18.5051 135.176 19.1619C136.304 19.7649 137.245 20.6664 137.896 21.7679V18.7409H144.13ZM133.04 35.5559C133.724 35.5947 134.407 35.4698 135.034 35.1916C135.66 34.9133 136.21 34.4897 136.64 33.9559C137.563 32.5981 138.005 30.9703 137.896 29.3319C138.005 27.6938 137.562 26.0664 136.639 24.7089C136.216 24.1652 135.667 23.7321 135.041 23.4466C134.414 23.1612 133.727 23.0319 133.039 23.0699C132.341 23.0362 131.646 23.1714 131.012 23.4641C130.378 23.7568 129.825 24.1982 129.398 24.7509C128.459 26.1188 128.001 27.7604 128.098 29.4169C127.992 31.0418 128.434 32.6552 129.354 33.9989C129.808 34.5235 130.376 34.9367 131.016 35.2067C131.655 35.4766 132.347 35.5961 133.04 35.5559Z" fill="white"/>
<path d="M175.179 18.195C176.191 18.1158 177.208 18.2763 178.146 18.6634C179.084 19.0505 179.918 19.6533 180.579 20.423C181.779 21.8803 182.379 24.1223 182.379 27.149V40.054H176.06V27.354C176.152 26.2415 175.904 25.1274 175.348 24.159C175.073 23.8083 174.714 23.5322 174.305 23.3559C173.896 23.1796 173.448 23.1088 173.004 23.15C172.438 23.1199 171.872 23.2264 171.355 23.4604C170.837 23.6945 170.384 24.0493 170.032 24.495C169.272 25.6041 168.904 26.9356 168.986 28.278V40.048H162.666V27.348C162.754 26.2305 162.491 25.1136 161.913 24.153C161.645 23.8055 161.294 23.531 160.892 23.3546C160.49 23.1783 160.051 23.1059 159.613 23.144C159.041 23.1168 158.47 23.2244 157.947 23.458C157.423 23.6916 156.962 24.0447 156.599 24.489C155.84 25.5984 155.471 26.9297 155.553 28.272V40.042H149.231V24.836C149.245 22.7977 149.133 20.7605 148.896 18.736H154.838L155.215 21.931C155.819 20.7653 156.75 19.8013 157.893 19.157C159.128 18.4969 160.512 18.164 161.911 18.19C165.065 18.19 167.157 19.507 168.189 22.141C168.877 20.9454 169.875 19.9576 171.077 19.282C172.323 18.5584 173.739 18.183 175.179 18.195Z" fill="white"/>
<path d="M200.336 18.1947C202.062 18.1685 203.756 18.6668 205.192 19.6237C206.653 20.5938 207.801 21.9661 208.498 23.5747C209.333 25.4076 209.747 27.404 209.71 29.4177C209.75 31.4135 209.35 33.3936 208.539 35.2177C207.832 36.7865 206.683 38.1156 205.233 39.0427C203.763 39.9529 202.062 40.4198 200.333 40.3877C198.952 40.4108 197.587 40.0931 196.358 39.4627C195.233 38.8906 194.301 37.9986 193.68 36.8987V49.8257H187.36V24.8357C187.374 22.7975 187.262 20.7603 187.026 18.7357H192.969L193.387 22.2667C193.939 21.0118 194.877 19.9659 196.065 19.2817C197.366 18.5432 198.841 18.1678 200.336 18.1947ZM198.536 35.5557C199.216 35.5959 199.896 35.4762 200.521 35.2061C201.146 34.9361 201.7 34.5232 202.136 34.0007C203.056 32.6568 203.497 31.0434 203.391 29.4187C203.489 27.7621 203.031 26.1204 202.091 24.7527C201.682 24.202 201.144 23.7605 200.524 23.4673C199.903 23.1741 199.221 23.0383 198.535 23.0717C197.842 23.0368 197.15 23.1672 196.517 23.4522C195.884 23.7371 195.327 24.1685 194.893 24.7107C193.971 26.0687 193.529 27.6965 193.638 29.3347C193.529 30.9729 193.971 32.6007 194.893 33.9587C195.334 34.4906 195.893 34.912 196.526 35.1893C197.159 35.4666 197.848 35.5921 198.537 35.5557H198.536Z" fill="white"/>
</g>
<defs>
<clipPath id="clip0_203_21921">
<rect width="209.711" height="48.865" fill="white" transform="translate(0 0.960938)"/>
</clipPath>
</defs>
</svg>
