<svg width="464" height="609" viewBox="0 0 464 609" fill="none" xmlns="http://www.w3.org/2000/svg">
<path d="M157.907 190.727C157.767 190.352 144.469 152.845 184.191 119.758C223.462 87.0458 324.123 67.5034 377.224 91.57C402.382 102.969 414.284 123.637 428.066 147.567C443.527 174.412 461.049 204.83 502.192 230.266C578.583 277.476 721.679 216.926 723.117 216.31L724.427 219.366C722.977 219.99 578.301 281.214 500.443 233.097C458.593 207.23 440.841 176.416 425.186 149.23C411.69 125.797 400.036 105.561 375.85 94.5989C323.724 70.9774 224.888 90.188 186.318 122.315C148.382 153.911 160.895 189.22 161.025 189.573L157.907 190.732L157.907 190.727Z" fill="white"/>
<path fill-rule="evenodd" clip-rule="evenodd" d="M764.721 253.557C764.721 253.557 575.116 294.725 496.457 275.724C490.29 274.263 484.823 272.405 480.189 270.133C480.014 270.066 479.831 269.969 479.67 269.886C478.647 269.376 477.62 268.832 476.604 268.243C459.717 258.842 444.198 242.511 429.463 223.561C428.947 222.906 428.413 222.235 427.914 221.561C427.055 220.458 426.207 219.337 425.345 218.199C387.88 168.359 355.058 103.785 316.445 97.0729C295.805 93.4941 266.955 107.279 239.618 125.27C239.618 125.27 239.588 125.272 239.59 125.303C197.764 152.824 159.472 190.145 159.472 190.145L137.652 175.618C137.652 175.618 253.755 65.797 310.253 68.0593C366.749 70.3193 426.973 186.73 476.38 235.153C516.75 274.75 666.73 247.152 720.241 235.74C720.271 235.738 720.286 235.721 720.286 235.721C732.245 233.17 739.374 231.439 739.374 231.439L764.729 253.554L764.721 253.557Z" fill="#852EFF"/>
<path d="M217.927 140.681C217.886 140.645 217.853 140.607 217.824 140.558C210.145 128.339 199.178 124.217 199.068 124.179C198.78 124.072 198.632 123.756 198.737 123.471C198.845 123.183 199.161 123.034 199.446 123.139C199.558 123.18 210.872 127.423 218.762 139.969C218.928 140.227 218.847 140.572 218.587 140.732C218.375 140.866 218.108 140.839 217.927 140.681Z" fill="#263238"/>
<path d="M261.553 112.281C261.455 112.196 261.386 112.079 261.367 111.943C258.972 95.1345 248.802 90.3341 248.702 90.2849C248.421 90.159 248.302 89.831 248.426 89.5525C248.552 89.2763 248.878 89.1495 249.159 89.2754C249.6 89.4692 259.978 94.3369 262.462 111.786C262.505 112.091 262.295 112.37 261.992 112.412C261.826 112.438 261.667 112.386 261.548 112.282L261.553 112.281Z" fill="#263238"/>
<path d="M316.083 97.4873C315.95 97.3716 315.874 97.1908 315.9 97.0031C318.018 79.3117 304.061 68.7702 303.916 68.668C303.681 68.5008 303.618 68.1408 303.8 67.894C303.982 67.6471 304.328 67.5953 304.574 67.7771C304.722 67.8867 319.2 78.7872 316.999 97.1364C316.964 97.4395 316.688 97.6571 316.382 97.6195C316.267 97.6046 316.164 97.5581 316.083 97.4873Z" fill="#263238"/>
<path d="M342.867 111.197C342.642 110.991 342.623 110.636 342.829 110.41C353.438 98.8269 351.068 87.313 351.045 87.1974C350.982 86.8986 351.168 86.6031 351.469 86.5365C351.768 86.4727 352.063 86.6587 352.129 86.9598C352.237 87.4543 354.644 99.1541 343.649 111.159C343.445 111.382 343.095 111.396 342.87 111.2L342.867 111.197Z" fill="#263238"/>
<path d="M372.157 143.447C372.105 143.402 372.061 143.349 372.028 143.283C371.888 143.012 371.995 142.676 372.266 142.536C388.027 134.368 387.776 125.026 387.772 124.932C387.756 124.628 387.993 124.367 388.301 124.353C388.608 124.34 388.866 124.574 388.879 124.882C388.899 125.29 389.162 135.029 372.776 143.519C372.566 143.628 372.322 143.591 372.157 143.447Z" fill="#263238"/>
<path d="M405.969 191.881C405.925 191.843 405.887 191.8 405.858 191.746C405.7 191.484 405.786 191.144 406.048 190.986C423.341 180.619 421.324 168.292 421.3 168.166C421.244 167.864 421.444 167.575 421.748 167.521C422.05 167.465 422.339 167.669 422.392 167.968C422.489 168.502 424.563 181.18 406.619 191.938C406.409 192.064 406.144 192.034 405.969 191.881Z" fill="#263238"/>
<path d="M435.756 232.285L435.702 232.238C435.503 232.007 435.523 231.657 435.751 231.45C450.886 217.928 447.871 203.279 447.836 203.134C447.773 202.835 447.959 202.54 448.257 202.471C448.556 202.407 448.851 202.593 448.917 202.889C448.951 203.042 452.129 218.301 436.486 232.273C436.275 232.461 435.962 232.46 435.753 232.278L435.756 232.285Z" fill="#263238"/>
<path d="M463.169 259.873C463.131 259.84 463.1 259.804 463.07 259.763C462.902 259.507 462.97 259.161 463.226 258.993C476.759 250.041 478 237.235 478.009 237.104C478.037 236.799 478.302 236.572 478.607 236.6C478.914 236.619 479.141 236.889 479.111 237.197C479.099 237.33 477.832 250.653 463.834 259.919C463.622 260.059 463.348 260.034 463.164 259.874L463.169 259.873Z" fill="#263238"/>
<g>
<path fill-rule="evenodd" clip-rule="evenodd" d="M62.9588 209.102C62.9588 209.102 99.5168 254.725 148.775 270.759C148.775 270.759 108.56 215.95 62.9588 209.102Z" fill="#2D016C"/>
<path fill-rule="evenodd" clip-rule="evenodd" d="M107.967 237.523L85.0617 266.818L59.9286 305.869L73.8649 318.024L116.299 294.932L134.531 254.361C134.531 254.361 115.743 233.035 107.97 237.521L107.967 237.523Z" fill="#2D016C"/>
<path fill-rule="evenodd" clip-rule="evenodd" d="M71.241 208.548C71.241 208.548 45.4151 217.713 28.8691 232.415L10.4092 272.739L19.7596 280.895L58.3173 249.268L100.663 224.825C100.663 224.825 83.6155 211.564 71.2382 208.545L71.241 208.548Z" fill="#852EFF"/>
<path fill-rule="evenodd" clip-rule="evenodd" d="M134.176 254.057L124.994 245.337C131.184 267.855 131.966 283.877 125.689 301.162L84.3871 331.377L94.7499 340.416L142.258 319.54C142.258 319.54 149.357 284.426 141.973 260.857L134.179 254.059L134.176 254.057Z" fill="#491297"/>
<path fill-rule="evenodd" clip-rule="evenodd" d="M19.7615 280.897L49.5041 246.119L94.0488 220.45L100.665 224.827L58.3193 249.271L26.9647 285.219L19.7615 280.897Z" fill="#491297"/>
<path fill-rule="evenodd" clip-rule="evenodd" d="M69.8593 185.419C69.8593 185.419 120.856 189.71 168.779 254.694L148.775 270.759C148.775 270.759 109.885 220.049 62.9591 209.102L69.8593 185.419Z" fill="#491297"/>
<path fill-rule="evenodd" clip-rule="evenodd" d="M144.841 264.875C144.841 264.875 151.477 293.231 142.259 319.539L96.3585 341.818L91.3476 337.447L133.872 311.733C133.872 311.733 143.891 277.206 134.18 254.059L144.841 264.875Z" fill="#852EFF"/>
<path fill-rule="evenodd" clip-rule="evenodd" d="M69.8593 185.419C69.8593 185.419 110.804 169.32 137.652 175.618L159.472 190.146C159.472 190.146 172.509 219.104 168.782 254.696C168.782 254.696 121.62 203.999 69.862 185.422L69.8593 185.419Z" fill="#852EFF"/>
<path d="M28.5028 232.835C28.297 232.655 28.2504 232.343 28.4053 232.111C28.5741 231.857 28.9158 231.788 29.1742 231.956L49.81 245.66L57.4338 249.724C57.7159 249.865 57.8075 250.203 57.6628 250.472C57.5181 250.742 57.1811 250.844 56.9115 250.7L49.24 246.609L28.5001 232.833L28.5028 232.835Z" fill="#263238"/>
<path d="M141.889 319.958L133.489 312.139L125.246 301.5C125.056 301.259 125.104 300.909 125.346 300.724C125.591 300.537 125.933 300.587 126.122 300.824L134.304 311.395L142.63 319.135C142.853 319.344 142.867 319.694 142.658 319.917C142.451 320.138 142.111 320.156 141.887 319.96L141.889 319.958Z" fill="#263238"/>
<path fill-rule="evenodd" clip-rule="evenodd" d="M134.851 175.059L156.032 159.065C156.032 159.065 167.642 159.793 176.125 174.797L160.229 191.988C160.229 191.988 146.887 181.163 134.851 175.059Z" fill="#2D016C"/>
<path d="M69.4927 185.839C69.3276 185.695 69.258 185.458 69.3348 185.238C69.4376 184.951 69.7532 184.797 70.0403 184.899C70.5909 185.093 125.499 204.891 169.19 254.331C169.394 254.562 169.369 254.912 169.141 255.114C168.913 255.316 168.557 255.292 168.358 255.066C124.842 205.841 70.2161 186.141 69.6706 185.946C69.6003 185.923 69.5418 185.886 69.4903 185.841L69.4927 185.839Z" fill="#263238"/>
<path fill-rule="evenodd" clip-rule="evenodd" d="M135.691 225.208C132.226 229.181 126.202 229.595 122.234 226.134C118.265 222.672 117.857 216.648 121.322 212.675C124.787 208.703 130.811 208.288 134.779 211.75C138.748 215.211 139.156 221.236 135.691 225.208Z" fill="#263238"/>
<path fill-rule="evenodd" clip-rule="evenodd" d="M122.741 222.867C125.082 226.397 129.84 227.367 133.37 225.027C136.9 222.687 137.862 217.929 135.52 214.396C133.178 210.862 128.421 209.895 124.891 212.236C121.361 214.576 120.399 219.333 122.741 222.867Z" fill="white"/>
<path d="M38.2682 290.606L29.1953 291.729L31.0476 305.804L39.8156 304.713C39.86 304.833 39.9007 304.944 39.9451 305.064C41.4884 309.251 43.8473 312.89 46.7632 315.893L50.1222 328.565L54.4686 330.601L58.7274 323.535C62.981 325.013 67.5699 325.56 72.1697 325.032L74.9861 332.673L88.2224 327.845L85.406 320.204C89.2682 317.644 92.4238 314.272 94.7011 310.389L102.491 313.026L106.903 299.593L98.8538 296.868C99.121 292.715 98.5562 288.422 97.0166 284.245C96.9648 284.104 96.9093 283.954 96.8475 283.817L104.184 279.056L96.4509 267.126L88.8352 272.08C85.6576 269.195 81.9388 267.021 77.9149 265.675L78.7813 256.337L64.729 254.902L63.8446 264.406C61.8501 264.701 59.8624 265.198 57.8989 265.914C55.9354 266.631 54.0197 267.569 52.2703 268.651L45.4202 261.969L35.6312 272.101L42.4082 278.707C40.2462 282.321 38.8319 286.368 38.2981 290.595L38.2682 290.606ZM84.8967 288.666C88.2645 297.803 83.64 307.897 74.57 311.205C65.4999 314.514 55.413 309.787 52.0452 300.65C48.6774 291.513 53.3018 281.42 62.3719 278.111C71.4419 274.802 81.5289 279.529 84.8967 288.666Z" fill="white" stroke="#263238" stroke-linecap="round" stroke-linejoin="round"/>
<path d="M78.2379 256.552L73.8714 254.526L72.9998 263.809L77.3662 265.835L78.2379 256.552Z" fill="white" stroke="#263238" stroke-linecap="round" stroke-linejoin="round"/>
<path d="M40.7453 260.803L45.1093 262.829L49.2637 267.039L47.6192 267.44L40.7453 260.803Z" fill="white" stroke="#263238" stroke-linecap="round" stroke-linejoin="round"/>
<path d="M27.0902 304.432L31.4122 306.506L39.2354 305.568L37.3247 302.2L27.0902 304.432Z" fill="white" stroke="#263238" stroke-linecap="round" stroke-linejoin="round"/>
<path d="M33.9204 288.687L24.8474 289.81L26.6998 303.886L35.4677 302.794C35.5121 302.915 35.5529 303.025 35.5973 303.146C37.1405 307.333 39.4994 310.972 42.4154 313.974L38.0227 321.261L50.117 328.673L54.3758 321.606C58.6294 323.084 63.2183 323.631 67.8182 323.104L70.6345 330.745L83.8708 325.916L81.0544 318.275C84.9167 315.716 88.0722 312.343 90.3495 308.46L98.1398 311.097L102.551 297.664L94.5022 294.939C94.7695 290.786 94.2047 286.493 92.6651 282.316C92.6133 282.176 92.5577 282.025 92.496 281.888L99.8322 277.127L92.0993 265.197L84.4837 270.151C81.306 267.266 77.5872 265.092 73.5634 263.746L74.4297 254.409L60.3774 252.974L59.4931 262.477C57.4986 262.772 55.5109 263.269 53.5473 263.986C51.5838 264.702 49.6681 265.64 47.9187 266.722L41.0686 260.04L31.2797 270.172L38.0566 276.779C35.8946 280.392 34.4804 284.439 33.9466 288.666L33.9204 288.687ZM80.5488 286.748C83.9166 295.885 79.2922 305.978 70.2221 309.287C61.1521 312.595 51.0651 307.869 47.6973 298.732C44.3295 289.595 48.954 279.501 58.024 276.192C67.094 272.884 77.181 277.61 80.5488 286.748Z" fill="#852EFF" stroke="#263238" stroke-linecap="round" stroke-linejoin="round"/>
<path d="M84.26 325.101L88.5488 327.252L75.4269 332.165L71.1282 330.017L84.26 325.101Z" fill="white" stroke="#263238" stroke-linecap="round" stroke-linejoin="round"/>
<path d="M81.3049 317.557L85.7032 319.586L88.5488 327.143L84.1505 325.114L81.3049 317.557Z" fill="white" stroke="#263238" stroke-linecap="round" stroke-linejoin="round"/>
<path d="M102.471 296.711L106.825 298.742L102.407 312.141L98.0571 310.12L102.471 296.711Z" fill="white" stroke="#263238" stroke-linecap="round" stroke-linejoin="round"/>
<path d="M92.1249 281.284L96.4457 283.361L103.746 278.539L99.4251 276.461L92.1249 281.284Z" fill="white" stroke="#263238" stroke-linecap="round" stroke-linejoin="round"/>
<path d="M91.5123 264.743L95.9049 266.767L103.718 278.575L99.3251 276.551L91.5123 264.743Z" fill="white" stroke="#263238" stroke-linecap="round" stroke-linejoin="round"/>
</g>
</svg>
