<svg width="380" height="594" viewBox="0 0 380 594" fill="none" xmlns="http://www.w3.org/2000/svg">
<g clip-path="url(#clip0_423_3868)">
<path d="M232.706 201.486C232.894 201.133 251.008 165.7 215.981 127.678C181.351 90.0863 84.1339 57.4792 28.3301 74.3554C1.89122 82.3479 -12.625 101.272 -29.4329 123.182C-48.2895 147.761 -69.6587 175.611 -113.789 195.417C-195.723 232.174 -329.616 153.336 -330.961 152.537L-332.661 155.394C-331.306 156.203 -195.935 235.917 -112.427 198.453C-67.5397 178.313 -45.8898 150.101 -26.7963 125.209C-10.3372 103.754 3.87624 85.2253 29.294 77.5387C84.0726 60.9754 179.525 93.0138 213.536 129.932C246.989 166.242 229.943 199.6 229.767 199.932L232.705 201.491L232.706 201.486Z" fill="white"/>
<path fill-rule="evenodd" clip-rule="evenodd" d="M-377.102 183.991C-377.102 183.991 -194.554 249.73 -114.08 241.236C-107.775 240.599 -102.111 239.476 -97.2182 237.833C-97.0357 237.789 -96.8422 237.717 -96.6717 237.656C-95.5906 237.284 -94.5004 236.881 -93.4162 236.43C-75.4393 229.331 -57.9086 215.182 -40.8097 198.334C-40.2125 197.752 -39.5943 197.157 -39.011 196.555C-38.0142 195.575 -37.0265 194.575 -36.0227 193.56C7.67004 149.078 48.6967 89.3794 87.8574 87.8026C108.789 86.9685 135.575 104.427 160.31 125.856C160.31 125.856 160.34 125.862 160.333 125.892C198.178 158.673 231.231 200.705 231.231 200.705L254.771 189.172C254.771 189.172 154.115 65.0404 97.8097 59.855C41.5073 54.6676 -33.4985 162.15 -88.843 203.657C-134.069 237.602 -279.119 190.526 -330.665 172.177C-330.695 172.171 -330.707 172.153 -330.707 172.153C-342.226 168.051 -349.066 165.398 -349.066 165.398L-377.109 183.987L-377.102 183.991Z" fill="#0CAB5E"/>
<path d="M179.787 143.983C179.832 143.954 179.87 143.92 179.905 143.875C189.125 132.772 200.538 130.128 200.652 130.105C200.951 130.036 201.14 129.742 201.073 129.446C201.004 129.147 200.71 128.957 200.414 129.024C200.297 129.05 188.524 131.768 179.052 143.168C178.855 143.402 178.89 143.754 179.126 143.947C179.319 144.109 179.587 144.116 179.787 143.983Z" fill="#263238"/>
<path d="M140.273 110.095C140.381 110.024 140.465 109.917 140.502 109.784C145.086 93.4367 155.799 90.015 155.904 89.9795C156.2 89.8916 156.361 89.5821 156.275 89.2897C156.185 88.9993 155.88 88.8309 155.585 88.9187C155.122 89.0529 144.194 92.5138 139.437 109.485C139.354 109.782 139.526 110.086 139.821 110.167C139.982 110.215 140.147 110.184 140.278 110.096L140.273 110.095Z" fill="#263238"/>
<path d="M88.1614 88.2604C88.3081 88.1631 88.4071 87.9939 88.4065 87.8045C88.6332 69.9882 103.855 61.3731 104.011 61.2909C104.267 61.1561 104.376 60.8075 104.228 60.5388C104.08 60.2702 103.745 60.1734 103.476 60.3212C103.316 60.4104 87.5304 69.3129 87.2993 87.7921C87.2947 88.0972 87.5393 88.3492 87.8472 88.3521C87.9638 88.3525 88.0715 88.3199 88.1614 88.2604Z" fill="#263238"/>
<path d="M59.807 98.3297C60.0575 98.155 60.123 97.8053 59.9482 97.5545C50.9547 84.6769 54.8175 73.5744 54.8556 73.4629C54.9579 73.1751 54.812 72.8576 54.5223 72.752C54.2345 72.6494 53.9172 72.795 53.812 73.0848C53.6405 73.5608 49.7156 84.8426 59.0369 98.1887C59.2098 98.4365 59.5555 98.4964 59.804 98.3317L59.807 98.3297Z" fill="#263238"/>
<path d="M26.5319 126.449C26.5888 126.411 26.6397 126.365 26.6807 126.303C26.8557 126.053 26.7936 125.706 26.5439 125.531C11.9935 115.362 13.4704 106.135 13.4866 106.042C13.542 105.742 13.3413 105.452 13.0385 105.399C12.7356 105.345 12.4492 105.543 12.3957 105.846C12.3221 106.249 10.7816 115.868 25.9091 126.439C26.1021 126.574 26.3493 126.57 26.5319 126.449Z" fill="#263238"/>
<path fill-rule="evenodd" clip-rule="evenodd" d="M324.414 232.186C324.414 232.186 282.175 272.606 231.237 282.025C231.237 282.025 278.308 232.979 324.414 232.186Z" fill="#063A21"/>
<path fill-rule="evenodd" clip-rule="evenodd" d="M276.06 254.442L294.915 286.494L314.696 328.51L299.282 338.728L260.252 310.257L247.513 267.641C247.513 267.641 268.942 248.971 276.058 254.439L276.06 254.442Z" fill="#063A21"/>
<path fill-rule="evenodd" clip-rule="evenodd" d="M316.277 230.548C316.277 230.548 340.674 243.029 355.143 259.779L368.141 302.18L357.8 309.036L323.735 272.614L284.97 242.816C284.97 242.816 303.613 231.911 316.28 230.546L316.277 230.548Z" fill="#0CAB5E"/>
<path fill-rule="evenodd" clip-rule="evenodd" d="M247.904 267.387L258.153 259.95C249.057 281.459 246.175 297.239 250.124 315.199L287.096 350.582L275.635 358.18L231.283 331.239C231.283 331.239 228.863 295.497 239.281 273.103L247.901 267.389L247.904 267.387Z" fill="#137646"/>
<path fill-rule="evenodd" clip-rule="evenodd" d="M357.797 309.037L332.885 270.651L292.102 239.347L284.968 242.817L323.732 272.616L350.088 312.374L357.797 309.037Z" fill="#137646"/>
<path fill-rule="evenodd" clip-rule="evenodd" d="M320.687 207.801C320.687 207.801 269.569 205.351 213.518 263.469L231.236 282.025C231.236 282.025 276.455 236.868 324.414 232.186L320.687 207.801Z" fill="#137646"/>
<path fill-rule="evenodd" clip-rule="evenodd" d="M235.91 276.71C235.91 276.71 225.604 303.947 231.283 331.239L273.856 359.359L279.398 355.685L240.624 324.603C240.624 324.603 235.231 289.058 247.901 267.389L235.91 276.71Z" fill="#0CAB5E"/>
<path fill-rule="evenodd" clip-rule="evenodd" d="M320.687 207.801C320.687 207.801 282.215 186.458 254.772 189.172L231.231 200.704C231.231 200.704 214.5 227.697 213.515 263.471C213.515 263.471 266.933 219.414 320.684 207.803L320.687 207.801Z" fill="#0CAB5E"/>
<path d="M355.451 260.244C355.679 260.093 355.766 259.789 355.643 259.538C355.509 259.265 355.18 259.151 354.901 259.284L332.643 270.156L324.551 273.182C324.253 273.285 324.117 273.608 324.225 273.894C324.333 274.181 324.654 274.326 324.94 274.218L333.083 271.172L355.454 260.242L355.451 260.244Z" fill="#263238"/>
<path d="M231.594 331.702L240.95 325.056L250.52 315.593C250.739 315.378 250.738 315.025 250.522 314.81C250.305 314.592 249.959 314.597 249.74 314.807L240.239 324.211L230.968 330.789C230.719 330.966 230.66 331.312 230.837 331.561C231.013 331.807 231.348 331.869 231.596 331.705L231.594 331.702Z" fill="#263238"/>
<path fill-rule="evenodd" clip-rule="evenodd" d="M257.622 188.986L238.728 170.346C238.728 170.346 227.122 169.541 216.741 183.3L230.239 202.432C230.239 202.432 244.888 193.454 257.622 188.986Z" fill="#063A21"/>
<path d="M320.996 208.265C321.178 208.144 321.278 207.918 321.231 207.691C321.167 207.393 320.874 207.198 320.576 207.262C320.005 207.382 262.971 219.789 213.159 263.056C212.926 263.257 212.904 263.608 213.104 263.838C213.304 264.068 213.66 264.091 213.886 263.893C263.497 220.817 320.239 208.469 320.805 208.349C320.878 208.335 320.941 208.306 320.998 208.268L320.996 208.265Z" fill="#263238"/>
<path fill-rule="evenodd" clip-rule="evenodd" d="M250.196 238.59C253.108 242.984 259.026 244.186 263.415 241.276C267.804 238.367 269.001 232.448 266.088 228.055C263.176 223.661 257.258 222.458 252.869 225.368C248.48 228.278 247.283 234.196 250.196 238.59Z" fill="#263238"/>
<path fill-rule="evenodd" clip-rule="evenodd" d="M251.752 237.558C254.092 241.089 258.851 242.058 262.381 239.718C265.911 237.378 266.873 232.621 264.531 229.087C262.188 225.554 257.432 224.587 253.902 226.927C250.372 229.267 249.41 234.025 251.752 237.558Z" fill="white"/>
</g>
<defs>
<clipPath id="clip0_423_3868">
<rect width="569" height="511" fill="white" transform="matrix(-0.833494 0.552528 0.552528 0.833494 96.7578 -131)"/>
</clipPath>
</defs>
</svg>
