<svg width="100%" height="100%" viewBox="0 0 37 36" fill="inherit" xmlns="http://www.w3.org/2000/svg">
<g clip-path="url(#clip0_928_25973)">
<path d="M20.995 7.90155C22.66 7.01355 24.6865 5.53005 25.585 3.27105C25.8745 2.54205 25.7845 1.74405 25.336 1.08405C24.8755 0.404547 24.1135 -0.00195312 23.296 -0.00195312H13.204C12.388 -0.00195312 11.6245 0.404547 11.164 1.08405C10.7155 1.74405 10.6255 2.54205 10.9135 3.27105C11.812 5.53005 13.8385 7.01355 15.5035 7.90155C8.107 9.92955 1.75 19.6405 1.75 27.3745C1.75 32.1295 5.62 35.9995 10.375 35.9995H26.125C30.88 35.9995 34.75 32.1295 34.75 27.3745C34.75 19.6405 28.393 9.92955 20.995 7.90155ZM12.3085 2.71755C12.1675 2.36355 12.3085 2.06955 12.4045 1.92855C12.586 1.66005 12.8845 1.50105 13.204 1.50105H23.296C23.614 1.50105 23.914 1.66005 24.0955 1.92855C24.1915 2.07105 24.3325 2.36355 24.1915 2.71905C23.0095 5.69205 19.186 7.14705 18.25 7.46355C17.3125 7.14855 13.4965 5.70255 12.31 2.71755H12.3085ZM26.125 34.4995H10.375C6.4465 34.4995 3.25 31.303 3.25 27.3745C3.25 19.351 10.5235 8.99955 18.25 8.99955C25.9765 8.99955 33.25 19.351 33.25 27.3745C33.25 31.303 30.0535 34.4995 26.125 34.4995ZM24.25 26.0605C24.25 28.2325 22.483 29.9995 20.311 29.9995H19V32.2495C19 32.6635 18.664 32.9995 18.25 32.9995C17.836 32.9995 17.5 32.6635 17.5 32.2495V29.9995H16.111C14.6425 29.9995 13.2745 29.2105 12.5395 27.9385C12.331 27.58 12.454 27.121 12.8125 26.914C13.171 26.704 13.6285 26.8285 13.837 27.187C14.305 27.997 15.178 28.4995 16.111 28.4995H20.311C21.655 28.4995 22.75 27.406 22.75 26.0605C22.75 24.856 21.8875 23.8435 20.698 23.653L15.565 22.828C13.645 22.519 12.2515 20.884 12.2515 18.9385C12.2515 16.7665 14.0185 14.9995 16.1905 14.9995H17.5015V12.7495C17.5015 12.3355 17.8375 11.9995 18.2515 11.9995C18.6655 11.9995 19.0015 12.3355 19.0015 12.7495V14.9995H20.3905C21.8575 14.9995 23.227 15.79 23.962 17.062C24.1705 17.4205 24.0475 17.8795 23.689 18.0865C23.3275 18.2935 22.873 18.1705 22.6645 17.8135C22.1965 17.0035 21.3235 16.501 20.3905 16.501H16.1905C14.8465 16.501 13.7515 17.5945 13.7515 18.94C13.7515 20.1445 14.614 21.157 15.8035 21.3475L20.9365 22.1725C22.8565 22.4815 24.25 24.115 24.25 26.0605Z" fill="inherit"/>
</g>
<defs>
<clipPath id="clip0_928_25973">
<rect width="36" height="36" fill="white" transform="translate(0.25)"/>
</clipPath>
</defs>
</svg>
