<svg width="100%" height="100%" viewBox="0 0 24 24" fill="inherit" xmlns="http://www.w3.org/2000/svg">
<g id="Seciruty">
<path id="Vector" d="M20.212 2.722L12 0L3.788 2.722C2.719 3.077 2 4.071 2 5.195V11.859C2 18.468 9.159 22.562 11.354 23.659L11.98 23.972L12.63 23.71C15.447 22.577 22 19.165 22 11.967V5.195C22 4.071 21.281 3.078 20.212 2.722ZM3 11.858V5.194C3 4.502 3.443 3.889 4.103 3.671L11.5 1.219V22.609C9.161 21.392 3 17.636 3 11.859V11.858ZM21 11.966C21 18.365 15.24 21.534 12.5 22.679V1.219L19.897 3.671C20.556 3.89 21 4.502 21 5.194V11.966Z" fill="inherit"/>
</g>
</svg>
