<svg width="100%" height="100%" viewBox="0 0 1065 1089" fill="none" xmlns="http://www.w3.org/2000/svg">
<g filter="url(#filter0_d_505_54295)">
<path d="M532.5 93C532.5 93 603.713 106.262 757.97 143.102C903.809 177.837 955 191.731 955 191.731C955 191.731 883.787 289.83 912.909 556.13C937.026 775.906 746.139 844.112 532.5 962C318.861 844.112 127.974 775.906 152.091 556.13C181.213 289.83 110 191.731 110 191.731C110 191.731 161.191 177.837 307.03 143.102C461.287 106.262 532.5 93 532.5 93Z" fill="#131315"/>
</g>
<g filter="url(#filter1_d_505_54295)">
<path d="M746.647 165.052L746.763 164.565L746.647 165.052C815.946 181.541 862.76 191.833 892.25 198.004C906.996 201.089 917.41 203.144 924.14 204.428C927.504 205.07 929.948 205.519 931.55 205.808C932.242 205.932 932.778 206.027 933.163 206.094C933.065 206.246 932.952 206.425 932.823 206.63C932.33 207.417 931.613 208.601 930.711 210.196C928.907 213.386 926.365 218.221 923.402 224.81C917.478 237.989 909.873 258.186 903.136 286.283C889.663 342.48 879.661 430.275 893.504 556.735C899.225 608.819 892.194 651.895 875.28 688.964C858.365 726.036 831.551 757.132 797.658 785.229C746.685 827.487 679.773 862.912 606.55 901.679C582.437 914.446 557.639 927.574 532.5 941.429C507.361 927.574 482.563 914.446 458.45 901.679C385.227 862.912 318.315 827.487 267.342 785.229C233.449 757.132 206.635 726.036 189.72 688.964C172.806 651.895 165.775 608.819 171.496 556.735L170.999 556.68L171.496 556.735C185.339 430.275 175.337 342.48 161.864 286.283C155.127 258.186 147.522 237.989 141.598 224.81C138.635 218.221 136.093 213.386 134.289 210.196C133.387 208.601 132.67 207.417 132.177 206.63C132.048 206.425 131.935 206.246 131.837 206.094C132.222 206.027 132.758 205.932 133.45 205.808C135.052 205.519 137.496 205.07 140.86 204.428C147.59 203.144 158.004 201.089 172.75 198.004C202.24 191.833 249.054 181.541 318.353 165.052L318.353 165.052C391.648 147.564 445.215 134.673 480.457 126.153C498.078 121.893 511.119 118.727 519.754 116.625C524.071 115.574 527.288 114.789 529.424 114.267C530.493 114.006 531.292 113.811 531.823 113.681L532.42 113.534L532.5 113.515L532.58 113.534L533.177 113.681C533.708 113.811 534.507 114.006 535.576 114.267C537.712 114.789 540.929 115.574 545.246 116.625C553.881 118.727 566.922 121.893 584.543 126.153C619.785 134.673 673.352 147.564 746.647 165.052Z" stroke="url(#paint0_linear_505_54295)" shape-rendering="crispEdges"/>
</g>
<defs>
<filter id="filter0_d_505_54295" x="0" y="0" width="1065" height="1089" filterUnits="userSpaceOnUse" color-interpolation-filters="sRGB">
<feFlood flood-opacity="0" result="BackgroundImageFix"/>
<feColorMatrix in="SourceAlpha" type="matrix" values="0 0 0 0 0 0 0 0 0 0 0 0 0 0 0 0 0 0 127 0" result="hardAlpha"/>
<feOffset dy="17"/>
<feGaussianBlur stdDeviation="55"/>
<feComposite in2="hardAlpha" operator="out"/>
<feColorMatrix type="matrix" values="0 0 0 0 0 0 0 0 0 0 0 0 0 0 0 0 0 0 0.88 0"/>
<feBlend mode="normal" in2="BackgroundImageFix" result="effect1_dropShadow_505_54295"/>
<feBlend mode="normal" in="SourceGraphic" in2="effect1_dropShadow_505_54295" result="shape"/>
</filter>
<filter id="filter1_d_505_54295" x="111" y="93" width="843" height="869" filterUnits="userSpaceOnUse" color-interpolation-filters="sRGB">
<feFlood flood-opacity="0" result="BackgroundImageFix"/>
<feColorMatrix in="SourceAlpha" type="matrix" values="0 0 0 0 0 0 0 0 0 0 0 0 0 0 0 0 0 0 127 0" result="hardAlpha"/>
<feOffset/>
<feGaussianBlur stdDeviation="10"/>
<feComposite in2="hardAlpha" operator="out"/>
<feColorMatrix type="matrix" values="0 0 0 0 0.243137 0 0 0 0 0.94902 0 0 0 0 0.811765 0 0 0 0.88 0"/>
<feBlend mode="normal" in2="BackgroundImageFix" result="effect1_dropShadow_505_54295"/>
<feBlend mode="normal" in="SourceGraphic" in2="effect1_dropShadow_505_54295" result="shape"/>
</filter>
<linearGradient id="paint0_linear_505_54295" x1="532.5" y1="113" x2="532.5" y2="942" gradientUnits="userSpaceOnUse">
<stop stop-color="#3EF2CF"/>
<stop stop-color="#3EF2CF"/>
<stop offset="0.4" stop-color="#08382F"/>
<stop offset="0.605" stop-color="#092923"/>
<stop offset="1" stop-color="#3EF2CF"/>
</linearGradient>
</defs>
</svg>
