<svg width="100%" height="100%" viewBox="0 0 2361 2419" fill="none" xmlns="http://www.w3.org/2000/svg">
<g filter="url(#filter0_d_505_54287)">
<path d="M1180.5 93C1180.5 93 1360.93 126.56 1751.78 219.783C2121.29 307.68 2251 342.838 2251 342.838C2251 342.838 2070.57 591.078 2144.35 1264.95C2205.46 1821.09 1721.8 1993.69 1180.5 2292C639.197 1993.69 155.541 1821.09 216.646 1264.95C290.434 591.078 110 342.838 110 342.838C110 342.838 239.705 307.68 609.221 219.783C1000.07 126.56 1180.5 93 1180.5 93Z" fill="#131315"/>
</g>
<g filter="url(#filter1_d_505_54287)">
<path d="M1180.5 281C1180.5 281 1330.09 308.822 1654.12 386.105C1960.47 458.972 2068 488.119 2068 488.119C2068 488.119 1918.41 693.913 1979.58 1252.56C2030.24 1713.61 1629.27 1856.69 1180.5 2104C731.732 1856.69 330.756 1713.61 381.415 1252.56C442.589 693.913 293 488.119 293 488.119C293 488.119 400.532 458.972 706.88 386.105C1030.91 308.822 1180.5 281 1180.5 281Z" fill="#131315"/>
</g>
<g filter="url(#filter2_d_505_54287)">
<path d="M1180.5 470C1180.5 470 1299.24 492.053 1556.46 553.312C1799.64 611.07 1885 634.173 1885 634.173C1885 634.173 1766.26 797.295 1814.82 1240.11C1855.03 1605.56 1536.73 1718.97 1180.5 1915C824.267 1718.97 505.971 1605.56 546.184 1240.11C594.744 797.295 476 634.173 476 634.173C476 634.173 561.359 611.07 804.539 553.312C1061.76 492.053 1180.5 470 1180.5 470Z" fill="#131315"/>
</g>
<g filter="url(#filter3_d_505_54287)">
<path d="M1539.8 583.134L1539.92 582.647L1539.8 583.134C1656.04 610.84 1734.57 628.134 1784.04 638.502C1808.77 643.687 1826.24 647.139 1837.52 649.296C1843.17 650.374 1847.26 651.128 1849.95 651.613C1851.29 651.856 1852.29 652.031 1852.94 652.145C1853.02 652.159 1853.09 652.171 1853.16 652.183C1852.95 652.505 1852.67 652.947 1852.31 653.511C1851.49 654.829 1850.29 656.814 1848.78 659.49C1845.76 664.842 1841.5 672.956 1836.53 684.019C1826.6 706.144 1813.85 740.061 1802.56 787.254C1779.97 881.641 1763.19 1029.13 1786.41 1241.59L1786.9 1241.53L1786.41 1241.59C1796.01 1329.16 1784.21 1401.6 1755.81 1463.96C1727.41 1526.31 1682.39 1578.6 1625.51 1625.83C1539.97 1696.87 1427.69 1756.42 1304.85 1821.56C1264.35 1843.04 1222.71 1865.12 1180.5 1888.43C1138.29 1865.12 1096.65 1843.04 1056.15 1821.56C933.314 1756.42 821.027 1696.87 735.492 1625.83C678.612 1578.6 633.594 1526.31 605.192 1463.96C576.792 1401.6 564.991 1329.16 574.593 1241.59L574.096 1241.53L574.593 1241.59C597.81 1029.13 581.035 881.641 558.443 787.254C547.147 740.061 534.398 706.144 524.468 684.019C519.503 672.956 515.243 664.842 512.223 659.49C510.712 656.814 509.512 654.829 508.687 653.511C508.334 652.947 508.051 652.505 507.841 652.183C507.909 652.171 507.982 652.159 508.059 652.145C508.715 652.031 509.706 651.856 511.049 651.613C513.736 651.128 517.834 650.374 523.477 649.296C534.763 647.139 552.231 643.687 576.964 638.502C626.43 628.134 704.955 610.84 821.198 583.134L821.199 583.134C944.148 553.749 1034 532.087 1093.12 517.771C1122.68 510.613 1144.55 505.292 1159.04 501.76C1166.28 499.994 1171.68 498.675 1175.26 497.798C1177.05 497.36 1178.39 497.032 1179.28 496.813L1180.29 496.567L1180.5 496.515L1180.71 496.567L1181.72 496.813C1182.61 497.032 1183.95 497.36 1185.74 497.798C1189.32 498.675 1194.72 499.994 1201.96 501.76C1216.45 505.292 1238.32 510.613 1267.88 517.771C1327 532.087 1416.85 553.749 1539.8 583.134Z" stroke="#3EF2CF" stroke-opacity="0.84" shape-rendering="crispEdges"/>
</g>
<g filter="url(#filter4_d_505_54287)">
<path d="M1180.5 587C1180.5 587 1279.69 605.482 1494.56 656.82C1697.7 705.225 1769 724.587 1769 724.587C1769 724.587 1669.81 861.294 1710.37 1232.4C1743.96 1538.67 1478.08 1633.72 1180.5 1798C882.922 1633.72 617.036 1538.67 650.628 1232.4C691.193 861.294 592 724.587 592 724.587C592 724.587 663.305 705.225 866.443 656.82C1081.31 605.482 1180.5 587 1180.5 587Z" fill="#131315"/>
</g>
<g filter="url(#filter5_d_505_54287)">
<path d="M1180.5 676C1180.5 676 1265.37 691.765 1449.2 735.558C1622.99 776.848 1684 793.364 1684 793.364C1684 793.364 1599.13 909.977 1633.84 1226.53C1662.58 1487.79 1435.1 1568.86 1180.5 1709C925.903 1568.86 698.42 1487.79 727.16 1226.53C761.866 909.977 677 793.364 677 793.364C677 793.364 738.006 776.848 911.804 735.558C1095.63 691.765 1180.5 676 1180.5 676Z" fill="#131315"/>
</g>
<defs>
<filter id="filter0_d_505_54287" x="0" y="0" width="2361" height="2419" filterUnits="userSpaceOnUse" color-interpolation-filters="sRGB">
<feFlood flood-opacity="0" result="BackgroundImageFix"/>
<feColorMatrix in="SourceAlpha" type="matrix" values="0 0 0 0 0 0 0 0 0 0 0 0 0 0 0 0 0 0 127 0" result="hardAlpha"/>
<feOffset dy="17"/>
<feGaussianBlur stdDeviation="55"/>
<feComposite in2="hardAlpha" operator="out"/>
<feColorMatrix type="matrix" values="0 0 0 0 0 0 0 0 0 0 0 0 0 0 0 0 0 0 0.88 0"/>
<feBlend mode="normal" in2="BackgroundImageFix" result="effect1_dropShadow_505_54287"/>
<feBlend mode="normal" in="SourceGraphic" in2="effect1_dropShadow_505_54287" result="shape"/>
</filter>
<filter id="filter1_d_505_54287" x="183" y="188" width="1995" height="2043" filterUnits="userSpaceOnUse" color-interpolation-filters="sRGB">
<feFlood flood-opacity="0" result="BackgroundImageFix"/>
<feColorMatrix in="SourceAlpha" type="matrix" values="0 0 0 0 0 0 0 0 0 0 0 0 0 0 0 0 0 0 127 0" result="hardAlpha"/>
<feOffset dy="17"/>
<feGaussianBlur stdDeviation="55"/>
<feComposite in2="hardAlpha" operator="out"/>
<feColorMatrix type="matrix" values="0 0 0 0 0 0 0 0 0 0 0 0 0 0 0 0 0 0 0.88 0"/>
<feBlend mode="normal" in2="BackgroundImageFix" result="effect1_dropShadow_505_54287"/>
<feBlend mode="normal" in="SourceGraphic" in2="effect1_dropShadow_505_54287" result="shape"/>
</filter>
<filter id="filter2_d_505_54287" x="366" y="377" width="1629" height="1665" filterUnits="userSpaceOnUse" color-interpolation-filters="sRGB">
<feFlood flood-opacity="0" result="BackgroundImageFix"/>
<feColorMatrix in="SourceAlpha" type="matrix" values="0 0 0 0 0 0 0 0 0 0 0 0 0 0 0 0 0 0 127 0" result="hardAlpha"/>
<feOffset dy="17"/>
<feGaussianBlur stdDeviation="55"/>
<feComposite in2="hardAlpha" operator="out"/>
<feColorMatrix type="matrix" values="0 0 0 0 0 0 0 0 0 0 0 0 0 0 0 0 0 0 0.88 0"/>
<feBlend mode="normal" in2="BackgroundImageFix" result="effect1_dropShadow_505_54287"/>
<feBlend mode="normal" in="SourceGraphic" in2="effect1_dropShadow_505_54287" result="shape"/>
</filter>
<filter id="filter3_d_505_54287" x="471.5" y="460.5" width="1418" height="1464" filterUnits="userSpaceOnUse" color-interpolation-filters="sRGB">
<feFlood flood-opacity="0" result="BackgroundImageFix"/>
<feColorMatrix in="SourceAlpha" type="matrix" values="0 0 0 0 0 0 0 0 0 0 0 0 0 0 0 0 0 0 127 0" result="hardAlpha"/>
<feOffset/>
<feGaussianBlur stdDeviation="17.75"/>
<feComposite in2="hardAlpha" operator="out"/>
<feColorMatrix type="matrix" values="0 0 0 0 0.243137 0 0 0 0 0.94902 0 0 0 0 0.811765 0 0 0 1 0"/>
<feBlend mode="normal" in2="BackgroundImageFix" result="effect1_dropShadow_505_54287"/>
<feBlend mode="normal" in="SourceGraphic" in2="effect1_dropShadow_505_54287" result="shape"/>
</filter>
<filter id="filter4_d_505_54287" x="482" y="494" width="1397" height="1431" filterUnits="userSpaceOnUse" color-interpolation-filters="sRGB">
<feFlood flood-opacity="0" result="BackgroundImageFix"/>
<feColorMatrix in="SourceAlpha" type="matrix" values="0 0 0 0 0 0 0 0 0 0 0 0 0 0 0 0 0 0 127 0" result="hardAlpha"/>
<feOffset dy="17"/>
<feGaussianBlur stdDeviation="55"/>
<feComposite in2="hardAlpha" operator="out"/>
<feColorMatrix type="matrix" values="0 0 0 0 0 0 0 0 0 0 0 0 0 0 0 0 0 0 0.88 0"/>
<feBlend mode="normal" in2="BackgroundImageFix" result="effect1_dropShadow_505_54287"/>
<feBlend mode="normal" in="SourceGraphic" in2="effect1_dropShadow_505_54287" result="shape"/>
</filter>
<filter id="filter5_d_505_54287" x="567" y="583" width="1227" height="1253" filterUnits="userSpaceOnUse" color-interpolation-filters="sRGB">
<feFlood flood-opacity="0" result="BackgroundImageFix"/>
<feColorMatrix in="SourceAlpha" type="matrix" values="0 0 0 0 0 0 0 0 0 0 0 0 0 0 0 0 0 0 127 0" result="hardAlpha"/>
<feOffset dy="17"/>
<feGaussianBlur stdDeviation="55"/>
<feComposite in2="hardAlpha" operator="out"/>
<feColorMatrix type="matrix" values="0 0 0 0 0 0 0 0 0 0 0 0 0 0 0 0 0 0 0.88 0"/>
<feBlend mode="normal" in2="BackgroundImageFix" result="effect1_dropShadow_505_54287"/>
<feBlend mode="normal" in="SourceGraphic" in2="effect1_dropShadow_505_54287" result="shape"/>
</filter>
</defs>
</svg>
