<svg width="100%" height="100%" viewBox="0 0 26 19" fill="none" xmlns="http://www.w3.org/2000/svg">
<g clip-path="url(#clip0_506_4006)">
<path fill-rule="evenodd" clip-rule="evenodd" d="M19.0438 18.8227C19.0438 18.8227 18.995 18.7651 18.9114 18.666C18.6816 18.3937 18.1897 17.8074 17.7326 17.2415C17.6913 17.1903 17.6501 17.1392 17.609 17.0879C20.4571 16.2954 21.5439 14.5394 21.5439 14.5394C20.764 15.0454 20.0174 15.4202 19.3332 15.6924C19.2372 15.7305 19.1408 15.7673 19.0438 15.8028C17.957 16.2527 16.9133 16.5524 15.8916 16.7238C13.8044 17.1093 11.8913 17.0022 10.2608 16.7024C9.02151 16.4667 7.95623 16.1241 7.06498 15.7816C6.5649 15.5888 6.02141 15.3532 5.47776 15.0534C5.44721 15.0332 5.4166 15.0179 5.38599 15.0027L5.37993 14.9998L5.37984 14.9997L5.37977 14.9997C5.34727 14.9837 5.31473 14.9676 5.28219 14.9462C5.23879 14.9248 5.21695 14.9035 5.19526 14.8821C4.90176 14.7215 4.7061 14.597 4.62661 14.5448C4.60012 14.5274 4.58653 14.518 4.58653 14.518C4.58653 14.518 4.65175 14.6251 4.79271 14.7984C5.21564 15.3184 6.32034 16.4347 8.39109 17.045C7.73895 17.859 6.93451 18.8225 6.93451 18.8225C2.12975 18.6726 0.303711 15.5674 0.303711 15.5674C0.303711 8.67147 3.43431 3.08184 3.43431 3.08184C5.78225 1.34714 8.04459 0.94962 9.02902 0.859271C9.35715 0.829155 9.5433 0.833188 9.5433 0.833188L9.76074 1.09025C5.84752 2.2036 4.04304 3.89566 4.04304 3.89566C4.04304 3.89566 4.46337 3.66985 5.17864 3.34163C5.22632 3.31975 5.27532 3.29741 5.32558 3.27465C7.0703 2.51967 8.54599 2.17439 9.49581 2.02182C9.81242 1.97096 10.0706 1.94151 10.2608 1.92545C10.2764 1.92288 10.2917 1.9203 10.3067 1.91776L10.3077 1.91761H10.3077C10.4181 1.89902 10.5159 1.88255 10.6304 1.88255C12.0873 1.6956 13.5617 1.68125 15.022 1.8398C17.0872 2.07536 19.3048 2.67501 21.5657 3.89566C21.5657 3.89566 20.0563 2.48403 16.8223 1.38997C16.6002 1.31488 16.3769 1.24351 16.1524 1.17589L16.4568 0.833342C16.4568 0.833342 16.4684 0.833085 16.491 0.833171C16.8071 0.834475 19.2684 0.903321 21.9812 2.67557C22.18 2.80543 22.375 2.94096 22.5658 3.08201C22.5658 3.08201 25.3173 7.99463 25.6614 14.2908C25.6842 14.7105 25.6966 15.1364 25.6966 15.5674C25.6966 15.5674 23.8485 18.6726 19.0438 18.8226V18.8227ZM8.93457 8.82138C7.77287 8.82138 6.84052 9.76248 6.72851 10.9565C6.72098 11.0369 6.71721 11.1177 6.71722 11.1984C6.71722 12.5049 7.71711 13.5756 8.93457 13.5756C10.1739 13.5756 11.1521 12.5049 11.1521 11.1984C11.1739 9.89212 10.1739 8.82138 8.93472 8.82138H8.93457ZM16.8699 8.82138C15.7081 8.82138 14.7756 9.76248 14.6636 10.9565C14.656 11.0369 14.6523 11.1177 14.6523 11.1984C14.6523 12.5049 15.6524 13.5756 16.8699 13.5756C18.109 13.5756 19.0872 12.5049 19.0872 11.1984C19.0872 9.89212 18.109 8.82138 16.8699 8.82138Z" fill="white"/>
</g>
<defs>
<clipPath id="clip0_506_4006">
<rect width="25.3929" height="18" fill="white" transform="translate(0.303711 0.826172)"/>
</clipPath>
</defs>
</svg>
