<svg width="100%" height="100%" viewBox="0 0 20 25" fill="none" xmlns="http://www.w3.org/2000/svg">
<g clip-path="url(#clip0_506_3899)">
<path d="M0.666992 10.1165C0.666992 4.98559 4.8232 0.826172 9.95015 0.826172C15.0771 0.826172 19.2333 4.98559 19.2333 10.1165V23.4145C19.2333 24.1941 18.6018 24.8262 17.8226 24.8262H2.07767C1.29858 24.8262 0.666992 24.1941 0.666992 23.4145V10.1165Z" fill="white"/>
<path fill-rule="evenodd" clip-rule="evenodd" d="M18.1303 23.673V10.1436C18.1303 5.6091 14.468 1.93319 9.95015 1.93319C5.43235 1.93319 1.76994 5.6091 1.76994 10.1436V23.673C1.76994 23.6986 1.79052 23.7192 1.8159 23.7192H18.0844C18.1098 23.7192 18.1303 23.6986 18.1303 23.673ZM9.95015 0.826172C4.8232 0.826172 0.666992 4.99771 0.666992 10.1436V23.673C0.666992 24.3098 1.18137 24.8262 1.8159 24.8262H18.0844C18.719 24.8262 19.2333 24.3098 19.2333 23.673V10.1436C19.2333 4.99771 15.0771 0.826172 9.95015 0.826172Z" fill="white"/>
</g>
<defs>
<clipPath id="clip0_506_3899">
<rect width="18.6667" height="24" fill="white" transform="translate(0.666992 0.826172)"/>
</clipPath>
</defs>
</svg>
