<svg width="100%" height="100%" viewBox="0 0 22 25" fill="none" xmlns="http://www.w3.org/2000/svg">
<g clip-path="url(#clip0_506_1577)">
<path opacity="0.8" fill-rule="evenodd" clip-rule="evenodd" d="M21.4277 17.5103C21.4277 21.4593 18.1902 24.6607 14.1967 24.6607H0.538086V19.8938H14.1967C15.5279 19.8938 16.607 18.8267 16.607 17.5103C16.607 16.194 15.5279 15.1269 14.1967 15.1269H9.37599V10.36H14.1967C15.5279 10.36 16.607 9.29286 16.607 7.97652C16.607 6.66018 15.5279 5.59307 14.1967 5.59307H0.538086V0.826172H14.1967C18.1902 0.826172 21.4277 4.02749 21.4277 7.97652C21.4277 9.80785 20.7314 11.4784 19.5864 12.7434C20.7314 14.0084 21.4277 15.679 21.4277 17.5103Z" fill="white"/>
<path d="M0.538086 0.826172C7.19405 0.826172 12.5898 6.1617 12.5898 12.7434C12.5898 19.3251 7.19405 24.6607 0.538086 24.6607V19.8938C4.53167 19.8938 7.7691 16.6924 7.7691 12.7434C7.7691 8.79439 4.53167 5.59307 0.538086 5.59307V0.826172Z" fill="white"/>
</g>
<defs>
<clipPath id="clip0_506_1577">
<rect width="20.9231" height="24" fill="white" transform="translate(0.538086 0.826172)"/>
</clipPath>
</defs>
</svg>
