<svg width="100%" height="100%" viewBox="0 0 26 22" fill="none" xmlns="http://www.w3.org/2000/svg">
<path d="M1.85883 9.47172C1.85883 9.47172 13.0915 4.86183 16.9872 3.23857C18.4806 2.58932 23.545 0.511547 23.545 0.511547C23.545 0.511547 25.8825 -0.397401 25.6877 1.81014C25.6227 2.71917 25.1033 5.90063 24.5839 9.34187C23.8047 14.2116 22.9606 19.5357 22.9606 19.5357C22.9606 19.5357 22.8308 21.0291 21.727 21.2888C20.6232 21.5485 18.8052 20.3798 18.4806 20.12C18.2208 19.9253 13.6109 17.0035 11.9228 15.575C11.4683 15.1855 10.9489 14.4064 11.9877 13.4973C14.3251 11.3547 17.117 8.69262 18.8052 7.00449C19.5844 6.2253 20.3635 4.40731 17.117 6.61485C12.5071 9.79639 7.96213 12.7831 7.96213 12.7831C7.96213 12.7831 6.92324 13.4324 4.97541 12.848C3.02748 12.2637 0.754974 11.4845 0.754974 11.4845C0.754974 11.4845 -0.803224 10.5106 1.85883 9.47172Z" fill="white"/>
</svg>
