<svg width="216" height="217" viewBox="0 0 216 217" fill="none" xmlns="http://www.w3.org/2000/svg">
<g opacity="0.25">
<path d="M17.5574 14.6804C17.052 14.8746 16.5641 14.9612 16.0938 14.9402C15.628 14.909 15.2212 14.7795 14.8733 14.5517C14.5225 14.3166 14.2634 13.9916 14.096 13.5768L15.1618 13.1672C15.3361 13.5122 15.5992 13.76 15.9511 13.9106C16.3075 14.051 16.7348 14.0256 17.2329 13.8342C17.709 13.6512 18.0376 13.3905 18.2188 13.0519C18.4044 12.7031 18.4255 12.3419 18.2822 11.9682C18.1699 11.6752 17.998 11.468 17.7666 11.3468C17.5352 11.2255 17.2803 11.1637 17.0021 11.1613C16.7238 11.1589 16.3585 11.1816 15.9062 11.2293C15.3502 11.2917 14.893 11.316 14.5348 11.3023C14.1839 11.2858 13.8452 11.1806 13.5187 10.9866C13.1967 10.7825 12.9443 10.4423 12.7617 9.96603C12.6015 9.5484 12.5659 9.13758 12.6547 8.73357C12.7434 8.32956 12.9446 7.96646 13.258 7.64426C13.5788 7.31924 13.9883 7.06104 14.4864 6.86965C15.2043 6.59382 15.8591 6.54817 16.4509 6.73268C17.0501 6.91438 17.4928 7.29071 17.779 7.86168L16.6802 8.28386C16.5312 8.00486 16.279 7.80752 15.9237 7.69185C15.5656 7.56886 15.1631 7.5932 14.7163 7.76489C14.2987 7.92532 14.0003 8.1661 13.8208 8.48723C13.6386 8.80104 13.622 9.1521 13.7709 9.54043C13.8777 9.81885 14.0417 10.0164 14.263 10.1332C14.4915 10.2471 14.7376 10.3081 15.0012 10.3161C15.2694 10.3139 15.6347 10.2912 16.0972 10.248C16.656 10.1931 17.1159 10.1761 17.4769 10.1971C17.8352 10.2107 18.179 10.3182 18.5083 10.5195C18.8348 10.7135 19.0908 11.0523 19.2762 11.5359C19.4195 11.9095 19.4555 12.2992 19.3842 12.7049C19.3129 13.1106 19.1224 13.4907 18.8129 13.845C18.5033 14.1993 18.0848 14.4778 17.5574 14.6804ZM25.05 11.8015C24.3395 12.0745 23.628 12.1588 22.9156 12.0542C22.2003 11.9423 21.5567 11.6558 20.9849 11.1946C20.4175 10.7233 19.9905 10.1139 19.7039 9.36659C19.4173 8.61924 19.3287 7.8841 19.4381 7.16115C19.5519 6.42806 19.8387 5.78408 20.2982 5.2292C20.755 4.667 21.3386 4.24939 22.0492 3.97638C22.767 3.70055 23.4836 3.61858 24.1988 3.73045C24.9113 3.835 25.5498 4.11927 26.1143 4.58328C26.6789 5.04729 27.1059 5.65663 27.3953 6.4113C27.6847 7.16598 27.7747 7.90478 27.6653 8.62773C27.556 9.35068 27.2729 9.99326 26.8162 10.5555C26.3566 11.1103 25.7679 11.5257 25.05 11.8015ZM24.7171 10.9333C25.2518 10.7278 25.6838 10.4189 26.0132 10.0065C26.3498 9.59137 26.5505 9.10654 26.6152 8.55207C26.6872 7.99478 26.6066 7.41207 26.3734 6.80393C26.1374 6.18847 25.8077 5.70146 25.3845 5.34288C24.9657 4.97417 24.4962 4.74688 23.9758 4.66101C23.4554 4.57514 22.9242 4.63634 22.3821 4.84462C21.8401 5.05289 21.4044 5.36321 21.0751 5.77557C20.7457 6.18793 20.5451 6.67275 20.473 7.23004C20.4055 7.77719 20.4898 8.3585 20.7258 8.97396C20.959 9.58209 21.285 10.0705 21.7037 10.4392C22.1298 10.8051 22.603 11.031 23.1234 11.1169C23.6511 11.1999 24.1823 11.1387 24.7171 10.9333ZM33.6878 8.48259C32.9772 8.7556 32.2657 8.83984 31.5533 8.73529C30.838 8.62342 30.1945 8.33688 29.6226 7.87569C29.0552 7.40435 28.6283 6.79501 28.3417 6.04767C28.0551 5.30032 27.9664 4.56518 28.0758 3.84223C28.1897 3.10914 28.4764 2.46515 28.936 1.91028C29.3927 1.34808 29.9764 0.930471 30.6869 0.657459C31.4047 0.381632 32.1213 0.299656 32.8366 0.411529C33.549 0.516075 34.1875 0.800353 34.7521 1.26436C35.3166 1.72837 35.7436 2.33771 36.033 3.09238C36.3224 3.84705 36.4124 4.58586 36.3031 5.30881C36.1937 6.03176 35.9107 6.67434 35.4539 7.23654C34.9943 7.79141 34.4056 8.20676 33.6878 8.48259ZM33.3548 7.61435C33.8895 7.40889 34.3216 7.09998 34.6509 6.68762C34.9875 6.27245 35.1882 5.78762 35.2529 5.23315C35.325 4.67586 35.2444 4.09315 35.0111 3.48501C34.7751 2.86955 34.4455 2.38254 34.0222 2.02396C33.6035 1.65525 33.1339 1.42796 32.6135 1.34209C32.0931 1.25622 31.5619 1.31742 31.0198 1.5257C30.4778 1.73397 30.0421 2.04429 29.7128 2.45665C29.3835 2.86901 29.1828 3.35383 29.1107 3.91112C29.0432 4.45827 29.1275 5.03958 29.3635 5.65504C29.5967 6.26317 29.9227 6.75159 30.3414 7.12031C30.7675 7.48621 31.2407 7.71209 31.7611 7.79796C32.2889 7.88102 32.8201 7.81982 33.3548 7.61435ZM44.8451 4.10727L43.8453 4.49146L37.4846 -0.0629969L39.8238 6.03665L38.8239 6.42084L35.882 -1.25043L36.8819 -1.63462L43.2383 2.90885L40.9034 -3.17981L41.9032 -3.56399L44.8451 4.10727Z" fill="#666666"/>
<path d="M78.741 14.6804C78.2356 14.8746 77.7477 14.9612 77.2774 14.9402C76.8116 14.909 76.4047 14.7795 76.0568 14.5517C75.7061 14.3166 75.447 13.9916 75.2796 13.5768L76.3454 13.1672C76.5197 13.5122 76.7828 13.76 77.1347 13.9106C77.4911 14.051 77.9184 14.0256 78.4165 13.8342C78.8926 13.6512 79.2212 13.3905 79.4023 13.0519C79.588 12.7031 79.6091 12.3419 79.4658 11.9682C79.3534 11.6752 79.1816 11.468 78.9502 11.3468C78.7188 11.2255 78.4639 11.1637 78.1857 11.1613C77.9074 11.1589 77.5421 11.1816 77.0898 11.2293C76.5338 11.2917 76.0766 11.316 75.7184 11.3023C75.3675 11.2858 75.0288 11.1806 74.7023 10.9866C74.3803 10.7825 74.1279 10.4423 73.9453 9.96603C73.7851 9.5484 73.7494 9.13758 73.8382 8.73357C73.927 8.32956 74.1282 7.96646 74.4416 7.64426C74.7624 7.31924 75.1719 7.06104 75.67 6.86965C76.3878 6.59382 77.0427 6.54817 77.6345 6.73268C78.2337 6.91438 78.6764 7.29071 78.9626 7.86168L77.8638 8.28386C77.7148 8.00486 77.4626 7.80752 77.1073 7.69185C76.7492 7.56886 76.3467 7.5932 75.8999 7.76489C75.4823 7.92532 75.1839 8.1661 75.0044 8.48723C74.8222 8.80104 74.8056 9.1521 74.9545 9.54043C75.0613 9.81885 75.2253 10.0164 75.4465 10.1332C75.6751 10.2471 75.9212 10.3081 76.1848 10.3161C76.453 10.3139 76.8183 10.2912 77.2807 10.248C77.8396 10.1931 78.2995 10.1761 78.6605 10.1971C79.0188 10.2107 79.3625 10.3182 79.6919 10.5195C80.0184 10.7135 80.2744 11.0523 80.4598 11.5359C80.6031 11.9095 80.6391 12.2992 80.5678 12.7049C80.4965 13.1106 80.306 13.4907 79.9965 13.845C79.6869 14.1993 79.2684 14.4778 78.741 14.6804ZM86.2336 11.8015C85.5231 12.0745 84.8116 12.1588 84.0992 12.0542C83.3839 11.9423 82.7403 11.6558 82.1685 11.1946C81.6011 10.7233 81.1741 10.1139 80.8875 9.36659C80.6009 8.61924 80.5123 7.8841 80.6217 7.16115C80.7355 6.42806 81.0222 5.78408 81.4818 5.2292C81.9386 4.667 82.5222 4.24939 83.2327 3.97638C83.9506 3.70055 84.6672 3.61858 85.3824 3.73045C86.0949 3.835 86.7334 4.11927 87.2979 4.58328C87.8625 5.04729 88.2894 5.65663 88.5789 6.4113C88.8683 7.16598 88.9583 7.90478 88.8489 8.62773C88.7396 9.35068 88.4565 9.99326 87.9998 10.5555C87.5402 11.1103 86.9515 11.5257 86.2336 11.8015ZM85.9007 10.9333C86.4354 10.7278 86.8674 10.4189 87.1967 10.0065C87.5334 9.59137 87.7341 9.10654 87.7988 8.55207C87.8708 7.99478 87.7902 7.41207 87.557 6.80393C87.321 6.18847 86.9913 5.70146 86.5681 5.34288C86.1493 4.97417 85.6798 4.74688 85.1594 4.66101C84.639 4.57514 84.1078 4.63634 83.5657 4.84462C83.0237 5.05289 82.588 5.36321 82.2586 5.77557C81.9293 6.18793 81.7286 6.67275 81.6566 7.23004C81.5891 7.77719 81.6733 8.3585 81.9094 8.97396C82.1426 9.58209 82.4686 10.0705 82.8873 10.4392C83.3134 10.8051 83.7866 11.031 84.307 11.1169C84.8347 11.1999 85.3659 11.1387 85.9007 10.9333ZM94.8714 8.48259C94.1608 8.7556 93.4493 8.83984 92.7369 8.73529C92.0216 8.62342 91.3781 8.33688 90.8062 7.87569C90.2388 7.40435 89.8119 6.79501 89.5253 6.04767C89.2386 5.30032 89.15 4.56518 89.2594 3.84223C89.3733 3.10914 89.66 2.46515 90.1195 1.91028C90.5763 1.34808 91.1599 0.930471 91.8705 0.657459C92.5883 0.381632 93.3049 0.299656 94.0202 0.411529C94.7326 0.516075 95.3711 0.800353 95.9356 1.26436C96.5002 1.72837 96.9272 2.33771 97.2166 3.09238C97.506 3.84705 97.596 4.58586 97.4867 5.30881C97.3773 6.03176 97.0943 6.67434 96.6375 7.23654C96.1779 7.79141 95.5892 8.20676 94.8714 8.48259ZM94.5384 7.61435C95.0731 7.40889 95.5052 7.09998 95.8345 6.68762C96.1711 6.27245 96.3718 5.78762 96.4365 5.23315C96.5085 4.67586 96.428 4.09315 96.1947 3.48501C95.9587 2.86955 95.6291 2.38254 95.2058 2.02396C94.7871 1.65525 94.3175 1.42796 93.7971 1.34209C93.2767 1.25622 92.7455 1.31742 92.2034 1.5257C91.6614 1.73397 91.2257 2.04429 90.8964 2.45665C90.5671 2.86901 90.3664 3.35383 90.2943 3.91112C90.2268 4.45827 90.3111 5.03958 90.5471 5.65504C90.7803 6.26317 91.1063 6.75159 91.525 7.12031C91.9511 7.48621 92.4243 7.71209 92.9447 7.79796C93.4724 7.88102 94.0037 7.81982 94.5384 7.61435ZM106.029 4.10727L105.029 4.49146L98.6682 -0.0629969L101.007 6.03665L100.008 6.42084L97.0656 -1.25043L98.0655 -1.63462L104.422 2.90885L102.087 -3.17981L103.087 -3.56399L106.029 4.10727Z" fill="#666666"/>
<path d="M139.014 14.6804C138.509 14.8746 138.021 14.9612 137.551 14.9402C137.085 14.909 136.678 14.7795 136.33 14.5517C135.98 14.3166 135.72 13.9916 135.553 13.5768L136.619 13.1672C136.793 13.5122 137.056 13.76 137.408 13.9106C137.765 14.051 138.192 14.0256 138.69 13.8342C139.166 13.6512 139.495 13.3905 139.676 13.0519C139.861 12.7031 139.883 12.3419 139.739 11.9682C139.627 11.6752 139.455 11.468 139.224 11.3468C138.992 11.2255 138.737 11.1637 138.459 11.1613C138.181 11.1589 137.816 11.1816 137.363 11.2293C136.807 11.2917 136.35 11.316 135.992 11.3023C135.641 11.2858 135.302 11.1806 134.976 10.9866C134.654 10.7825 134.401 10.4423 134.219 9.96603C134.059 9.5484 134.023 9.13758 134.112 8.73357C134.2 8.32956 134.402 7.96646 134.715 7.64426C135.036 7.31924 135.445 7.06104 135.943 6.86965C136.661 6.59382 137.316 6.54817 137.908 6.73268C138.507 6.91438 138.95 7.29071 139.236 7.86168L138.137 8.28386C137.988 8.00486 137.736 7.80752 137.381 7.69185C137.023 7.56886 136.62 7.5932 136.173 7.76489C135.756 7.92532 135.457 8.1661 135.278 8.48723C135.096 8.80104 135.079 9.1521 135.228 9.54043C135.335 9.81885 135.499 10.0164 135.72 10.1332C135.949 10.2471 136.195 10.3081 136.458 10.3161C136.726 10.3139 137.092 10.2912 137.554 10.248C138.113 10.1931 138.573 10.1761 138.934 10.1971C139.292 10.2107 139.636 10.3182 139.965 10.5195C140.292 10.7135 140.548 11.0523 140.733 11.5359C140.877 11.9095 140.913 12.2992 140.841 12.7049C140.77 13.1106 140.579 13.4907 140.27 13.845C139.96 14.1993 139.542 14.4778 139.014 14.6804ZM146.507 11.8015C145.797 12.0745 145.085 12.1588 144.373 12.0542C143.657 11.9423 143.014 11.6558 142.442 11.1946C141.875 10.7233 141.448 10.1139 141.161 9.36659C140.874 8.61924 140.786 7.8841 140.895 7.16115C141.009 6.42806 141.296 5.78408 141.755 5.2292C142.212 4.667 142.796 4.24939 143.506 3.97638C144.224 3.70055 144.941 3.61858 145.656 3.73045C146.368 3.835 147.007 4.11927 147.571 4.58328C148.136 5.04729 148.563 5.65663 148.852 6.4113C149.142 7.16598 149.232 7.90478 149.122 8.62773C149.013 9.35068 148.73 9.99326 148.273 10.5555C147.814 11.1103 147.225 11.5257 146.507 11.8015ZM146.174 10.9333C146.709 10.7278 147.141 10.4189 147.47 10.0065C147.807 9.59137 148.008 9.10654 148.072 8.55207C148.144 7.99478 148.064 7.41207 147.83 6.80393C147.594 6.18847 147.265 5.70146 146.842 5.34288C146.423 4.97417 145.953 4.74688 145.433 4.66101C144.912 4.57514 144.381 4.63634 143.839 4.84462C143.297 5.05289 142.861 5.36321 142.532 5.77557C142.203 6.18793 142.002 6.67275 141.93 7.23004C141.863 7.77719 141.947 8.3585 142.183 8.97396C142.416 9.58209 142.742 10.0705 143.161 10.4392C143.587 10.8051 144.06 11.031 144.58 11.1169C145.108 11.1999 145.639 11.1387 146.174 10.9333ZM155.145 8.48259C154.434 8.7556 153.723 8.83984 153.01 8.73529C152.295 8.62342 151.652 8.33688 151.08 7.87569C150.512 7.40435 150.085 6.79501 149.799 6.04767C149.512 5.30032 149.423 4.56518 149.533 3.84223C149.647 3.10914 149.933 2.46515 150.393 1.91028C150.85 1.34808 151.433 0.930471 152.144 0.657459C152.862 0.381632 153.578 0.299656 154.294 0.411529C155.006 0.516075 155.645 0.800353 156.209 1.26436C156.774 1.72837 157.201 2.33771 157.49 3.09238C157.779 3.84705 157.869 4.58586 157.76 5.30881C157.651 6.03176 157.368 6.67434 156.911 7.23654C156.451 7.79141 155.863 8.20676 155.145 8.48259ZM154.812 7.61435C155.347 7.40889 155.779 7.09998 156.108 6.68762C156.445 6.27245 156.645 5.78762 156.71 5.23315C156.782 4.67586 156.701 4.09315 156.468 3.48501C156.232 2.86955 155.903 2.38254 155.479 2.02396C155.061 1.65525 154.591 1.42796 154.071 1.34209C153.55 1.25622 153.019 1.31742 152.477 1.5257C151.935 1.73397 151.499 2.04429 151.17 2.45665C150.84 2.86901 150.64 3.35383 150.568 3.91112C150.5 4.45827 150.585 5.03958 150.821 5.65504C151.054 6.26317 151.38 6.75159 151.798 7.12031C152.225 7.48621 152.698 7.71209 153.218 7.79796C153.746 7.88102 154.277 7.81982 154.812 7.61435ZM166.302 4.10727L165.302 4.49146L158.942 -0.0629969L161.281 6.03665L160.281 6.42084L157.339 -1.25043L158.339 -1.63462L164.695 2.90885L162.36 -3.17981L163.36 -3.56399L166.302 4.10727Z" fill="#666666"/>
<path d="M199.29 14.6804C198.784 14.8746 198.297 14.9612 197.826 14.9402C197.36 14.909 196.954 14.7795 196.606 14.5517C196.255 14.3166 195.996 13.9916 195.828 13.5768L196.894 13.1672C197.068 13.5122 197.332 13.76 197.684 13.9106C198.04 14.051 198.467 14.0256 198.965 13.8342C199.441 13.6512 199.77 13.3905 199.951 13.0519C200.137 12.7031 200.158 12.3419 200.015 11.9682C199.902 11.6752 199.73 11.468 199.499 11.3468C199.268 11.2255 199.013 11.1637 198.735 11.1613C198.456 11.1589 198.091 11.1816 197.639 11.2293C197.083 11.2917 196.625 11.316 196.267 11.3023C195.916 11.2858 195.578 11.1806 195.251 10.9866C194.929 10.7825 194.677 10.4423 194.494 9.96603C194.334 9.5484 194.298 9.13758 194.387 8.73357C194.476 8.32956 194.677 7.96646 194.99 7.64426C195.311 7.31924 195.721 7.06104 196.219 6.86965C196.937 6.59382 197.592 6.54817 198.183 6.73268C198.783 6.91438 199.225 7.29071 199.511 7.86168L198.413 8.28386C198.264 8.00486 198.011 7.80752 197.656 7.69185C197.298 7.56886 196.896 7.5932 196.449 7.76489C196.031 7.92532 195.733 8.1661 195.553 8.48723C195.371 8.80104 195.354 9.1521 195.503 9.54043C195.61 9.81885 195.774 10.0164 195.995 10.1332C196.224 10.2471 196.47 10.3081 196.734 10.3161C197.002 10.3139 197.367 10.2912 197.83 10.248C198.388 10.1931 198.848 10.1761 199.209 10.1971C199.568 10.2107 199.911 10.3182 200.241 10.5195C200.567 10.7135 200.823 11.0523 201.009 11.5359C201.152 11.9095 201.188 12.2992 201.117 12.7049C201.045 13.1106 200.855 13.4907 200.545 13.845C200.236 14.1993 199.817 14.4778 199.29 14.6804ZM206.782 11.8015C206.072 12.0745 205.36 12.1588 204.648 12.0542C203.933 11.9423 203.289 11.6558 202.717 11.1946C202.15 10.7233 201.723 10.1139 201.436 9.36659C201.15 8.61924 201.061 7.8841 201.17 7.16115C201.284 6.42806 201.571 5.78408 202.031 5.2292C202.487 4.667 203.071 4.24939 203.782 3.97638C204.499 3.70055 205.216 3.61858 205.931 3.73045C206.644 3.835 207.282 4.11927 207.847 4.58328C208.411 5.04729 208.838 5.65663 209.128 6.4113C209.417 7.16598 209.507 7.90478 209.398 8.62773C209.288 9.35068 209.005 9.99326 208.549 10.5555C208.089 11.1103 207.5 11.5257 206.782 11.8015ZM206.449 10.9333C206.984 10.7278 207.416 10.4189 207.746 10.0065C208.082 9.59137 208.283 9.10654 208.348 8.55207C208.42 7.99478 208.339 7.41207 208.106 6.80393C207.87 6.18847 207.54 5.70146 207.117 5.34288C206.698 4.97417 206.229 4.74688 205.708 4.66101C205.188 4.57514 204.657 4.63634 204.115 4.84462C203.572 5.05289 203.137 5.36321 202.807 5.77557C202.478 6.18793 202.277 6.67275 202.205 7.23004C202.138 7.77719 202.222 8.3585 202.458 8.97396C202.691 9.58209 203.017 10.0705 203.436 10.4392C203.862 10.8051 204.335 11.031 204.856 11.1169C205.384 11.1999 205.915 11.1387 206.449 10.9333ZM215.42 8.48259C214.71 8.7556 213.998 8.83984 213.286 8.73529C212.57 8.62342 211.927 8.33688 211.355 7.87569C210.788 7.40435 210.361 6.79501 210.074 6.04767C209.787 5.30032 209.699 4.56518 209.808 3.84223C209.922 3.10914 210.209 2.46515 210.668 1.91028C211.125 1.34808 211.709 0.930471 212.419 0.657459C213.137 0.381632 213.854 0.299656 214.569 0.411529C215.281 0.516075 215.92 0.800353 216.484 1.26436C217.049 1.72837 217.476 2.33771 217.765 3.09238C218.055 3.84705 218.145 4.58586 218.035 5.30881C217.926 6.03176 217.643 6.67434 217.186 7.23654C216.727 7.79141 216.138 8.20676 215.42 8.48259ZM215.087 7.61435C215.622 7.40889 216.054 7.09998 216.383 6.68762C216.72 6.27245 216.921 5.78762 216.985 5.23315C217.057 4.67586 216.977 4.09315 216.744 3.48501C216.508 2.86955 216.178 2.38254 215.755 2.02396C215.336 1.65525 214.866 1.42796 214.346 1.34209C213.826 1.25622 213.294 1.31742 212.752 1.5257C212.21 1.73397 211.775 2.04429 211.445 2.45665C211.116 2.86901 210.915 3.35383 210.843 3.91112C210.776 4.45827 210.86 5.03958 211.096 5.65504C211.329 6.26317 211.655 6.75159 212.074 7.12031C212.5 7.48621 212.973 7.71209 213.494 7.79796C214.021 7.88102 214.552 7.81982 215.087 7.61435ZM226.578 4.10727L225.578 4.49146L219.217 -0.0629969L221.556 6.03665L220.556 6.42084L217.614 -1.25043L218.614 -1.63462L224.971 2.90885L222.636 -3.17981L223.636 -3.56399L226.578 4.10727Z" fill="#666666"/>
<path d="M17.5574 97.2195C17.052 97.4137 16.5641 97.5003 16.0938 97.4792C15.628 97.4481 15.2212 97.3186 14.8733 97.0908C14.5225 96.8556 14.2634 96.5306 14.096 96.1158L15.1618 95.7063C15.3361 96.0513 15.5992 96.299 15.9511 96.4496C16.3075 96.5901 16.7348 96.5646 17.2329 96.3732C17.709 96.1903 18.0376 95.9295 18.2188 95.5909C18.4044 95.2422 18.4255 94.881 18.2822 94.5073C18.1699 94.2142 17.998 94.0071 17.7666 93.8858C17.5352 93.7646 17.2803 93.7028 17.0021 93.7004C16.7238 93.698 16.3585 93.7207 15.9062 93.7684C15.3502 93.8307 14.893 93.855 14.5348 93.8414C14.1839 93.8249 13.8452 93.7196 13.5187 93.5257C13.1967 93.3215 12.9443 92.9813 12.7617 92.5051C12.6015 92.0875 12.5659 91.6766 12.6547 91.2726C12.7434 90.8686 12.9446 90.5055 13.258 90.1833C13.5788 89.8583 13.9883 89.6001 14.4864 89.4087C15.2043 89.1329 15.8591 89.0872 16.4509 89.2717C17.0501 89.4534 17.4928 89.8298 17.779 90.4007L16.6802 90.8229C16.5312 90.5439 16.279 90.3466 15.9237 90.2309C15.5656 90.1079 15.1631 90.1323 14.7163 90.304C14.2987 90.4644 14.0003 90.7052 13.8208 91.0263C13.6386 91.3401 13.622 91.6912 13.7709 92.0795C13.8777 92.3579 14.0417 92.5555 14.263 92.6722C14.4915 92.7862 14.7376 92.8471 15.0012 92.8551C15.2694 92.853 15.6347 92.8303 16.0972 92.7871C16.656 92.7321 17.1159 92.7151 17.4769 92.7361C17.8352 92.7498 18.179 92.8573 18.5083 93.0586C18.8348 93.2526 19.0908 93.5914 19.2762 94.0749C19.4195 94.4486 19.4555 94.8383 19.3842 95.244C19.3129 95.6497 19.1224 96.0297 18.8129 96.384C18.5033 96.7384 18.0848 97.0169 17.5574 97.2195ZM25.05 94.3406C24.3395 94.6136 23.628 94.6978 22.9156 94.5933C22.2003 94.4814 21.5567 94.1949 20.9849 93.7337C20.4175 93.2623 19.9905 92.653 19.7039 91.9056C19.4173 91.1583 19.3287 90.4232 19.4381 89.7002C19.5519 88.9671 19.8387 88.3231 20.2982 87.7683C20.755 87.2061 21.3386 86.7885 22.0492 86.5154C22.767 86.2396 23.4836 86.1576 24.1988 86.2695C24.9113 86.3741 25.5498 86.6583 26.1143 87.1223C26.6789 87.5864 27.1059 88.1957 27.3953 88.9504C27.6847 89.705 27.7747 90.4438 27.6653 91.1668C27.556 91.8897 27.2729 92.5323 26.8162 93.0945C26.3566 93.6494 25.7679 94.0647 25.05 94.3406ZM24.7171 93.4723C25.2518 93.2669 25.6838 92.958 26.0132 92.5456C26.3498 92.1304 26.5505 91.6456 26.6152 91.0911C26.6872 90.5338 26.6066 89.9511 26.3734 89.343C26.1374 88.7275 25.8077 88.2405 25.3845 87.8819C24.9657 87.5132 24.4962 87.2859 23.9758 87.2001C23.4554 87.1142 22.9242 87.1754 22.3821 87.3837C21.8401 87.592 21.4044 87.9023 21.0751 88.3146C20.7457 88.727 20.5451 89.2118 20.473 89.7691C20.4055 90.3163 20.4898 90.8976 20.7258 91.513C20.959 92.1212 21.285 92.6096 21.7037 92.9783C22.1298 93.3442 22.603 93.5701 23.1234 93.6559C23.6511 93.739 24.1823 93.6778 24.7171 93.4723ZM33.6878 91.0217C32.9772 91.2947 32.2657 91.3789 31.5533 91.2744C30.838 91.1625 30.1945 90.8759 29.6226 90.4147C29.0552 89.9434 28.6283 89.3341 28.3417 88.5867C28.0551 87.8394 27.9664 87.1042 28.0758 86.3813C28.1897 85.6482 28.4764 85.0042 28.936 84.4493C29.3927 83.8871 29.9764 83.4695 30.6869 83.1965C31.4047 82.9207 32.1213 82.8387 32.8366 82.9506C33.549 83.0551 34.1875 83.3394 34.7521 83.8034C35.3166 84.2674 35.7436 84.8768 36.033 85.6314C36.3224 86.3861 36.4124 87.1249 36.3031 87.8479C36.1937 88.5708 35.9107 89.2134 35.4539 89.7756C34.9943 90.3305 34.4056 90.7458 33.6878 91.0217ZM33.3548 90.1534C33.8895 89.948 34.3216 89.639 34.6509 89.2267C34.9875 88.8115 35.1882 88.3267 35.2529 87.7722C35.325 87.2149 35.2444 86.6322 35.0111 86.0241C34.7751 85.4086 34.4455 84.9216 34.0222 84.563C33.6035 84.1943 33.1339 83.967 32.6135 83.8811C32.0931 83.7953 31.5619 83.8565 31.0198 84.0648C30.4778 84.273 30.0421 84.5834 29.7128 84.9957C29.3835 85.4081 29.1828 85.8929 29.1107 86.4502C29.0432 86.9973 29.1275 87.5786 29.3635 88.1941C29.5967 88.8022 29.9227 89.2907 30.3414 89.6594C30.7675 90.0253 31.2407 90.2512 31.7611 90.337C32.2889 90.4201 32.8201 90.3589 33.3548 90.1534ZM44.8451 86.6463L43.8453 87.0305L37.4846 82.4761L39.8238 88.5757L38.8239 88.9599L35.882 81.2886L36.8819 80.9044L43.2383 85.4479L40.9034 79.3593L41.9032 78.9751L44.8451 86.6463Z" fill="#666666"/>
<path d="M78.741 97.2195C78.2356 97.4137 77.7477 97.5003 77.2774 97.4792C76.8116 97.4481 76.4047 97.3186 76.0568 97.0908C75.7061 96.8556 75.447 96.5306 75.2796 96.1158L76.3454 95.7063C76.5197 96.0513 76.7828 96.299 77.1347 96.4496C77.4911 96.5901 77.9184 96.5646 78.4165 96.3732C78.8926 96.1903 79.2212 95.9295 79.4023 95.5909C79.588 95.2422 79.6091 94.881 79.4658 94.5073C79.3534 94.2142 79.1816 94.0071 78.9502 93.8858C78.7188 93.7646 78.4639 93.7028 78.1857 93.7004C77.9074 93.698 77.5421 93.7207 77.0898 93.7684C76.5338 93.8307 76.0766 93.855 75.7184 93.8414C75.3675 93.8249 75.0288 93.7196 74.7023 93.5257C74.3803 93.3215 74.1279 92.9813 73.9453 92.5051C73.7851 92.0875 73.7494 91.6766 73.8382 91.2726C73.927 90.8686 74.1282 90.5055 74.4416 90.1833C74.7624 89.8583 75.1719 89.6001 75.67 89.4087C76.3878 89.1329 77.0427 89.0872 77.6345 89.2717C78.2337 89.4534 78.6764 89.8298 78.9626 90.4007L77.8638 90.8229C77.7148 90.5439 77.4626 90.3466 77.1073 90.2309C76.7492 90.1079 76.3467 90.1323 75.8999 90.304C75.4823 90.4644 75.1839 90.7052 75.0044 91.0263C74.8222 91.3401 74.8056 91.6912 74.9545 92.0795C75.0613 92.3579 75.2253 92.5555 75.4465 92.6722C75.6751 92.7862 75.9212 92.8471 76.1848 92.8551C76.453 92.853 76.8183 92.8303 77.2807 92.7871C77.8396 92.7321 78.2995 92.7151 78.6605 92.7361C79.0188 92.7498 79.3625 92.8573 79.6919 93.0586C80.0184 93.2526 80.2744 93.5914 80.4598 94.0749C80.6031 94.4486 80.6391 94.8383 80.5678 95.244C80.4965 95.6497 80.306 96.0297 79.9965 96.384C79.6869 96.7384 79.2684 97.0169 78.741 97.2195ZM86.2336 94.3406C85.5231 94.6136 84.8116 94.6978 84.0992 94.5933C83.3839 94.4814 82.7403 94.1949 82.1685 93.7337C81.6011 93.2623 81.1741 92.653 80.8875 91.9056C80.6009 91.1583 80.5123 90.4232 80.6217 89.7002C80.7355 88.9671 81.0222 88.3231 81.4818 87.7683C81.9386 87.2061 82.5222 86.7885 83.2327 86.5154C83.9506 86.2396 84.6672 86.1576 85.3824 86.2695C86.0949 86.3741 86.7334 86.6583 87.2979 87.1223C87.8625 87.5864 88.2894 88.1957 88.5789 88.9504C88.8683 89.705 88.9583 90.4438 88.8489 91.1668C88.7396 91.8897 88.4565 92.5323 87.9998 93.0945C87.5402 93.6494 86.9515 94.0647 86.2336 94.3406ZM85.9007 93.4723C86.4354 93.2669 86.8674 92.958 87.1967 92.5456C87.5334 92.1304 87.7341 91.6456 87.7988 91.0911C87.8708 90.5338 87.7902 89.9511 87.557 89.343C87.321 88.7275 86.9913 88.2405 86.5681 87.8819C86.1493 87.5132 85.6798 87.2859 85.1594 87.2001C84.639 87.1142 84.1078 87.1754 83.5657 87.3837C83.0237 87.592 82.588 87.9023 82.2586 88.3146C81.9293 88.727 81.7286 89.2118 81.6566 89.7691C81.5891 90.3163 81.6733 90.8976 81.9094 91.513C82.1426 92.1212 82.4686 92.6096 82.8873 92.9783C83.3134 93.3442 83.7866 93.5701 84.307 93.6559C84.8347 93.739 85.3659 93.6778 85.9007 93.4723ZM94.8714 91.0217C94.1608 91.2947 93.4493 91.3789 92.7369 91.2744C92.0216 91.1625 91.3781 90.8759 90.8062 90.4147C90.2388 89.9434 89.8119 89.3341 89.5253 88.5867C89.2386 87.8394 89.15 87.1042 89.2594 86.3813C89.3733 85.6482 89.66 85.0042 90.1195 84.4493C90.5763 83.8871 91.1599 83.4695 91.8705 83.1965C92.5883 82.9207 93.3049 82.8387 94.0202 82.9506C94.7326 83.0551 95.3711 83.3394 95.9356 83.8034C96.5002 84.2674 96.9272 84.8768 97.2166 85.6314C97.506 86.3861 97.596 87.1249 97.4867 87.8479C97.3773 88.5708 97.0943 89.2134 96.6375 89.7756C96.1779 90.3305 95.5892 90.7458 94.8714 91.0217ZM94.5384 90.1534C95.0731 89.948 95.5052 89.639 95.8345 89.2267C96.1711 88.8115 96.3718 88.3267 96.4365 87.7722C96.5085 87.2149 96.428 86.6322 96.1947 86.0241C95.9587 85.4086 95.6291 84.9216 95.2058 84.563C94.7871 84.1943 94.3175 83.967 93.7971 83.8811C93.2767 83.7953 92.7455 83.8565 92.2034 84.0648C91.6614 84.273 91.2257 84.5834 90.8964 84.9957C90.5671 85.4081 90.3664 85.8929 90.2943 86.4502C90.2268 86.9973 90.3111 87.5786 90.5471 88.1941C90.7803 88.8022 91.1063 89.2907 91.525 89.6594C91.9511 90.0253 92.4243 90.2512 92.9447 90.337C93.4724 90.4201 94.0037 90.3589 94.5384 90.1534ZM106.029 86.6463L105.029 87.0305L98.6682 82.4761L101.007 88.5757L100.008 88.9599L97.0656 81.2886L98.0655 80.9044L104.422 85.4479L102.087 79.3593L103.087 78.9751L106.029 86.6463Z" fill="#666666"/>
<path d="M139.014 97.2195C138.509 97.4137 138.021 97.5003 137.551 97.4792C137.085 97.4481 136.678 97.3186 136.33 97.0908C135.98 96.8556 135.72 96.5306 135.553 96.1158L136.619 95.7063C136.793 96.0513 137.056 96.299 137.408 96.4496C137.765 96.5901 138.192 96.5646 138.69 96.3732C139.166 96.1903 139.495 95.9295 139.676 95.5909C139.861 95.2422 139.883 94.881 139.739 94.5073C139.627 94.2142 139.455 94.0071 139.224 93.8858C138.992 93.7646 138.737 93.7028 138.459 93.7004C138.181 93.698 137.816 93.7207 137.363 93.7684C136.807 93.8307 136.35 93.855 135.992 93.8414C135.641 93.8249 135.302 93.7196 134.976 93.5257C134.654 93.3215 134.401 92.9813 134.219 92.5051C134.059 92.0875 134.023 91.6766 134.112 91.2726C134.2 90.8686 134.402 90.5055 134.715 90.1833C135.036 89.8583 135.445 89.6001 135.943 89.4087C136.661 89.1329 137.316 89.0872 137.908 89.2717C138.507 89.4534 138.95 89.8298 139.236 90.4007L138.137 90.8229C137.988 90.5439 137.736 90.3466 137.381 90.2309C137.023 90.1079 136.62 90.1323 136.173 90.304C135.756 90.4644 135.457 90.7052 135.278 91.0263C135.096 91.3401 135.079 91.6912 135.228 92.0795C135.335 92.3579 135.499 92.5555 135.72 92.6722C135.949 92.7862 136.195 92.8471 136.458 92.8551C136.726 92.853 137.092 92.8303 137.554 92.7871C138.113 92.7321 138.573 92.7151 138.934 92.7361C139.292 92.7498 139.636 92.8573 139.965 93.0586C140.292 93.2526 140.548 93.5914 140.733 94.0749C140.877 94.4486 140.913 94.8383 140.841 95.244C140.77 95.6497 140.579 96.0297 140.27 96.384C139.96 96.7384 139.542 97.0169 139.014 97.2195ZM146.507 94.3406C145.797 94.6136 145.085 94.6978 144.373 94.5933C143.657 94.4814 143.014 94.1949 142.442 93.7337C141.875 93.2623 141.448 92.653 141.161 91.9056C140.874 91.1583 140.786 90.4232 140.895 89.7002C141.009 88.9671 141.296 88.3231 141.755 87.7683C142.212 87.2061 142.796 86.7885 143.506 86.5154C144.224 86.2396 144.941 86.1576 145.656 86.2695C146.368 86.3741 147.007 86.6583 147.571 87.1223C148.136 87.5864 148.563 88.1957 148.852 88.9504C149.142 89.705 149.232 90.4438 149.122 91.1668C149.013 91.8897 148.73 92.5323 148.273 93.0945C147.814 93.6494 147.225 94.0647 146.507 94.3406ZM146.174 93.4723C146.709 93.2669 147.141 92.958 147.47 92.5456C147.807 92.1304 148.008 91.6456 148.072 91.0911C148.144 90.5338 148.064 89.9511 147.83 89.343C147.594 88.7275 147.265 88.2405 146.842 87.8819C146.423 87.5132 145.953 87.2859 145.433 87.2001C144.912 87.1142 144.381 87.1754 143.839 87.3837C143.297 87.592 142.861 87.9023 142.532 88.3146C142.203 88.727 142.002 89.2118 141.93 89.7691C141.863 90.3163 141.947 90.8976 142.183 91.513C142.416 92.1212 142.742 92.6096 143.161 92.9783C143.587 93.3442 144.06 93.5701 144.58 93.6559C145.108 93.739 145.639 93.6778 146.174 93.4723ZM155.145 91.0217C154.434 91.2947 153.723 91.3789 153.01 91.2744C152.295 91.1625 151.652 90.8759 151.08 90.4147C150.512 89.9434 150.085 89.3341 149.799 88.5867C149.512 87.8394 149.423 87.1042 149.533 86.3813C149.647 85.6482 149.933 85.0042 150.393 84.4493C150.85 83.8871 151.433 83.4695 152.144 83.1965C152.862 82.9207 153.578 82.8387 154.294 82.9506C155.006 83.0551 155.645 83.3394 156.209 83.8034C156.774 84.2674 157.201 84.8768 157.49 85.6314C157.779 86.3861 157.869 87.1249 157.76 87.8479C157.651 88.5708 157.368 89.2134 156.911 89.7756C156.451 90.3305 155.863 90.7458 155.145 91.0217ZM154.812 90.1534C155.347 89.948 155.779 89.639 156.108 89.2267C156.445 88.8115 156.645 88.3267 156.71 87.7722C156.782 87.2149 156.701 86.6322 156.468 86.0241C156.232 85.4086 155.903 84.9216 155.479 84.563C155.061 84.1943 154.591 83.967 154.071 83.8811C153.55 83.7953 153.019 83.8565 152.477 84.0648C151.935 84.273 151.499 84.5834 151.17 84.9957C150.84 85.4081 150.64 85.8929 150.568 86.4502C150.5 86.9973 150.585 87.5786 150.821 88.1941C151.054 88.8022 151.38 89.2907 151.798 89.6594C152.225 90.0253 152.698 90.2512 153.218 90.337C153.746 90.4201 154.277 90.3589 154.812 90.1534ZM166.302 86.6463L165.302 87.0305L158.942 82.4761L161.281 88.5757L160.281 88.9599L157.339 81.2886L158.339 80.9044L164.695 85.4479L162.36 79.3593L163.36 78.9751L166.302 86.6463Z" fill="#666666"/>
<path d="M199.29 97.2195C198.784 97.4137 198.297 97.5003 197.826 97.4792C197.36 97.4481 196.954 97.3186 196.606 97.0908C196.255 96.8556 195.996 96.5306 195.828 96.1158L196.894 95.7063C197.068 96.0513 197.332 96.299 197.684 96.4496C198.04 96.5901 198.467 96.5646 198.965 96.3732C199.441 96.1903 199.77 95.9295 199.951 95.5909C200.137 95.2422 200.158 94.881 200.015 94.5073C199.902 94.2142 199.73 94.0071 199.499 93.8858C199.268 93.7646 199.013 93.7028 198.735 93.7004C198.456 93.698 198.091 93.7207 197.639 93.7684C197.083 93.8307 196.625 93.855 196.267 93.8414C195.916 93.8249 195.578 93.7196 195.251 93.5257C194.929 93.3215 194.677 92.9813 194.494 92.5051C194.334 92.0875 194.298 91.6766 194.387 91.2726C194.476 90.8686 194.677 90.5055 194.99 90.1833C195.311 89.8583 195.721 89.6001 196.219 89.4087C196.937 89.1329 197.592 89.0872 198.183 89.2717C198.783 89.4534 199.225 89.8298 199.511 90.4007L198.413 90.8229C198.264 90.5439 198.011 90.3466 197.656 90.2309C197.298 90.1079 196.896 90.1323 196.449 90.304C196.031 90.4644 195.733 90.7052 195.553 91.0263C195.371 91.3401 195.354 91.6912 195.503 92.0795C195.61 92.3579 195.774 92.5555 195.995 92.6722C196.224 92.7862 196.47 92.8471 196.734 92.8551C197.002 92.853 197.367 92.8303 197.83 92.7871C198.388 92.7321 198.848 92.7151 199.209 92.7361C199.568 92.7498 199.911 92.8573 200.241 93.0586C200.567 93.2526 200.823 93.5914 201.009 94.0749C201.152 94.4486 201.188 94.8383 201.117 95.244C201.045 95.6497 200.855 96.0297 200.545 96.384C200.236 96.7384 199.817 97.0169 199.29 97.2195ZM206.782 94.3406C206.072 94.6136 205.36 94.6978 204.648 94.5933C203.933 94.4814 203.289 94.1949 202.717 93.7337C202.15 93.2623 201.723 92.653 201.436 91.9056C201.15 91.1583 201.061 90.4232 201.17 89.7002C201.284 88.9671 201.571 88.3231 202.031 87.7683C202.487 87.2061 203.071 86.7885 203.782 86.5154C204.499 86.2396 205.216 86.1576 205.931 86.2695C206.644 86.3741 207.282 86.6583 207.847 87.1223C208.411 87.5864 208.838 88.1957 209.128 88.9504C209.417 89.705 209.507 90.4438 209.398 91.1668C209.288 91.8897 209.005 92.5323 208.549 93.0945C208.089 93.6494 207.5 94.0647 206.782 94.3406ZM206.449 93.4723C206.984 93.2669 207.416 92.958 207.746 92.5456C208.082 92.1304 208.283 91.6456 208.348 91.0911C208.42 90.5338 208.339 89.9511 208.106 89.343C207.87 88.7275 207.54 88.2405 207.117 87.8819C206.698 87.5132 206.229 87.2859 205.708 87.2001C205.188 87.1142 204.657 87.1754 204.115 87.3837C203.572 87.592 203.137 87.9023 202.807 88.3146C202.478 88.727 202.277 89.2118 202.205 89.7691C202.138 90.3163 202.222 90.8976 202.458 91.513C202.691 92.1212 203.017 92.6096 203.436 92.9783C203.862 93.3442 204.335 93.5701 204.856 93.6559C205.384 93.739 205.915 93.6778 206.449 93.4723ZM215.42 91.0217C214.71 91.2947 213.998 91.3789 213.286 91.2744C212.57 91.1625 211.927 90.8759 211.355 90.4147C210.788 89.9434 210.361 89.3341 210.074 88.5867C209.787 87.8394 209.699 87.1042 209.808 86.3813C209.922 85.6482 210.209 85.0042 210.668 84.4493C211.125 83.8871 211.709 83.4695 212.419 83.1965C213.137 82.9207 213.854 82.8387 214.569 82.9506C215.281 83.0551 215.92 83.3394 216.484 83.8034C217.049 84.2674 217.476 84.8768 217.765 85.6314C218.055 86.3861 218.145 87.1249 218.035 87.8479C217.926 88.5708 217.643 89.2134 217.186 89.7756C216.727 90.3305 216.138 90.7458 215.42 91.0217ZM215.087 90.1534C215.622 89.948 216.054 89.639 216.383 89.2267C216.72 88.8115 216.921 88.3267 216.985 87.7722C217.057 87.2149 216.977 86.6322 216.744 86.0241C216.508 85.4086 216.178 84.9216 215.755 84.563C215.336 84.1943 214.866 83.967 214.346 83.8811C213.826 83.7953 213.294 83.8565 212.752 84.0648C212.21 84.273 211.775 84.5834 211.445 84.9957C211.116 85.4081 210.915 85.8929 210.843 86.4502C210.776 86.9973 210.86 87.5786 211.096 88.1941C211.329 88.8022 211.655 89.2907 212.074 89.6594C212.5 90.0253 212.973 90.2512 213.494 90.337C214.021 90.4201 214.552 90.3589 215.087 90.1534ZM226.578 86.6463L225.578 87.0305L219.217 82.4761L221.556 88.5757L220.556 88.9599L217.614 81.2886L218.614 80.9044L224.971 85.4479L222.636 79.3593L223.636 78.9751L226.578 86.6463Z" fill="#666666"/>
<path d="M17.5574 179.774C17.052 179.968 16.5641 180.055 16.0938 180.034C15.628 180.003 15.2212 179.873 14.8733 179.645C14.5225 179.41 14.2634 179.085 14.096 178.671L15.1618 178.261C15.3361 178.606 15.5992 178.854 15.9511 179.004C16.3075 179.145 16.7348 179.119 17.2329 178.928C17.709 178.745 18.0376 178.484 18.2188 178.146C18.4044 177.797 18.4255 177.436 18.2822 177.062C18.1699 176.769 17.998 176.562 17.7666 176.441C17.5352 176.319 17.2803 176.257 17.0021 176.255C16.7238 176.253 16.3585 176.275 15.9062 176.323C15.3502 176.385 14.893 176.41 14.5348 176.396C14.1839 176.38 13.8452 176.274 13.5187 176.08C13.1967 175.876 12.9443 175.536 12.7617 175.06C12.6015 174.642 12.5659 174.231 12.6547 173.827C12.7434 173.423 12.9446 173.06 13.258 172.738C13.5788 172.413 13.9883 172.155 14.4864 171.963C15.2043 171.688 15.8591 171.642 16.4509 171.826C17.0501 172.008 17.4928 172.384 17.779 172.955L16.6802 173.378C16.5312 173.099 16.279 172.901 15.9237 172.786C15.5656 172.663 15.1631 172.687 14.7163 172.859C14.2987 173.019 14.0003 173.26 13.8208 173.581C13.6386 173.895 13.622 174.246 13.7709 174.634C13.8777 174.913 14.0417 175.11 14.263 175.227C14.4915 175.341 14.7376 175.402 15.0012 175.41C15.2694 175.408 15.6347 175.385 16.0972 175.342C16.656 175.287 17.1159 175.27 17.4769 175.291C17.8352 175.304 18.179 175.412 18.5083 175.613C18.8348 175.807 19.0908 176.146 19.2762 176.63C19.4195 177.003 19.4555 177.393 19.3842 177.799C19.3129 178.204 19.1224 178.584 18.8129 178.939C18.5033 179.293 18.0848 179.572 17.5574 179.774ZM25.05 176.895C24.3395 177.168 23.628 177.253 22.9156 177.148C22.2003 177.036 21.5567 176.75 20.9849 176.288C20.4175 175.817 19.9905 175.208 19.7039 174.46C19.4173 173.713 19.3287 172.978 19.4381 172.255C19.5519 171.522 19.8387 170.878 20.2982 170.323C20.755 169.761 21.3386 169.343 22.0492 169.07C22.767 168.794 23.4836 168.712 24.1988 168.824C24.9113 168.929 25.5498 169.213 26.1143 169.677C26.6789 170.141 27.1059 170.75 27.3953 171.505C27.6847 172.26 27.7747 172.999 27.6653 173.721C27.556 174.444 27.2729 175.087 26.8162 175.649C26.3566 176.204 25.7679 176.619 25.05 176.895ZM24.7171 176.027C25.2518 175.822 25.6838 175.513 26.0132 175.1C26.3498 174.685 26.5505 174.2 26.6152 173.646C26.6872 173.089 26.6066 172.506 26.3734 171.898C26.1374 171.282 25.8077 170.795 25.3845 170.437C24.9657 170.068 24.4962 169.841 23.9758 169.755C23.4554 169.669 22.9242 169.73 22.3821 169.938C21.8401 170.147 21.4044 170.457 21.0751 170.869C20.7457 171.282 20.5451 171.767 20.473 172.324C20.4055 172.871 20.4898 173.452 20.7258 174.068C20.959 174.676 21.285 175.164 21.7037 175.533C22.1298 175.899 22.603 176.125 23.1234 176.211C23.6511 176.294 24.1823 176.232 24.7171 176.027ZM33.6878 173.576C32.9772 173.849 32.2657 173.934 31.5533 173.829C30.838 173.717 30.1945 173.431 29.6226 172.969C29.0552 172.498 28.6283 171.889 28.3417 171.141C28.0551 170.394 27.9664 169.659 28.0758 168.936C28.1897 168.203 28.4764 167.559 28.936 167.004C29.3927 166.442 29.9764 166.024 30.6869 165.751C31.4047 165.475 32.1213 165.393 32.8366 165.505C33.549 165.61 34.1875 165.894 34.7521 166.358C35.3166 166.822 35.7436 167.431 36.033 168.186C36.3224 168.941 36.4124 169.68 36.3031 170.403C36.1937 171.126 35.9107 171.768 35.4539 172.33C34.9943 172.885 34.4056 173.301 33.6878 173.576ZM33.3548 172.708C33.8895 172.503 34.3216 172.194 34.6509 171.781C34.9875 171.366 35.1882 170.881 35.2529 170.327C35.325 169.77 35.2444 169.187 35.0111 168.579C34.7751 167.963 34.4455 167.476 34.0222 167.118C33.6035 166.749 33.1339 166.522 32.6135 166.436C32.0931 166.35 31.5619 166.411 31.0198 166.619C30.4778 166.828 30.0421 167.138 29.7128 167.55C29.3835 167.963 29.1828 168.448 29.1107 169.005C29.0432 169.552 29.1275 170.133 29.3635 170.749C29.5967 171.357 29.9227 171.845 30.3414 172.214C30.7675 172.58 31.2407 172.806 31.7611 172.892C32.2889 172.975 32.8201 172.914 33.3548 172.708ZM44.8451 169.201L43.8453 169.585L37.4846 165.031L39.8238 171.13L38.8239 171.515L35.882 163.843L36.8819 163.459L43.2383 168.003L40.9034 161.914L41.9032 161.53L44.8451 169.201Z" fill="#666666"/>
<path d="M78.741 179.774C78.2356 179.968 77.7477 180.055 77.2774 180.034C76.8116 180.003 76.4047 179.873 76.0568 179.645C75.7061 179.41 75.447 179.085 75.2796 178.671L76.3454 178.261C76.5197 178.606 76.7828 178.854 77.1347 179.004C77.4911 179.145 77.9184 179.119 78.4165 178.928C78.8926 178.745 79.2212 178.484 79.4023 178.146C79.588 177.797 79.6091 177.436 79.4658 177.062C79.3534 176.769 79.1816 176.562 78.9502 176.441C78.7188 176.319 78.4639 176.257 78.1857 176.255C77.9074 176.253 77.5421 176.275 77.0898 176.323C76.5338 176.385 76.0766 176.41 75.7184 176.396C75.3675 176.38 75.0288 176.274 74.7023 176.08C74.3803 175.876 74.1279 175.536 73.9453 175.06C73.7851 174.642 73.7494 174.231 73.8382 173.827C73.927 173.423 74.1282 173.06 74.4416 172.738C74.7624 172.413 75.1719 172.155 75.67 171.963C76.3878 171.688 77.0427 171.642 77.6345 171.826C78.2337 172.008 78.6764 172.384 78.9626 172.955L77.8638 173.378C77.7148 173.099 77.4626 172.901 77.1073 172.786C76.7492 172.663 76.3467 172.687 75.8999 172.859C75.4823 173.019 75.1839 173.26 75.0044 173.581C74.8222 173.895 74.8056 174.246 74.9545 174.634C75.0613 174.913 75.2253 175.11 75.4465 175.227C75.6751 175.341 75.9212 175.402 76.1848 175.41C76.453 175.408 76.8183 175.385 77.2807 175.342C77.8396 175.287 78.2995 175.27 78.6605 175.291C79.0188 175.304 79.3625 175.412 79.6919 175.613C80.0184 175.807 80.2744 176.146 80.4598 176.63C80.6031 177.003 80.6391 177.393 80.5678 177.799C80.4965 178.204 80.306 178.584 79.9965 178.939C79.6869 179.293 79.2684 179.572 78.741 179.774ZM86.2336 176.895C85.5231 177.168 84.8116 177.253 84.0992 177.148C83.3839 177.036 82.7403 176.75 82.1685 176.288C81.6011 175.817 81.1741 175.208 80.8875 174.46C80.6009 173.713 80.5123 172.978 80.6217 172.255C80.7355 171.522 81.0222 170.878 81.4818 170.323C81.9386 169.761 82.5222 169.343 83.2327 169.07C83.9506 168.794 84.6672 168.712 85.3824 168.824C86.0949 168.929 86.7334 169.213 87.2979 169.677C87.8625 170.141 88.2894 170.75 88.5789 171.505C88.8683 172.26 88.9583 172.999 88.8489 173.721C88.7396 174.444 88.4565 175.087 87.9998 175.649C87.5402 176.204 86.9515 176.619 86.2336 176.895ZM85.9007 176.027C86.4354 175.822 86.8674 175.513 87.1967 175.1C87.5334 174.685 87.7341 174.2 87.7988 173.646C87.8708 173.089 87.7902 172.506 87.557 171.898C87.321 171.282 86.9913 170.795 86.5681 170.437C86.1493 170.068 85.6798 169.841 85.1594 169.755C84.639 169.669 84.1078 169.73 83.5657 169.938C83.0237 170.147 82.588 170.457 82.2586 170.869C81.9293 171.282 81.7286 171.767 81.6566 172.324C81.5891 172.871 81.6733 173.452 81.9094 174.068C82.1426 174.676 82.4686 175.164 82.8873 175.533C83.3134 175.899 83.7866 176.125 84.307 176.211C84.8347 176.294 85.3659 176.232 85.9007 176.027ZM94.8714 173.576C94.1608 173.849 93.4493 173.934 92.7369 173.829C92.0216 173.717 91.3781 173.431 90.8062 172.969C90.2388 172.498 89.8119 171.889 89.5253 171.141C89.2386 170.394 89.15 169.659 89.2594 168.936C89.3733 168.203 89.66 167.559 90.1195 167.004C90.5763 166.442 91.1599 166.024 91.8705 165.751C92.5883 165.475 93.3049 165.393 94.0202 165.505C94.7326 165.61 95.3711 165.894 95.9356 166.358C96.5002 166.822 96.9272 167.431 97.2166 168.186C97.506 168.941 97.596 169.68 97.4867 170.403C97.3773 171.126 97.0943 171.768 96.6375 172.33C96.1779 172.885 95.5892 173.301 94.8714 173.576ZM94.5384 172.708C95.0731 172.503 95.5052 172.194 95.8345 171.781C96.1711 171.366 96.3718 170.881 96.4365 170.327C96.5085 169.77 96.428 169.187 96.1947 168.579C95.9587 167.963 95.6291 167.476 95.2058 167.118C94.7871 166.749 94.3175 166.522 93.7971 166.436C93.2767 166.35 92.7455 166.411 92.2034 166.619C91.6614 166.828 91.2257 167.138 90.8964 167.55C90.5671 167.963 90.3664 168.448 90.2943 169.005C90.2268 169.552 90.3111 170.133 90.5471 170.749C90.7803 171.357 91.1063 171.845 91.525 172.214C91.9511 172.58 92.4243 172.806 92.9447 172.892C93.4724 172.975 94.0037 172.914 94.5384 172.708ZM106.029 169.201L105.029 169.585L98.6682 165.031L101.007 171.13L100.008 171.515L97.0656 163.843L98.0655 163.459L104.422 168.003L102.087 161.914L103.087 161.53L106.029 169.201Z" fill="#666666"/>
<path d="M139.014 179.774C138.509 179.968 138.021 180.055 137.551 180.034C137.085 180.003 136.678 179.873 136.33 179.645C135.98 179.41 135.72 179.085 135.553 178.671L136.619 178.261C136.793 178.606 137.056 178.854 137.408 179.004C137.765 179.145 138.192 179.119 138.69 178.928C139.166 178.745 139.495 178.484 139.676 178.146C139.861 177.797 139.883 177.436 139.739 177.062C139.627 176.769 139.455 176.562 139.224 176.441C138.992 176.319 138.737 176.257 138.459 176.255C138.181 176.253 137.816 176.275 137.363 176.323C136.807 176.385 136.35 176.41 135.992 176.396C135.641 176.38 135.302 176.274 134.976 176.08C134.654 175.876 134.401 175.536 134.219 175.06C134.059 174.642 134.023 174.231 134.112 173.827C134.2 173.423 134.402 173.06 134.715 172.738C135.036 172.413 135.445 172.155 135.943 171.963C136.661 171.688 137.316 171.642 137.908 171.826C138.507 172.008 138.95 172.384 139.236 172.955L138.137 173.378C137.988 173.099 137.736 172.901 137.381 172.786C137.023 172.663 136.62 172.687 136.173 172.859C135.756 173.019 135.457 173.26 135.278 173.581C135.096 173.895 135.079 174.246 135.228 174.634C135.335 174.913 135.499 175.11 135.72 175.227C135.949 175.341 136.195 175.402 136.458 175.41C136.726 175.408 137.092 175.385 137.554 175.342C138.113 175.287 138.573 175.27 138.934 175.291C139.292 175.304 139.636 175.412 139.965 175.613C140.292 175.807 140.548 176.146 140.733 176.63C140.877 177.003 140.913 177.393 140.841 177.799C140.77 178.204 140.579 178.584 140.27 178.939C139.96 179.293 139.542 179.572 139.014 179.774ZM146.507 176.895C145.797 177.168 145.085 177.253 144.373 177.148C143.657 177.036 143.014 176.75 142.442 176.288C141.875 175.817 141.448 175.208 141.161 174.46C140.874 173.713 140.786 172.978 140.895 172.255C141.009 171.522 141.296 170.878 141.755 170.323C142.212 169.761 142.796 169.343 143.506 169.07C144.224 168.794 144.941 168.712 145.656 168.824C146.368 168.929 147.007 169.213 147.571 169.677C148.136 170.141 148.563 170.75 148.852 171.505C149.142 172.26 149.232 172.999 149.122 173.721C149.013 174.444 148.73 175.087 148.273 175.649C147.814 176.204 147.225 176.619 146.507 176.895ZM146.174 176.027C146.709 175.822 147.141 175.513 147.47 175.1C147.807 174.685 148.008 174.2 148.072 173.646C148.144 173.089 148.064 172.506 147.83 171.898C147.594 171.282 147.265 170.795 146.842 170.437C146.423 170.068 145.953 169.841 145.433 169.755C144.912 169.669 144.381 169.73 143.839 169.938C143.297 170.147 142.861 170.457 142.532 170.869C142.203 171.282 142.002 171.767 141.93 172.324C141.863 172.871 141.947 173.452 142.183 174.068C142.416 174.676 142.742 175.164 143.161 175.533C143.587 175.899 144.06 176.125 144.58 176.211C145.108 176.294 145.639 176.232 146.174 176.027ZM155.145 173.576C154.434 173.849 153.723 173.934 153.01 173.829C152.295 173.717 151.652 173.431 151.08 172.969C150.512 172.498 150.085 171.889 149.799 171.141C149.512 170.394 149.423 169.659 149.533 168.936C149.647 168.203 149.933 167.559 150.393 167.004C150.85 166.442 151.433 166.024 152.144 165.751C152.862 165.475 153.578 165.393 154.294 165.505C155.006 165.61 155.645 165.894 156.209 166.358C156.774 166.822 157.201 167.431 157.49 168.186C157.779 168.941 157.869 169.68 157.76 170.403C157.651 171.126 157.368 171.768 156.911 172.33C156.451 172.885 155.863 173.301 155.145 173.576ZM154.812 172.708C155.347 172.503 155.779 172.194 156.108 171.781C156.445 171.366 156.645 170.881 156.71 170.327C156.782 169.77 156.701 169.187 156.468 168.579C156.232 167.963 155.903 167.476 155.479 167.118C155.061 166.749 154.591 166.522 154.071 166.436C153.55 166.35 153.019 166.411 152.477 166.619C151.935 166.828 151.499 167.138 151.17 167.55C150.84 167.963 150.64 168.448 150.568 169.005C150.5 169.552 150.585 170.133 150.821 170.749C151.054 171.357 151.38 171.845 151.798 172.214C152.225 172.58 152.698 172.806 153.218 172.892C153.746 172.975 154.277 172.914 154.812 172.708ZM166.302 169.201L165.302 169.585L158.942 165.031L161.281 171.13L160.281 171.515L157.339 163.843L158.339 163.459L164.695 168.003L162.36 161.914L163.36 161.53L166.302 169.201Z" fill="#666666"/>
<path d="M199.29 179.774C198.784 179.968 198.297 180.055 197.826 180.034C197.36 180.003 196.954 179.873 196.606 179.645C196.255 179.41 195.996 179.085 195.828 178.671L196.894 178.261C197.068 178.606 197.332 178.854 197.684 179.004C198.04 179.145 198.467 179.119 198.965 178.928C199.441 178.745 199.77 178.484 199.951 178.146C200.137 177.797 200.158 177.436 200.015 177.062C199.902 176.769 199.73 176.562 199.499 176.441C199.268 176.319 199.013 176.257 198.735 176.255C198.456 176.253 198.091 176.275 197.639 176.323C197.083 176.385 196.625 176.41 196.267 176.396C195.916 176.38 195.578 176.274 195.251 176.08C194.929 175.876 194.677 175.536 194.494 175.06C194.334 174.642 194.298 174.231 194.387 173.827C194.476 173.423 194.677 173.06 194.99 172.738C195.311 172.413 195.721 172.155 196.219 171.963C196.937 171.688 197.592 171.642 198.183 171.826C198.783 172.008 199.225 172.384 199.511 172.955L198.413 173.378C198.264 173.099 198.011 172.901 197.656 172.786C197.298 172.663 196.896 172.687 196.449 172.859C196.031 173.019 195.733 173.26 195.553 173.581C195.371 173.895 195.354 174.246 195.503 174.634C195.61 174.913 195.774 175.11 195.995 175.227C196.224 175.341 196.47 175.402 196.734 175.41C197.002 175.408 197.367 175.385 197.83 175.342C198.388 175.287 198.848 175.27 199.209 175.291C199.568 175.304 199.911 175.412 200.241 175.613C200.567 175.807 200.823 176.146 201.009 176.63C201.152 177.003 201.188 177.393 201.117 177.799C201.045 178.204 200.855 178.584 200.545 178.939C200.236 179.293 199.817 179.572 199.29 179.774ZM206.782 176.895C206.072 177.168 205.36 177.253 204.648 177.148C203.933 177.036 203.289 176.75 202.717 176.288C202.15 175.817 201.723 175.208 201.436 174.46C201.15 173.713 201.061 172.978 201.17 172.255C201.284 171.522 201.571 170.878 202.031 170.323C202.487 169.761 203.071 169.343 203.782 169.07C204.499 168.794 205.216 168.712 205.931 168.824C206.644 168.929 207.282 169.213 207.847 169.677C208.411 170.141 208.838 170.75 209.128 171.505C209.417 172.26 209.507 172.999 209.398 173.721C209.288 174.444 209.005 175.087 208.549 175.649C208.089 176.204 207.5 176.619 206.782 176.895ZM206.449 176.027C206.984 175.822 207.416 175.513 207.746 175.1C208.082 174.685 208.283 174.2 208.348 173.646C208.42 173.089 208.339 172.506 208.106 171.898C207.87 171.282 207.54 170.795 207.117 170.437C206.698 170.068 206.229 169.841 205.708 169.755C205.188 169.669 204.657 169.73 204.115 169.938C203.572 170.147 203.137 170.457 202.807 170.869C202.478 171.282 202.277 171.767 202.205 172.324C202.138 172.871 202.222 173.452 202.458 174.068C202.691 174.676 203.017 175.164 203.436 175.533C203.862 175.899 204.335 176.125 204.856 176.211C205.384 176.294 205.915 176.232 206.449 176.027ZM215.42 173.576C214.71 173.849 213.998 173.934 213.286 173.829C212.57 173.717 211.927 173.431 211.355 172.969C210.788 172.498 210.361 171.889 210.074 171.141C209.787 170.394 209.699 169.659 209.808 168.936C209.922 168.203 210.209 167.559 210.668 167.004C211.125 166.442 211.709 166.024 212.419 165.751C213.137 165.475 213.854 165.393 214.569 165.505C215.281 165.61 215.92 165.894 216.484 166.358C217.049 166.822 217.476 167.431 217.765 168.186C218.055 168.941 218.145 169.68 218.035 170.403C217.926 171.126 217.643 171.768 217.186 172.33C216.727 172.885 216.138 173.301 215.42 173.576ZM215.087 172.708C215.622 172.503 216.054 172.194 216.383 171.781C216.72 171.366 216.921 170.881 216.985 170.327C217.057 169.77 216.977 169.187 216.744 168.579C216.508 167.963 216.178 167.476 215.755 167.118C215.336 166.749 214.866 166.522 214.346 166.436C213.826 166.35 213.294 166.411 212.752 166.619C212.21 166.828 211.775 167.138 211.445 167.55C211.116 167.963 210.915 168.448 210.843 169.005C210.776 169.552 210.86 170.133 211.096 170.749C211.329 171.357 211.655 171.845 212.074 172.214C212.5 172.58 212.973 172.806 213.494 172.892C214.021 172.975 214.552 172.914 215.087 172.708ZM226.578 169.201L225.578 169.585L219.217 165.031L221.556 171.13L220.556 171.515L217.614 163.843L218.614 163.459L224.971 168.003L222.636 161.914L223.636 161.53L226.578 169.201Z" fill="#666666"/>
<path d="M-8.90352 55.9461C-9.40895 56.1403 -9.89682 56.2268 -10.3671 56.2058C-10.8329 56.1746 -11.2398 56.0451 -11.5877 55.8173C-11.9384 55.5822 -12.1975 55.2572 -12.365 54.8424L-11.2992 54.4329C-11.1249 54.7778 -10.8618 55.0256 -10.5098 55.1762C-10.1534 55.3167 -9.72616 55.2912 -9.22805 55.0998C-8.75192 54.9169 -8.4233 54.6561 -8.24218 54.3175C-8.05655 53.9687 -8.03539 53.6075 -8.17869 53.2339C-8.29108 52.9408 -8.46298 52.7336 -8.69438 52.6124C-8.92577 52.4911 -9.1806 52.4293 -9.45885 52.4269C-9.73711 52.4246 -10.1024 52.4472 -10.5548 52.495C-11.1108 52.5573 -11.5679 52.5816 -11.9261 52.5679C-12.277 52.5514 -12.6157 52.4462 -12.9423 52.2522C-13.2643 52.0481 -13.5166 51.7079 -13.6992 51.2317C-13.8594 50.814 -13.8951 50.4032 -13.8063 49.9992C-13.7175 49.5952 -13.5164 49.2321 -13.2029 48.9099C-12.8821 48.5849 -12.4726 48.3267 -11.9745 48.1353C-11.2567 47.8594 -10.6018 47.8138 -10.01 47.9983C-9.41084 48.18 -8.96816 48.5563 -8.68196 49.1273L-9.78073 49.5495C-9.92974 49.2705 -10.1819 49.0731 -10.5372 48.9575C-10.8954 48.8345 -11.2979 48.8588 -11.7447 49.0305C-12.1622 49.1909 -12.4607 49.4317 -12.6401 49.7529C-12.8223 50.0667 -12.839 50.4177 -12.69 50.8061C-12.5833 51.0845 -12.4192 51.2821 -12.198 51.3988C-11.9694 51.5127 -11.7233 51.5737 -11.4597 51.5817C-11.1916 51.5795 -10.8263 51.5569 -10.3638 51.5137C-9.80497 51.4587 -9.34504 51.4417 -8.984 51.4627C-8.62577 51.4764 -8.28198 51.5838 -7.95265 51.7852C-7.62612 51.9791 -7.37014 52.3179 -7.18469 52.8015C-7.04139 53.1752 -7.00541 53.5649 -7.07674 53.9706C-7.14808 54.3763 -7.33852 54.7563 -7.64808 55.1106C-7.95763 55.4649 -8.37611 55.7434 -8.90352 55.9461ZM-1.4109 53.0671C-2.12143 53.3401 -2.83292 53.4244 -3.54537 53.3198C-4.26063 53.208 -4.9042 52.9214 -5.47607 52.4602C-6.04343 51.9889 -6.47041 51.3796 -6.75701 50.6322C-7.04361 49.8849 -7.13223 49.1497 -7.02288 48.4268C-6.909 47.6937 -6.62228 47.0497 -6.16272 46.4948C-5.70596 45.9326 -5.12232 45.515 -4.41178 45.242C-3.69393 44.9662 -2.97737 44.8842 -2.26211 44.9961C-1.54966 45.1006 -0.911163 45.3849 -0.346614 45.8489C0.217935 46.3129 0.644915 46.9223 0.934326 47.6769C1.22374 48.4316 1.31376 49.1704 1.2044 49.8934C1.09505 50.6163 0.811989 51.2589 0.355234 51.8211C-0.104331 52.376 -0.693042 52.7913 -1.4109 53.0671ZM-1.74386 52.1989C-1.20913 51.9934 -0.777107 51.6845 -0.447785 51.2722C-0.11114 50.857 0.0895381 50.3722 0.154248 49.8177C0.226282 49.2604 0.145692 48.6777 -0.087523 48.0696C-0.323548 47.4541 -0.653191 46.9671 -1.07645 46.6085C-1.4952 46.2398 -1.96477 46.0125 -2.48515 45.9266C-3.00554 45.8408 -3.53677 45.902 -4.07882 46.1102C-4.62088 46.3185 -5.05657 46.6288 -5.38589 47.0412C-5.71521 47.4536 -5.91589 47.9384 -5.98792 48.4957C-6.05544 49.0428 -5.97119 49.6241 -5.73516 50.2396C-5.50195 50.8477 -5.17597 51.3361 -4.75722 51.7049C-4.33115 52.0708 -3.85792 52.2966 -3.33753 52.3825C-2.80982 52.4656 -2.27859 52.4044 -1.74386 52.1989ZM7.22683 49.7482C6.5163 50.0212 5.80481 50.1055 5.09236 50.0009C4.3771 49.889 3.73353 49.6025 3.16166 49.1413C2.5943 48.67 2.16732 48.0606 1.88072 47.3133C1.59412 46.5659 1.5055 45.8308 1.61486 45.1079C1.72873 44.3748 2.01545 43.7308 2.47501 43.1759C2.93177 42.6137 3.51541 42.1961 4.22595 41.9231C4.9438 41.6473 5.66036 41.5653 6.37562 41.6772C7.08807 41.7817 7.72657 42.066 8.29112 42.53C8.85567 42.994 9.28265 43.6033 9.57206 44.358C9.86147 45.1127 9.95149 45.8515 9.84214 46.5744C9.73278 47.2974 9.44972 47.94 8.99297 48.5022C8.5334 49.057 7.94469 49.4724 7.22683 49.7482ZM6.89387 48.88C7.4286 48.6745 7.86062 48.3656 8.18995 47.9532C8.52659 47.5381 8.72727 47.0532 8.79198 46.4988C8.86401 45.9415 8.78342 45.3588 8.55021 44.7506C8.31418 44.1352 7.98454 43.6482 7.56128 43.2896C7.14253 42.9209 6.67297 42.6936 6.15258 42.6077C5.63219 42.5218 5.10097 42.583 4.55891 42.7913C4.01685 42.9996 3.58116 43.3099 3.25184 43.7223C2.92252 44.1346 2.72184 44.6195 2.64981 45.1767C2.58229 45.7239 2.66654 46.3052 2.90257 46.9207C3.13578 47.5288 3.46176 48.0172 3.88051 48.3859C4.30658 48.7518 4.77981 48.9777 5.3002 49.0636C5.82791 49.1466 6.35914 49.0854 6.89387 48.88ZM18.3842 45.3729L17.3843 45.7571L11.0237 41.2026L13.3628 47.3023L12.363 47.6865L9.42109 40.0152L10.421 39.631L16.7774 44.1745L14.4424 38.0858L15.4423 37.7016L18.3842 45.3729Z" fill="#666666"/>
<path d="M51.3699 55.9461C50.8645 56.1403 50.3766 56.2268 49.9063 56.2058C49.4405 56.1746 49.0337 56.0451 48.6858 55.8173C48.335 55.5822 48.0759 55.2572 47.9085 54.8424L48.9743 54.4329C49.1486 54.7778 49.4117 55.0256 49.7636 55.1762C50.12 55.3167 50.5473 55.2912 51.0454 55.0998C51.5215 54.9169 51.8501 54.6561 52.0313 54.3175C52.2169 53.9687 52.238 53.6075 52.0947 53.2339C51.9824 52.9408 51.8105 52.7336 51.5791 52.6124C51.3477 52.4911 51.0928 52.4293 50.8146 52.4269C50.5363 52.4246 50.171 52.4472 49.7187 52.495C49.1627 52.5573 48.7055 52.5816 48.3473 52.5679C47.9964 52.5514 47.6577 52.4462 47.3312 52.2522C47.0092 52.0481 46.7568 51.7079 46.5742 51.2317C46.414 50.814 46.3784 50.4032 46.4672 49.9992C46.5559 49.5952 46.7571 49.2321 47.0705 48.9099C47.3913 48.5849 47.8008 48.3267 48.2989 48.1353C49.0168 47.8594 49.6716 47.8138 50.2634 47.9983C50.8626 48.18 51.3053 48.5563 51.5915 49.1273L50.4927 49.5495C50.3437 49.2705 50.0915 49.0731 49.7362 48.9575C49.3781 48.8345 48.9756 48.8588 48.5288 49.0305C48.1112 49.1909 47.8128 49.4317 47.6333 49.7529C47.4511 50.0667 47.4345 50.4177 47.5834 50.8061C47.6902 51.0845 47.8542 51.2821 48.0755 51.3988C48.304 51.5127 48.5501 51.5737 48.8137 51.5817C49.0819 51.5795 49.4472 51.5569 49.9097 51.5137C50.4685 51.4587 50.9284 51.4417 51.2894 51.4627C51.6477 51.4764 51.9915 51.5838 52.3208 51.7852C52.6473 51.9791 52.9033 52.3179 53.0887 52.8015C53.232 53.1752 53.268 53.5649 53.1967 53.9706C53.1254 54.3763 52.9349 54.7563 52.6254 55.1106C52.3158 55.4649 51.8973 55.7434 51.3699 55.9461ZM58.8625 53.0671C58.152 53.3401 57.4405 53.4244 56.7281 53.3198C56.0128 53.208 55.3692 52.9214 54.7974 52.4602C54.23 51.9889 53.803 51.3796 53.5164 50.6322C53.2298 49.8849 53.1412 49.1497 53.2506 48.4268C53.3644 47.6937 53.6512 47.0497 54.1107 46.4948C54.5675 45.9326 55.1511 45.515 55.8617 45.242C56.5795 44.9662 57.2961 44.8842 58.0113 44.9961C58.7238 45.1006 59.3623 45.3849 59.9268 45.8489C60.4914 46.3129 60.9184 46.9223 61.2078 47.6769C61.4972 48.4316 61.5872 49.1704 61.4778 49.8934C61.3685 50.6163 61.0854 51.2589 60.6287 51.8211C60.1691 52.376 59.5804 52.7913 58.8625 53.0671ZM58.5296 52.1989C59.0643 51.9934 59.4963 51.6845 59.8257 51.2722C60.1623 50.857 60.363 50.3722 60.4277 49.8177C60.4997 49.2604 60.4191 48.6777 60.1859 48.0696C59.9499 47.4541 59.6202 46.9671 59.197 46.6085C58.7782 46.2398 58.3087 46.0125 57.7883 45.9266C57.2679 45.8408 56.7367 45.902 56.1946 46.1102C55.6526 46.3185 55.2169 46.6288 54.8876 47.0412C54.5582 47.4536 54.3576 47.9384 54.2855 48.4957C54.218 49.0428 54.3023 49.6241 54.5383 50.2396C54.7715 50.8477 55.0975 51.3361 55.5162 51.7049C55.9423 52.0708 56.4155 52.2966 56.9359 52.3825C57.4636 52.4656 57.9948 52.4044 58.5296 52.1989ZM67.5003 49.7482C66.7897 50.0212 66.0782 50.1055 65.3658 50.0009C64.6505 49.889 64.007 49.6025 63.4351 49.1413C62.8677 48.67 62.4408 48.0606 62.1542 47.3133C61.8676 46.5659 61.7789 45.8308 61.8883 45.1079C62.0022 44.3748 62.2889 43.7308 62.7485 43.1759C63.2052 42.6137 63.7889 42.1961 64.4994 41.9231C65.2172 41.6473 65.9338 41.5653 66.6491 41.6772C67.3615 41.7817 68 42.066 68.5646 42.53C69.1291 42.994 69.5561 43.6033 69.8455 44.358C70.1349 45.1127 70.2249 45.8515 70.1156 46.5744C70.0062 47.2974 69.7232 47.94 69.2664 48.5022C68.8068 49.057 68.2181 49.4724 67.5003 49.7482ZM67.1673 48.88C67.702 48.6745 68.1341 48.3656 68.4634 47.9532C68.8 47.5381 69.0007 47.0532 69.0654 46.4988C69.1375 45.9415 69.0569 45.3588 68.8236 44.7506C68.5876 44.1352 68.258 43.6482 67.8347 43.2896C67.416 42.9209 66.9464 42.6936 66.426 42.6077C65.9056 42.5218 65.3744 42.583 64.8323 42.7913C64.2903 42.9996 63.8546 43.3099 63.5253 43.7223C63.196 44.1346 62.9953 44.6195 62.9232 45.1767C62.8557 45.7239 62.94 46.3052 63.176 46.9207C63.4092 47.5288 63.7352 48.0172 64.1539 48.3859C64.58 48.7518 65.0532 48.9777 65.5736 49.0636C66.1014 49.1466 66.6326 49.0854 67.1673 48.88ZM78.6576 45.3729L77.6578 45.7571L71.2971 41.2026L73.6363 47.3023L72.6364 47.6865L69.6945 40.0152L70.6944 39.631L77.0508 44.1745L74.7159 38.0858L75.7157 37.7016L78.6576 45.3729Z" fill="#666666"/>
<path d="M112.552 55.9461C112.046 56.1403 111.558 56.2268 111.088 56.2058C110.622 56.1746 110.215 56.0451 109.867 55.8173C109.517 55.5822 109.258 55.2572 109.09 54.8424L110.156 54.4329C110.33 54.7778 110.593 55.0256 110.945 55.1762C111.302 55.3167 111.729 55.2912 112.227 55.0998C112.703 54.9169 113.032 54.6561 113.213 54.3175C113.399 53.9687 113.42 53.6075 113.276 53.2339C113.164 52.9408 112.992 52.7336 112.761 52.6124C112.529 52.4911 112.274 52.4293 111.996 52.4269C111.718 52.4246 111.353 52.4472 110.9 52.495C110.344 52.5573 109.887 52.5816 109.529 52.5679C109.178 52.5514 108.839 52.4462 108.513 52.2522C108.191 52.0481 107.938 51.7079 107.756 51.2317C107.596 50.814 107.56 50.4032 107.649 49.9992C107.738 49.5952 107.939 49.2321 108.252 48.9099C108.573 48.5849 108.982 48.3267 109.481 48.1353C110.198 47.8594 110.853 47.8138 111.445 47.9983C112.044 48.18 112.487 48.5563 112.773 49.1273L111.674 49.5495C111.525 49.2705 111.273 49.0731 110.918 48.9575C110.56 48.8345 110.157 48.8588 109.71 49.0305C109.293 49.1909 108.994 49.4317 108.815 49.7529C108.633 50.0667 108.616 50.4177 108.765 50.8061C108.872 51.0845 109.036 51.2821 109.257 51.3988C109.486 51.5127 109.732 51.5737 109.995 51.5817C110.264 51.5795 110.629 51.5569 111.091 51.5137C111.65 51.4587 112.11 51.4417 112.471 51.4627C112.829 51.4764 113.173 51.5838 113.502 51.7852C113.829 51.9791 114.085 52.3179 114.27 52.8015C114.414 53.1752 114.45 53.5649 114.378 53.9706C114.307 54.3763 114.117 54.7563 113.807 55.1106C113.497 55.4649 113.079 55.7434 112.552 55.9461ZM120.044 53.0671C119.334 53.3401 118.622 53.4244 117.91 53.3198C117.194 53.208 116.551 52.9214 115.979 52.4602C115.412 51.9889 114.985 51.3796 114.698 50.6322C114.411 49.8849 114.323 49.1497 114.432 48.4268C114.546 47.6937 114.833 47.0497 115.292 46.4948C115.749 45.9326 116.333 45.515 117.043 45.242C117.761 44.9662 118.478 44.8842 119.193 44.9961C119.905 45.1006 120.544 45.3849 121.108 45.8489C121.673 46.3129 122.1 46.9223 122.389 47.6769C122.679 48.4316 122.769 49.1704 122.659 49.8934C122.55 50.6163 122.267 51.2589 121.81 51.8211C121.351 52.376 120.762 52.7913 120.044 53.0671ZM119.711 52.1989C120.246 51.9934 120.678 51.6845 121.007 51.2722C121.344 50.857 121.545 50.3722 121.609 49.8177C121.681 49.2604 121.601 48.6777 121.368 48.0696C121.132 47.4541 120.802 46.9671 120.379 46.6085C119.96 46.2398 119.49 46.0125 118.97 45.9266C118.45 45.8408 117.918 45.902 117.376 46.1102C116.834 46.3185 116.399 46.6288 116.069 47.0412C115.74 47.4536 115.539 47.9384 115.467 48.4957C115.4 49.0428 115.484 49.6241 115.72 50.2396C115.953 50.8477 116.279 51.3361 116.698 51.7049C117.124 52.0708 117.597 52.2966 118.118 52.3825C118.645 52.4656 119.176 52.4044 119.711 52.1989ZM128.682 49.7482C127.971 50.0212 127.26 50.1055 126.547 50.0009C125.832 49.889 125.189 49.6025 124.617 49.1413C124.049 48.67 123.622 48.0606 123.336 47.3133C123.049 46.5659 122.961 45.8308 123.07 45.1079C123.184 44.3748 123.471 43.7308 123.93 43.1759C124.387 42.6137 124.97 42.1961 125.681 41.9231C126.399 41.6473 127.115 41.5653 127.831 41.6772C128.543 41.7817 129.182 42.066 129.746 42.53C130.311 42.994 130.738 43.6033 131.027 44.358C131.317 45.1127 131.407 45.8515 131.297 46.5744C131.188 47.2974 130.905 47.94 130.448 48.5022C129.988 49.057 129.4 49.4724 128.682 49.7482ZM128.349 48.88C128.884 48.6745 129.316 48.3656 129.645 47.9532C129.982 47.5381 130.182 47.0532 130.247 46.4988C130.319 45.9415 130.239 45.3588 130.005 44.7506C129.769 44.1352 129.44 43.6482 129.016 43.2896C128.598 42.9209 128.128 42.6936 127.608 42.6077C127.087 42.5218 126.556 42.583 126.014 42.7913C125.472 42.9996 125.036 43.3099 124.707 43.7223C124.378 44.1346 124.177 44.6195 124.105 45.1767C124.037 45.7239 124.122 46.3052 124.358 46.9207C124.591 47.5288 124.917 48.0172 125.336 48.3859C125.762 48.7518 126.235 48.9777 126.755 49.0636C127.283 49.1466 127.814 49.0854 128.349 48.88ZM139.839 45.3729L138.839 45.7571L132.479 41.2026L134.818 47.3023L133.818 47.6865L130.876 40.0152L131.876 39.631L138.232 44.1745L135.898 38.0858L136.897 37.7016L139.839 45.3729Z" fill="#666666"/>
<path d="M172.827 55.9461C172.322 56.1403 171.834 56.2268 171.363 56.2058C170.898 56.1746 170.491 56.0451 170.143 55.8173C169.792 55.5822 169.533 55.2572 169.365 54.8424L170.431 54.4329C170.606 54.7778 170.869 55.0256 171.221 55.1762C171.577 55.3167 172.004 55.2912 172.502 55.0998C172.979 54.9169 173.307 54.6561 173.488 54.3175C173.674 53.9687 173.695 53.6075 173.552 53.2339C173.439 52.9408 173.267 52.7336 173.036 52.6124C172.805 52.4911 172.55 52.4293 172.272 52.4269C171.993 52.4246 171.628 52.4472 171.176 52.495C170.62 52.5573 170.163 52.5816 169.804 52.5679C169.453 52.5514 169.115 52.4462 168.788 52.2522C168.466 52.0481 168.214 51.7079 168.031 51.2317C167.871 50.814 167.835 50.4032 167.924 49.9992C168.013 49.5952 168.214 49.2321 168.528 48.9099C168.848 48.5849 169.258 48.3267 169.756 48.1353C170.474 47.8594 171.129 47.8138 171.72 47.9983C172.32 48.18 172.762 48.5563 173.049 49.1273L171.95 49.5495C171.801 49.2705 171.549 49.0731 171.193 48.9575C170.835 48.8345 170.433 48.8588 169.986 49.0305C169.568 49.1909 169.27 49.4317 169.09 49.7529C168.908 50.0667 168.892 50.4177 169.04 50.8061C169.147 51.0845 169.311 51.2821 169.532 51.3988C169.761 51.5127 170.007 51.5737 170.271 51.5817C170.539 51.5795 170.904 51.5569 171.367 51.5137C171.926 51.4587 172.385 51.4417 172.746 51.4627C173.105 51.4764 173.448 51.5838 173.778 51.7852C174.104 51.9791 174.36 52.3179 174.546 52.8015C174.689 53.1752 174.725 53.5649 174.654 53.9706C174.582 54.3763 174.392 54.7563 174.082 55.1106C173.773 55.4649 173.354 55.7434 172.827 55.9461ZM180.32 53.0671C179.609 53.3401 178.898 53.4244 178.185 53.3198C177.47 53.208 176.826 52.9214 176.254 52.4602C175.687 51.9889 175.26 51.3796 174.973 50.6322C174.687 49.8849 174.598 49.1497 174.708 48.4268C174.821 47.6937 175.108 47.0497 175.568 46.4948C176.025 45.9326 176.608 45.515 177.319 45.242C178.037 44.9662 178.753 44.8842 179.468 44.9961C180.181 45.1006 180.819 45.3849 181.384 45.8489C181.948 46.3129 182.375 46.9223 182.665 47.6769C182.954 48.4316 183.044 49.1704 182.935 49.8934C182.826 50.6163 182.542 51.2589 182.086 51.8211C181.626 52.376 181.037 52.7913 180.32 53.0671ZM179.987 52.1989C180.521 51.9934 180.953 51.6845 181.283 51.2722C181.619 50.857 181.82 50.3722 181.885 49.8177C181.957 49.2604 181.876 48.6777 181.643 48.0696C181.407 47.4541 181.077 46.9671 180.654 46.6085C180.235 46.2398 179.766 46.0125 179.245 45.9266C178.725 45.8408 178.194 45.902 177.652 46.1102C177.11 46.3185 176.674 46.6288 176.345 47.0412C176.015 47.4536 175.815 47.9384 175.743 48.4957C175.675 49.0428 175.759 49.6241 175.995 50.2396C176.229 50.8477 176.555 51.3361 176.973 51.7049C177.399 52.0708 177.873 52.2966 178.393 52.3825C178.921 52.4656 179.452 52.4044 179.987 52.1989ZM188.957 49.7482C188.247 50.0212 187.535 50.1055 186.823 50.0009C186.108 49.889 185.464 49.6025 184.892 49.1413C184.325 48.67 183.898 48.0606 183.611 47.3133C183.325 46.5659 183.236 45.8308 183.345 45.1079C183.459 44.3748 183.746 43.7308 184.205 43.1759C184.662 42.6137 185.246 42.1961 185.956 41.9231C186.674 41.6473 187.391 41.5653 188.106 41.6772C188.819 41.7817 189.457 42.066 190.022 42.53C190.586 42.994 191.013 43.6033 191.303 44.358C191.592 45.1127 191.682 45.8515 191.573 46.5744C191.463 47.2974 191.18 47.94 190.723 48.5022C190.264 49.057 189.675 49.4724 188.957 49.7482ZM188.624 48.88C189.159 48.6745 189.591 48.3656 189.92 47.9532C190.257 47.5381 190.458 47.0532 190.522 46.4988C190.594 45.9415 190.514 45.3588 190.281 44.7506C190.045 44.1352 189.715 43.6482 189.292 43.2896C188.873 42.9209 188.403 42.6936 187.883 42.6077C187.363 42.5218 186.831 42.583 186.289 42.7913C185.747 42.9996 185.312 43.3099 184.982 43.7223C184.653 44.1346 184.452 44.6195 184.38 45.1767C184.313 45.7239 184.397 46.3052 184.633 46.9207C184.866 47.5288 185.192 48.0172 185.611 48.3859C186.037 48.7518 186.51 48.9777 187.031 49.0636C187.558 49.1466 188.09 49.0854 188.624 48.88ZM200.115 45.3729L199.115 45.7571L192.754 41.2026L195.093 47.3023L194.093 47.6865L191.152 40.0152L192.151 39.631L198.508 44.1745L196.173 38.0858L197.173 37.7016L200.115 45.3729Z" fill="#666666"/>
<path d="M-8.90352 138.501C-9.40895 138.695 -9.89682 138.782 -10.3671 138.76C-10.8329 138.729 -11.2398 138.6 -11.5877 138.372C-11.9384 138.137 -12.1975 137.812 -12.365 137.397L-11.2992 136.988C-11.1249 137.333 -10.8618 137.58 -10.5098 137.731C-10.1534 137.871 -9.72616 137.846 -9.22805 137.654C-8.75192 137.472 -8.4233 137.211 -8.24218 136.872C-8.05655 136.523 -8.03539 136.162 -8.17869 135.789C-8.29108 135.495 -8.46298 135.288 -8.69438 135.167C-8.92577 135.046 -9.1806 134.984 -9.45885 134.982C-9.73711 134.979 -10.1024 135.002 -10.5548 135.05C-11.1108 135.112 -11.5679 135.136 -11.9261 135.123C-12.277 135.106 -12.6157 135.001 -12.9423 134.807C-13.2643 134.603 -13.5166 134.263 -13.6992 133.786C-13.8594 133.369 -13.8951 132.958 -13.8063 132.554C-13.7175 132.15 -13.5164 131.787 -13.2029 131.465C-12.8821 131.14 -12.4726 130.881 -11.9745 130.69C-11.2567 130.414 -10.6018 130.368 -10.01 130.553C-9.41084 130.735 -8.96816 131.111 -8.68196 131.682L-9.78073 132.104C-9.92974 131.825 -10.1819 131.628 -10.5372 131.512C-10.8954 131.389 -11.2979 131.414 -11.7447 131.585C-12.1622 131.746 -12.4607 131.986 -12.6401 132.308C-12.8223 132.621 -12.839 132.972 -12.69 133.361C-12.5833 133.639 -12.4192 133.837 -12.198 133.953C-11.9694 134.067 -11.7233 134.128 -11.4597 134.136C-11.1916 134.134 -10.8263 134.112 -10.3638 134.068C-9.80497 134.013 -9.34504 133.996 -8.984 134.017C-8.62577 134.031 -8.28198 134.139 -7.95265 134.34C-7.62612 134.534 -7.37014 134.873 -7.18469 135.356C-7.04139 135.73 -7.00541 136.12 -7.07674 136.525C-7.14808 136.931 -7.33852 137.311 -7.64808 137.665C-7.95763 138.02 -8.37611 138.298 -8.90352 138.501ZM-1.4109 135.622C-2.12143 135.895 -2.83292 135.979 -3.54537 135.875C-4.26063 135.763 -4.9042 135.476 -5.47607 135.015C-6.04343 134.544 -6.47041 133.934 -6.75701 133.187C-7.04361 132.44 -7.13223 131.704 -7.02288 130.981C-6.909 130.248 -6.62228 129.604 -6.16272 129.05C-5.70596 128.487 -5.12232 128.07 -4.41178 127.797C-3.69393 127.521 -2.97737 127.439 -2.26211 127.551C-1.54966 127.655 -0.911163 127.94 -0.346614 128.404C0.217935 128.868 0.644915 129.477 0.934326 130.232C1.22374 130.986 1.31376 131.725 1.2044 132.448C1.09505 133.171 0.811989 133.814 0.355234 134.376C-0.104331 134.931 -0.693042 135.346 -1.4109 135.622ZM-1.74386 134.754C-1.20913 134.548 -0.777107 134.239 -0.447785 133.827C-0.11114 133.412 0.0895381 132.927 0.154248 132.372C0.226282 131.815 0.145692 131.232 -0.087523 130.624C-0.323548 130.009 -0.653191 129.522 -1.07645 129.163C-1.4952 128.794 -1.96477 128.567 -2.48515 128.481C-3.00554 128.395 -3.53677 128.457 -4.07882 128.665C-4.62088 128.873 -5.05657 129.184 -5.38589 129.596C-5.71521 130.008 -5.91589 130.493 -5.98792 131.05C-6.05544 131.598 -5.97119 132.179 -5.73516 132.794C-5.50195 133.402 -5.17597 133.891 -4.75722 134.26C-4.33115 134.625 -3.85792 134.851 -3.33753 134.937C-2.80982 135.02 -2.27859 134.959 -1.74386 134.754ZM7.22683 132.303C6.5163 132.576 5.80481 132.66 5.09236 132.556C4.3771 132.444 3.73353 132.157 3.16166 131.696C2.5943 131.225 2.16732 130.615 1.88072 129.868C1.59412 129.121 1.5055 128.385 1.61486 127.663C1.72873 126.929 2.01545 126.285 2.47501 125.731C2.93177 125.168 3.51541 124.751 4.22595 124.478C4.9438 124.202 5.66036 124.12 6.37562 124.232C7.08807 124.336 7.72657 124.621 8.29112 125.085C8.85567 125.549 9.28265 126.158 9.57206 126.913C9.86147 127.667 9.95149 128.406 9.84214 129.129C9.73278 129.852 9.44972 130.495 8.99297 131.057C8.5334 131.612 7.94469 132.027 7.22683 132.303ZM6.89387 131.435C7.4286 131.229 7.86062 130.92 8.18995 130.508C8.52659 130.093 8.72727 129.608 8.79198 129.053C8.86401 128.496 8.78342 127.913 8.55021 127.305C8.31418 126.69 7.98454 126.203 7.56128 125.844C7.14253 125.476 6.67297 125.248 6.15258 125.162C5.63219 125.077 5.10097 125.138 4.55891 125.346C4.01685 125.554 3.58116 125.865 3.25184 126.277C2.92252 126.689 2.72184 127.174 2.64981 127.731C2.58229 128.279 2.66654 128.86 2.90257 129.475C3.13578 130.083 3.46176 130.572 3.88051 130.941C4.30658 131.307 4.77981 131.532 5.3002 131.618C5.82791 131.701 6.35914 131.64 6.89387 131.435ZM18.3842 127.928L17.3843 128.312L11.0237 123.757L13.3628 129.857L12.363 130.241L9.42109 122.57L10.421 122.186L16.7774 126.729L14.4424 120.641L15.4423 120.256L18.3842 127.928Z" fill="#666666"/>
<path d="M51.3699 138.501C50.8645 138.695 50.3766 138.782 49.9063 138.76C49.4405 138.729 49.0337 138.6 48.6858 138.372C48.335 138.137 48.0759 137.812 47.9085 137.397L48.9743 136.988C49.1486 137.333 49.4117 137.58 49.7636 137.731C50.12 137.871 50.5473 137.846 51.0454 137.654C51.5215 137.472 51.8501 137.211 52.0313 136.872C52.2169 136.523 52.238 136.162 52.0947 135.789C51.9824 135.495 51.8105 135.288 51.5791 135.167C51.3477 135.046 51.0928 134.984 50.8146 134.982C50.5363 134.979 50.171 135.002 49.7187 135.05C49.1627 135.112 48.7055 135.136 48.3473 135.123C47.9964 135.106 47.6577 135.001 47.3312 134.807C47.0092 134.603 46.7568 134.263 46.5742 133.786C46.414 133.369 46.3784 132.958 46.4672 132.554C46.5559 132.15 46.7571 131.787 47.0705 131.465C47.3913 131.14 47.8008 130.881 48.2989 130.69C49.0168 130.414 49.6716 130.368 50.2634 130.553C50.8626 130.735 51.3053 131.111 51.5915 131.682L50.4927 132.104C50.3437 131.825 50.0915 131.628 49.7362 131.512C49.3781 131.389 48.9756 131.414 48.5288 131.585C48.1112 131.746 47.8128 131.986 47.6333 132.308C47.4511 132.621 47.4345 132.972 47.5834 133.361C47.6902 133.639 47.8542 133.837 48.0755 133.953C48.304 134.067 48.5501 134.128 48.8137 134.136C49.0819 134.134 49.4472 134.112 49.9097 134.068C50.4685 134.013 50.9284 133.996 51.2894 134.017C51.6477 134.031 51.9915 134.139 52.3208 134.34C52.6473 134.534 52.9033 134.873 53.0887 135.356C53.232 135.73 53.268 136.12 53.1967 136.525C53.1254 136.931 52.9349 137.311 52.6254 137.665C52.3158 138.02 51.8973 138.298 51.3699 138.501ZM58.8625 135.622C58.152 135.895 57.4405 135.979 56.7281 135.875C56.0128 135.763 55.3692 135.476 54.7974 135.015C54.23 134.544 53.803 133.934 53.5164 133.187C53.2298 132.44 53.1412 131.704 53.2506 130.981C53.3644 130.248 53.6512 129.604 54.1107 129.05C54.5675 128.487 55.1511 128.07 55.8617 127.797C56.5795 127.521 57.2961 127.439 58.0113 127.551C58.7238 127.655 59.3623 127.94 59.9268 128.404C60.4914 128.868 60.9184 129.477 61.2078 130.232C61.4972 130.986 61.5872 131.725 61.4778 132.448C61.3685 133.171 61.0854 133.814 60.6287 134.376C60.1691 134.931 59.5804 135.346 58.8625 135.622ZM58.5296 134.754C59.0643 134.548 59.4963 134.239 59.8257 133.827C60.1623 133.412 60.363 132.927 60.4277 132.372C60.4997 131.815 60.4191 131.232 60.1859 130.624C59.9499 130.009 59.6202 129.522 59.197 129.163C58.7782 128.794 58.3087 128.567 57.7883 128.481C57.2679 128.395 56.7367 128.457 56.1946 128.665C55.6526 128.873 55.2169 129.184 54.8876 129.596C54.5582 130.008 54.3576 130.493 54.2855 131.05C54.218 131.598 54.3023 132.179 54.5383 132.794C54.7715 133.402 55.0975 133.891 55.5162 134.26C55.9423 134.625 56.4155 134.851 56.9359 134.937C57.4636 135.02 57.9948 134.959 58.5296 134.754ZM67.5003 132.303C66.7897 132.576 66.0782 132.66 65.3658 132.556C64.6505 132.444 64.007 132.157 63.4351 131.696C62.8677 131.225 62.4408 130.615 62.1542 129.868C61.8676 129.121 61.7789 128.385 61.8883 127.663C62.0022 126.929 62.2889 126.285 62.7485 125.731C63.2052 125.168 63.7889 124.751 64.4994 124.478C65.2172 124.202 65.9338 124.12 66.6491 124.232C67.3615 124.336 68 124.621 68.5646 125.085C69.1291 125.549 69.5561 126.158 69.8455 126.913C70.1349 127.667 70.2249 128.406 70.1156 129.129C70.0062 129.852 69.7232 130.495 69.2664 131.057C68.8068 131.612 68.2181 132.027 67.5003 132.303ZM67.1673 131.435C67.702 131.229 68.1341 130.92 68.4634 130.508C68.8 130.093 69.0007 129.608 69.0654 129.053C69.1375 128.496 69.0569 127.913 68.8236 127.305C68.5876 126.69 68.258 126.203 67.8347 125.844C67.416 125.476 66.9464 125.248 66.426 125.162C65.9056 125.077 65.3744 125.138 64.8323 125.346C64.2903 125.554 63.8546 125.865 63.5253 126.277C63.196 126.689 62.9953 127.174 62.9232 127.731C62.8557 128.279 62.94 128.86 63.176 129.475C63.4092 130.083 63.7352 130.572 64.1539 130.941C64.58 131.307 65.0532 131.532 65.5736 131.618C66.1014 131.701 66.6326 131.64 67.1673 131.435ZM78.6576 127.928L77.6578 128.312L71.2971 123.757L73.6363 129.857L72.6364 130.241L69.6945 122.57L70.6944 122.186L77.0508 126.729L74.7159 120.641L75.7157 120.256L78.6576 127.928Z" fill="#666666"/>
<path d="M112.552 138.501C112.046 138.695 111.558 138.782 111.088 138.76C110.622 138.729 110.215 138.6 109.867 138.372C109.517 138.137 109.258 137.812 109.09 137.397L110.156 136.988C110.33 137.333 110.593 137.58 110.945 137.731C111.302 137.871 111.729 137.846 112.227 137.654C112.703 137.472 113.032 137.211 113.213 136.872C113.399 136.523 113.42 136.162 113.276 135.789C113.164 135.495 112.992 135.288 112.761 135.167C112.529 135.046 112.274 134.984 111.996 134.982C111.718 134.979 111.353 135.002 110.9 135.05C110.344 135.112 109.887 135.136 109.529 135.123C109.178 135.106 108.839 135.001 108.513 134.807C108.191 134.603 107.938 134.263 107.756 133.786C107.596 133.369 107.56 132.958 107.649 132.554C107.738 132.15 107.939 131.787 108.252 131.465C108.573 131.14 108.982 130.881 109.481 130.69C110.198 130.414 110.853 130.368 111.445 130.553C112.044 130.735 112.487 131.111 112.773 131.682L111.674 132.104C111.525 131.825 111.273 131.628 110.918 131.512C110.56 131.389 110.157 131.414 109.71 131.585C109.293 131.746 108.994 131.986 108.815 132.308C108.633 132.621 108.616 132.972 108.765 133.361C108.872 133.639 109.036 133.837 109.257 133.953C109.486 134.067 109.732 134.128 109.995 134.136C110.264 134.134 110.629 134.112 111.091 134.068C111.65 134.013 112.11 133.996 112.471 134.017C112.829 134.031 113.173 134.139 113.502 134.34C113.829 134.534 114.085 134.873 114.27 135.356C114.414 135.73 114.45 136.12 114.378 136.525C114.307 136.931 114.117 137.311 113.807 137.665C113.497 138.02 113.079 138.298 112.552 138.501ZM120.044 135.622C119.334 135.895 118.622 135.979 117.91 135.875C117.194 135.763 116.551 135.476 115.979 135.015C115.412 134.544 114.985 133.934 114.698 133.187C114.411 132.44 114.323 131.704 114.432 130.981C114.546 130.248 114.833 129.604 115.292 129.05C115.749 128.487 116.333 128.07 117.043 127.797C117.761 127.521 118.478 127.439 119.193 127.551C119.905 127.655 120.544 127.94 121.108 128.404C121.673 128.868 122.1 129.477 122.389 130.232C122.679 130.986 122.769 131.725 122.659 132.448C122.55 133.171 122.267 133.814 121.81 134.376C121.351 134.931 120.762 135.346 120.044 135.622ZM119.711 134.754C120.246 134.548 120.678 134.239 121.007 133.827C121.344 133.412 121.545 132.927 121.609 132.372C121.681 131.815 121.601 131.232 121.368 130.624C121.132 130.009 120.802 129.522 120.379 129.163C119.96 128.794 119.49 128.567 118.97 128.481C118.45 128.395 117.918 128.457 117.376 128.665C116.834 128.873 116.399 129.184 116.069 129.596C115.74 130.008 115.539 130.493 115.467 131.05C115.4 131.598 115.484 132.179 115.72 132.794C115.953 133.402 116.279 133.891 116.698 134.26C117.124 134.625 117.597 134.851 118.118 134.937C118.645 135.02 119.176 134.959 119.711 134.754ZM128.682 132.303C127.971 132.576 127.26 132.66 126.547 132.556C125.832 132.444 125.189 132.157 124.617 131.696C124.049 131.225 123.622 130.615 123.336 129.868C123.049 129.121 122.961 128.385 123.07 127.663C123.184 126.929 123.471 126.285 123.93 125.731C124.387 125.168 124.97 124.751 125.681 124.478C126.399 124.202 127.115 124.12 127.831 124.232C128.543 124.336 129.182 124.621 129.746 125.085C130.311 125.549 130.738 126.158 131.027 126.913C131.317 127.667 131.407 128.406 131.297 129.129C131.188 129.852 130.905 130.495 130.448 131.057C129.988 131.612 129.4 132.027 128.682 132.303ZM128.349 131.435C128.884 131.229 129.316 130.92 129.645 130.508C129.982 130.093 130.182 129.608 130.247 129.053C130.319 128.496 130.239 127.913 130.005 127.305C129.769 126.69 129.44 126.203 129.016 125.844C128.598 125.476 128.128 125.248 127.608 125.162C127.087 125.077 126.556 125.138 126.014 125.346C125.472 125.554 125.036 125.865 124.707 126.277C124.378 126.689 124.177 127.174 124.105 127.731C124.037 128.279 124.122 128.86 124.358 129.475C124.591 130.083 124.917 130.572 125.336 130.941C125.762 131.307 126.235 131.532 126.755 131.618C127.283 131.701 127.814 131.64 128.349 131.435ZM139.839 127.928L138.839 128.312L132.479 123.757L134.818 129.857L133.818 130.241L130.876 122.57L131.876 122.186L138.232 126.729L135.898 120.641L136.897 120.256L139.839 127.928Z" fill="#666666"/>
<path d="M172.827 138.501C172.322 138.695 171.834 138.782 171.363 138.76C170.898 138.729 170.491 138.6 170.143 138.372C169.792 138.137 169.533 137.812 169.365 137.397L170.431 136.988C170.606 137.333 170.869 137.58 171.221 137.731C171.577 137.871 172.004 137.846 172.502 137.654C172.979 137.472 173.307 137.211 173.488 136.872C173.674 136.523 173.695 136.162 173.552 135.789C173.439 135.495 173.267 135.288 173.036 135.167C172.805 135.046 172.55 134.984 172.272 134.982C171.993 134.979 171.628 135.002 171.176 135.05C170.62 135.112 170.163 135.136 169.804 135.123C169.453 135.106 169.115 135.001 168.788 134.807C168.466 134.603 168.214 134.263 168.031 133.786C167.871 133.369 167.835 132.958 167.924 132.554C168.013 132.15 168.214 131.787 168.528 131.465C168.848 131.14 169.258 130.881 169.756 130.69C170.474 130.414 171.129 130.368 171.72 130.553C172.32 130.735 172.762 131.111 173.049 131.682L171.95 132.104C171.801 131.825 171.549 131.628 171.193 131.512C170.835 131.389 170.433 131.414 169.986 131.585C169.568 131.746 169.27 131.986 169.09 132.308C168.908 132.621 168.892 132.972 169.04 133.361C169.147 133.639 169.311 133.837 169.532 133.953C169.761 134.067 170.007 134.128 170.271 134.136C170.539 134.134 170.904 134.112 171.367 134.068C171.926 134.013 172.385 133.996 172.746 134.017C173.105 134.031 173.448 134.139 173.778 134.34C174.104 134.534 174.36 134.873 174.546 135.356C174.689 135.73 174.725 136.12 174.654 136.525C174.582 136.931 174.392 137.311 174.082 137.665C173.773 138.02 173.354 138.298 172.827 138.501ZM180.32 135.622C179.609 135.895 178.898 135.979 178.185 135.875C177.47 135.763 176.826 135.476 176.254 135.015C175.687 134.544 175.26 133.934 174.973 133.187C174.687 132.44 174.598 131.704 174.708 130.981C174.821 130.248 175.108 129.604 175.568 129.05C176.025 128.487 176.608 128.07 177.319 127.797C178.037 127.521 178.753 127.439 179.468 127.551C180.181 127.655 180.819 127.94 181.384 128.404C181.948 128.868 182.375 129.477 182.665 130.232C182.954 130.986 183.044 131.725 182.935 132.448C182.826 133.171 182.542 133.814 182.086 134.376C181.626 134.931 181.037 135.346 180.32 135.622ZM179.987 134.754C180.521 134.548 180.953 134.239 181.283 133.827C181.619 133.412 181.82 132.927 181.885 132.372C181.957 131.815 181.876 131.232 181.643 130.624C181.407 130.009 181.077 129.522 180.654 129.163C180.235 128.794 179.766 128.567 179.245 128.481C178.725 128.395 178.194 128.457 177.652 128.665C177.11 128.873 176.674 129.184 176.345 129.596C176.015 130.008 175.815 130.493 175.743 131.05C175.675 131.598 175.759 132.179 175.995 132.794C176.229 133.402 176.555 133.891 176.973 134.26C177.399 134.625 177.873 134.851 178.393 134.937C178.921 135.02 179.452 134.959 179.987 134.754ZM188.957 132.303C188.247 132.576 187.535 132.66 186.823 132.556C186.108 132.444 185.464 132.157 184.892 131.696C184.325 131.225 183.898 130.615 183.611 129.868C183.325 129.121 183.236 128.385 183.345 127.663C183.459 126.929 183.746 126.285 184.205 125.731C184.662 125.168 185.246 124.751 185.956 124.478C186.674 124.202 187.391 124.12 188.106 124.232C188.819 124.336 189.457 124.621 190.022 125.085C190.586 125.549 191.013 126.158 191.303 126.913C191.592 127.667 191.682 128.406 191.573 129.129C191.463 129.852 191.18 130.495 190.723 131.057C190.264 131.612 189.675 132.027 188.957 132.303ZM188.624 131.435C189.159 131.229 189.591 130.92 189.92 130.508C190.257 130.093 190.458 129.608 190.522 129.053C190.594 128.496 190.514 127.913 190.281 127.305C190.045 126.69 189.715 126.203 189.292 125.844C188.873 125.476 188.403 125.248 187.883 125.162C187.363 125.077 186.831 125.138 186.289 125.346C185.747 125.554 185.312 125.865 184.982 126.277C184.653 126.689 184.452 127.174 184.38 127.731C184.313 128.279 184.397 128.86 184.633 129.475C184.866 130.083 185.192 130.572 185.611 130.941C186.037 131.307 186.51 131.532 187.031 131.618C187.558 131.701 188.09 131.64 188.624 131.435ZM200.115 127.928L199.115 128.312L192.754 123.757L195.093 129.857L194.093 130.241L191.152 122.57L192.151 122.186L198.508 126.729L196.173 120.641L197.173 120.256L200.115 127.928Z" fill="#666666"/>
<path d="M-8.90352 221.04C-9.40895 221.234 -9.89682 221.321 -10.3671 221.3C-10.8329 221.268 -11.2398 221.139 -11.5877 220.911C-11.9384 220.676 -12.1975 220.351 -12.365 219.936L-11.2992 219.527C-11.1249 219.872 -10.8618 220.119 -10.5098 220.27C-10.1534 220.41 -9.72616 220.385 -9.22805 220.194C-8.75192 220.011 -8.4233 219.75 -8.24218 219.411C-8.05655 219.062 -8.03539 218.701 -8.17869 218.328C-8.29108 218.035 -8.46298 217.827 -8.69438 217.706C-8.92577 217.585 -9.1806 217.523 -9.45885 217.521C-9.73711 217.518 -10.1024 217.541 -10.5548 217.589C-11.1108 217.651 -11.5679 217.675 -11.9261 217.662C-12.277 217.645 -12.6157 217.54 -12.9423 217.346C-13.2643 217.142 -13.5166 216.802 -13.6992 216.325C-13.8594 215.908 -13.8951 215.497 -13.8063 215.093C-13.7175 214.689 -13.5164 214.326 -13.2029 214.004C-12.8821 213.679 -12.4726 213.42 -11.9745 213.229C-11.2567 212.953 -10.6018 212.908 -10.01 213.092C-9.41084 213.274 -8.96816 213.65 -8.68196 214.221L-9.78073 214.643C-9.92974 214.364 -10.1819 214.167 -10.5372 214.051C-10.8954 213.928 -11.2979 213.953 -11.7447 214.124C-12.1622 214.285 -12.4607 214.525 -12.6401 214.847C-12.8223 215.16 -12.839 215.511 -12.69 215.9C-12.5833 216.178 -12.4192 216.376 -12.198 216.493C-11.9694 216.606 -11.7233 216.667 -11.4597 216.675C-11.1916 216.673 -10.8263 216.651 -10.3638 216.607C-9.80497 216.552 -9.34504 216.535 -8.984 216.556C-8.62577 216.57 -8.28198 216.678 -7.95265 216.879C-7.62612 217.073 -7.37014 217.412 -7.18469 217.895C-7.04139 218.269 -7.00541 218.659 -7.07674 219.064C-7.14808 219.47 -7.33852 219.85 -7.64808 220.204C-7.95763 220.559 -8.37611 220.837 -8.90352 221.04ZM-1.4109 218.161C-2.12143 218.434 -2.83292 218.518 -3.54537 218.414C-4.26063 218.302 -4.9042 218.015 -5.47607 217.554C-6.04343 217.083 -6.47041 216.473 -6.75701 215.726C-7.04361 214.979 -7.13223 214.243 -7.02288 213.521C-6.909 212.787 -6.62228 212.143 -6.16272 211.589C-5.70596 211.026 -5.12232 210.609 -4.41178 210.336C-3.69393 210.06 -2.97737 209.978 -2.26211 210.09C-1.54966 210.194 -0.911163 210.479 -0.346614 210.943C0.217935 211.407 0.644915 212.016 0.934326 212.771C1.22374 213.525 1.31376 214.264 1.2044 214.987C1.09505 215.71 0.811989 216.353 0.355234 216.915C-0.104331 217.47 -0.693042 217.885 -1.4109 218.161ZM-1.74386 217.293C-1.20913 217.087 -0.777107 216.778 -0.447785 216.366C-0.11114 215.951 0.0895381 215.466 0.154248 214.911C0.226282 214.354 0.145692 213.771 -0.087523 213.163C-0.323548 212.548 -0.653191 212.061 -1.07645 211.702C-1.4952 211.334 -1.96477 211.106 -2.48515 211.02C-3.00554 210.935 -3.53677 210.996 -4.07882 211.204C-4.62088 211.412 -5.05657 211.723 -5.38589 212.135C-5.71521 212.547 -5.91589 213.032 -5.98792 213.589C-6.05544 214.137 -5.97119 214.718 -5.73516 215.333C-5.50195 215.941 -5.17597 216.43 -4.75722 216.799C-4.33115 217.165 -3.85792 217.39 -3.33753 217.476C-2.80982 217.559 -2.27859 217.498 -1.74386 217.293ZM7.22683 214.842C6.5163 215.115 5.80481 215.199 5.09236 215.095C4.3771 214.983 3.73353 214.696 3.16166 214.235C2.5943 213.764 2.16732 213.154 1.88072 212.407C1.59412 211.66 1.5055 210.925 1.61486 210.202C1.72873 209.469 2.01545 208.825 2.47501 208.27C2.93177 207.707 3.51541 207.29 4.22595 207.017C4.9438 206.741 5.66036 206.659 6.37562 206.771C7.08807 206.875 7.72657 207.16 8.29112 207.624C8.85567 208.088 9.28265 208.697 9.57206 209.452C9.86147 210.206 9.95149 210.945 9.84214 211.668C9.73278 212.391 9.44972 213.034 8.99297 213.596C8.5334 214.151 7.94469 214.566 7.22683 214.842ZM6.89387 213.974C7.4286 213.768 7.86062 213.459 8.18995 213.047C8.52659 212.632 8.72727 212.147 8.79198 211.593C8.86401 211.035 8.78342 210.453 8.55021 209.844C8.31418 209.229 7.98454 208.742 7.56128 208.383C7.14253 208.015 6.67297 207.787 6.15258 207.701C5.63219 207.616 5.10097 207.677 4.55891 207.885C4.01685 208.093 3.58116 208.404 3.25184 208.816C2.92252 209.228 2.72184 209.713 2.64981 210.27C2.58229 210.818 2.66654 211.399 2.90257 212.014C3.13578 212.623 3.46176 213.111 3.88051 213.48C4.30658 213.846 4.77981 214.071 5.3002 214.157C5.82791 214.24 6.35914 214.179 6.89387 213.974ZM18.3842 210.467L17.3843 210.851L11.0237 206.296L13.3628 212.396L12.363 212.78L9.42109 205.109L10.421 204.725L16.7774 209.268L14.4424 203.18L15.4423 202.795L18.3842 210.467Z" fill="#666666"/>
<path d="M51.3699 221.04C50.8645 221.234 50.3766 221.321 49.9063 221.3C49.4405 221.268 49.0337 221.139 48.6858 220.911C48.335 220.676 48.0759 220.351 47.9085 219.936L48.9743 219.527C49.1486 219.872 49.4117 220.119 49.7636 220.27C50.12 220.41 50.5473 220.385 51.0454 220.194C51.5215 220.011 51.8501 219.75 52.0313 219.411C52.2169 219.062 52.238 218.701 52.0947 218.328C51.9824 218.035 51.8105 217.827 51.5791 217.706C51.3477 217.585 51.0928 217.523 50.8146 217.521C50.5363 217.518 50.171 217.541 49.7187 217.589C49.1627 217.651 48.7055 217.675 48.3473 217.662C47.9964 217.645 47.6577 217.54 47.3312 217.346C47.0092 217.142 46.7568 216.802 46.5742 216.325C46.414 215.908 46.3784 215.497 46.4672 215.093C46.5559 214.689 46.7571 214.326 47.0705 214.004C47.3913 213.679 47.8008 213.42 48.2989 213.229C49.0168 212.953 49.6716 212.908 50.2634 213.092C50.8626 213.274 51.3053 213.65 51.5915 214.221L50.4927 214.643C50.3437 214.364 50.0915 214.167 49.7362 214.051C49.3781 213.928 48.9756 213.953 48.5288 214.124C48.1112 214.285 47.8128 214.525 47.6333 214.847C47.4511 215.16 47.4345 215.511 47.5834 215.9C47.6902 216.178 47.8542 216.376 48.0755 216.493C48.304 216.606 48.5501 216.667 48.8137 216.675C49.0819 216.673 49.4472 216.651 49.9097 216.607C50.4685 216.552 50.9284 216.535 51.2894 216.556C51.6477 216.57 51.9915 216.678 52.3208 216.879C52.6473 217.073 52.9033 217.412 53.0887 217.895C53.232 218.269 53.268 218.659 53.1967 219.064C53.1254 219.47 52.9349 219.85 52.6254 220.204C52.3158 220.559 51.8973 220.837 51.3699 221.04ZM58.8625 218.161C58.152 218.434 57.4405 218.518 56.7281 218.414C56.0128 218.302 55.3692 218.015 54.7974 217.554C54.23 217.083 53.803 216.473 53.5164 215.726C53.2298 214.979 53.1412 214.243 53.2506 213.521C53.3644 212.787 53.6512 212.143 54.1107 211.589C54.5675 211.026 55.1511 210.609 55.8617 210.336C56.5795 210.06 57.2961 209.978 58.0113 210.09C58.7238 210.194 59.3623 210.479 59.9268 210.943C60.4914 211.407 60.9184 212.016 61.2078 212.771C61.4972 213.525 61.5872 214.264 61.4778 214.987C61.3685 215.71 61.0854 216.353 60.6287 216.915C60.1691 217.47 59.5804 217.885 58.8625 218.161ZM58.5296 217.293C59.0643 217.087 59.4963 216.778 59.8257 216.366C60.1623 215.951 60.363 215.466 60.4277 214.911C60.4997 214.354 60.4191 213.771 60.1859 213.163C59.9499 212.548 59.6202 212.061 59.197 211.702C58.7782 211.334 58.3087 211.106 57.7883 211.02C57.2679 210.935 56.7367 210.996 56.1946 211.204C55.6526 211.412 55.2169 211.723 54.8876 212.135C54.5582 212.547 54.3576 213.032 54.2855 213.589C54.218 214.137 54.3023 214.718 54.5383 215.333C54.7715 215.941 55.0975 216.43 55.5162 216.799C55.9423 217.165 56.4155 217.39 56.9359 217.476C57.4636 217.559 57.9948 217.498 58.5296 217.293ZM67.5003 214.842C66.7897 215.115 66.0782 215.199 65.3658 215.095C64.6505 214.983 64.007 214.696 63.4351 214.235C62.8677 213.764 62.4408 213.154 62.1542 212.407C61.8676 211.66 61.7789 210.925 61.8883 210.202C62.0022 209.469 62.2889 208.825 62.7485 208.27C63.2052 207.707 63.7889 207.29 64.4994 207.017C65.2172 206.741 65.9338 206.659 66.6491 206.771C67.3615 206.875 68 207.16 68.5646 207.624C69.1291 208.088 69.5561 208.697 69.8455 209.452C70.1349 210.206 70.2249 210.945 70.1156 211.668C70.0062 212.391 69.7232 213.034 69.2664 213.596C68.8068 214.151 68.2181 214.566 67.5003 214.842ZM67.1673 213.974C67.702 213.768 68.1341 213.459 68.4634 213.047C68.8 212.632 69.0007 212.147 69.0654 211.593C69.1375 211.035 69.0569 210.453 68.8236 209.844C68.5876 209.229 68.258 208.742 67.8347 208.383C67.416 208.015 66.9464 207.787 66.426 207.701C65.9056 207.616 65.3744 207.677 64.8323 207.885C64.2903 208.093 63.8546 208.404 63.5253 208.816C63.196 209.228 62.9953 209.713 62.9232 210.27C62.8557 210.818 62.94 211.399 63.176 212.014C63.4092 212.623 63.7352 213.111 64.1539 213.48C64.58 213.846 65.0532 214.071 65.5736 214.157C66.1014 214.24 66.6326 214.179 67.1673 213.974ZM78.6576 210.467L77.6578 210.851L71.2971 206.296L73.6363 212.396L72.6364 212.78L69.6945 205.109L70.6944 204.725L77.0508 209.268L74.7159 203.18L75.7157 202.795L78.6576 210.467Z" fill="#666666"/>
<path d="M112.552 221.04C112.046 221.234 111.558 221.321 111.088 221.3C110.622 221.268 110.215 221.139 109.867 220.911C109.517 220.676 109.258 220.351 109.09 219.936L110.156 219.527C110.33 219.872 110.593 220.119 110.945 220.27C111.302 220.41 111.729 220.385 112.227 220.194C112.703 220.011 113.032 219.75 113.213 219.411C113.399 219.062 113.42 218.701 113.276 218.328C113.164 218.035 112.992 217.827 112.761 217.706C112.529 217.585 112.274 217.523 111.996 217.521C111.718 217.518 111.353 217.541 110.9 217.589C110.344 217.651 109.887 217.675 109.529 217.662C109.178 217.645 108.839 217.54 108.513 217.346C108.191 217.142 107.938 216.802 107.756 216.325C107.596 215.908 107.56 215.497 107.649 215.093C107.738 214.689 107.939 214.326 108.252 214.004C108.573 213.679 108.982 213.42 109.481 213.229C110.198 212.953 110.853 212.908 111.445 213.092C112.044 213.274 112.487 213.65 112.773 214.221L111.674 214.643C111.525 214.364 111.273 214.167 110.918 214.051C110.56 213.928 110.157 213.953 109.71 214.124C109.293 214.285 108.994 214.525 108.815 214.847C108.633 215.16 108.616 215.511 108.765 215.9C108.872 216.178 109.036 216.376 109.257 216.493C109.486 216.606 109.732 216.667 109.995 216.675C110.264 216.673 110.629 216.651 111.091 216.607C111.65 216.552 112.11 216.535 112.471 216.556C112.829 216.57 113.173 216.678 113.502 216.879C113.829 217.073 114.085 217.412 114.27 217.895C114.414 218.269 114.45 218.659 114.378 219.064C114.307 219.47 114.117 219.85 113.807 220.204C113.497 220.559 113.079 220.837 112.552 221.04ZM120.044 218.161C119.334 218.434 118.622 218.518 117.91 218.414C117.194 218.302 116.551 218.015 115.979 217.554C115.412 217.083 114.985 216.473 114.698 215.726C114.411 214.979 114.323 214.243 114.432 213.521C114.546 212.787 114.833 212.143 115.292 211.589C115.749 211.026 116.333 210.609 117.043 210.336C117.761 210.06 118.478 209.978 119.193 210.09C119.905 210.194 120.544 210.479 121.108 210.943C121.673 211.407 122.1 212.016 122.389 212.771C122.679 213.525 122.769 214.264 122.659 214.987C122.55 215.71 122.267 216.353 121.81 216.915C121.351 217.47 120.762 217.885 120.044 218.161ZM119.711 217.293C120.246 217.087 120.678 216.778 121.007 216.366C121.344 215.951 121.545 215.466 121.609 214.911C121.681 214.354 121.601 213.771 121.368 213.163C121.132 212.548 120.802 212.061 120.379 211.702C119.96 211.334 119.49 211.106 118.97 211.02C118.45 210.935 117.918 210.996 117.376 211.204C116.834 211.412 116.399 211.723 116.069 212.135C115.74 212.547 115.539 213.032 115.467 213.589C115.4 214.137 115.484 214.718 115.72 215.333C115.953 215.941 116.279 216.43 116.698 216.799C117.124 217.165 117.597 217.39 118.118 217.476C118.645 217.559 119.176 217.498 119.711 217.293ZM128.682 214.842C127.971 215.115 127.26 215.199 126.547 215.095C125.832 214.983 125.189 214.696 124.617 214.235C124.049 213.764 123.622 213.154 123.336 212.407C123.049 211.66 122.961 210.925 123.07 210.202C123.184 209.469 123.471 208.825 123.93 208.27C124.387 207.707 124.97 207.29 125.681 207.017C126.399 206.741 127.115 206.659 127.831 206.771C128.543 206.875 129.182 207.16 129.746 207.624C130.311 208.088 130.738 208.697 131.027 209.452C131.317 210.206 131.407 210.945 131.297 211.668C131.188 212.391 130.905 213.034 130.448 213.596C129.988 214.151 129.4 214.566 128.682 214.842ZM128.349 213.974C128.884 213.768 129.316 213.459 129.645 213.047C129.982 212.632 130.182 212.147 130.247 211.593C130.319 211.035 130.239 210.453 130.005 209.844C129.769 209.229 129.44 208.742 129.016 208.383C128.598 208.015 128.128 207.787 127.608 207.701C127.087 207.616 126.556 207.677 126.014 207.885C125.472 208.093 125.036 208.404 124.707 208.816C124.378 209.228 124.177 209.713 124.105 210.27C124.037 210.818 124.122 211.399 124.358 212.014C124.591 212.623 124.917 213.111 125.336 213.48C125.762 213.846 126.235 214.071 126.755 214.157C127.283 214.24 127.814 214.179 128.349 213.974ZM139.839 210.467L138.839 210.851L132.479 206.296L134.818 212.396L133.818 212.78L130.876 205.109L131.876 204.725L138.232 209.268L135.898 203.18L136.897 202.795L139.839 210.467Z" fill="#666666"/>
<path d="M172.827 221.04C172.322 221.234 171.834 221.321 171.363 221.3C170.898 221.268 170.491 221.139 170.143 220.911C169.792 220.676 169.533 220.351 169.365 219.936L170.431 219.527C170.606 219.872 170.869 220.119 171.221 220.27C171.577 220.41 172.004 220.385 172.502 220.194C172.979 220.011 173.307 219.75 173.488 219.411C173.674 219.062 173.695 218.701 173.552 218.328C173.439 218.035 173.267 217.827 173.036 217.706C172.805 217.585 172.55 217.523 172.272 217.521C171.993 217.518 171.628 217.541 171.176 217.589C170.62 217.651 170.163 217.675 169.804 217.662C169.453 217.645 169.115 217.54 168.788 217.346C168.466 217.142 168.214 216.802 168.031 216.325C167.871 215.908 167.835 215.497 167.924 215.093C168.013 214.689 168.214 214.326 168.528 214.004C168.848 213.679 169.258 213.42 169.756 213.229C170.474 212.953 171.129 212.908 171.72 213.092C172.32 213.274 172.762 213.65 173.049 214.221L171.95 214.643C171.801 214.364 171.549 214.167 171.193 214.051C170.835 213.928 170.433 213.953 169.986 214.124C169.568 214.285 169.27 214.525 169.09 214.847C168.908 215.16 168.892 215.511 169.04 215.9C169.147 216.178 169.311 216.376 169.532 216.493C169.761 216.606 170.007 216.667 170.271 216.675C170.539 216.673 170.904 216.651 171.367 216.607C171.926 216.552 172.385 216.535 172.746 216.556C173.105 216.57 173.448 216.678 173.778 216.879C174.104 217.073 174.36 217.412 174.546 217.895C174.689 218.269 174.725 218.659 174.654 219.064C174.582 219.47 174.392 219.85 174.082 220.204C173.773 220.559 173.354 220.837 172.827 221.04ZM180.32 218.161C179.609 218.434 178.898 218.518 178.185 218.414C177.47 218.302 176.826 218.015 176.254 217.554C175.687 217.083 175.26 216.473 174.973 215.726C174.687 214.979 174.598 214.243 174.708 213.521C174.821 212.787 175.108 212.143 175.568 211.589C176.025 211.026 176.608 210.609 177.319 210.336C178.037 210.06 178.753 209.978 179.468 210.09C180.181 210.194 180.819 210.479 181.384 210.943C181.948 211.407 182.375 212.016 182.665 212.771C182.954 213.525 183.044 214.264 182.935 214.987C182.826 215.71 182.542 216.353 182.086 216.915C181.626 217.47 181.037 217.885 180.32 218.161ZM179.987 217.293C180.521 217.087 180.953 216.778 181.283 216.366C181.619 215.951 181.82 215.466 181.885 214.911C181.957 214.354 181.876 213.771 181.643 213.163C181.407 212.548 181.077 212.061 180.654 211.702C180.235 211.334 179.766 211.106 179.245 211.02C178.725 210.935 178.194 210.996 177.652 211.204C177.11 211.412 176.674 211.723 176.345 212.135C176.015 212.547 175.815 213.032 175.743 213.589C175.675 214.137 175.759 214.718 175.995 215.333C176.229 215.941 176.555 216.43 176.973 216.799C177.399 217.165 177.873 217.39 178.393 217.476C178.921 217.559 179.452 217.498 179.987 217.293ZM188.957 214.842C188.247 215.115 187.535 215.199 186.823 215.095C186.108 214.983 185.464 214.696 184.892 214.235C184.325 213.764 183.898 213.154 183.611 212.407C183.325 211.66 183.236 210.925 183.345 210.202C183.459 209.469 183.746 208.825 184.205 208.27C184.662 207.707 185.246 207.29 185.956 207.017C186.674 206.741 187.391 206.659 188.106 206.771C188.819 206.875 189.457 207.16 190.022 207.624C190.586 208.088 191.013 208.697 191.303 209.452C191.592 210.206 191.682 210.945 191.573 211.668C191.463 212.391 191.18 213.034 190.723 213.596C190.264 214.151 189.675 214.566 188.957 214.842ZM188.624 213.974C189.159 213.768 189.591 213.459 189.92 213.047C190.257 212.632 190.458 212.147 190.522 211.593C190.594 211.035 190.514 210.453 190.281 209.844C190.045 209.229 189.715 208.742 189.292 208.383C188.873 208.015 188.403 207.787 187.883 207.701C187.363 207.616 186.831 207.677 186.289 207.885C185.747 208.093 185.312 208.404 184.982 208.816C184.653 209.228 184.452 209.713 184.38 210.27C184.313 210.818 184.397 211.399 184.633 212.014C184.866 212.623 185.192 213.111 185.611 213.48C186.037 213.846 186.51 214.071 187.031 214.157C187.558 214.24 188.09 214.179 188.624 213.974ZM200.115 210.467L199.115 210.851L192.754 206.296L195.093 212.396L194.093 212.78L191.152 205.109L192.151 204.725L198.508 209.268L196.173 203.18L197.173 202.795L200.115 210.467Z" fill="#666666"/>
</g>
</svg>
