<svg width="100%" height="100%" viewBox="0 0 30 30" fill="inherit" xmlns="http://www.w3.org/2000/svg">
<path d="M1.77951 15.4521C1.77951 15.4521 14.6169 10.1836 19.0691 8.32846C20.7758 7.58646 26.5637 5.21186 26.5637 5.21186C26.5637 5.21186 29.2351 4.17306 29.0125 6.69596C28.9382 7.73486 28.3446 11.3708 27.751 15.3037C26.8605 20.869 25.8959 26.9537 25.8959 26.9537C25.8959 26.9537 25.7475 28.6605 24.486 28.9573C23.2246 29.2541 21.1468 27.9185 20.7758 27.6216C20.4789 27.399 15.2105 24.0598 13.2812 22.4273C12.7617 21.9821 12.1681 21.0917 13.3553 20.0528C16.0267 17.604 19.2175 14.5617 21.1468 12.6324C22.0373 11.7419 22.9277 9.66416 19.2175 12.1871C13.949 15.8231 8.75471 19.2365 8.75471 19.2365C8.75471 19.2365 7.56741 19.9785 5.34131 19.3107C3.11511 18.6429 0.517961 17.7524 0.517961 17.7524C0.517961 17.7524 -1.26284 16.6394 1.77951 15.4521Z" fill="inherit"/>
</svg>
