<svg width="119" height="119" viewBox="0 0 119 119" fill="none" xmlns="http://www.w3.org/2000/svg">
<g clip-path="url(#clip0_397_2196)">
<path d="M59.75 99.1191C81.5652 99.1191 99.25 81.4344 99.25 59.6191C99.25 37.8039 81.5652 20.1191 59.75 20.1191C37.9348 20.1191 20.25 37.8039 20.25 59.6191C20.25 81.4344 37.9348 99.1191 59.75 99.1191Z" fill="#05AAFF"/>
<path d="M36.6899 59.2766C36.6899 59.2766 56.4399 51.1712 63.2895 48.3171C65.9153 47.1755 74.8199 43.5222 74.8199 43.5222C74.8199 43.5222 78.9298 41.9241 78.5872 45.8055C78.473 47.4038 77.5597 52.9976 76.6465 59.0483C75.2765 67.6104 73.7924 76.9716 73.7924 76.9716C73.7924 76.9716 73.5641 79.5974 71.6234 80.054C69.6827 80.5107 66.486 78.4559 65.9153 77.9991C65.4585 77.6567 57.3531 72.5193 54.3849 70.0078C53.5858 69.3228 52.6725 67.953 54.499 66.3546C58.6089 62.5873 63.5178 57.9067 66.486 54.9385C67.856 53.5685 69.2259 50.372 63.5178 54.2534C55.4124 59.8474 47.4211 65.0989 47.4211 65.0989C47.4211 65.0989 45.5945 66.2404 42.1696 65.2129C38.7447 64.1856 34.749 62.8156 34.749 62.8156C34.749 62.8156 32.0093 61.1032 36.6899 59.2766Z" fill="white"/>
</g>
<defs>
<clipPath id="clip0_397_2196">
<rect width="79" height="79" fill="white" transform="translate(20.25 20.1191)"/>
</clipPath>
</defs>
</svg>
