<svg width="100%" height="100%" viewBox="0 0 37 36" fill="inherit" xmlns="http://www.w3.org/2000/svg">
<g clip-path="url(#clip0_928_25979)">
<path d="M18.75 0C8.8245 0 0.75 8.0745 0.75 18C0.75 27.9255 8.8245 36 18.75 36C28.6755 36 36.75 27.9255 36.75 18C36.75 8.0745 28.6755 0 18.75 0ZM18.75 34.5C9.6525 34.5 2.25 27.0975 2.25 18C2.25 8.9025 9.6525 1.5 18.75 1.5C27.8475 1.5 35.25 8.9025 35.25 18C35.25 27.0975 27.8475 34.5 18.75 34.5ZM24.75 21.561C24.75 23.733 22.983 25.5 20.811 25.5H19.5V27.75C19.5 28.164 19.164 28.5 18.75 28.5C18.336 28.5 18 28.164 18 27.75V25.5H16.611C15.1425 25.5 13.7715 24.711 13.038 23.4375C12.8295 23.079 12.9525 22.62 13.3125 22.413C13.6695 22.203 14.1285 22.3275 14.337 22.6875C14.805 23.4975 15.678 24 16.6125 24H20.8125C22.1565 24 23.2515 22.9065 23.2515 21.561C23.2515 20.3565 22.389 19.344 21.1995 19.1535L16.0665 18.3285C14.1465 18.0195 12.7515 16.3845 12.7515 14.439C12.7515 12.267 14.5185 10.5 16.6905 10.5H18.0015V8.25C18.0015 7.836 18.3375 7.5 18.7515 7.5C19.1655 7.5 19.5015 7.836 19.5015 8.25V10.5H20.8905C22.359 10.5 23.7285 11.2905 24.4635 12.5625C24.672 12.921 24.549 13.38 24.189 13.587C23.835 13.791 23.3715 13.6725 23.1645 13.3125C22.6965 12.5025 21.8235 12 20.889 12H16.689C15.345 12 14.25 13.0935 14.25 14.439C14.25 15.6435 15.1125 16.656 16.302 16.8465L21.435 17.6715C23.355 17.9805 24.75 19.617 24.75 21.561Z" fill="inherit"/>
</g>
<defs>
<clipPath id="clip0_928_25979">
<rect width="36" height="36" fill="white" transform="translate(0.75)"/>
</clipPath>
</defs>
</svg>
