<svg width="100%" height="100%" viewBox="0 0 24 24" fill="inherit" xmlns="http://www.w3.org/2000/svg">
<g id="Wallet " clip-path="url(#clip0_8_12134)">
<path id="Vector" d="M21.5 6H4.5C3.354 6 2.279 5.433 1.628 4.501C2.262 3.594 3.313 3 4.5 3H23.5C23.776 3 24 2.776 24 2.5C24 2.224 23.776 2 23.5 2H4.5C2.015 2 0 4.015 0 6.5V17.5C0 19.985 2.015 22 4.5 22H21.5C22.881 22 24 20.881 24 19.5V8.5C24 7.119 22.881 6 21.5 6ZM23 19.5C23 20.327 22.327 21 21.5 21H4.5C2.57 21 1 19.43 1 17.5V6.5C1 6.152 1.051 5.816 1.146 5.499C1.992 6.441 3.21 7 4.5 7H21.5C22.327 7 23 7.673 23 8.5V19.5ZM21 14C21 14.552 20.552 15 20 15C19.448 15 19 14.552 19 14C19 13.448 19.448 13 20 13C20.552 13 21 13.448 21 14Z" fill="inherit"/>
</g>
<defs>
<clipPath id="clip0_8_12134">
<rect width="24" height="24" fill="inherit"/>
</clipPath>
</defs>
</svg>
