<svg width="100%" height="100%" viewBox="0 0 160 16" fill="inherit" xmlns="http://www.w3.org/2000/svg">
<g id="WowMax logo">
<path id="WowMax logo_2" fill-rule="evenodd" clip-rule="evenodd" d="M42.1996 9.63291C41.1501 10.7344 39.8147 11.2852 38.1937 11.2852C36.5726 11.2852 35.2425 10.7396 34.2034 9.64849C34.1323 9.57315 34.0637 9.49677 33.9975 9.41933C33.9477 9.70737 33.9227 10.0072 33.9227 10.3189V10.3501C33.9227 11.6074 34.3229 12.6674 35.123 13.5298C35.9335 14.3924 36.9571 14.8236 38.1937 14.8236C39.4303 14.8236 40.4538 14.3872 41.2643 13.5142C42.0853 12.6413 42.4958 11.5763 42.4958 10.3189V10.2877C42.4958 9.97509 42.4707 9.67468 42.4206 9.38646C42.3498 9.46977 42.2761 9.55192 42.1996 9.63291ZM41.9247 7.98074C41.7499 7.67026 41.535 7.37931 41.2799 7.10793C40.4798 6.24543 39.4614 5.81419 38.2249 5.81419C36.9882 5.81419 35.9595 6.25062 35.1386 7.12351C34.8901 7.39117 34.6796 7.67692 34.5073 7.98074C34.6796 8.28455 34.8901 8.57029 35.1386 8.83795C35.9595 9.71084 36.9882 10.1473 38.2249 10.1473C39.4614 10.1473 40.4798 9.71604 41.2799 8.85354C41.535 8.58216 41.7499 8.29122 41.9247 7.98074ZM32.6447 5.67375C32.6447 6.50753 32.7953 7.27653 33.0967 7.98073C32.7953 8.68494 32.6447 9.45393 32.6447 10.2877V10.3189C32.6447 11.8672 33.1694 13.1921 34.2189 14.2936C35.2684 15.4055 36.6038 15.9615 38.2249 15.9615C39.846 15.9615 41.1761 15.4107 42.2151 14.3093C43.2543 13.2182 43.7739 11.8984 43.7739 10.3501V10.3189C43.7739 9.47462 43.6179 8.69524 43.3058 7.98074C43.6179 7.26623 43.7739 6.48684 43.7739 5.64257V5.6114C43.7739 4.06307 43.2543 2.74335 42.2151 1.65225C41.1761 0.550749 39.846 0 38.2249 0C36.6038 0 35.2684 0.555945 34.2189 1.66783C33.1694 2.76934 32.6447 4.09424 32.6447 5.64257V5.67375ZM42.4206 6.57501C42.4707 6.28679 42.4958 5.98637 42.4958 5.67375V5.64257C42.4958 4.3852 42.0853 3.32008 41.2643 2.4472C40.4538 1.57431 39.4303 1.13787 38.1937 1.13787C36.9571 1.13787 35.9335 1.56911 35.123 2.43161C34.3229 3.2941 33.9227 4.35403 33.9227 5.6114V5.64257C33.9227 5.95424 33.9477 6.25409 33.9975 6.54214C34.0637 6.4647 34.1323 6.38832 34.2034 6.31298C35.2425 5.22186 36.5726 4.67632 38.1937 4.67632C39.8147 4.67632 41.1501 5.22706 42.1996 6.32857C42.2761 6.40955 42.3498 6.4917 42.4206 6.57501ZM0 0.187933L2.76336 7.98056L0 15.7732H1.3405L3.39894 9.77288L3.89681 11.1769H4.92557L5.43747 9.67035L7.45069 15.8044H8.46386L10.4477 9.75995L10.9267 11.1769H11.971L12.4927 9.70587L14.574 15.7732H15.8677L13.1045 7.98056L15.8677 0.187933H14.574L12.4927 6.25526L11.971 4.78422H10.9267L10.4477 6.20117L8.46386 0.15676H7.45069L5.43747 6.29077L4.92557 4.78422H3.89681L3.39893 6.18825L1.3405 0.187933H0ZM6.01164 7.98056L7.9339 13.6378L9.84621 7.98056L7.9339 2.32339L6.01164 7.98056ZM11.9008 7.98058L11.4567 6.68586L11.0317 7.98057L11.4567 9.27529L11.9008 7.98058ZM4.88287 7.98057L4.45794 6.68586L4.01379 7.98058L4.45794 9.27529L4.88287 7.98057ZM64.4497 11.1769L63.9519 9.77282L61.8934 15.7732H60.5529L63.3163 7.98056L60.5529 0.187933H61.8934L63.9518 6.18831L64.4497 4.78422H65.4785L65.9904 6.29072L68.0036 0.15676H69.0167L71.0006 6.20119L71.4796 4.78422H72.5239L73.0456 6.25525L75.1269 0.187933H76.4207L73.6574 7.98056L76.4207 15.7732H75.1269L73.0456 9.70588L72.5239 11.1769H71.4796L71.0006 9.75993L69.0167 15.8044H68.0036L65.9904 9.6704L65.4785 11.1769H64.4497ZM65.4358 7.98057L65.0109 6.68586L64.5667 7.98058L65.0109 9.27529L65.4358 7.98057ZM71.5846 7.98057L72.0096 9.27529L72.4537 7.98058L72.0096 6.68586L71.5846 7.98057ZM70.3991 7.98056L68.4868 2.32339L66.5646 7.98056L68.4868 13.6378L70.3991 7.98056ZM103.456 13.7016L99.5656 7.98099L103.456 2.2604V4.86362V11.0984V13.7016ZM99.3334 7.98099L95.4438 13.686V11.0984V4.86362V2.27598L99.3334 7.98099ZM99.4652 9.82035L103.44 15.7747H104.687V11.0984V4.86362V0.187297H103.44L99.4652 6.14161L95.4905 0.187297H94.2435V4.86362V11.0984V15.7747H95.4905L99.4652 9.82035ZM122.428 11.099L123.839 7.9813L122.428 4.86362H123.691L124.467 6.59386L127.401 0.109935H128.554L131.461 6.53425L132.201 4.86362H133.526L132.116 7.9813L133.526 11.099H132.201L131.461 9.42833L128.554 15.8527H127.401L124.467 9.36871L123.691 11.099H122.428ZM127.962 1.54396L125.467 7.1086H130.44L127.962 1.54396ZM155.075 4.67642L158.41 0.187297H159.844L155.823 5.53371L156.937 7.0179L158.535 4.86362H160L157.66 7.98099L160 11.0984H158.535L156.937 8.94409L155.823 10.4283L159.844 15.7747H158.41L155.075 11.2856L151.739 15.7747H150.289L154.31 10.4283L153.173 8.91267L151.551 11.0984H150.133L152.473 7.98099L150.133 4.86362H151.551L153.173 7.04931L154.31 5.53371L150.289 0.187297H151.739L155.075 4.67642ZM153.864 7.981L155.044 9.57096L156.223 7.981L155.044 6.39102L153.864 7.981ZM127.962 14.4186L125.467 8.85395H130.44L127.962 14.4186Z" fill="inherit"/>
</g>
</svg>
