<svg width="100%" height="100%" viewBox="0 0 170 17" fill="none" xmlns="http://www.w3.org/2000/svg">
<g id="WowMax logo">
<path id="WowMax logo_2" fill-rule="evenodd" clip-rule="evenodd" d="M44.8371 10.235C43.722 11.4053 42.3032 11.9905 40.5808 11.9905C38.8584 11.9905 37.4452 11.4108 36.3411 10.2515C36.2656 10.1715 36.1927 10.0903 36.1223 10.008C36.0694 10.3141 36.0429 10.6327 36.0429 10.9638V10.9969C36.0429 12.3329 36.4681 13.4591 37.3182 14.3754C38.1794 15.2919 39.267 15.7501 40.5808 15.7501C41.8947 15.7501 42.9821 15.2864 43.8433 14.3589C44.7156 13.4314 45.1518 12.2998 45.1518 10.9638V10.9307C45.1518 10.5985 45.1252 10.2793 45.0719 9.97312C44.9966 10.0616 44.9183 10.1489 44.8371 10.235ZM44.545 8.47953C44.3593 8.14965 44.1309 7.84052 43.8599 7.55217C43.0098 6.63577 41.9278 6.17757 40.6139 6.17757C39.3 6.17757 38.207 6.64129 37.3348 7.56873C37.0707 7.85312 36.8471 8.15673 36.664 8.47953C36.8471 8.80234 37.0707 9.10593 37.3348 9.39033C38.207 10.3178 39.3 10.7815 40.6139 10.7815C41.9278 10.7815 43.0098 10.3233 43.8599 9.40689C44.1309 9.11854 44.3593 8.80942 44.545 8.47953ZM34.6849 6.02836C34.6849 6.91425 34.845 7.73131 35.1652 8.47953C34.845 9.22775 34.6849 10.0448 34.6849 10.9307V10.9638C34.6849 12.6089 35.2425 14.0166 36.3576 15.187C37.4727 16.3684 38.8915 16.959 40.6139 16.959C42.3363 16.959 43.7496 16.3739 44.8536 15.2036C45.9577 14.0443 46.5098 12.6421 46.5098 10.9969V10.9638C46.5098 10.0668 46.344 9.23869 46.0125 8.47953C46.344 7.72037 46.5098 6.89227 46.5098 5.99523V5.96212C46.5098 4.31701 45.9577 2.91481 44.8536 1.75551C43.7496 0.585171 42.3363 0 40.6139 0C38.8915 0 37.4727 0.590692 36.3576 1.77207C35.2425 2.94242 34.6849 4.35013 34.6849 5.99523V6.02836ZM45.0719 6.98595C45.1252 6.67972 45.1518 6.36052 45.1518 6.02836V5.99523C45.1518 4.65928 44.7156 3.52759 43.8433 2.60015C42.9821 1.67271 41.8947 1.20898 40.5808 1.20898C39.267 1.20898 38.1794 1.66718 37.3182 2.58358C36.4681 3.49998 36.0429 4.62615 36.0429 5.96212V5.99523C36.0429 6.32638 36.0694 6.64498 36.1223 6.95102C36.1927 6.86875 36.2656 6.78759 36.3411 6.70754C37.4452 5.54823 38.8584 4.96859 40.5808 4.96859C42.3032 4.96859 43.722 5.55376 44.8371 6.7241C44.9183 6.81015 44.9966 6.89744 45.0719 6.98595ZM0 0.199679L2.93607 8.47934L0 16.7591H1.42428L3.61137 10.3837L4.14036 11.8754H5.23342L5.77731 10.2747L7.91635 16.7921H8.99285L11.1007 10.37L11.6096 11.8754H12.7192L13.2734 10.3125L15.4849 16.7591H16.8595L13.9235 8.47934L16.8595 0.199679H15.4849L13.2735 6.64621L12.7192 5.08323H11.6096L11.1007 6.58874L8.99285 0.166557H7.91635L5.77732 6.68394L5.23342 5.08323H4.14036L3.61136 6.57502L1.42428 0.199679H0ZM6.38737 8.47935L8.42977 14.4901L10.4616 8.47935L8.42977 2.4686L6.38737 8.47935ZM12.6446 8.47936L12.1727 7.10373L11.7212 8.47936L12.1727 9.85499L12.6446 8.47936ZM5.18805 8.47936L4.73656 7.10373L4.26465 8.47936L4.73656 9.85499L5.18805 8.47936ZM68.4779 11.8754L67.9488 10.3836L65.7617 16.7591H64.3375L67.2736 8.47934L64.3375 0.199679H65.7617L67.9488 6.57509L68.4779 5.08323H69.5709L70.1148 6.68388L72.2538 0.166557H73.3303L75.4381 6.58876L75.947 5.08323H77.0567L77.6109 6.64619L79.8224 0.199679H81.197L78.261 8.47934L81.197 16.7591H79.8224L77.6109 10.3125L77.0567 11.8754H75.947L75.4381 10.3699L73.3303 16.7921H72.2538L70.1148 10.2748L69.5709 11.8754H68.4779ZM69.5255 8.47936L69.074 7.10373L68.6021 8.47936L69.074 9.85499L69.5255 8.47936ZM76.0586 8.47936L76.5101 9.85499L76.982 8.47936L76.5101 7.10373L76.0586 8.47936ZM74.7991 8.47935L72.7673 2.4686L70.7249 8.47935L72.7673 14.4901L74.7991 8.47935ZM109.921 14.5579L105.788 8.4798L109.921 2.40167V5.16759V11.7921V14.5579ZM105.542 8.4798L101.409 14.5413V11.7921V5.16759V2.41823L105.542 8.4798ZM105.682 10.4341L109.905 16.7606H111.23V11.7921V5.16759V0.199003H109.905L105.682 6.52546L101.459 0.199003H100.134V5.16759V11.7921V16.7606H101.459L105.682 10.4341ZM130.08 11.7927L131.579 8.48013L130.08 5.16759H131.422L132.246 7.00598L135.363 0.116806H136.588L139.677 6.94263L140.464 5.16759H141.872L140.373 8.48013L141.872 11.7927H140.464L139.677 10.0176L136.588 16.8434H135.363L132.246 9.95426L131.422 11.7927H130.08ZM135.959 1.64046L133.309 7.55289H138.592L135.959 1.64046ZM164.767 4.96869L168.311 0.199003H169.834L165.562 5.87957L166.746 7.45653L168.443 5.16759H170L167.514 8.47981L170 11.7921H168.443L166.746 9.50309L165.562 11.08L169.834 16.7606H168.311L164.767 11.9909L161.222 16.7606H159.683L163.955 11.08L162.746 9.46972L161.023 11.7921H159.517L162.003 8.47981L159.517 5.16759H161.023L162.746 7.4899L163.955 5.87957L159.683 0.199003H161.222L164.767 4.96869ZM163.48 8.47981L164.734 10.1691L165.987 8.47981L164.734 6.79045L163.48 8.47981ZM135.959 15.3197L133.309 9.40732H138.592L135.959 15.3197Z" fill="url(#paint0_linear_8_11990)"/>
</g>
<defs>
<linearGradient id="paint0_linear_8_11990" x1="0" y1="8.47952" x2="170" y2="8.47952" gradientUnits="userSpaceOnUse">
<stop stop-color="#05AAFF"/>
<stop offset="1" stop-color="#852EFF"/>
</linearGradient>
</defs>
</svg>
